<svg version="1.1" xmlns="http://www.w3.org/2000/svg" xmlns:xlink="http://www.w3.org/1999/xlink" width="154.69349" height="237.97906" viewBox="0,0,154.69349,237.97906"><g transform="translate(-165.14527,-51.55309)"><g data-paper-data="{&quot;isPaintingLayer&quot;:true}" fill-rule="nonzero" stroke="none" stroke-width="0.5" stroke-linecap="butt" stroke-linejoin="miter" stroke-miterlimit="10" stroke-dasharray="" stroke-dashoffset="0" style="mix-blend-mode: normal"><path d="M230.26877,145.75c-0.01877,-0.15416 -0.01877,-0.25 -0.01877,-0.25c0.00884,-1.99424 -0.1806,-4.32344 0.79582,-6.17964c1.21205,-2.30415 4.16544,-4.23672 5.71742,-6.33784c2.06359,-2.79377 1.69067,-5.62982 3.17706,-8.43923c1.23564,-2.33545 4.27112,-7.60668 8.34823,-4.0138c1.28846,1.13543 2.52773,8.84962 3.23755,10.82099c1.16952,3.24806 3.0294,6.92898 4.49187,10.09765c0.87295,1.8914 2.59722,4.65941 2.71989,6.80552c0.0994,1.73911 -0.44656,3.45517 -0.66983,5.18276c-2.21479,3.1231 -4.63285,6.22375 -5.95332,9.87493c-0.78745,2.17735 -1.60838,5.81304 -3.27758,7.56489c-1.2369,1.29814 -2.60303,3.21744 -4.39257,3.10504c-0.38212,-0.024 -4.25026,-4.63684 -4.87395,-5.75645c-0.86825,-1.55864 -1.34398,-3.34022 -2.37317,-4.79761c-0.55282,-0.78283 -3.85719,-4.66379 -4.16891,-5.28048c-1.31808,-2.60767 -2.19065,-6.51349 -2.76635,-9.40038l-0.01217,-2.74635c0,0 0,-0.09584 0.01877,-0.25zM235.23124,145.75c0.01877,0.15416 0.01877,0.25 0.01877,0.25l-0.01217,2.25366c0.46426,2.31145 1.21048,5.52407 2.23365,7.59962c1.33978,2.71777 4.10195,4.7311 5.51812,7.53582c0.25208,0.49925 1.43878,2.25456 2.01182,3.7038c0.52653,-1.07696 1.47415,-2.00504 1.96631,-3.11332c0.31503,-0.70941 0.15108,-1.56187 0.41758,-2.29091c1.35897,-3.7176 3.55253,-7.09408 6.04669,-10.12508c0.5269,-4.4959 -1.78166,-7.50532 -3.4917,-11.60687c-2.15016,-5.15721 -4.53888,-9.74783 -4.72883,-15.48619c-0.02305,-0.69642 -0.43888,1.32271 -0.65177,1.98619c-0.58757,1.83124 -0.71659,3.81982 -1.52743,5.56372c-1.88885,4.06235 -5.38926,6.07988 -7.57808,9.65922c-0.3287,0.53751 -0.20556,3.56651 -0.20418,3.82036c0,0 0,0.09584 -0.01877,0.25z" fill="#ff8c35"/><path d="M244.43019,258.67548c6.10913,-2.41093 12.16987,-4.80793 18.20616,-7.48919c4.51162,-1.68901 10.18516,-5.67428 14.86687,-5.07305c0.31738,0.04076 -0.68138,-0.19151 -0.83613,-0.47158c-0.39227,-0.70995 -0.28134,-1.63898 -0.71037,-2.32734c-0.456,-0.73162 -1.35474,-1.09845 -1.86014,-1.79685c-2.63124,-3.63604 -4.55728,-8.26326 -6.65189,-12.22039c-5.613,-10.604 -12.25226,-20.49936 -17.62223,-31.23013c-0.28501,-0.64417 -0.55043,-1.2963 -0.80193,-1.95401c0.00898,1.47126 0.02306,2.91639 0.06185,4.31768c0.1278,4.617 0.26774,9.33676 0.49786,13.94483c0.16512,3.30657 0.9893,7.06646 0.48438,10.43c-1.30684,8.70537 -2.56743,17.41541 -4.01529,26.10554c-0.28509,1.67941 -0.47231,3.38558 -0.46598,5.089l-0.76393,2.11803c0,0 -0.12974,0.25948 -0.38922,0.55746zM251.45252,187.70188c0.92174,2.75817 1.70562,5.57592 2.8917,8.23116c4.15539,8.31856 9.3229,15.79395 13.91961,23.84407c2.88009,5.04382 5.31008,10.40508 8.02369,15.54325c1.74113,3.29679 4.53568,5.22161 5.21207,9.03797c0.2636,1.48729 0.95367,3.2409 0.16387,4.52842c-0.72366,1.17971 -2.58083,1.0005 -3.86776,1.50961c-4.45607,1.76282 -8.77841,3.73197 -13.26537,5.41734c-6.48119,2.88223 -12.92079,5.52875 -19.54068,8.01623c-1.21614,0.45697 -2.24509,1.48399 -3.53457,1.64227c-5.22198,0.641 -7.82621,-3.52857 -10.76037,-6.8342c-2.72355,-3.06835 -5.99338,-5.48035 -8.87913,-8.37024c-2.58797,-2.59169 -4.43819,-5.44836 -7,-8c-2.4479,-2.43819 -7.36325,-5.78393 -7.72425,-9.56808c-0.12924,-1.35479 0.85707,-2.58342 1.2856,-3.87514c4.13641,-6.09684 8.81069,-11.83436 13.16822,-17.7722c1.6112,-2.19552 2.02917,-4.1398 3.31993,-6.70529c2.26351,-4.4989 5.04758,-8.83562 7.57376,-13.132c3.45033,-5.86811 5.10763,-13.028 7.85998,-19.2304c0,0 0.96044,-2.16099 3.11484,-1.34537c0.44266,-0.39748 1.02794,-0.63929 1.66969,-0.63929c1.38071,0 2.5,1.11929 2.5,2.5v2.65356c0.0255,4.71979 2.39825,8.14677 3.86918,12.54832zM242.48029,259.54061c-0.30793,-0.02702 -0.64625,-0.12018 -1.01499,-0.30454c-2.23607,-1.11804 -1.11804,-3.35411 -1.11804,-3.35411l0.23607,0.11803c0.00623,-1.97834 0.21389,-3.95871 0.53401,-5.911c1.43917,-8.63204 2.61781,-17.25456 3.98472,-25.89446c0.47574,-3.00709 -0.3709,-6.66485 -0.51562,-9.57c-0.31502,-6.32389 -0.29009,-12.69441 -0.50106,-19.02343c-0.14882,-4.46442 -0.72974,-8.96369 -1.08979,-13.41542c-0.06451,-0.79763 -0.26423,-1.60901 -0.40816,-2.41473c-1.74375,4.77791 -3.35488,9.68907 -5.85959,14.01399c-2.44492,4.2217 -5.23145,8.44881 -7.42624,12.868c-1.6764,3.3754 -1.66087,4.49555 -3.68006,7.29471c-4.18615,5.80315 -8.78276,11.32764 -12.83178,17.2278c-1.60927,2.53386 3.79097,5.77987 5.56134,7.55678c1.56438,1.57014 2.74895,3.47817 4.16559,5.18279c3.54299,4.26326 8.272,7.30883 11.95528,11.44696c1.26466,1.42083 3.67409,5.80966 6.23962,5.1658c0.65548,-0.1645 1.19309,-0.61777 1.7687,-0.98718z" fill="#3a54ff"/><path d="M207.26244,196.04518c-2.22806,0.68436 -3.85247,1.74394 -5.53362,3.98266c-0.83423,1.1109 -1.42989,2.41908 -2.42132,3.39227c-0.44109,0.43297 -2.30001,0.44997 -1.72569,0.6784c0.63714,0.25341 1.29354,-0.49258 1.97366,-0.57978c0.20023,-0.02567 5.68664,-0.01874 5.69454,-0.01873c1.78064,0.00262 3.55049,-0.27726 5.32636,-0.40753c0.33954,-0.0249 0.92256,0.48544 1.00933,0.15624c0.13168,-0.49958 -0.41798,-0.94794 -0.68391,-1.39088c-1.17666,-1.95989 -2.45456,-3.85774 -3.63934,-5.81265zM211.69934,193.70464c2.12928,3.31386 6.20723,7.83648 4.21497,12.04665c-0.64672,1.36669 -2.57145,1.63479 -3.99067,2.15624c-2.93967,1.08006 -6.61203,0.60156 -9.67364,0.59247c-1.10183,-0.00328 -2.24401,0.27684 -3.30546,-0.01873c-2.10502,-0.58615 -5.08904,-0.60592 -6.02634,-2.57978c-0.82748,-1.74258 1.35314,-3.62667 2.27431,-5.3216c3.10324,-5.70984 7.25217,-8.7329 13.56721,-10.03134c0,0 2.45145,-0.49029 2.94174,1.96116c0.09314,0.46573 0.08012,0.86068 -0.00211,1.19493z" fill="#ff913d"/><path d="M279.66312,191.8617c-1.25317,0.25895 -2.5788,0.57264 -3.44252,0.94219c-1.0865,0.46488 -1.96819,1.34836 -3.06963,1.77467c2.89692,1.02822 5.67525,3.79728 8.30205,5.22992c0.80144,0.4371 1.54877,0.96775 2.34161,1.42024c0.54273,0.30974 1.93767,1.53046 1.56907,1.02586c-1.40305,-1.92076 -1.14778,-4.00262 -2.29313,-6.02976c-0.86831,-1.53682 -2.16994,-2.78482 -3.27276,-4.16308zM283.76387,189.01513c0.60397,0.75075 3.25518,4.0126 3.66555,4.76006c1.27762,2.32712 1.21764,3.15855 1.73684,5.58315c0.7763,3.62524 2.77649,6.21757 -3.01579,7.60939c-1.49196,0.35851 -3.01593,-0.63789 -4.4451,-1.19644c-3.0249,-1.1822 -5.8433,-3.36494 -8.43099,-5.25323c-1.04496,-0.76253 -2.35992,-1.20358 -3.21383,-2.1753c-1.1947,-1.35953 -2.86282,-2.84916 -2.79064,-4.6576c0.07549,-1.8911 5.83531,-4.98516 7.00949,-5.48904c1.50927,-0.64767 3.52168,-1.06448 5.31417,-1.4175c0.64965,-0.36381 1.22544,-0.39291 1.70454,-0.26983c0.75092,0.0093 2.05948,0.2816 2.40334,2.00093c0.03574,0.17871 0.05585,0.34698 0.06241,0.50541z" fill="#ff913d"/><path d="M219.25,256.5c1.53465,0 2.12724,0.94205 2.35606,1.66959c1.59814,1.29465 3.07809,2.73793 4.53257,4.19241c2.28643,3.04531 7.93169,9.8545 5.18153,14.03957c-0.80226,1.22085 -2.52063,1.51506 -3.89653,2.00596c-4.06719,1.45112 -9.48109,1.47231 -13.77319,2.06019c-1.10256,0.15102 -2.24663,0.8563 -3.30091,0.5c-2.01385,-0.68059 -4.26645,-1.61823 -5.37494,-3.43207c-0.79656,-1.30343 -0.00293,-3.1113 0.49313,-4.55607c0.98117,-2.85762 2.22593,-2.47822 4.0145,-4.24734c2.76799,-2.73789 4.88493,-5.74938 7.80134,-8.39829l-0.53358,-1.33395c0,0 0,-2.5 2.5,-2.5zM220.68079,263.99714c-2.92631,2.60461 -4.92714,5.5087 -7.66302,8.27062c-0.58646,0.59204 -1.38734,0.93512 -2,1.5c-0.39059,0.36014 -0.6346,0.85375 -0.9855,1.25266c-0.14834,0.16864 -0.6734,0.29323 -0.50687,0.44393c1.30085,1.17714 1.98156,0.3035 3.32415,0.06792c3.47869,-0.6104 7.04109,-1.01732 10.53984,-1.50613c1.25927,-0.17593 2.74861,0.30119 3.79045,-0.42772c0.1741,-0.12181 -0.25915,-0.33864 -0.36295,-0.52405c-0.44145,-0.78856 -0.83338,-1.60407 -1.27106,-2.39473c-0.96268,-1.73903 -1.9929,-3.45067 -3.18445,-5.04164c-0.5529,-0.5529 -1.11084,-1.10331 -1.68058,-1.64086z" fill="#ff5050"/><path d="M266.48607,267.38196l0.72992,1.70704c0.74124,4.52251 3.91457,10.03694 2.50985,14.75775c-0.59504,1.99973 -0.9128,4.79537 -2.84873,5.57331c-1.59076,0.63923 -3.04013,-1.61842 -4.40214,-2.6596c-5.27717,-4.03415 -7.88167,-10.81641 -13.22496,-14.76047c0,0 -0.74295,-0.55721 -0.9836,-1.44524c-0.53815,-0.34612 -1.0164,-0.96132 -1.0164,-2.05476c0,-2.5 2.5,-2.5 2.5,-2.5c3.94917,0.01467 7.97343,-0.60904 11.70943,-1.87171l-0.47719,0.10395c0,0 1.76776,-1.76776 3.53553,0c0.68322,0.68322 0.83833,1.36645 0.77148,1.94762c0.79787,0.40424 1.19682,1.20211 1.19682,1.20211zM260.34325,276.80409c1.02573,1.26315 1.99912,2.57059 3.07605,3.79037c0.38468,0.43571 0.85066,0.80666 1.29876,1.18976c0.03533,-0.57187 0.0765,-1.13381 0.04045,-1.57803c-0.28741,-3.54163 -1.88092,-6.78495 -2.4745,-10.2952l-0.27008,-0.29296c0,0 -0.07258,-0.14516 -0.14377,-0.38c-2.18316,0.648 -4.41853,1.11619 -6.67794,1.40638c1.83906,1.91232 3.42376,4.0326 5.15103,6.15968z" fill="#ff5050"/><path d="M187.16988,178.38675c-1.38675,-2.08013 0.69338,-3.46688 0.69338,-3.46688l1.38675,-0.91987c2.1413,-1.5999 3.44756,-2.7175 6.12336,-3.84126c2.50554,-1.05226 5.89186,-0.89632 8.32183,-2.08272c0.21455,-0.10475 -0.29443,-0.3803 -0.39851,-0.59518c-0.32099,-0.66266 -0.53512,-1.37486 -0.87274,-2.0292c-2.76807,-5.36498 -4.98194,-9.20621 -9.73568,-12.99947c0,0 -1.95217,-1.56174 -0.39043,-3.51391c1.56174,-1.95217 3.51391,-0.39043 3.51391,-0.39043c5.27731,4.23177 8.17791,8.69781 11.12075,14.7421c0.89409,1.83638 2.54328,5.60074 0.87232,7.63405c-2.34742,2.85648 -7.54982,2.62701 -10.67817,3.91728c-1.84914,0.76266 -3.31316,1.98109 -4.87664,3.15874l-1.61325,1.08013c0,0 -2.08013,1.38675 -3.46688,-0.69338z" fill="#000000"/><path d="M256.36803,145.94098c0.55902,1.11803 -0.55902,1.67705 -0.55902,1.67705l-1.25585,0.59464c-2.87063,0.71766 -6.76363,3.17126 -10.05485,3.19533c0.48209,3.76445 1.98553,7.61312 1.98553,11.39177l0.45199,1.30494c0,0 0.39528,1.18585 -0.79057,1.58114c-1.18585,0.39528 -1.58114,-0.79057 -1.58114,-0.79057l-0.54801,-1.69506c0,-3.83724 -1.52908,-7.72183 -2.00678,-11.5475c-0.05124,-0.41035 -0.09599,-0.82182 -0.13479,-1.2343c-0.52533,-0.53549 -1.10455,-1.20299 -1.41707,-1.45175c-2.08537,-1.65992 -3.57383,-3.04394 -5.20751,-5.21668c0,0 -0.75,-1 0.25,-1.75c1,-0.75 1.75,0.25 1.75,0.25c1.42641,1.90706 2.68122,3.0682 4.42308,4.48477c-0.1281,-6.5518 0.82692,-13.27255 0.82692,-19.73477c0,0 0,-1.25 1.25,-1.25c1.25,0 1.25,1.25 1.25,1.25c0,7.17184 -1.21447,14.69235 -0.73935,21.91218c0.73141,-0.02912 1.58379,-0.45405 2.13986,-0.61233c2.59533,-0.73873 4.85449,-1.83957 7.54632,-2.51253l0.74415,-0.40536c0,0 1.11803,-0.55902 1.67705,0.55902z" fill="#ff8c35"/><path d="M171.28928,117.091c2.49991,0.0208 2.47911,2.52072 2.47911,2.52072l-0.2195,2.00397c-4.07434,9.19762 -2.84524,16.99611 -0.35472,26.37022c0.5021,1.88986 0.26717,2.71202 1.26781,4.40561c3.36468,5.69471 8.89187,9.39259 14.5206,12.514c0,0 2.18539,1.21411 0.97129,3.3995c-1.21411,2.18539 -3.3995,0.97129 -3.3995,0.97129c-6.44616,-3.58735 -12.69083,-7.929 -16.4794,-14.486c-1.48035,-2.5621 -1.03374,-2.9659 -1.73219,-5.59439c-2.78403,-10.47721 -3.8538,-19.31044 0.62832,-29.59116l-0.20254,-0.03464c0,0 0.0208,-2.49991 2.52072,-2.47911z" fill="#000000"/><path d="M196.84565,88.39394c0,-2.5 2.5,-2.5 2.5,-2.5l-0.27301,0.07464c3.67416,-0.91759 10.01954,-3.79741 13.50331,-1.20299c1.31045,0.97592 -0.06511,3.26727 -0.07856,4.90114c-0.04927,5.98558 -0.41107,13.41806 -6.52836,16.70357c-1.0655,0.57227 -2.41436,0.15748 -3.62338,0.1903c-1.39267,0.0378 -5.7729,-0.00425 -7.07039,-0.12535c-5.32295,-0.4968 -11.81072,-1.55454 -16.38299,-4.67385c-4.84811,-3.3075 -8.63309,-9.77243 -11.86919,-14.50796c-0.61065,-1.87106 -1.50373,-3.67254 -1.83194,-5.61317c-0.17959,-1.06185 0.21777,-2.14286 0.33922,-3.21292c0.48849,-4.30385 1.30783,-9.22751 4.25014,-12.66002c2.87896,-3.3586 6.96807,-5.51933 10.85806,-7.3133c13.63512,-6.28816 29.5264,-10.15014 43.57087,-2.58818c0,0 2.19474,1.19713 0.99761,3.39187c-1.19713,2.19474 -3.39187,0.99761 -3.39187,0.99761c-12.51754,-6.93243 -27.00432,-2.75985 -39.0958,2.74515c-3.30604,1.50517 -6.6367,3.23703 -9.14194,6.02004c-3.73793,4.15239 -3.72215,11.21999 -2.08029,16.00072c2.80736,4.0256 6.15763,9.89256 10.30186,12.67188c3.83087,2.56917 9.4811,3.35253 13.89472,3.75966c2.68635,0.2478 3.97299,0.00607 6.65191,0.1078c0.57309,0.02176 1.19958,0.45188 1.70996,0.1903c2.53858,-1.30106 3.26507,-5.78216 3.46888,-8.26998c0.11866,-1.44841 -0.32349,-2.94361 0.00276,-4.35978c0.12481,-0.54178 1.81013,-1.12501 1.25477,-1.09886c-0.96308,0.04535 -1.74239,0.83276 -2.64769,1.16446c-1.86974,0.68507 -3.91759,1.14922 -5.84901,1.63255l-0.93967,0.07464c0,0 -2.5,0 -2.5,-2.5z" fill="#000000"/><path d="M234.44675,86.27996c-2.59103,0.78753 -4.91786,2.32373 -5.71981,5.20855c-0.73337,2.63808 -1.16415,10.08155 3.67212,9.08782c2.92945,-0.60193 5.45206,-2.22787 7.66617,-4.09178c0.96743,-0.81441 2.24802,-1.44449 2.5596,-2.83214c0.24608,-1.09596 0.1561,-2.24111 0.22299,-3.36237c0.18788,-3.14932 0.20816,-3.90524 -2.67149,-5.11383c-0.04605,0.00083 -0.09211,0.00166 -0.13816,0.00249c-0.58734,0.33314 -1.18106,0.37554 -1.18106,0.37554c-0.50944,0.0274 -1.03761,0.07201 -1.57369,0.13896l-0.04269,0.31957c0,0 -1.41132,1.12906 -2.79397,0.26718zM236.66609,80.62325l0.67956,-0.39597c1.27867,0.01702 2.55733,0.03404 3.836,0.05106c1.10012,0.47552 2.3668,0.675 3.30036,1.42656c3.92384,3.15891 3.50172,4.07704 3.36149,8.79294c-0.23332,7.846 -7.02998,14.0205 -14.88458,15.04705c-8.78172,1.14772 -10.9698,-9.08416 -8.99455,-15.57885c1.19393,-3.92567 5.6047,-7.69577 9.28178,-8.9518c1.08921,-0.37206 2.2539,-0.38473 3.41994,-0.39099z" fill="#000000"/><path d="M261.80312,87.06865c-3.02004,2.14099 -2.80037,7.73454 -3.29291,11.09444c-0.11152,0.76075 -0.83588,1.79888 -0.2471,2.29336c0.63779,0.53564 6.72211,1.40214 7.9431,1.14927c2.67922,-0.55488 5.74149,-3.76911 5.9915,-6.51723c0.0841,-0.92441 0.47355,-3.64931 -0.65782,-4.63226c-2.02117,-1.75602 -5.14123,-2.80519 -7.68454,-3.2775l-1.17638,0.04855c0,0 -0.3977,0 -0.87586,-0.15862zM264.14195,82.2602l0.69399,0.01562c3.267,0.68938 7.91808,2.14373 10.31546,4.7225c6.26277,6.73663 -0.4971,17.78832 -7.99965,19.51717c-2.76775,0.63779 -11.16457,-1.12001 -12.72356,-2.85073c-1.28934,-1.43136 -0.86652,-3.78078 -0.91377,-5.70664c-0.11017,-4.49039 1.25923,-11.39895 4.49188,-14.75551c0.87076,-0.90413 2.30769,-0.98855 3.46154,-1.48283c0,0 1.62422,-0.60908 2.67411,0.54042z" fill="#000000"/><path d="M313.38323,85.03708c0.80807,-10.41766 0.18238,-20.88074 1.48173,-31.28656c0,0 0.31009,-2.48069 2.79078,-2.17061c2.48069,0.31009 2.17061,2.79078 2.17061,2.79078c-1.6968,13.55965 -0.58375,27.18574 -2.67643,40.73672c-0.50634,3.27877 -0.93335,9.46514 -3.83292,11.84183c-5.88271,4.82186 -12.84504,-0.91611 -17.46562,-4.21769c-1.21078,-1.00776 -2.83436,-1.66505 -3.63234,-3.02328c-2.6354,-4.48563 -0.0305,-9.23138 3.8123,-11.77429c4.2016,-2.78034 11.78579,-3.37305 16.62266,-3.28962zM312.82523,90.38893l-1.45458,-0.91207c-3.60512,0.11759 -9.59608,0.77056 -12.71067,2.71038c-3.64924,2.27281 -2.69288,4.54173 0.17996,6.53577c1.98518,1.41746 8.17504,7.2331 11.20104,4.44897c1.20381,-1.10758 1.19151,-3.06212 1.53272,-4.66195c0.57132,-2.67872 0.89901,-5.40443 1.25153,-8.1211z" fill="#000000"/><path d="M242.50924,183.54546c1.25,0 1.25,1.25 1.25,1.25l-0.03174,0.77992l-0.40341,1.75571l0.15202,0.91213l0.45976,1.37928c0.04749,0.1321 0.07337,0.27451 0.07337,0.42297c0,0.04225 -0.0021,0.08401 -0.00619,0.12518c0.4197,1.10419 0.95846,2.12802 1.27913,3.37309c0.43067,1.67214 0.53226,3.39056 0.48589,5.10557l0.09649,-0.01484l0.37672,2.4487c0.01181,0.069 0.01796,0.13994 0.01796,0.2123c0,0.69036 -0.55964,1.25 -1.25,1.25c-0.41416,0 -0.78127,-0.20142 -1.00873,-0.51164l-0.72982,-0.97309c-0.17572,-0.21498 -0.39434,-0.45122 -0.63766,-0.7034c0.20382,0.66366 0.3577,1.33847 0.43784,2.05286l0.42135,-0.07022l0.24613,1.47677c0.01371,0.07415 0.02088,0.1506 0.02088,0.22873c0,0.64473 -0.48811,1.17545 -1.11495,1.24279c0.56036,1.40614 1.05613,2.83369 1.44718,4.31715l0.23815,-0.0866l0.84446,2.32227c0.05498,0.14084 0.08516,0.29409 0.08516,0.4544c0,0.69036 -0.55964,1.25 -1.25,1.25c-0.12138,0 -0.23871,-0.0173 -0.34968,-0.04957l1.3421,1.78947c0.16156,0.21062 0.25758,0.47415 0.25758,0.7601c0,0.69036 -0.55964,1.25 -1.25,1.25c-0.41416,0 -0.78127,-0.20142 -1.00873,-0.51164l-0.67929,-0.90571c-0.99218,-0.84514 -1.97385,-1.70306 -2.93809,-2.58002c1.50884,2.42786 2.84965,4.9313 3.7091,7.60862l0.35932,-0.14972l0.95079,2.28189c0.06872,0.15484 0.10691,0.32625 0.10691,0.50657c0,0.69036 -0.55964,1.25 -1.25,1.25c-0.3709,0 -0.70406,-0.16154 -0.93299,-0.41809l-1.44796,-1.60928c-1.13324,-0.79439 -2.21159,-1.61327 -3.25906,-2.45735c1.24931,1.52004 2.42636,3.08194 3.45558,4.72044l0.20778,-0.1847l1.65735,1.86452c0.19853,0.22128 0.31929,0.51377 0.31929,0.83446c0,0.07504 -0.00661,0.14854 -0.01929,0.21994c1.34523,1.70413 2.56216,3.48274 3.56452,5.36736l0.16504,-0.13753l1.24475,1.4937c0.18403,0.21769 0.29498,0.49916 0.29498,0.80653c0,0.69036 -0.55964,1.25 -1.25,1.25c-0.27621,0 -0.53149,-0.08959 -0.73838,-0.24129l-1.72831,-1.23451c-3.2011,-2.16377 -6.33447,-4.35232 -9.34533,-6.70953c0.69556,1.29931 0.95367,2.80362 1.57355,4.1441c0.69682,1.50686 1.80566,2.67325 1.83541,4.07878c0.20896,0.21951 0.41534,0.44243 0.61895,0.669l0.01209,0.05996l0.02202,-0.01651l0.74242,0.9899c0.16156,0.21062 0.25758,0.47415 0.25758,0.7601c0,0.69036 -0.55964,1.25 -1.25,1.25c-0.38936,0 -0.73714,-0.17802 -0.96639,-0.4571l-1.24389,-1.49267l0.02309,-0.01924c-0.01961,-0.02083 -0.03925,-0.04163 -0.05892,-0.06239c-0.02622,-0.02569 -0.05208,-0.05185 -0.07756,-0.07848c-0.03195,-0.03339 -0.06347,-0.06734 -0.09459,-0.10182c-0.47646,-0.49495 -0.96754,-0.97184 -1.4709,-1.43364c0.74989,0.75546 1.40563,1.4215 1.42509,1.46001c0.02561,0.05071 0.05031,0.10177 0.07414,0.15316l0.0185,-0.01028l1.20308,2.16554c0.10704,0.18429 0.16833,0.39844 0.16833,0.6269c0,0.69036 -0.55964,1.25 -1.25,1.25c-0.27621,0 -0.53149,-0.08959 -0.73838,-0.24129l-1.67618,-1.19727c0.47927,0.43856 0.95707,0.87894 1.43314,1.32144c2.40354,2.23402 4.87166,4.43383 5.94074,7.33339l0.45127,-0.18051l0.48947,1.22368c0.06433,0.15061 0.09993,0.31643 0.09993,0.49056c0,0.69036 -0.55964,1.25 -1.25,1.25c-0.30138,0 -0.57785,-0.10666 -0.79372,-0.28429l-1.18498,-0.95899l0.02316,-0.02862l-0.09851,-0.03754c-3.9117,-4.3846 -9.34747,-7.58022 -14.37996,-10.70503c4.22168,4.04044 8.34724,8.52628 10.55953,13.40663l0.37448,-0.18724l1.10679,2.21358c0.09145,0.1737 0.14321,0.37156 0.14321,0.58151c0,0.69036 -0.55964,1.25 -1.25,1.25c-0.24259,0 -0.46904,-0.06911 -0.66074,-0.1887l-1.23238,-0.73943l0.04941,-0.08236l-0.24347,-0.06126c-3.67854,-4.79002 -7.58952,-9.4698 -11.59424,-14.09459c-3.41628,-3.94524 -7.51886,-7.21238 -10.79468,-11.30278c0,0 -0.78087,-0.97609 0.19522,-1.75695c0.97609,-0.78087 1.75695,0.19522 1.75695,0.19522c0.63709,0.79725 1.28816,1.58294 1.9503,2.35944c0.08195,0.01975 0.16076,0.04758 0.23553,0.08259l2.26237,0.99805l-0.14976,0.33947c2.50504,0.86207 4.39308,2.20477 7.14983,3.94883c1.76995,1.11976 3.61079,2.23612 5.44073,3.39676c-5.32111,-4.76673 -10.77361,-9.3763 -16.02108,-14.23307l-1.27378,-3.19668c3.981,1.28939 5.95199,3.13024 9.18954,5.59288c1.58213,1.20345 3.17842,2.38965 4.77986,3.56957c-3.40203,-2.86317 -7.05234,-5.38737 -10.52983,-8.16839l-0.00557,-0.0077l-0.00155,0.00188l-1.92121,-1.58387c-0.28226,-0.22918 -0.46263,-0.57898 -0.46263,-0.97091c0,-0.69036 0.55964,-1.25 1.25,-1.25c0.11286,0 0.22223,0.01496 0.32624,0.043l1.60405,0.39534l-0.10601,0.43013c2.52554,0.54847 4.06291,2.12568 6.68351,4.04776c3.40944,2.50065 6.99638,4.72163 10.2955,7.30697c-0.36492,-1.17689 -0.74218,-2.31018 -1.26404,-3.21272c-2.60585,-4.50671 -6.69172,-8.40138 -9.93785,-12.50841l-0.18674,0.14365l-1.51721,-1.97237c-0.16681,-0.21245 -0.26629,-0.48027 -0.26629,-0.77133c0,-0.69036 0.55964,-1.25 1.25,-1.25c0.34518,0 0.65768,0.13991 0.88388,0.36612l1.25,1.25l-0.02328,0.02328l0.07835,0.03547c0.49697,0.64321 1.01526,1.28108 1.54675,1.91647c1.9028,1.43398 3.66743,3.60901 5.18192,5.0223c3.1653,2.95381 6.5348,5.5686 10.02574,8.05932c-1.28915,-1.56468 -2.63274,-3.06325 -4.00118,-4.53514c-2.3698,-2.20439 -4.67157,-4.40026 -6.59498,-6.9495l-0.21333,0.21333l-1.76777,-1.76777l0.54355,-0.54355c-0.22311,-0.36188 -0.43832,-0.73148 -0.64492,-1.1096l0.96583,0.17537c-0.87332,-1.04875 -1.73757,-2.10594 -2.58935,-3.17548l-0.02458,-0.12354l-0.03655,0.01908l-0.92705,-1.77635c-0.09757,-0.17806 -0.15305,-0.38246 -0.15305,-0.59981c0,-0.69036 0.55964,-1.25 1.25,-1.25c0.29902,0 0.57352,0.105 0.78864,0.28013l1.9444,1.55552l-0.21711,0.27139c3.39279,2.22285 6.33436,5.197 9.46476,7.88448c-0.02482,-0.04586 -0.04997,-0.09195 -0.07548,-0.13825c-1.56678,-2.84431 -3.19875,-5.54776 -4.99972,-8.24949l-0.02092,-0.10804l-0.02684,0.01193l-0.98897,-2.22518c-0.07618,-0.16155 -0.11877,-0.34205 -0.11877,-0.53249c0,-0.55194 0.35772,-1.02033 0.85397,-1.18596c-0.41726,-0.48054 -0.83453,-0.96107 -1.2518,-1.4416l-0.00452,-0.01213l-0.00335,0.0028l-1.29871,-1.55584c-0.1844,-0.21779 -0.29559,-0.49954 -0.29559,-0.80726c0,-0.69036 0.55964,-1.25 1.25,-1.25c0.32326,0 0.61787,0.12271 0.83977,0.32409l1.85467,1.6692l-0.22199,0.24666c2.45502,1.64778 4.60064,3.65181 6.80417,5.69832c-0.09817,-0.24289 -0.1915,-0.48595 -0.28385,-0.72409c-1.23361,-3.18118 -2.9276,-6.25923 -4.34182,-9.36637l-0.71224,-1.18707c-0.1196,-0.1917 -0.1887,-0.41815 -0.1887,-0.66074c0,-0.69036 0.55964,-1.25 1.25,-1.25c0.37237,0 0.70671,0.16282 0.93571,0.42115l0.0056,-0.06425l-0.03071,0.00734l-0.36988,-1.54659c-0.02657,-0.10143 -0.04072,-0.20789 -0.04072,-0.31765c0,-0.69036 0.55964,-1.25 1.25,-1.25c0.39906,0 0.75444,0.187 0.9833,0.47815l0.99279,1.24098l-0.17803,0.14243c0.86745,0.75237 1.6397,1.55705 2.39664,2.42042c-0.07418,-0.879 -0.06168,-1.82038 -0.34265,-2.90979c-0.42016,-1.62909 -1.19673,-2.94852 -1.63344,-4.52219l-0.36754,-0.8576l0.10303,-0.04416l-0.17857,-0.19691c0.02886,-0.07071 0.05773,-0.14142 0.08659,-0.21213l-0.01307,-0.03921l-0.09905,0v-0.59857c-0.1757,-0.22253 -0.3209,-0.4644 -0.42373,-0.72149l0.00278,-0.03963l-0.0149,0.00497l-0.49077,-1.47232c-0.04749,-0.1321 -0.07337,-0.27451 -0.07337,-0.42297c0,-0.69036 0.55964,-1.25 1.25,-1.25c0.20314,0 0.39495,0.04845 0.56453,0.13444c0.18368,-0.21453 0.47462,-0.38444 0.93547,-0.38444z" fill="#0090ff"/><path d="M246.40452,195.3596c0.57845,0.19282 0.78068,0.57374 0.83609,0.91338c1.43368,0.22438 3.37556,0.55169 3.81741,1.09237c0.15598,0.19087 0.07718,0.4087 -0.07559,0.63772c0.40161,-0.09548 0.85531,0.04418 1.2768,0.04239c1.09886,-0.00466 3.32557,-0.14031 3.91033,1.0351c0.54347,1.09242 -2.85774,4.92302 -3.69032,5.95603c0.07341,-0.08465 0.18933,-0.20369 0.26637,-0.21858c0.41361,-0.07996 0.84235,-0.01987 1.26362,-0.02255c1.07187,-0.00684 3.60183,-0.17224 4.16033,1.0351c0.74849,1.61805 -2.22177,3.67668 -4.16818,4.67151l0.1595,0.1595l-0.00893,0.00893c0.22101,0.22546 0.35728,0.5343 0.35728,0.87496c0,0.29902 -0.105,0.57352 -0.28013,0.78864l-0.94365,1.17956c-0.59841,1.08685 -1.33536,2.09992 -1.85756,3.22534c-0.13271,0.28601 -0.04764,0.64108 -0.17475,0.92963c-0.08148,0.18496 -0.59974,0.53415 -0.42518,0.43228c1.5088,-0.88052 3.44301,-1.28023 5.3692,-1.53465l2.02957,-0.90203c0.16155,-0.07618 0.34205,-0.11877 0.53249,-0.11877c0.69036,0 1.25,0.55964 1.25,1.25c0,0.41242 -0.19973,0.77819 -0.50774,1.00586l-1.59493,1.20519l-0.01444,-0.01911l-0.0398,0.05787c-0.75685,0.4548 -1.81711,1.27252 -2.9608,2.103c1.90927,-0.70074 3.78567,-1.35978 5.7738,-1.60411l-0.06113,-0.48905l1.98044,-0.24755c0.05706,-0.00797 0.11535,-0.0121 0.1746,-0.0121c0.69036,0 1.25,0.55964 1.25,1.25c0,0.3965 -0.18461,0.74988 -0.47256,0.97888l-1.24012,1.00288l-0.0109,-0.01348l-0.0297,0.04495c-2.41777,1.64613 -4.5928,3.71837 -7.03365,5.33788c1.93986,-0.6253 4.05784,-1.8247 6.08377,-2.31813c0.6076,-0.36484 1.20895,-0.73065 1.80116,-1.09947l0.01132,-0.00131l-0.00244,-0.00407l1.23238,-0.73943c0.1917,-0.1196 0.41815,-0.1887 0.66074,-0.1887c0.69036,0 1.25,0.55964 1.25,1.25c0,0.44869 -0.23641,0.84217 -0.59146,1.06266l-2.08554,1.3407l-0.035,-0.05445c-3.60515,2.20004 -7.2688,4.19376 -10.62065,6.77898c-1.19088,0.9185 -2.4315,2.07436 -3.76277,2.99856c1.77392,-0.32337 3.54634,-0.70365 5.18884,-1.31246c2.56632,-0.95125 4.61789,-2.21571 6.84026,-3.26814c0.37151,-0.25566 0.74023,-0.51456 1.10583,-0.77692l-0.08196,-0.14752l2.16554,-1.20308c0.18429,-0.10704 0.39844,-0.16833 0.6269,-0.16833c0.69036,0 1.25,0.55964 1.25,1.25c0,0.46331 -0.25206,0.86774 -0.62653,1.08365l-1.19083,0.7145c-1.71229,1.27326 -3.58357,2.62519 -5.55724,3.93281l-0.44033,0.36694c-2.84003,2.96732 -5.58386,5.9406 -8.56349,8.75407c4.80406,-2.38332 10.01856,-4.24661 15.25123,-4.60375l-0.05201,-0.29474l2.43804,-0.43024c0.07803,-0.01525 0.15865,-0.02324 0.24115,-0.02324c0.69036,0 1.25,0.55964 1.25,1.25c0,0.42534 -0.21244,0.80106 -0.53701,1.02685l-1.71721,1.22658c-1.50395,1.17741 -3.20854,1.76778 -4.9452,2.33452c-0.57218,0.67914 -1.13461,1.36744 -1.79715,1.94948c1.85678,-0.65092 3.6725,-1.29443 5.40875,-1.83012c2.81244,-0.86772 5.03962,-1.98382 7.52653,-2.54157c0.26851,-0.12224 0.54268,-0.24273 0.82479,-0.36168l-0.06668,-0.26674l1.97281,-0.4932c0.10523,-0.02876 0.21601,-0.04412 0.33036,-0.04412c0.69036,0 1.25,0.55964 1.25,1.25c0,0.53655 -0.33806,0.99415 -0.8128,1.17141l-1.22297,0.48919c-9.64853,3.85505 -19.34047,7.10197 -28.3063,12.65224c0,0 -1.06283,0.65794 -1.72077,-0.40489c-0.65794,-1.06283 0.40489,-1.72077 0.40489,-1.72077c1.40536,-0.86999 2.8082,-1.74138 4.22534,-2.58231c-1.42387,0.37482 -2.87364,0.64514 -4.56739,0.64514h-1.25c-0.69036,0 -1.25,-0.55964 -1.25,-1.25c0,-0.61444 0.44333,-1.12533 1.02756,-1.23027l2.42874,-0.48575l0.0666,0.33301c0.57374,-0.20405 1.15786,-0.39904 1.74706,-0.59077c0.05867,-0.32462 0.24269,-0.60563 0.50012,-0.79111l1.15759,-0.85418l0.00771,0.01045l0.01649,-0.02787c1.19312,-0.79515 2.42243,-1.52346 3.64858,-2.25622c-2.63524,1.11558 -5.18354,2.40807 -7.67812,3.90064l-3.33739,0.84365c0.46902,-1.24058 0.72055,-2.58696 1.40705,-3.72175c1.35131,-2.23372 4.50018,-3.9701 6.40029,-5.78916c0.45156,-0.4323 0.89313,-0.87604 1.32781,-1.32755c-1.44986,0.69652 -2.91576,1.30515 -4.38004,1.78749c-0.27894,0.1518 -0.55714,0.30522 -0.83451,0.46051l0.05345,0.1069l-1.97751,0.98875c-0.1737,0.09145 -0.37156,0.14321 -0.58151,0.14321c-0.69036,0 -1.25,-0.55964 -1.25,-1.25c0,-0.47329 0.26303,-0.88514 0.65089,-1.09734l1.30832,-0.74761c1.34321,-0.76721 2.70656,-1.48781 4.07997,-2.18972c-0.84158,0.17968 -1.69694,0.34928 -2.56962,0.51525l-0.01485,-0.0023l0.00079,0.00473l-1.47677,0.24613c-0.07415,0.01371 -0.1506,0.02088 -0.22873,0.02088c-0.69036,0 -1.25,-0.55964 -1.25,-1.25c0,-0.37384 0.16411,-0.70935 0.42422,-0.93842l1.86385,-1.65676l0.20694,0.23281c2.13678,-2.26144 4.65904,-4.18373 7.3187,-5.94212l-0.04786,0.00527c-0.05067,0.00625 -0.10229,0.00947 -0.15465,0.00947c-0.69036,0 -1.25,-0.55964 -1.25,-1.25c0,-0.24404 0.06993,-0.47174 0.19085,-0.66417l1.28307,-2.12193l0.014,0.00846c0.03836,-0.06424 0.07823,-0.12769 0.11976,-0.19029c0.39566,-0.5963 0.98709,-1.19923 1.68243,-1.79081c-1.62574,0.43052 -3.19249,0.74328 -4.29786,0.99828l-1.43047,0.47682c-0.1321,0.04749 -0.27451,0.07337 -0.42297,0.07337c-0.69036,0 -1.25,-0.55964 -1.25,-1.25c0,-0.26266 0.08101,-0.5064 0.21942,-0.7076l0.99052,-1.48578l0.01761,0.01174c0.03385,-0.05735 0.06942,-0.11384 0.10689,-0.16939c0.46957,-0.69611 1.20886,-1.34156 2.07123,-1.94161c-0.69607,0.01212 -1.239,-0.0613 -1.4744,-0.26282c-1.96221,-1.67975 0.57951,-5.52091 1.70979,-7.35265c-0.38246,-0.21375 -0.64106,-0.62263 -0.64106,-1.0919c0,-0.34518 0.13991,-0.65768 0.36612,-0.88388l1.76777,-1.76777l0.15728,0.15728c0.49886,-0.57885 1.03045,-1.12641 1.60405,-1.6258c-1.63662,-0.03684 -3.8924,-0.67167 -4.06362,-1.4356c-0.06695,-0.29872 1.28787,-3.766 1.87227,-4.62841c0.13377,-0.19741 0.35239,-0.47409 0.59451,-0.74c-0.58204,-0.0098 -1.17637,-0.09922 -1.34815,-0.09195c-0.85599,0.0362 -1.89635,0.70505 -2.5647,0.16902c-0.51951,-0.41666 0.53962,-1.34559 0.31569,-1.97277c-0.10771,-0.30166 -0.59202,0.2953 -0.91226,0.30195c-0.00294,0.00006 -2.50899,-0.50131 -2.5341,-0.50633l-0.69071,-2.37101c0,0 0.39528,-1.18585 1.58114,-0.79057z" fill="#0086ec"/><path d="M210.00924,203.29546c-0.35893,0 -0.61479,-0.10306 -0.79718,-0.25l-1.20282,0c-0.31755,0 -0.60745,-0.11841 -0.82794,-0.31349l-1.84055,0.92028c-0.1737,0.09145 -0.37156,0.14321 -0.58151,0.14321c-0.68446,0 -1.24044,-0.55013 -1.24988,-1.23236l-1.11624,1.11624c-0.22621,0.22621 -0.53871,0.36612 -0.88388,0.36612c-0.69036,0 -1.25,-0.55964 -1.25,-1.25c0,-0.24666 0.07144,-0.47664 0.19477,-0.67036c-0.31999,-0.21787 -0.6126,-0.51391 -0.86927,-0.90181c-0.52764,-0.79739 0.70941,-1.80249 1.29062,-2.56172c0.71398,-0.93268 1.30102,-1.25948 1.96258,-1.31527l-0.00547,-0.03829l1.72871,-0.24696c0.06451,-0.01027 0.13066,-0.0156 0.19806,-0.0156c0.6856,0 1.24228,0.55196 1.24992,1.23574c0.4329,-0.20193 0.83255,-0.41872 1.16298,-0.66641l0.95321,-0.95321c0.22621,-0.22621 0.53871,-0.36612 0.88388,-0.36612c0.69036,0 1.25,0.55964 1.25,1.25c0,0.31743 -0.11832,0.60723 -0.31327,0.82769l-0.86961,0.99384c0.00136,0 0.00271,-0.00001 0.00407,-0.00001c0.69036,0 1.25,0.55964 1.25,1.25c0,0.09518 -0.01064,0.18787 -0.03079,0.27696l0.9596,1.15152c0,0 0,1.25 -1.25,1.25z" fill="#fda000"/><path d="M286.44509,198.44074c-0.39528,1.18585 -1.58114,0.79057 -1.58114,0.79057l-0.76415,-0.9582c-1.06333,0.56149 -3.46805,2.09421 -4.60461,0.50323c-0.20068,-0.28091 -0.35918,-0.53219 -0.4809,-0.75693c-0.08234,0.01707 -0.16765,0.02604 -0.25505,0.02604c-0.69036,0 -1.25,-0.55964 -1.25,-1.25c0,-0.28595 0.09602,-0.54948 0.25758,-0.7601l0.67867,-0.90489c0.05709,-0.12911 0.11641,-0.26237 0.17888,-0.39681c-1.26396,0.57352 -2.65692,0.79794 -3.92844,-0.53103c-0.02283,-0.02386 -0.04388,-0.04847 -0.06321,-0.07376c-0.0011,0.00063 -0.00221,0.00127 -0.00331,0.0019c0,0 -1.0853,0.62017 -1.70548,-0.46513c-0.62017,-1.0853 0.46513,-1.70548 0.46513,-1.70548c0.54453,-0.30934 1.08907,-0.61868 1.6336,-0.92802l1.43004,-1.1917c0.21769,-0.18403 0.49916,-0.29498 0.80653,-0.29498c0.69036,0 1.25,0.55964 1.25,1.25c0,0.24259 -0.06911,0.46904 -0.1887,0.66074l-0.4546,0.75766c0.47805,-0.23316 0.98293,-0.42991 1.43666,-0.70092l0.94654,-0.70991c0.21062,-0.16156 0.47415,-0.25758 0.7601,-0.25758c0.69036,0 1.25,0.55964 1.25,1.25c0,0.12924 -0.01961,0.2539 -0.05603,0.37116l-0.47105,1.64866c0.58399,0.10513 1.02707,0.61591 1.02707,1.23018c0,0.14845 -0.02588,0.29086 -0.07337,0.42297l-0.30218,0.90653c0.32437,-0.18749 0.65249,-0.36 0.86348,-0.46979l0.05396,-0.00497l-0.00613,-0.01533l1.22368,-0.48947c0.15061,-0.06433 0.31643,-0.09993 0.49056,-0.09993c0.69036,0 1.25,0.55964 1.25,1.25c0,0.17413 -0.03561,0.33994 -0.09993,0.49056l-0.03903,0.09759c0.27977,0.23937 0.54288,0.65296 0.32482,1.30714z" fill="#ffa100"/><path d="M240.98533,146.57632c-0.78087,0.97609 -1.75695,0.19522 -1.75695,0.19522l-2.49098,-1.99279c-0.29115,-0.22886 -0.47815,-0.58424 -0.47815,-0.9833c0,-0.03085 0.00112,-0.06144 0.00331,-0.09172c-0.16889,-0.31969 -0.32042,-0.66249 -0.52374,-0.93631l-0.65782,-2.55914c0.88176,0.19268 1.84322,0.42543 2.66066,0.84708l-0.0892,-0.1784c-0.09145,-0.1737 -0.14321,-0.37156 -0.14321,-0.58151c0,-0.6477 0.49262,-1.18034 1.12363,-1.24369l-0.67342,-1.07747c-0.12667,-0.19548 -0.20022,-0.42857 -0.20022,-0.67884c0,-0.69036 0.55964,-1.25 1.25,-1.25c0.03144,0 0.06261,0.00116 0.09346,0.00344c-0.05476,-0.3327 -0.08776,-0.66777 -0.09346,-1.00344c0,0 0,-1.25 1.25,-1.25c1.25,0 1.25,1.25 1.25,1.25c-0.02273,0.8893 0.31651,1.76833 0.67778,2.58126l0.00418,0.08104l0.01995,-0.0057l0.49207,1.72224c0.03641,0.11726 0.05603,0.24192 0.05603,0.37116c0,0.23264 -0.06355,0.45043 -0.17424,0.63697c0.38668,0.61816 0.90243,1.28548 0.57547,1.85004c-0.6144,1.06086 -1.28227,1.32931 -1.93398,1.23268c0.03509,0.48218 -0.15138,0.91676 -0.56145,1.20416l0.12507,0.10006c0,0 0.97609,0.78087 0.19522,1.75695z" fill="#ffba44"/><path d="M244.39535,145.11268c-0.23146,-0.42015 0.63686,-2.63198 1.2675,-3.56722h-0.4036c-0.69036,0 -1.25,-0.55964 -1.25,-1.25c0,-0.21968 0.05667,-0.42613 0.15619,-0.60552c-0.51756,-0.17525 -0.9144,-0.75464 -1.15619,-2.14448c-0.11318,-0.65059 0.53114,-1.23721 0.97958,-1.72197c0.2077,-0.22452 1.11502,-0.09354 0.87344,-0.28112c-0.3891,-0.30213 -1.38298,0.30573 -1.46691,-0.17969c-0.17577,-1.01668 0.65463,-1.95812 0.92517,-2.95378c0.01776,-0.06538 1.06663,-3.43051 0.18387,-1.88772c0,0 -1.22573,0.24515 -1.47087,-0.98058c-0.24515,-1.22573 0.98058,-1.47087 0.98058,-1.47087c0.74432,-0.0111 1.72935,-0.58149 2.23296,-0.0333c0.73281,0.79768 1.04263,3.90772 0.45091,5.14558c-0.21563,0.45109 -1.2338,0.57218 -1.07483,1.04622c0.16599,0.49498 1.46388,-0.19715 1.53309,0.32031c0.12771,0.95475 -0.13637,1.66564 -0.48519,2.1398l0.56775,-0.11355c0.08709,-0.01921 0.17759,-0.02934 0.27046,-0.02934c0.69036,0 1.25,0.55964 1.25,1.25c0,0.27621 -0.08959,0.53149 -0.24129,0.73838l-0.60426,0.84596c0.2502,-0.04991 0.46633,-0.019 0.6096,0.18477c1.39582,1.98527 -0.90862,3.58548 -1.55395,3.9688c0.16264,-0.08274 0.45893,-0.22579 0.93372,-0.43609l0.1193,0.01375l-0.00826,-0.0413l1.22469,-0.24494c0.08709,-0.01921 0.17759,-0.02934 0.27046,-0.02934c0.69036,0 1.25,0.55964 1.25,1.25c0,0.15512 -0.02826,0.30364 -0.0799,0.44069c0.38081,-0.16848 0.8569,-0.35372 1.41674,-0.50046l1.27925,-0.38017c0.12096,-0.039 0.24998,-0.06006 0.38391,-0.06006c0.69036,0 1.25,0.55964 1.25,1.25c0,0.53655 -0.33806,0.99415 -0.8128,1.17141l-1.15737,0.46295c-0.81528,0.76543 -1.73854,1.40616 -2.8296,1.5995c-1.00996,0.17896 -2.07334,-0.20114 -3.07706,0.01006l-0.12317,-0.04171v0.04779l-2,0c0,0 0,0 0,0c-0.69036,0 -1.25,-0.55964 -1.25,-1.25c0,-0.5906 0.40959,-1.08553 0.96021,-1.21624c-0.11551,-0.13044 -0.22404,-0.2849 -0.3241,-0.46654z" fill="#ffba44"/><path d="M242.71736,160.69949c0.16886,0.18469 0.29188,0.45382 0.29188,0.84597c0,1.25 -1.25,1.25 -1.25,1.25l-2.28508,-0.54921c0.21084,-1.28448 0.9385,-2.43282 1.28515,-3.68749c0.23549,-0.85233 -1.73001,-1.10973 -1.74992,-1.99377c-0.01294,-0.57453 1.11701,-0.62029 1.2598,-1.17695c0.08999,-0.35082 -0.75818,-0.416 -0.75829,-0.77818c-0.00013,-0.42585 0.48238,-0.69491 0.70633,-1.0644l-1.45799,0c-0.69036,0 -1.25,-0.55964 -1.25,-1.25c0,-0.2328 0.06364,-0.45073 0.17447,-0.63735c-0.28415,-0.22133 -0.54974,-0.47005 -0.79907,-0.73804l-0.25928,0.25928l-1.25,-1.25c-0.22621,-0.22621 -0.36612,-0.53871 -0.36612,-0.88388c0,-0.55733 0.36475,-1.02947 0.86855,-1.19073c-0.16778,-0.29629 -0.24634,-0.7133 0.07145,-1.22177c0.6625,-1.06 1.7225,-0.3975 1.7225,-0.3975c0.77321,0.51224 1.54642,1.02449 2.31962,1.53673l0.05203,0.42855l0.15171,-0.05057l0.49077,1.47232c0.04749,0.1321 0.07337,0.27451 0.07337,0.42297c0,0.08806 -0.00911,0.17399 -0.02643,0.25691l0.14437,0.04812c0.34464,0.10599 0.62577,0.35698 0.77219,0.68177c0.34421,0.1712 0.6914,0.77066 1.1005,2.11047c0.14898,0.4879 -0.74218,0.8282 -0.74229,1.33833c-0.00011,0.47644 0.85455,0.75894 0.74171,1.22182c-0.11751,0.48204 -0.94411,0.42493 -1.2402,0.82305c-0.13562,0.18235 0.52901,-0.2389 0.6784,-0.06765c0.51152,0.58638 1.08102,1.2958 1.07168,2.07388c-0.01674,1.39396 -0.18648,1.94756 -0.54181,2.16733z" fill="#eaac3f"/><path d="M247.86395,162.23131c-1.18585,-0.39528 -0.79057,-1.58114 -0.79057,-1.58114l0.36399,-0.99783c1.64695,-0.82109 -0.48426,0.45428 -0.63752,-1.04083c-0.07013,-0.68415 0.99517,-1.12506 0.98532,-1.81272c-0.0069,-0.48166 -1.19428,-0.56655 -1.02585,-1.01786c0.48122,-1.2895 0.88326,-1.90386 1.31846,-2.14476c0.03075,-0.08878 0.07123,-0.17302 0.12016,-0.25144l0.28895,-0.48158c-0.76739,0.04944 -1.55945,0.08737 -2.39968,0.13988c0,0 -1.24757,0.07797 -1.32554,-1.16959c-0.07797,-1.24757 1.16959,-1.32554 1.16959,-1.32554c1.90577,-0.11911 3.63033,-0.10533 5.37175,-0.43336c0.77496,-0.55522 1.49022,-0.86302 2.45622,-0.85919v-0.45988l1.25,0c0.69036,0 1.25,0.55964 1.25,1.25c0,0.47691 -0.26708,0.89144 -0.65983,1.10218l-1.12896,0.63354l-0.01958,-0.0349l-0.07097,0.08098c-0.52441,0.18758 -1.0331,0.34089 -1.53274,0.46734c-0.16246,0.12514 -0.33526,0.24651 -0.51129,0.36535c0.11015,0.18621 0.17337,0.40347 0.17337,0.6355c0,0.38936 -0.17802,0.73714 -0.4571,0.96639l-1.49267,1.24389l-0.00374,-0.00449c-0.01079,0.01126 -0.02165,0.02247 -0.03257,0.03362c-0.30184,0.30794 -1.10986,-0.12758 -1.264,0.27512c-0.12952,0.33837 0.98091,0.11989 0.97415,0.48214c-0.01226,0.65618 -1.07829,1.03407 -1.01468,1.68728c0.04741,0.48677 1.19383,0.27744 1.25329,0.76288c0.09606,0.78416 -0.59387,1.46419 -0.89081,2.19629l-0.13601,0.50217c0,0 -0.39528,1.18585 -1.58114,0.79057z" fill="#eaac3f"/><path d="M208.89121,272.98644c0.14773,-0.29546 0.3345,-0.4738 0.52937,-0.57629c-0.10271,-0.18151 -0.16133,-0.39126 -0.16133,-0.61469c0,-0.69036 0.55964,-1.25 1.25,-1.25c0.20995,0 0.4078,0.05176 0.58151,0.14321l1.47751,0.73875l-0.02172,0.04344l0.13639,0.02168c0.03386,0.02792 0.07887,0.05866 0.13334,0.09184c0.49125,-0.24394 0.93861,-0.25108 0.99277,0.48966c0.35623,0.16243 0.7441,0.33648 1.09186,0.50657l-0.69144,-1.10631c-0.12667,-0.19548 -0.20022,-0.42857 -0.20022,-0.67884c0,-0.6624 0.51524,-1.20446 1.1668,-1.24728l-0.37183,-0.44619c-0.18403,-0.21769 -0.29498,-0.49916 -0.29498,-0.80653c0,-0.69036 0.55964,-1.25 1.25,-1.25c0.14845,0 0.29086,0.02588 0.42297,0.07337l1.32713,0.44238c-0.00006,-0.00524 -0.0001,-0.01049 -0.0001,-0.01575c0,-0.69036 0.55964,-1.25 1.25,-1.25c0.34518,0 0.65768,0.13991 0.88388,0.36612l1.22449,1.22449c0.23086,0.19761 0.46448,0.39211 0.69742,0.58737c-0.13399,-0.47801 -0.25401,-0.97932 -0.58904,-1.47448c-0.59552,-0.88018 -1.52797,-1.56371 -1.90261,-2.55821c0,0 -0.39528,-1.18585 0.79057,-1.58114c1.18585,-0.39528 1.58114,0.79057 1.58114,0.79057c0.21076,0.8112 1.13619,1.24196 1.59739,1.94179c0.48986,0.74333 0.56306,1.69882 0.98718,2.48153c0.56762,1.04753 1.86683,2.07757 1.54293,3.22413c-0.68856,2.43738 -2.70258,1.48116 -4.31646,0.25026c-0.20838,0.15551 -0.46688,0.24758 -0.74689,0.24758c-0.11436,0 -0.22513,-0.01536 -0.33036,-0.04412l-0.24951,-0.06238l0.0723,0.0964c0.16156,0.21062 0.25758,0.47415 0.25758,0.7601c0,0.69036 -0.55964,1.25 -1.25,1.25c-0.14528,0 -0.28477,-0.02478 -0.41447,-0.07035c-0.05989,0.29492 -0.23056,0.6328 -0.55044,1.02114c-1.13077,1.37279 -3.33073,0.76028 -4.9998,-0.08508c-0.48745,0.29379 -1.26729,0.34553 -1.79014,0.61002l-1.80416,-0.60769c0,0 -1.11803,-0.55902 -0.55902,-1.67705z" fill="#ed5151"/><path d="M263.12536,277.67934c-0.42874,-0.42874 -0.44155,-0.85748 -0.34105,-1.18534c-0.53522,-0.21692 -1.18445,-0.31945 -1.55381,-0.73849c-0.25266,-0.28665 0.567,-0.73503 0.39487,-1.07617c-0.13051,-0.25865 -0.3805,0.70851 -0.64263,0.58515c-0.80577,-0.37919 -1.69991,-0.96099 -1.96354,-1.81161c-0.01611,-0.05197 -0.01787,-0.09884 -0.0078,-0.14152c-0.94809,0.15096 -1.90348,0.14442 -2.38604,-0.38202c-0.03354,-0.03659 -0.06638,-0.07271 -0.09852,-0.10837c-0.27416,0.01307 -0.58782,-0.07798 -0.90148,-0.39163c-0.48009,-0.48009 -0.43865,-0.96017 -0.30059,-1.29862c-0.2724,-0.6984 0.15572,-0.8917 0.72988,-0.89333c0.22844,-0.22573 0.45689,-0.45146 0.68533,-0.67719l0.16277,-0.02557l-0.03663,-0.06104l1.23238,-0.73943c0.1917,-0.1196 0.41815,-0.1887 0.66074,-0.1887c0.69036,0 1.25,0.55964 1.25,1.25c0,0.24712 -0.07171,0.47748 -0.19545,0.67143c0.3207,-0.04042 0.64558,-0.07071 0.92122,-0.14098l0.0326,0.01139l-0.00351,-0.01757l1.22469,-0.24494c0.08709,-0.01921 0.17759,-0.02934 0.27046,-0.02934c0.69036,0 1.25,0.55964 1.25,1.25c0,0.61444 -0.44333,1.12533 -1.02756,1.23027l-0.07434,0.01487c-0.0459,0.10628 -0.10612,0.20493 -0.17824,0.29351l-0.24627,0.30784c0.47388,-0.18758 1.13913,-0.46388 1.41029,-0.23036c0.36061,0.31055 -0.39589,1.04708 -0.10513,1.42383c0.22927,0.29708 0.79105,-0.28758 1.12058,-0.10806c0.50267,0.27383 0.73378,0.87874 1.10067,1.31812l-0.61612,2.13388c0,0 -0.88388,0.88388 -1.76777,0z" fill="#ed5151"/></g></g></svg>