<svg version="1.1" xmlns="http://www.w3.org/2000/svg" xmlns:xlink="http://www.w3.org/1999/xlink" width="32.18307" height="35.59073" viewBox="0,0,32.18307,35.59073"><defs><linearGradient x1="240.67046" y1="168.34659" x2="240.67046" y2="188.72159" gradientUnits="userSpaceOnUse" id="color-1"><stop offset="0" stop-color="#ff2020"/><stop offset="1" stop-color="#961414"/></linearGradient><linearGradient x1="233.29546" y1="172.15909" x2="233.29546" y2="179.53409" gradientUnits="userSpaceOnUse" id="color-2"><stop offset="0" stop-color="#ffffff"/><stop offset="1" stop-color="#cacaca"/></linearGradient><linearGradient x1="234.79129" y1="172.81667" x2="234.79129" y2="177.69167" gradientUnits="userSpaceOnUse" id="color-3"><stop offset="0" stop-color="#444444"/><stop offset="1" stop-color="#313131"/></linearGradient><linearGradient x1="246.67046" y1="172.03409" x2="246.67046" y2="179.40909" gradientUnits="userSpaceOnUse" id="color-4"><stop offset="0" stop-color="#ffffff"/><stop offset="1" stop-color="#cacaca"/></linearGradient><linearGradient x1="245.04129" y1="172.60076" x2="245.04129" y2="177.47576" gradientUnits="userSpaceOnUse" id="color-5"><stop offset="0" stop-color="#444444"/><stop offset="1" stop-color="#313131"/></linearGradient><linearGradient x1="233.20455" y1="188.56818" x2="233.20455" y2="193.81818" gradientUnits="userSpaceOnUse" id="color-6"><stop offset="0" stop-color="#690000"/><stop offset="1" stop-color="#ff0000"/></linearGradient><linearGradient x1="246.60229" y1="188.81818" x2="246.60229" y2="194.06818" gradientUnits="userSpaceOnUse" id="color-7"><stop offset="0" stop-color="#690000"/><stop offset="1" stop-color="#ff0000"/></linearGradient><linearGradient x1="253.03713" y1="166.84243" x2="245.41213" y2="166.84243" gradientUnits="userSpaceOnUse" id="color-8"><stop offset="0" stop-color="#848484"/><stop offset="1" stop-color="#c1c1c1"/></linearGradient><linearGradient x1="226.15041" y1="165.85955" x2="234.61744" y2="165.85955" gradientUnits="userSpaceOnUse" id="color-9"><stop offset="0" stop-color="#848484"/><stop offset="1" stop-color="#c1c1c1"/></linearGradient><linearGradient x1="227.35842" y1="160.84327" x2="227.35842" y2="170.98519" gradientUnits="userSpaceOnUse" id="color-10"><stop offset="0" stop-color="#d2d2d2"/><stop offset="1" stop-color="#d4d4d4"/></linearGradient><linearGradient x1="252.13333" y1="162.33334" x2="252.13333" y2="171.46667" gradientUnits="userSpaceOnUse" id="color-11"><stop offset="0" stop-color="#d2d2d2"/><stop offset="1" stop-color="#d4d4d4"/></linearGradient></defs><g transform="translate(-224.24714,-159.10572)"><g data-paper-data="{&quot;isPaintingLayer&quot;:true}" fill-rule="nonzero" stroke-linejoin="miter" stroke-miterlimit="10" stroke-dasharray="" stroke-dashoffset="0" style="mix-blend-mode: normal"><path d="M225.67046,188.72159l-0.90117,-20.775l31.15478,-0.01399l-0.25362,20.78899z" fill="url(#color-1)" stroke="#850000" stroke-width="1" stroke-linecap="butt"/><path d="M238.72046,174.29243l-10.05,5.24166l-1,-7.375z" fill="url(#color-2)" stroke="#000000" stroke-width="0" stroke-linecap="round"/><path d="M232.60379,177.69167l0.5,-5.125l4,3.5z" fill="url(#color-3)" stroke="#2b2b2b" stroke-width="0.5" stroke-linecap="round"/><path d="M252.29546,172.03409l-1,7.375l-10.18333,-4.84167z" data-paper-data="{&quot;index&quot;:null}" fill="url(#color-4)" stroke="#000000" stroke-width="0" stroke-linecap="round"/><path d="M242.72879,175.85076l4,-3.5l0.5,5.125z" data-paper-data="{&quot;index&quot;:null}" fill="url(#color-5)" stroke="#2b2b2b" stroke-width="0.5" stroke-linecap="round"/><path d="M231.15122,181.77447l8.875,1.25l9.25,-1.5l-9.5,3.75z" fill="#6b0000" stroke="#610000" stroke-width="0.5" stroke-linecap="round"/><path d="M234.95455,188.69318l-2.125,5.125l-2.875,-5.25z" fill="url(#color-6)" stroke="#710000" stroke-width="0.5" stroke-linecap="round"/><path d="M250.10229,188.94318l-3.125,5.125l-1.375,-5.125z" data-paper-data="{&quot;index&quot;:null}" fill="url(#color-7)" stroke="#710000" stroke-width="0.5" stroke-linecap="round"/><path d="M246.77577,171.17197l4.28409,-9.67045l-0.5909,10.09091z" data-paper-data="{&quot;index&quot;:null}" fill="url(#color-8)" stroke="#868686" stroke-width="0.5" stroke-linecap="round"/><path d="M229.10314,171.13409l-0.22545,-10.80818l4.93215,10.03845z" fill="url(#color-9)" stroke="#868686" stroke-width="0.5" stroke-linecap="round"/><path d="M228.35781,160.84327l0.37014,10.14192l-2.73906,-0.88834z" fill="url(#color-10)" stroke="#acacac" stroke-width="0.5" stroke-linecap="round"/><path d="M253.36667,170.66667l-2.46667,0.8l0.60001,-9.53333z" data-paper-data="{&quot;index&quot;:null}" fill="url(#color-11)" stroke="#acacac" stroke-width="0.5" stroke-linecap="round"/></g></g></svg>