<svg version="1.1" xmlns="http://www.w3.org/2000/svg" xmlns:xlink="http://www.w3.org/1999/xlink" width="128.21403" height="132.86999" viewBox="0,0,128.21403,132.86999"><defs><linearGradient x1="390.52716" y1="115.2552" x2="390.52716" y2="251.24947" gradientUnits="userSpaceOnUse" id="color-1"><stop offset="0" stop-color="#52b4ff"/><stop offset="1" stop-color="#52b4ff" stop-opacity="0"/></linearGradient><linearGradient x1="91.59736" y1="114.21311" x2="91.59736" y2="250.20738" gradientUnits="userSpaceOnUse" id="color-2"><stop offset="0" stop-color="#52b4ff"/><stop offset="1" stop-color="#52b4ff" stop-opacity="0"/></linearGradient><linearGradient x1="125.3612" y1="98.06065" x2="125.3612" y2="234.05492" gradientUnits="userSpaceOnUse" id="color-3"><stop offset="0" stop-color="#52b4ff"/><stop offset="1" stop-color="#52b4ff" stop-opacity="0"/></linearGradient><linearGradient x1="190.03349" y1="85.03449" x2="190.03349" y2="221.02875" gradientUnits="userSpaceOnUse" id="color-4"><stop offset="0" stop-color="#51ffef"/><stop offset="1" stop-color="#51ffef" stop-opacity="0"/></linearGradient><linearGradient x1="152.45564" y1="100.7701" x2="152.45564" y2="236.76437" gradientUnits="userSpaceOnUse" id="color-5"><stop offset="0" stop-color="#45d8c9"/><stop offset="1" stop-color="#45d8c9" stop-opacity="0"/></linearGradient><linearGradient x1="241.22169" y1="85.01377" x2="241.22169" y2="221.00804" gradientUnits="userSpaceOnUse" id="color-6"><stop offset="0" stop-color="#89fff3"/><stop offset="1" stop-color="#89fff3" stop-opacity="0"/></linearGradient><linearGradient x1="210.14625" y1="175.42544" x2="210.14625" y2="311.41969" gradientUnits="userSpaceOnUse" id="color-7"><stop offset="0" stop-color="#45d8c9"/><stop offset="1" stop-color="#45d8c9" stop-opacity="0"/></linearGradient><linearGradient x1="237.36324" y1="195.09085" x2="237.36324" y2="308.77024" gradientUnits="userSpaceOnUse" id="color-8"><stop offset="0" stop-color="#51ffef"/><stop offset="1" stop-color="#51ffef" stop-opacity="0"/></linearGradient><linearGradient x1="272.44055" y1="176.0791" x2="272.44055" y2="312.07335" gradientUnits="userSpaceOnUse" id="color-9"><stop offset="0" stop-color="#89fff3"/><stop offset="1" stop-color="#89fff3" stop-opacity="0"/></linearGradient><linearGradient x1="237.99243" y1="156.01901" x2="237.99243" y2="197.38571" gradientUnits="userSpaceOnUse" id="color-10"><stop offset="0" stop-color="#5cffff"/><stop offset="1" stop-color="#5cffff" stop-opacity="0"/></linearGradient><linearGradient x1="95.34752" y1="100.33871" x2="95.34752" y2="236.33297" gradientUnits="userSpaceOnUse" id="color-11"><stop offset="0" stop-color="#479dde"/><stop offset="1" stop-color="#479dde" stop-opacity="0"/></linearGradient><linearGradient x1="388.40156" y1="117.27659" x2="388.40156" y2="253.27086" gradientUnits="userSpaceOnUse" id="color-12"><stop offset="0" stop-color="#73c2ff"/><stop offset="1" stop-color="#73c2ff" stop-opacity="0"/></linearGradient><linearGradient x1="127.81239" y1="138.62724" x2="127.81239" y2="274.62149" gradientUnits="userSpaceOnUse" id="color-13"><stop offset="0" stop-color="#52b4ff"/><stop offset="1" stop-color="#52b4ff" stop-opacity="0"/></linearGradient><linearGradient x1="239.08333" y1="166.87175" x2="239.08333" y2="190.06777" gradientUnits="userSpaceOnUse" id="color-14"><stop offset="0" stop-color="#ff937d"/><stop offset="1" stop-color="#992626"/></linearGradient></defs><g transform="translate(-175.96174,-155.05727)"><g data-paper-data="{&quot;isPaintingLayer&quot;:true}" fill-rule="nonzero" stroke-linejoin="miter" stroke-miterlimit="10" stroke-dasharray="" stroke-dashoffset="0" style="mix-blend-mode: normal"><path d="M300.6267,174.28561l-14.51315,-2.09793l-20.40547,-15.29332z" data-paper-data="{&quot;index&quot;:null}" fill="url(#color-1)" stroke="#23cfcf" stroke-width="1" stroke-linecap="round"/><path d="M187.88407,172.27547l-10.1301,-1.71305l36.16249,-15.04351z" fill="url(#color-2)" stroke="#23cfcf" stroke-width="1" stroke-linecap="round"/><path d="M238.84315,170.77513l-24.44957,-14.82307l49.54406,0.83809z" fill="url(#color-3)" stroke="#23cfcf" stroke-width="1" stroke-linecap="round"/><path d="M214.08163,155.34751l51.06409,0.90087c0,0 -22.06149,123.21945 -23.34276,130.43376c-0.11496,0.64728 -27.72133,-131.33463 -27.72133,-131.33463z" fill="url(#color-4)" stroke="#23cfcf" stroke-width="0.5" stroke-linecap="round"/><path d="M241.14265,285.46342c0,0 -39.16984,-69.56474 -51.09126,-90.54181c-6.00595,-10.56814 -13.54758,-23.83849 -13.54758,-23.83849l36.99582,-15.66841z" fill="url(#color-5)" stroke="#23cfcf" stroke-width="0.5" stroke-linecap="round"/><path d="M241.89889,286.12401l23.53761,-129.63055l38.39229,18.80453z" fill="url(#color-6)" stroke="#23cfcf" stroke-width="0.5" stroke-linecap="round"/><path d="M241.15647,285.3644c0,0 -45.51837,-72.44052 -56.22121,-94.83467c-4.12683,-8.63477 -8.07708,-18.94626 -8.07708,-18.94626l33.99479,25.66062z" fill="url(#color-7)" stroke="#23cfcf" stroke-width="0.5" stroke-linecap="round"/><path d="M241.71099,287.1344l-31.39927,-89.83313l60.10275,-1.26309z" fill="url(#color-8)" stroke="#23cfcf" stroke-width="0.5" stroke-linecap="round"/><path d="M269.83914,195.37152l31.96858,-18.02932c0,0 -12.16384,22.25983 -19.96294,36.53219c-11.04015,20.20347 -39.38328,70.5614 -39.38328,70.5614z" data-paper-data="{&quot;index&quot;:null}" fill="url(#color-9)" stroke="#23cfcf" stroke-width="0.5" stroke-linecap="round"/><path d="M213.204,156.01901h52.41884l37.45728,20.14019l-32.92708,19.30356l-59.75051,1.82584l-33.69418,-26.01513z" fill="url(#color-10)" stroke="#23cfcf" stroke-width="0.5" stroke-linecap="round"/><path d="M177.46621,200.58209l-0.6954,-29.49408l32.89479,25.65607z" fill="url(#color-11)" stroke="#23cfcf" stroke-width="1" stroke-linecap="round"/><path d="M269.98349,195.78197l33.35691,-19.0217l-6.05752,31.25972z" data-paper-data="{&quot;index&quot;:null}" fill="url(#color-12)" stroke="#23cfcf" stroke-width="1" stroke-linecap="round"/><path d="M240.12768,219.18428l-29.592,-22.37439l59.20402,-1.46226z" fill="url(#color-13)" stroke="#23cfcf" stroke-width="1" stroke-linecap="round"/><path d="M260.10474,178.46976c0,6.4054 -9.13163,6.8386 -20.74143,6.8386c-11.6098,0 -21.30137,-0.43319 -21.30137,-6.8386c0,-6.4054 9.52312,-17.06247 21.13292,-17.06247c11.6098,0 20.90988,10.65706 20.90988,17.06247z" fill="url(#color-14)" stroke="#000000" stroke-width="1.5" stroke-linecap="butt"/><text transform="translate(232.31193,181.87286) scale(0.60735,0.60735)" font-size="40" xml:space="preserve" fill="#000000" fill-rule="nonzero" stroke="none" stroke-width="1" stroke-linecap="butt" stroke-linejoin="miter" stroke-miterlimit="10" stroke-dasharray="" stroke-dashoffset="0" font-family="Handwriting" font-weight="normal" text-anchor="start" style="mix-blend-mode: normal"><tspan x="0" dy="0">6</tspan></text></g></g></svg>