<svg version="1.1" xmlns="http://www.w3.org/2000/svg" xmlns:xlink="http://www.w3.org/1999/xlink" width="121.454" height="32" viewBox="0,0,121.454,32"><defs><linearGradient x1="238.45506" y1="194.18832" x2="238.45506" y2="184.75424" gradientUnits="userSpaceOnUse" id="color-1"><stop offset="0" stop-color="#67a2f5"/><stop offset="1" stop-color="#0f73ff"/></linearGradient><linearGradient x1="238.45506" y1="165.74371" x2="238.45506" y2="175.1778" gradientUnits="userSpaceOnUse" id="color-2"><stop offset="0" stop-color="#67a2f5"/><stop offset="1" stop-color="#0f73ff"/></linearGradient><linearGradient x1="239.99503" y1="165.5" x2="239.99503" y2="194.5" gradientUnits="userSpaceOnUse" id="color-3"><stop offset="0" stop-color="#1f6bdd"/><stop offset="1" stop-color="#2b1aad"/></linearGradient><linearGradient x1="277.44366" y1="166.22751" x2="277.44366" y2="192.9725" gradientUnits="userSpaceOnUse" id="color-4"><stop offset="0" stop-color="#404040"/><stop offset="1" stop-color="#071315"/></linearGradient><linearGradient x1="277.80497" y1="171.45905" x2="277.80497" y2="172.94488" gradientUnits="userSpaceOnUse" id="color-5"><stop offset="0" stop-color="#0e0e0e"/><stop offset="1" stop-color="#071315"/></linearGradient><linearGradient x1="277.75355" y1="173.88402" x2="277.75355" y2="175.36986" gradientUnits="userSpaceOnUse" id="color-6"><stop offset="0" stop-color="#0e0e0e"/><stop offset="1" stop-color="#071315"/></linearGradient><linearGradient x1="277.69129" y1="169.11663" x2="277.69129" y2="170.60246" gradientUnits="userSpaceOnUse" id="color-7"><stop offset="0" stop-color="#0e0e0e"/><stop offset="1" stop-color="#071315"/></linearGradient><linearGradient x1="262.46151" y1="170.10718" x2="262.46151" y2="188.59755" gradientUnits="userSpaceOnUse" id="color-8"><stop offset="0" stop-color="#000000"/><stop offset="1" stop-color="#211e1e"/></linearGradient><linearGradient x1="262.28702" y1="171.70269" x2="262.28702" y2="187.1836" gradientUnits="userSpaceOnUse" id="color-9"><stop offset="0" stop-color="#262626"/><stop offset="1" stop-color="#4a4a4a"/></linearGradient><linearGradient x1="261.80114" y1="190.33102" x2="261.80114" y2="192.39468" gradientUnits="userSpaceOnUse" id="color-10"><stop offset="0" stop-color="#000000"/><stop offset="1" stop-color="#211e1e"/></linearGradient><linearGradient x1="261.92496" y1="188.18482" x2="261.92496" y2="191.15648" gradientUnits="userSpaceOnUse" id="color-11"><stop offset="0" stop-color="#000000"/><stop offset="1" stop-color="#211e1e"/></linearGradient></defs><g transform="translate(-179.38338,-164)"><g data-paper-data="{&quot;isPaintingLayer&quot;:true}" fill-rule="nonzero" stroke-linejoin="miter" stroke-miterlimit="10" stroke-dasharray="" stroke-dashoffset="0" style="mix-blend-mode: normal"><path d="M181.44821,179.67891h117.18371l-15.77118,14.50941h-88.81136z" data-paper-data="{&quot;index&quot;:null}" fill="url(#color-1)" stroke="none" stroke-width="0" stroke-linecap="round"/><path d="M194.04938,165.74371h88.81136l15.77118,14.50941h-117.1837z" fill="url(#color-2)" stroke="none" stroke-width="1.5" stroke-linecap="round"/><path d="M181.36809,180.125l12.60795,-14.625h88.88599l15.75993,14.625l-15.75993,14.375h-88.97605z" fill="none" stroke="url(#color-3)" stroke-width="3" stroke-linecap="round"/><g stroke="none" stroke-width="0" stroke-linecap="butt"><path d="M271.04632,192.9725v-26.74499h12.79467v26.74499z" fill="url(#color-4)"/><path d="M273.38874,172.94488v-1.48583h8.83245v1.48583z" fill="url(#color-5)"/><path d="M273.33732,175.36986v-1.48583h8.83245v1.48583z" fill="url(#color-6)"/><path d="M273.27507,170.60246v-1.48583h8.83245v1.48583z" fill="url(#color-7)"/><path d="M248.67628,188.59755v-18.49036h27.57045v18.49036z" fill="url(#color-8)"/><path d="M250.44423,187.1836v-15.48091h23.68556c0,0 0,5.36105 0,7.97986c0,2.53903 0,7.50104 0,7.50104z" fill="url(#color-9)"/><path d="M267.74447,191.36285c0,0.56986 -2.66092,1.03183 -5.94333,1.03183c-3.28241,0 -5.94333,-0.46197 -5.94333,-1.03183c0,-0.56986 2.66092,-1.03183 5.94333,-1.03183c3.28241,0 5.94333,0.46197 5.94333,1.03183z" fill="url(#color-10)"/><path d="M259.07711,191.15648v-2.97167h5.69569v2.97167z" fill="url(#color-11)"/></g><text transform="translate(207.1,187.2) scale(0.5,0.5)" font-size="40" xml:space="preserve" fill="#ffffff" fill-rule="nonzero" stroke="none" stroke-width="1" stroke-linecap="butt" stroke-linejoin="miter" stroke-miterlimit="10" stroke-dasharray="" stroke-dashoffset="0" font-family="Sans Serif" font-weight="normal" text-anchor="start" style="mix-blend-mode: normal"><tspan x="0" dy="0">PC</tspan></text></g></g></svg>