<svg version="1.1" xmlns="http://www.w3.org/2000/svg" xmlns:xlink="http://www.w3.org/1999/xlink" width="173.82325" height="103.92411" viewBox="0,0,173.82325,103.92411"><defs><linearGradient x1="240" y1="127.83796" x2="240" y2="231.76207" gradientUnits="userSpaceOnUse" id="color-1"><stop offset="0" stop-color="#ffee78" stop-opacity="0"/><stop offset="1" stop-color="#ffee78"/></linearGradient><linearGradient x1="191.22971" y1="150.33081" x2="191.22971" y2="177.37944" gradientUnits="userSpaceOnUse" id="color-2"><stop offset="0" stop-color="#8a4aff"/><stop offset="1" stop-color="#4a4fff"/></linearGradient><linearGradient x1="191.88088" y1="162.38582" x2="191.88088" y2="186.32887" gradientUnits="userSpaceOnUse" id="color-3"><stop offset="0" stop-color="#46ffff"/><stop offset="1" stop-color="#45b5ff"/></linearGradient><linearGradient x1="213.21924" y1="161.78474" x2="213.21924" y2="185.72779" gradientUnits="userSpaceOnUse" id="color-4"><stop offset="0" stop-color="#46ffff"/><stop offset="1" stop-color="#45b5ff"/></linearGradient><linearGradient x1="173.19729" y1="160.54918" x2="173.19729" y2="187.59782" gradientUnits="userSpaceOnUse" id="color-5"><stop offset="0" stop-color="#8a4aff"/><stop offset="1" stop-color="#4a4fff"/></linearGradient><linearGradient x1="227.79545" y1="151.86691" x2="227.79545" y2="178.91554" gradientUnits="userSpaceOnUse" id="color-6"><stop offset="0" stop-color="#8a4aff"/><stop offset="1" stop-color="#4a4fff"/></linearGradient><linearGradient x1="199.57805" y1="196.61403" x2="199.57805" y2="214.31251" gradientUnits="userSpaceOnUse" id="color-7"><stop offset="0" stop-color="#8a4afe"/><stop offset="1" stop-color="#4a4ffe"/></linearGradient><linearGradient x1="211.18225" y1="187.26388" x2="211.18225" y2="213.97858" gradientUnits="userSpaceOnUse" id="color-8"><stop offset="0" stop-color="#8a4afe"/><stop offset="1" stop-color="#4a4ffe"/></linearGradient><linearGradient x1="201.41469" y1="186.92995" x2="201.41469" y2="199.45246" gradientUnits="userSpaceOnUse" id="color-9"><stop offset="0" stop-color="#8a4afe"/><stop offset="1" stop-color="#4a4ffe"/></linearGradient></defs><g transform="translate(-153.08838,-127.83795)"><g data-paper-data="{&quot;isPaintingLayer&quot;:true}" fill-rule="nonzero" stroke-linejoin="miter" stroke-miterlimit="10" stroke-dasharray="" stroke-dashoffset="0" style="mix-blend-mode: normal"><path d="M153.08838,231.76207v-103.92411h173.82325v103.92411z" fill="url(#color-1)" stroke="none" stroke-width="1.5" stroke-linecap="butt"/><text transform="translate(217.16877,182.04167) scale(0.59751,0.59751)" font-size="40" xml:space="preserve" fill="#000000" fill-rule="nonzero" stroke="none" stroke-width="1" stroke-linecap="butt" stroke-linejoin="miter" stroke-miterlimit="10" stroke-dasharray="" stroke-dashoffset="0" font-family="Sans Serif" font-weight="normal" text-anchor="start" style="mix-blend-mode: normal"><tspan x="0" dy="0">  This is </tspan><tspan x="0" dy="46.15px">level goal</tspan></text><g stroke-width="1.5" stroke-linecap="round"><path d="M185.98695,151.73333l-6.5785,22.40695l26.34738,-7.58029z" fill="url(#color-2)" stroke="#8c00ff"/><path d="M202.75042,186.32887l-10.31856,-23.94305l-11.42053,20.03603z" fill="url(#color-3)" stroke="#00a8ff"/><path d="M203.55186,186.02833c0,0 -10.78209,-24.60338 -10.59983,-24.28362c1.07384,1.88392 18.01316,12.96327 18.01316,12.96327z" data-paper-data="{&quot;index&quot;:null}" fill="url(#color-4)" stroke="#00a8ff"/><path d="M177.37146,160.54918l-21.20479,21.20479l34.06124,5.84385z" fill="url(#color-5)" stroke="#8c00ff"/><path d="M201.41469,152.86871l29.05223,4.84204l-19.70209,21.20479z" data-paper-data="{&quot;index&quot;:null}" fill="url(#color-6)" stroke="#8c00ff"/><path d="M189.66022,196.71421l17.03062,3.33934l3.0054,13.25717z" fill="url(#color-7)" stroke="#8c00ff"/><path d="M207.19174,199.71961l6.87904,-11.25357l-3.77346,23.70929z" fill="url(#color-8)" stroke="#8c00ff"/><path d="M189.49325,195.77919l16.93044,3.67327l7.51351,-12.52251z" fill="url(#color-9)" stroke="#8c00ff"/></g></g></g></svg>