<svg version="1.1" xmlns="http://www.w3.org/2000/svg" xmlns:xlink="http://www.w3.org/1999/xlink" width="71.09596" height="67.08857" viewBox="0,0,71.09596,67.08857"><defs><radialGradient cx="240.00011" cy="180" r="31.56957" gradientUnits="userSpaceOnUse" id="color-1"><stop offset="0" stop-color="#8cf270"/><stop offset="1" stop-color="#318c00"/></radialGradient><radialGradient cx="228.18891" cy="172.03333" r="5.4" gradientUnits="userSpaceOnUse" id="color-2"><stop offset="0" stop-color="#000000"/><stop offset="1" stop-color="#0e5600"/></radialGradient><radialGradient cx="252.32223" cy="171.17778" r="5.4" gradientUnits="userSpaceOnUse" id="color-3"><stop offset="0" stop-color="#000000"/><stop offset="1" stop-color="#0e5600"/></radialGradient><linearGradient x1="241.91667" y1="139" x2="241.91667" y2="171.33333" gradientUnits="userSpaceOnUse" id="color-4"><stop offset="0" stop-color="#245d1f"/><stop offset="1" stop-color="#0c1f0b"/></linearGradient></defs><g transform="translate(-204.78295,-144.98101)"><g data-paper-data="{&quot;isPaintingLayer&quot;:true}" fill-rule="nonzero" stroke-linejoin="miter" stroke-miterlimit="10" stroke-dasharray="" stroke-dashoffset="0" style="mix-blend-mode: normal"><path d="M208.43054,211.56958v-63.13915c0,0 19.33274,0 29.48613,0c10.84711,0 33.65302,0 33.65302,0v63.13915z" fill="url(#color-1)" stroke="#000000" stroke-width="1" stroke-linecap="butt"/><path d="M260.54168,202.79166c0,1.05855 -10.72799,-1.41667 -21.08333,-1.41667c-10.35534,0 -20.5,2.14188 -20.5,1.08333c0,-1.05855 17.41903,-3.96613 19.8224,-3.52396c7.19191,1.32317 21.51093,1.43888 21.51093,2.23229z" fill="#004f03" stroke="#000000" stroke-width="1" stroke-linecap="butt"/><path d="M223.69107,201.64982l3.31694,-9.61498c0,0 1.76895,1.77435 2.73048,2.65578c0.95324,0.87383 4.01406,5.86016 4.01406,5.86016c0,0 -3.27754,0.6784 -4.81972,0.84685c-1.77799,0.19421 -5.24176,0.25219 -5.24176,0.25219z" fill="#ffffff" stroke="none" stroke-width="0" stroke-linecap="round"/><path d="M247.98273,201.25911c0,0 0.36161,-4.34742 0.80172,-4.77572c0.94269,-0.91738 4.44281,-4.32355 4.44281,-4.32355l1.77527,10.11498z" data-paper-data="{&quot;index&quot;:null}" fill="#ffffff" stroke="none" stroke-width="0" stroke-linecap="round"/><path d="M235.74447,176.31574c0,9.0457 -3.58909,8.47438 -8.48602,8.47438c-4.89693,0 -9.24732,0.57132 -9.24732,-8.47438c0,-1.60831 0.13414,-3.08462 0.38225,-4.42502c1.14735,-6.1985 4.73182,-9.49072 8.75807,-9.49072c4.89693,0 8.593,4.87004 8.593,13.91574z" fill="#ffffff" stroke="#000000" stroke-width="1" stroke-linecap="butt"/><path d="M230.98891,172.03333c0,4.6392 -1.25361,8.4 -2.8,8.4c-1.54639,0 -2.8,-3.76081 -2.8,-8.4c0,-4.6392 1.2536,-8.4 2.8,-8.4c1.54639,0 2.8,3.76081 2.8,8.4z" fill="url(#color-2)" stroke="#000000" stroke-width="1" stroke-linecap="butt"/><path d="M251.75545,160.26666c4.7742,0 8.91125,6.2154 8.91125,15.03439c0,8.819 -3.60378,8.46307 -8.37798,8.46307c-4.77419,0 -8.91091,0.35593 -8.91091,-8.46306c0,-8.819 3.60345,-15.03439 8.37765,-15.03439z" data-paper-data="{&quot;index&quot;:null}" fill="#ffffff" stroke="#000000" stroke-width="1" stroke-linecap="butt"/><path d="M252.32223,161.5c1.54639,0 2.8,4.33289 2.8,9.67778c0,5.3449 -1.25361,9.67777 -2.8,9.67777c-1.54639,0 -2.8,-4.33288 -2.8,-9.67777c0,-5.3449 1.2536,-9.67778 2.8,-9.67778z" data-paper-data="{&quot;index&quot;:null}" fill="url(#color-3)" stroke="#000000" stroke-width="1" stroke-linecap="butt"/><path d="M221.67178,152l12.41156,9.63946l-16.16666,-1.96599z" fill="#062000" stroke="#000000" stroke-width="1" stroke-linecap="round"/><path d="M260.75,158.0068l-14.66666,2.79932l10.91156,-10.47279z" data-paper-data="{&quot;index&quot;:null}" fill="#072100" stroke="#000000" stroke-width="1" stroke-linecap="round"/><path d="M208.08333,180.66668c0,0 -2.7401,-1.93917 -2.80038,-10.33716c-0.03444,-4.79806 2.26529,-16.41947 2.76851,-19.09617c1.2011,-6.38882 8.3652,-5.73334 8.3652,-5.73334c0,0 13.75781,1.07941 21.15903,1.22406c9.24207,0.18063 32.84097,-0.22406 32.84097,-0.22406c0,0 3.20055,5.64032 3.43727,8.65851c0.07295,0.93011 2.13954,11.91244 1.34237,13.0015c-1.41337,1.93087 -6.11297,-6.16002 -6.11297,-6.16002c0,0 -0.89829,8.29532 -1.7801,7.43997c-1.24535,-1.20799 0.03017,-3.25749 -4.64882,-10.15485c-4.90198,-7.22606 -13.07108,-5.11845 -13.07108,-5.11845c0,0 -3.89437,-1.05475 -5.43342,0.24548c-1.67213,1.41265 -3.23325,18.25452 -3.23325,18.25452c0,0 -1.21205,5.63793 -1.81395,2.79396c-1.35869,-6.41983 -4.52128,-19.82712 -6.36537,-20.59698c-3.01651,-1.25932 -9.98734,0.30302 -9.98734,0.30302c0,0 -6.01862,-1.62103 -7.74657,1.38324c-2.70675,4.70605 -6.9201,24.11676 -6.9201,24.11676z" fill="url(#color-4)" stroke="#000000" stroke-width="1" stroke-linecap="round"/></g></g></svg>