<svg version="1.1" xmlns="http://www.w3.org/2000/svg" xmlns:xlink="http://www.w3.org/1999/xlink" width="175.45585" height="115.71207" viewBox="0,0,175.45585,115.71207"><defs><linearGradient x1="240" y1="128.03797" x2="240" y2="231.96208" gradientUnits="userSpaceOnUse" id="color-1"><stop offset="0" stop-color="#ffee78" stop-opacity="0"/><stop offset="1" stop-color="#ffee78"/></linearGradient><linearGradient x1="225.82581" y1="125.53101" x2="225.82581" y2="179.71424" gradientUnits="userSpaceOnUse" id="color-2"><stop offset="0" stop-color="#ffdf00"/><stop offset="1" stop-color="#ff6700"/></linearGradient><linearGradient x1="223.40299" y1="126.19178" x2="223.40299" y2="180.37501" gradientUnits="userSpaceOnUse" id="color-3"><stop offset="0" stop-color="#ff6700"/><stop offset="1" stop-color="#ffdf00"/></linearGradient><linearGradient x1="191.78853" y1="149.57605" x2="182.40101" y2="149.5704" gradientUnits="userSpaceOnUse" id="color-4"><stop offset="0" stop-color="#ff8800"/><stop offset="1" stop-color="#ffea00"/></linearGradient><linearGradient x1="191.78853" y1="149.57605" x2="182.40101" y2="149.5704" gradientUnits="userSpaceOnUse" id="color-5"><stop offset="0" stop-color="#ff9800"/><stop offset="1" stop-color="#ffbc00"/></linearGradient><linearGradient x1="222.01644" y1="164.46299" x2="231.22509" y2="169.86809" gradientUnits="userSpaceOnUse" id="color-6"><stop offset="0" stop-color="#ff8800"/><stop offset="1" stop-color="#ffea00"/></linearGradient><linearGradient x1="222.01644" y1="164.46299" x2="231.22509" y2="169.86809" gradientUnits="userSpaceOnUse" id="color-7"><stop offset="0" stop-color="#ff9800"/><stop offset="1" stop-color="#ffbc00"/></linearGradient><linearGradient x1="194.33658" y1="200.69394" x2="189.41593" y2="213.57839" gradientUnits="userSpaceOnUse" id="color-8"><stop offset="0" stop-color="#0050ff"/><stop offset="1" stop-color="#0050ff" stop-opacity="0"/></linearGradient><linearGradient x1="194.33658" y1="200.69394" x2="189.41593" y2="213.57839" gradientUnits="userSpaceOnUse" id="color-9"><stop offset="0" stop-color="#0046ff"/><stop offset="1" stop-color="#5d72ff"/></linearGradient><linearGradient x1="209.24473" y1="160.82642" x2="191.62563" y2="206.96107" gradientUnits="userSpaceOnUse" id="color-10"><stop offset="0" stop-color="#0077ff"/><stop offset="1" stop-color="#0077ff" stop-opacity="0"/></linearGradient><linearGradient x1="209.24473" y1="160.82642" x2="191.62563" y2="206.96107" gradientUnits="userSpaceOnUse" id="color-11"><stop offset="0" stop-color="#0046ff"/><stop offset="1" stop-color="#5d72ff"/></linearGradient><linearGradient x1="218.18076" y1="165.70756" x2="187.36194" y2="246.40493" gradientUnits="userSpaceOnUse" id="color-12"><stop offset="0" stop-color="#5350ff"/><stop offset="1" stop-color="#5350ff" stop-opacity="0"/></linearGradient><linearGradient x1="218.18076" y1="165.70756" x2="187.36194" y2="246.40493" gradientUnits="userSpaceOnUse" id="color-13"><stop offset="0" stop-color="#0031b9"/><stop offset="1" stop-color="#5d72ff"/></linearGradient><linearGradient x1="191.78487" y1="156.85712" x2="160.96605" y2="237.55449" gradientUnits="userSpaceOnUse" id="color-14"><stop offset="0" stop-color="#2b27ff"/><stop offset="1" stop-color="#2b27ff" stop-opacity="0"/></linearGradient><linearGradient x1="191.78487" y1="156.85712" x2="160.96605" y2="237.55449" gradientUnits="userSpaceOnUse" id="color-15"><stop offset="0" stop-color="#001d6d"/><stop offset="1" stop-color="#5d72ff"/></linearGradient><linearGradient x1="176.3079" y1="204.72268" x2="172.1809" y2="215.529" gradientUnits="userSpaceOnUse" id="color-16"><stop offset="0" stop-color="#ff2f17"/><stop offset="1" stop-color="#ff3317"/></linearGradient><linearGradient x1="176.3079" y1="204.72268" x2="172.1809" y2="215.529" gradientUnits="userSpaceOnUse" id="color-17"><stop offset="0" stop-color="#ff2500"/><stop offset="1" stop-color="#ff2f00"/></linearGradient><linearGradient x1="171.73741" y1="203.81912" x2="168.26802" y2="212.90355" gradientUnits="userSpaceOnUse" id="color-18"><stop offset="0" stop-color="#ff0000"/><stop offset="1" stop-color="#ff0000"/></linearGradient><linearGradient x1="171.73741" y1="203.81912" x2="168.26802" y2="212.90355" gradientUnits="userSpaceOnUse" id="color-19"><stop offset="0" stop-color="#f73300"/><stop offset="1" stop-color="#f73700"/></linearGradient><linearGradient x1="194.74433" y1="217.24052" x2="190.61734" y2="228.04683" gradientUnits="userSpaceOnUse" id="color-20"><stop offset="0" stop-color="#ff2f17"/><stop offset="1" stop-color="#ff3317"/></linearGradient><linearGradient x1="194.74433" y1="217.24052" x2="190.61734" y2="228.04683" gradientUnits="userSpaceOnUse" id="color-21"><stop offset="0" stop-color="#ff2500"/><stop offset="1" stop-color="#ff2f00"/></linearGradient><linearGradient x1="190.12738" y1="216.27159" x2="186.65798" y2="225.35602" gradientUnits="userSpaceOnUse" id="color-22"><stop offset="0" stop-color="#ff0000"/><stop offset="1" stop-color="#ff0000"/></linearGradient><linearGradient x1="190.12738" y1="216.27159" x2="186.65798" y2="225.35602" gradientUnits="userSpaceOnUse" id="color-23"><stop offset="0" stop-color="#f73300"/><stop offset="1" stop-color="#f73700"/></linearGradient><linearGradient x1="213.21176" y1="142.02154" x2="207.73555" y2="156.36069" gradientUnits="userSpaceOnUse" id="color-24"><stop offset="0" stop-color="#ff9400"/><stop offset="1" stop-color="#ff4d00"/></linearGradient><linearGradient x1="213.21176" y1="142.02154" x2="207.73555" y2="156.36069" gradientUnits="userSpaceOnUse" id="color-25"><stop offset="0" stop-color="#ff9900"/><stop offset="1" stop-color="#ff5800"/></linearGradient><linearGradient x1="215.4138" y1="136.67129" x2="213.13866" y2="142.62862" gradientUnits="userSpaceOnUse" id="color-26"><stop offset="0" stop-color="#ff9400"/><stop offset="1" stop-color="#ff4d00"/></linearGradient><linearGradient x1="215.4138" y1="136.67129" x2="213.13866" y2="142.62862" gradientUnits="userSpaceOnUse" id="color-27"><stop offset="0" stop-color="#ff5800"/><stop offset="1" stop-color="#ff9900"/></linearGradient></defs><g transform="translate(-151.45578,-116.25001)"><g data-paper-data="{&quot;isPaintingLayer&quot;:true}" fill-rule="nonzero" stroke-linejoin="miter" stroke-miterlimit="10" stroke-dasharray="" stroke-dashoffset="0" style="mix-blend-mode: normal"><path d="M153.08838,231.96208v-103.92411h173.82325v103.92411z" fill="url(#color-1)" stroke="none" stroke-width="0" stroke-linecap="butt"/><text transform="translate(151.73224,166.07481) scale(0.55292,0.55292)" font-size="40" xml:space="preserve" fill="#000000" fill-rule="nonzero" stroke="none" stroke-width="1" stroke-linecap="butt" stroke-linejoin="miter" stroke-miterlimit="10" stroke-dasharray="" stroke-dashoffset="0" font-family="Sans Serif" font-weight="normal" text-anchor="start" style="mix-blend-mode: normal"><tspan x="0" dy="0">  Use </tspan></text><text transform="translate(165.375,201.00001) scale(0.5,0.5)" font-size="40" xml:space="preserve" fill="#000000" fill-rule="nonzero" stroke="none" stroke-width="1" stroke-linecap="butt" stroke-linejoin="miter" stroke-miterlimit="10" stroke-dasharray="" stroke-dashoffset="0" font-family="Sans Serif" font-weight="normal" text-anchor="start" style="mix-blend-mode: normal"><tspan x="0" dy="0">inapproachable</tspan><tspan x="0" dy="46.150000000000006px">         places</tspan></text><g fill="none" stroke-width="4.5" stroke-linecap="butt"><path d="M236.72658,152.62262c0,14.96229 -4.88044,27.09162 -10.90077,27.09162c-6.02033,0 -10.90077,-12.12933 -10.90077,-27.09162c0,-14.96229 4.88044,-27.09162 10.90077,-27.09162c6.02033,0 10.90077,12.12933 10.90077,27.09162z" stroke="url(#color-2)"/><path d="M234.30375,153.28339c0,14.96228 -4.88044,27.09162 -10.90077,27.09162c-6.02033,0 -10.90077,-12.12933 -10.90077,-27.09162c0,-14.96228 4.88044,-27.09162 10.90077,-27.09162c6.02033,0 10.90077,12.12933 10.90077,27.09162z" stroke="url(#color-3)"/></g><text transform="translate(245.125,166) scale(0.5,0.5)" font-size="40" xml:space="preserve" fill="#000000" fill-rule="nonzero" stroke="none" stroke-width="1" stroke-linecap="butt" stroke-linejoin="miter" stroke-miterlimit="10" stroke-dasharray="" stroke-dashoffset="0" font-family="Sans Serif" font-weight="normal" text-anchor="start" style="mix-blend-mode: normal"><tspan x="0" dy="0">to reach</tspan></text><path d="M299.63739,187.75139c0.87657,-4.3955 1.83195,-8.75377 2.83418,-13.10961c-0.2576,0.57481 -0.51432,1.15022 -0.77021,1.72626c-1.62204,3.65148 -2.89197,8.59445 -5.46275,11.72528l-2.40396,4.32713c-0.41982,0.7909 -1.25182,1.32954 -2.20965,1.32954c-0.26219,0 -0.51495,-0.04036 -0.75241,-0.11521c0.00183,0.37222 0.00269,0.74397 0.00241,1.11521c-0.00257,3.48421 0.27855,10.45605 -1.34731,13.69073c-0.0469,0.0933 -0.09568,0.18537 -0.1462,0.27629l0.0414,0.01774l-1.47073,3.43184c-0.36944,0.91922 -1.26922,1.5682 -2.32058,1.5682c-1.38071,0 -2.5,-1.11929 -2.5,-2.5c0,-0.0241 0.00034,-0.04813 0.00102,-0.07207l0.12381,-4.98842l0.01731,0.00043l-0.01503,-0.0618c0.4952,-6.66445 1.55445,-13.27676 2.5082,-19.89723c-0.04429,-2.5111 -0.08462,-5.02831 -0.08123,-7.54251c-3.8964,6.80944 -7.80493,13.61147 -11.74887,20.3938c-2.28389,3.92756 -4.27265,9.85315 -7.22837,13.23682c-0.04099,0.04692 -0.08229,0.09352 -0.1239,0.13981l0.01912,0.01409l-2.94781,4.0006c-0.45382,0.63088 -1.19435,1.04169 -2.03082,1.04169c-0.63649,0 -1.21743,-0.23786 -1.65877,-0.62954c-0.44675,0.68032 -1.21652,1.12954 -2.09123,1.12954c-1.38071,0 -2.5,-1.11929 -2.5,-2.5c0,-0.1348 0.01067,-0.26711 0.03121,-0.39613l0.53681,-3.75768c1.31558,-9.20623 2.98165,-18.36094 4.43276,-27.54728c0.53688,-3.39878 0.95218,-7.11927 1.65897,-10.73771c-2.82196,6.04772 -5.24814,12.4763 -7.24448,18.52994c-2.04845,6.21167 -3.26515,12.86614 -4.85188,19.21305c-0.80845,3.23381 -1.06911,6.65648 -2.42535,9.70143l-1.2,4.79998c-0.25265,1.1133 -1.24829,1.94439 -2.43804,1.94439c-1.38071,0 -2.5,-1.11929 -2.5,-2.5v-2.75h0.06425l-0.05991,-0.14713c1.6316,-13.92227 4.15317,-27.68792 6.22798,-41.53762c-1.5665,6.34513 -3.06815,12.70976 -4.57178,19.11517c-1.13997,4.85626 -2.34029,9.70379 -3.42132,14.57347c-0.359,1.6172 -0.38108,3.33506 -1.01793,4.86432l-1.01457,4.84737c-0.21815,1.15822 -1.23512,2.03442 -2.45673,2.03442c-1.38071,0 -2.5,-1.11929 -2.5,-2.5c0,-0.10196 0.0061,-0.2025 0.01797,-0.30126l0.38022,-3.5519l0.02576,0.00276l-0.01799,-0.06739c0.79122,-4.9372 2.31847,-9.71219 3.11123,-14.62494c0.87142,-5.40016 -0.0266,-11.72815 -0.01719,-17.20727c0.00028,-0.16194 0.00078,-0.32485 0.00187,-0.48848c-3.09235,7.06618 -5.9287,14.29577 -8.10172,21.68797c-0.14187,0.48263 -2.169,9.05982 -2.22938,9.1749c-0.00548,0.01045 -0.011,0.02089 -0.01653,0.03131l0.00767,0.00209l-0.73571,2.69761c-0.27065,1.0882 -1.25426,1.8946 -2.4262,1.8946c-1.38071,0 -2.5,-1.11929 -2.5,-2.5c0,-0.20077 0.02367,-0.39601 0.06837,-0.58309l0.24076,-1.10797c-0.37867,0.23084 -0.82353,0.36384 -1.29946,0.36384c-1.38071,0 -2.5,-1.11929 -2.5,-2.5c0,-0.11851 0.00824,-0.2351 0.02419,-0.34921l0.61528,-4.92226c0.74631,-5.95019 1.89551,-11.8601 3.29416,-17.70237c-1.10795,2.13387 -2.24794,4.25453 -3.45397,6.34999c-1.66517,2.89321 -2.9398,6.06732 -5.07466,8.6336l-2.47712,4.27866c-0.42647,0.7686 -1.24625,1.28881 -2.18753,1.28881c-1.38071,0 -2.5,-1.11929 -2.5,-2.5c0,-0.18573 0.02025,-0.36673 0.05867,-0.54091l0.48988,-2.44938l0.01743,0.00348l-0.00883,-0.04471c3.56467,-15.15511 9.11936,-29.82515 12.57532,-44.97273c0.94941,-4.1613 0.9142,-9.18248 1.7425,-13.67883c-1.9483,3.18391 -3.72637,6.41758 -5.37023,9.7121c-2.06323,5.77239 -4.38346,11.43588 -6.84725,17.04608c-1.81756,6.11221 -3.71553,12.19844 -5.71743,18.24438l-0.79872,2.41182c-0.31274,1.02392 -1.26506,1.76871 -2.39135,1.76871c-0.63656,0 -1.21757,-0.23791 -1.65893,-0.62967l-1.26294,1.89441c-0.44513,0.68926 -1.22011,1.14551 -2.10164,1.14551c-1.30224,0 -2.37192,-0.99568 -2.48931,-2.26727l-0.51978,-4.94393l0.02685,-0.00282c-0.01433,-0.08202 -0.02786,-0.16425 -0.04052,-0.24668c-0.26568,-1.72957 0.32248,-3.48483 0.48675,-5.22696c0.06452,-0.68419 0.12869,-1.36318 0.19426,-2.03811l-0.06809,-1.83853l0.02472,-0.00091c-0.00886,-0.05151 -0.0174,-0.10309 -0.02563,-0.15475c-0.0041,-0.02574 0.87186,-9.99093 0.88301,-10.11713c0.64001,-7.24307 2.46456,-14.46816 4.76068,-21.35714c0.3313,-0.99399 0.73908,-2.28975 1.20024,-3.62864c0.00394,-0.11366 0.00718,-0.22749 0.00983,-0.34145c-3.96511,7.17783 -7.50582,14.60037 -10.37618,22.28265c-0.01317,3.85035 -0.10174,7.70226 -0.29582,11.58379c-0.29892,5.56907 -1.70707,9.97288 -3.35002,15.27773l-0.07402,0.10218l0.02917,0.01226l-1.91589,4.5557c-0.3654,0.92765 -1.26949,1.58416 -2.32692,1.58416c-1.21899,0 -2.23421,-0.87244 -2.45531,-2.02697l-1.03004,-4.84365l0.04769,-0.01014c-0.0384,-0.15875 -0.0726,-0.31879 -0.1022,-0.48028c-0.03325,-0.18144 -0.05333,-0.36293 -0.06222,-0.54445c-0.22856,0.87894 -0.50141,1.74587 -0.82571,2.59849l-0.9715,4.85749c-0.20987,1.16847 -1.23165,2.05513 -2.46053,2.05513c-1.28062,0 -2.33634,-0.96288 -2.48268,-2.20416l-0.49539,-3.71543l0.05422,-0.00723l-0.06983,-0.14556c-0.12035,-11.07207 -0.71447,-22.08745 -0.7563,-33.16718c-0.00121,-0.32084 -0.00722,-0.64467 -0.01685,-0.97099c-0.76946,6.88766 -1.58591,13.6989 -2.80076,20.53795l-0.08385,0.12717l0.04601,0.0138l-1.4206,4.73534c-0.29104,1.05813 -1.2601,1.83542 -2.4107,1.83542c-1.38071,0 -2.5,-1.11929 -2.5,-2.5c0,-0.12172 0.0087,-0.24142 0.02551,-0.3585l0.6322,-4.91938l0.00518,0.00066c-0.00045,-0.00977 -0.00089,-0.01955 -0.00132,-0.02933c-0.00006,-0.00132 1.50408,-9.88915 1.50746,-9.91161c0.76576,-5.07976 1.59524,-9.973 2.65614,-14.86086c0.03249,-0.46855 0.06255,-0.9369 0.09008,-1.405c-0.89227,-0.67827 -0.97297,-1.88881 -0.97297,-1.88881c-0.21775,-3.28411 -0.25947,-6.49141 -0.22904,-9.77934l0.22865,-0.31042l-0.14971,-0.04492l0.73386,-2.4462c0.29104,-1.05813 1.2601,-1.83543 2.41071,-1.83543c1.27327,0 2.32422,0.95187 2.48007,2.18283l0.10557,0.739c0.4219,-0.32496 0.95047,-0.51822 1.52419,-0.51822c1.30233,0 2.37208,0.99583 2.48934,2.26756l0.51915,4.94403l-0.01722,0.0018c0.00913,0.03932 0.01811,0.07871 0.02691,0.11813c0.00239,0.01071 0.03306,3.6118 0.05741,6.51487c0.09078,-0.36137 0.18736,-0.72187 0.29006,-1.08147c0.66413,-2.32528 3.5392,-8.2707 5.45569,-9.85277c1.43428,-1.184 3.48834,-3.03934 5.13678,-2.17816c3.92043,2.04811 3.41046,8.63242 3.51513,11.99462c0.01448,0.46508 0.02838,0.92973 0.04164,1.39398c2.68767,-6.11496 5.70502,-12.07793 9.20145,-18.01114l2.39238,-4.3063c0.41981,-0.7909 1.25182,-1.32954 2.20964,-1.32954c1.36389,0 2.47268,1.09217 2.4995,2.44963l0.02309,1.004c0.24744,-0.0854 0.51377,-0.11734 0.80276,-0.08284c0.09835,0.01174 0.19472,0.02556 0.28914,0.0414c2.20879,-4.26664 4.62689,-8.39169 7.17475,-12.24676c1.04124,-1.95981 2.08977,-3.89929 3.13073,-5.81732l0.06939,-0.06603l-0.02052,-0.01319l2.22762,-3.46519c0.44099,-0.7101 1.22794,-1.18292 2.12533,-1.18292c1.25901,0 2.30065,0.93067 2.4745,2.14157l0.78976,4.89655c0.34786,1.21283 0.55854,2.37058 0.4844,3.29357c-0.34896,4.34447 -1.62725,8.84916 -2.95817,13.23632l0.4986,-0.61892c0.45791,-0.57817 1.16609,-0.94908 1.9609,-0.94908c1.38071,0 2.5,1.11929 2.5,2.5v5c0.40298,2.62412 -0.44951,6.17959 -0.84308,8.58897c-1.11032,6.79736 -2.5665,13.15462 -4.50875,19.762c-2.03096,6.90916 -4.07491,13.79241 -5.98361,20.71598c3.13253,-5.69166 5.8647,-11.53775 8.89506,-17.2936l1.36889,-3.20285c0.36886,-0.92043 1.26926,-1.57049 2.32149,-1.57049c1.38071,0 2.5,1.11929 2.5,2.5c0,0.09542 -0.00535,0.18958 -0.01576,0.28222l-0.49417,4.94172c0.42005,4.00994 -1.98642,8.69421 -2.89986,12.51568c-0.30833,1.28993 -0.60703,2.58383 -0.89373,3.88115c1.35107,-3.56804 2.65417,-7.15602 3.90577,-10.76246c1.58668,-5.28242 3.20696,-10.548 4.74728,-15.8067c1.68827,-5.76381 2.52532,-12.44813 4.97473,-17.9174l0.95708,-4.77477c0.21027,-1.16798 1.23183,-2.05412 2.46036,-2.05412c1.38071,0 2.5,1.11929 2.5,2.5c0,0.14127 -0.01172,0.2798 -0.03423,0.41468l-0.73513,4.90085l-0.03797,-0.0057l0.01886,0.1162c-1.82787,7.53238 -3.96764,14.94064 -6.30239,22.29284c0.1141,-0.01594 0.23067,-0.02419 0.34917,-0.02419c1.20128,0 2.20466,0.84726 2.44517,1.97681l0.98838,4.20059l-0.02985,0.00702c0.02788,0.09195 0.05445,0.18439 0.07963,0.27736c0.00878,0.0324 0.0132,1.64541 0.01534,3.58523c2.36275,-9.83424 4.83087,-19.62288 7.64953,-29.39499l0.10959,-0.13298l-0.04818,-0.02108l1.72702,-3.94748c0.37384,-0.90982 1.26878,-1.55048 2.31337,-1.55048c1.38071,0 2.5,1.11929 2.5,2.5v5c0.36928,1.93244 -0.54185,6.7668 -0.72178,8.0498c-0.83274,5.93832 -1.64972,11.87296 -2.62327,17.78978c-0.08864,0.53871 -0.17722,1.07741 -0.26572,1.61608c2.74767,-8.21991 6.07629,-16.25242 10.36154,-23.65736l1.31315,-2.26214c0.42688,-0.76714 1.24586,-1.28616 2.18606,-1.28616c1.26775,0 2.31511,0.94364 2.478,2.16684l0.73605,4.90699l-0.04159,0.00624c0.02606,0.14336 0.04893,0.2875 0.06833,0.43251c0.24035,1.79666 -0.70036,3.55705 -1.05962,5.33377c-0.2747,1.3585 -0.5725,2.7125 -0.86328,4.06784c1.37529,-4.34685 2.79991,-8.67595 4.31562,-12.97036l1.22656,-3.67971c0.31417,-1.02156 1.26534,-1.76412 2.38994,-1.76412c1.38071,0 2.5,1.11929 2.5,2.5c0,0.05669 -0.00189,0.11294 -0.0056,0.16869l-0.24872,4.22812l-0.03855,-0.00227c0.00514,0.08194 0.0092,0.16404 0.01214,0.24628c0.06232,1.74728 -0.87294,3.38605 -1.31233,5.07833c-0.84357,3.24893 -1.74087,6.48419 -2.67994,9.70681c-2.15801,7.40568 -4.4665,14.77578 -6.33456,22.24913c0.97582,-1.58773 1.98027,-3.13063 2.8469,-4.62131c5.00812,-8.61443 9.95423,-17.26347 14.90947,-25.90838l0.10036,-0.09045l-0.02586,-0.01868l1.43644,-1.9889c0.15238,-1.96205 0.36517,-3.91461 0.65782,-5.85322l0.15164,-0.20563l-0.08015,-0.02881l0.9886,-2.75052c0.3309,-0.99315 1.268,-1.7092 2.37235,-1.7092c1.1246,0 2.07577,0.74256 2.38994,1.76412l1.48177,4.44531l-0.0382,0.01273c0.04736,0.12459 0.09217,0.25036 0.13421,0.37739c0.56554,1.70904 0.0261,3.60028 0.03228,5.40045c0.01258,3.66127 0.00958,7.32273 0.00548,10.98416c0.31032,-0.6249 0.64076,-1.30282 0.97863,-2.06801c3.16807,-7.17492 6.38476,-14.30456 9.81759,-21.35673l0.09027,-0.07425l-0.0357,-0.02142l1.47643,-2.46071c0.43183,-0.74893 1.2407,-1.25305 2.1673,-1.25305c1.38071,0 2.5,1.11929 2.5,2.5c0,0.09098 -0.00486,0.18083 -0.01434,0.26929l-0.47097,4.9452l-0.02282,-0.00217c0.00093,0.05525 0.00153,0.11051 0.00177,0.16581c0.00002,0.00393 -0.59917,2.6113 -1.153,5.01672c0.92324,0.32957 1.5959,1.1866 1.65511,2.20821l0.24871,3.73064l-0.04165,0.00278c0.01641,0.10119 0.03086,0.20287 0.04318,0.30505c0.21376,1.77271 -0.59018,3.52258 -0.94005,5.27351c-0.91065,4.5574 -2.05981,9.07635 -3.1101,13.6033l-0.48531,2.42654c-0.20986,1.16847 -1.23165,2.05513 -2.46053,2.05513c-1.38071,0 -2.5,-1.11929 -2.5,-2.5c0,-0.16973 0.01691,-0.33551 0.04915,-0.49574l0.04708,-0.25891c-1.3091,-0.07944 -2.34623,-1.16628 -2.34623,-2.49535v-2.5h0.12156zM209.37712,151.33742c0.97466,-3.66733 1.9272,-7.33876 2.86097,-11.01173c0.53038,-2.08624 1.23961,-4.13785 1.77567,-6.22265c-1.68139,3.38662 -3.28754,6.80715 -4.7857,10.27373c0.34008,2.25348 0.13413,4.67587 0.14694,6.12323c0.00248,0.28009 0.00317,0.55922 0.00212,0.83742zM196.81211,187.72503c0.16313,-0.34707 0.3261,-0.69414 0.4889,-1.04123c-0.08515,-0.02 -0.16862,-0.04436 -0.25017,-0.07283zM182.78001,171.03201c0.00136,-1.00137 -0.01045,-2.00524 -0.03897,-3.01325c-0.15651,-5.52973 -0.16616,-11.08027 -0.39879,-16.60782c-0.0112,0.10159 -0.03049,0.1902 -0.06125,0.25006c-0.64784,1.26055 -1.6637,2.30472 -2.338,3.55132c-2.20308,4.07296 -2.75674,8.8915 -3.074,13.46085c-0.53967,7.77283 1.04709,16.40579 -0.0557,24.34622c0.1364,-0.46401 0.26359,-0.92789 0.34853,-1.3915c0.91312,-4.98336 1.82468,-9.60931 3.44501,-14.41502c0.70349,-2.08644 1.42623,-4.1454 2.17316,-6.18086zM204.00925,158.14298c-0.42738,1.32617 -0.83442,2.6607 -1.21946,4.00418c-0.86255,3.0096 -1.26898,6.14998 -1.74804,9.26674c1.46298,-4.14635 2.57593,-8.36768 2.93735,-12.8823c0.01038,-0.12967 0.02043,-0.25921 0.03015,-0.38863z" fill="#ffef78" stroke="none" stroke-width="0.5" stroke-linecap="butt"/><path d="M297.67499,197.86855c-1.73602,0.45992 -3.42553,1.59849 -5.20807,1.37976c-0.19314,-0.0237 -0.38369,-0.05674 -0.57199,-0.09793l-0.01022,0.05108l-3.70459,-0.74092c-1.16847,-0.20987 -2.05512,-1.23166 -2.05512,-2.46053c0,-0.90373 0.47953,-1.69546 1.19802,-2.13463l4.03837,-2.55807c1.00561,-0.91111 2.07546,-1.80049 3.22341,-2.54737c-4.74821,0.04569 -9.48446,0.24519 -14.21748,0.51782c-0.00232,0.00165 -0.00464,0.00331 -0.00696,0.00496c-0.20834,0.14845 -8.84739,4.45159 -9.28065,4.66792c-0.24009,0.11988 -0.48146,0.24344 -0.724,0.37003c-2.4162,2.30672 -4.81224,4.63442 -7.19725,6.9742c4.80461,-0.79198 9.59726,-1.6281 14.37229,-2.52105l0.12247,0.03675l-0.00457,-0.05029l2.71884,-0.24717c0.08465,-0.00866 0.17056,-0.0131 0.25749,-0.0131c1.38071,0 2.5,1.11929 2.5,2.5c0,1.08491 -0.69107,2.00841 -1.65702,2.35431l-3.10987,1.19611c-2.79819,1.89941 -6.37433,2.74989 -9.53127,3.72639c-0.25016,0.07738 -0.50005,0.15347 -0.74969,0.22832c0.50125,0.00137 1.00245,0.00252 1.5036,0.00335l0.19397,0.09329l0.01129,-0.06775l2.95946,0.49324c1.20503,0.179 2.12954,1.21791 2.12954,2.47274c0,0.92661 -0.50412,1.73548 -1.25305,2.16731l-2.63782,1.58269h3.64087c1.38071,0 2.5,1.11929 2.5,2.5c0,0.64653 -0.24542,1.23573 -0.64818,1.67954l-2.24359,2.49287l-0.03715,-0.03344c-0.14613,0.16401 -0.30253,0.31959 -0.47109,0.46519c-2.32715,2.01023 -5.77709,2.1705 -8.78067,2.83014c-8.14325,1.78842 -16.44228,2.39612 -24.73842,2.79037l-0.04947,-0.01263l0.00011,0.01352l-3.00792,0.02432c-0.00786,0.00007 -0.01574,0.00011 -0.02362,0.00011c-1.38071,0 -2.5,-1.11929 -2.5,-2.5c0,-0.36856 0.07975,-0.7185 0.22295,-1.03348c-3.96404,0.64196 -7.92784,1.28553 -11.8929,1.92109c-1.72931,0.27719 -3.45163,1.04709 -5.18891,0.82533c-0.08449,-0.01079 -0.16877,-0.02255 -0.25283,-0.03525l-0.00162,0.03715l-4.9822,-0.21662c-1.33645,-0.0502 -2.40448,-1.14948 -2.40448,-2.49821c0,-1.18975 0.83109,-2.18539 1.9444,-2.43804l4.24784,-1.06196c8.13259,-2.03315 16.3218,-3.49639 24.56784,-4.751c0.7141,-0.8553 1.47173,-1.68745 2.25655,-2.50194c-1.33001,0.03579 -2.66013,0.07707 -3.99046,0.12479c-5.8816,0.90561 -11.74785,1.8392 -17.70586,2.04955l-0.01895,-0.00626l0.00013,0.0067l-3.99502,0.07753c-0.01877,0.00042 -0.03759,0.00063 -0.05646,0.00063c-1.38071,0 -2.5,-1.11929 -2.5,-2.5c0,-0.10039 0.00592,-0.1994 0.01742,-0.29669c-4.34143,0.61254 -8.68702,1.11814 -13.0456,1.62495c-0.12435,0.01446 -10.06225,1.17159 -10.08721,1.16811c-0.05159,-0.00718 -0.10307,-0.01483 -0.15444,-0.02293l-0.00021,0.02648l-3.64914,-0.02923c-1.37266,-0.00941 -2.4825,-1.12506 -2.4825,-2.49994c0,-1.15255 0.77993,-2.12293 1.8408,-2.41218l4.09706,-1.21892c0.48761,-0.77521 0.91728,-1.54085 1.29554,-2.30133c-4.15957,0.39313 -8.29376,0.57978 -12.2818,0.6535c-2.77731,0.05133 -5.56392,-0.17316 -8.31441,-0.56163c-1.41123,-0.19932 -2.99102,0.02172 -4.21725,-0.70468c-4.80632,-2.84719 -3.92259,-10.10465 -2.15203,-14.28817c3.21145,-7.5881 10.78225,-14.61307 19.16044,-15.84211c1.94818,-0.28579 3.93806,-0.00487 5.90709,-0.0073c1.3407,0.51616 2.85288,0.7453 4.18484,1.27609c-0.02646,-1.33049 -0.03303,-2.66778 -0.04402,-4.00453c-0.00128,-0.15586 -0.09212,-9.46987 -0.03198,-9.76904c0.35998,-1.79066 1.31173,-3.40935 1.9779,-5.11001c0.17422,-0.44477 1.34384,-3.41514 2.38638,-5.99515c-3.58328,-0.96652 -7.10693,-2.07355 -10.49323,-3.72838c-1.57534,-0.76985 -3.70649,-0.97325 -4.65627,-2.4471c-1.07486,-1.66794 -0.48536,-3.93876 -0.72804,-5.90814c12.96682,-7.68461 26.8801,-9.09765 41.72032,-9.10166l0.00034,0.00009v-0.00009h5c1.38071,0 2.5,1.11929 2.5,2.5c0,1.03517 -0.62915,1.92338 -1.52593,2.30313l-3.50727,1.57827c1.46443,-0.08662 2.90179,-0.12797 4.2832,-0.1314c1.51482,0.00478 3.03552,0.07544 4.54881,0.2218c11.16832,-0.11461 22.56335,-0.45868 33.53035,1.32388c0.85405,0.13882 3.39936,0.42874 5.8064,0.99142c0.97395,0.06878 1.90342,0.21621 2.76106,0.47107c7.63543,2.269 8.15813,7.75133 7.79215,14.56165c-0.01273,0.2368 -0.01648,0.47568 -0.01584,0.71563c0.89615,-0.06455 1.79342,-0.10659 2.69064,-0.12386c1.9313,-0.03716 3.95953,-0.64836 5.79478,-0.04574c8.13868,2.67236 3.81165,10.14979 1.00707,14.91348c-2.60303,4.42134 -5.70094,8.86538 -9.35833,12.6924c3.39295,-0.13823 6.78952,-0.22174 10.1929,-0.22174h3.25c1.38071,0 2.5,1.11929 2.5,2.5c0,0.6441 -0.24358,1.2313 -0.64364,1.67453l-3.32723,3.71867l-0.35411,-0.31684c-0.28424,0.35992 -0.57448,0.71464 -0.87113,1.06336l1.65521,-0.33104c0.17418,-0.03842 0.35518,-0.05867 0.54091,-0.05867c1.38071,0 2.5,1.11929 2.5,2.5c0,1.0731 -0.67611,1.98829 -1.62559,2.34282l-2.44593,0.97837l-0.02307,-0.05767zM259.30274,185.7011c2.12268,-1.78741 4.16183,-3.84925 6.12178,-5.45922c4.68223,-3.79744 7.25366,-8.55139 10.5382,-13.59116c-2.12906,-0.35056 -4.26444,-0.68419 -6.40458,-1.00573c-0.70328,1.36179 -1.85532,2.66494 -2.69495,3.87661c-1.00786,1.45444 -2.66742,2.32586 -4.00417,3.4853c-4.42559,3.83855 -8.88714,7.59731 -13.46213,11.25673c-0.75772,0.68879 -1.62245,1.27572 -2.27317,2.06637c-0.09607,0.11673 0.25465,0.2054 0.40581,0.20255c1.25661,-0.02369 2.50636,-0.1916 3.76001,-0.28109c0.49942,-0.03565 5.27109,-0.36259 8.01321,-0.55036zM246.23524,163.3165c0.14347,-0.28293 0.27948,-0.56876 0.40769,-0.85738c-0.23121,-0.03185 -0.46241,-0.06377 -0.6936,-0.09575c-0.43511,0.12644 -0.8703,0.25263 -1.30556,0.37852c-0.10505,0.25143 -0.21633,0.50177 -0.33284,0.75087c0.35411,-0.03108 0.70824,-0.06192 1.0624,-0.0924c0.28615,-0.02463 0.57349,-0.05272 0.86192,-0.08386zM257.69446,158.92479c3.12099,0.42299 6.23843,0.85124 9.34738,1.29976c3.83044,-0.97104 7.69847,-1.8585 11.63255,-2.63845c0.82118,-0.1628 1.64623,-0.31168 2.4742,-0.44478c0.08751,-0.49713 0.14599,-1.01948 0.17153,-1.57332c0.14931,-3.23809 0.73384,-6.58844 -1.63522,-8.40973c-0.77702,1.11806 -1.82362,2.15361 -2.70538,3.06213c-1.30816,1.34786 -3.39782,1.60231 -5.10481,2.38601c-4.59652,2.11032 -9.2273,4.15057 -13.84236,6.21996c-0.11263,0.03279 -0.22526,0.0656 -0.33788,0.09842zM203.69358,154.32612c-0.93746,2.10397 -1.28405,4.5454 -2.15063,6.69854c-1.94679,4.83706 -1.63429,7.77935 -1.59353,12.99472c0.00011,0.01468 0.00023,0.02937 0.00034,0.04405c0.69742,-1.10448 1.45366,-2.21406 2.24447,-3.34325c3.83264,-5.47253 8.65916,-10.01941 14.30685,-13.28482c-3.33305,-0.71307 -6.64563,-1.49558 -9.93155,-2.36659c-0.95964,-0.25437 -1.91877,-0.49941 -2.87594,-0.74265zM281.3728,167.51706c-0.57822,0.88326 -1.01008,1.54061 -1.12787,1.72076c-3.64522,5.57505 -6.50769,10.60001 -11.64671,14.86769c-0.40082,0.32924 -0.80384,0.67399 -1.20929,1.02935c1.96539,-0.14041 3.92999,-0.28054 5.89441,-0.41479c3.51906,-3.16724 7.03627,-6.32274 10.63878,-9.39692c1.2678,-1.08187 2.5304,-2.16988 3.80348,-3.24554c0.57188,-0.4832 1.14021,-0.97134 1.73124,-1.43092c0.39497,-0.30713 1.50976,-0.45645 1.22477,-0.86767c-0.53599,-0.77342 -1.68441,-0.87485 -2.59549,-1.11024c-2.1989,-0.56812 -4.4596,-0.84219 -6.71332,-1.1517zM254.65821,202.65082c0.69231,-0.68994 1.38451,-1.38016 2.0771,-2.07009c-12.09516,3.35048 -25.63689,4.47369 -38.02507,4.1325c-0.19549,-0.00538 -4.3332,-0.40025 -7.36811,-0.70089c-4.0452,1.25847 -8.25457,2.15383 -12.49938,2.78577c-0.29217,0.78517 -0.6341,1.54877 -1.0334,2.28482c-0.23772,0.4382 -0.50116,0.86028 -0.78092,1.27215c4.71007,-0.54261 9.4349,-1.02043 14.13416,-1.64341c14.47404,-1.91882 29.02376,-3.82435 43.49561,-6.06085zM220.90579,187.58889c2.85094,-2.68485 5.49347,-5.64498 7.88906,-8.75522c-0.45712,-0.00306 -0.90859,-0.01257 -1.35246,-0.02747c-1.26932,0.61583 -2.49192,1.27477 -3.63947,1.99589c-2.19031,1.37637 -3.55287,3.76184 -5.38088,5.59221c-0.76883,0.76983 -1.68387,1.6765 -2.42028,2.66225c0.13587,-0.03785 0.26823,-0.07448 0.39675,-0.10995c1.50639,-0.41583 2.96962,-1.15994 4.50728,-1.35771zM219.42052,177.87307c-2.86633,-1.44653 -5.36307,-4.17792 -6.41149,-7.24928c-3.41112,2.16763 -6.91079,4.82379 -9.84539,7.68086c-1.58918,2.7252 -2.63814,5.50634 -2.33034,8.68415c0.67099,2.75866 1.85952,5.35739 3.96806,7.65653c0.00768,0.00838 0.01545,0.01663 0.02331,0.02476c1.25527,-1.45114 3.06298,-2.57248 4.96374,-3.44766c0.10089,-1.33065 0.47389,-2.70431 1.11841,-4.10738c0.80147,-1.74472 2.60846,-2.81824 3.93262,-4.20856c1.55681,-1.63459 2.90844,-3.53248 4.5811,-5.03341zM248.14822,197.34999c3.17359,-0.56202 6.31834,-1.2814 9.41608,-2.2149c3.21913,-0.97008 6.52485,-3.07926 9.61619,-4.77922c0.07362,-0.06993 0.14728,-0.13982 0.22096,-0.20968c-1.95865,0.14021 -3.91811,0.28032 -5.87899,0.41463c-0.00926,0.00063 -0.13087,0.00897 -0.34077,0.02335c-0.98429,0.77212 -1.98707,1.47555 -3.01113,2.05394c-3.19796,1.8062 -6.56164,3.37206 -10.02233,4.71188zM245.27576,145.82165c-0.3242,-0.32217 -0.7121,-0.63008 -1.181,-0.92433c-0.8414,-0.52799 -1.95547,-0.35364 -2.92527,-0.56858c-1.60342,-0.35537 -3.23053,-0.63865 -4.86716,-0.82561c-3.2247,-0.00532 -6.4502,-0.00312 -9.67733,-0.00312c-0.24333,0 -0.49029,0.00251 -0.74048,0.00714c-3.88216,0.3468 -7.85184,1.06661 -11.28242,2.294c-2.34844,0.84022 -4.07771,2.87458 -6.15495,4.25524c-0.12395,0.08238 -0.25149,0.16069 -0.38152,0.23614c5.13725,1.35517 10.34077,2.49297 15.58619,3.48743c0.24757,-0.14224 0.43605,-0.25054 0.54907,-0.31599c6.96341,-2.61259 13.94558,-5.41792 21.07489,-7.64232zM235.30033,178.35706c-2.38527,3.41244 -5.02612,6.65849 -7.90811,9.66244c2.19288,0.65692 2.97666,2.14707 1.5235,5.39715c0.53878,-0.30761 1.05122,-0.635 1.52729,-0.98821c2.54541,-1.88851 4.20858,-4.74041 6.33649,-7.08938c3.06363,-3.3819 6.72121,-8.08082 8.83698,-12.83745c-0.24729,0.24761 -0.49919,0.49127 -0.75545,0.73083c-1.16175,1.08605 -2.12209,2.4711 -3.53132,3.20814c-1.81195,0.94766 -3.8848,1.55203 -6.02938,1.91647zM253.07986,155.02877c1.08352,-0.29061 2.16019,-0.58747 3.22665,-0.89511c4.50311,-2.03258 8.99376,-4.09977 13.51701,-6.08715c1.33254,-0.58548 2.70653,-1.07886 4.01498,-1.71636c0.40965,-0.19959 0.98644,-0.31735 1.44205,-0.51668c-3.72772,-0.25352 -8.12168,0.76771 -11.54237,1.10379c-3.98507,0.39154 -7.89558,1.15759 -11.75271,2.16166c0.12275,0.4992 0.25615,1.0302 0.41061,1.59923c0.39727,1.46349 0.6195,2.91716 0.68377,4.35061zM212.06991,137.26971c-1.45157,0.10569 -2.89826,0.25204 -4.3364,0.45445c-6.87894,0.96822 -13.34493,3.48047 -19.88785,5.67418c0.46873,1.02008 1.97307,1.08146 3.01202,1.50672c3.58734,1.46838 7.13522,2.60236 10.76685,3.63729c1.16809,-1.05027 2.70535,-1.7107 4.00583,-2.61704c1.07925,-0.75216 2.10345,-1.61685 3.15736,-2.42532h-0.66272c-1.38071,0 -2.5,-1.11929 -2.5,-2.5c0,-1.18858 0.82945,-2.18342 1.94109,-2.43729l2.80792,-0.7062c0.55796,-0.18867 1.12371,-0.38614 1.69589,-0.5868zM200.43593,197.23299c-0.02321,0.83966 -0.06611,1.68037 -0.13571,2.51663c0.82838,-0.0735 1.6665,-0.25072 2.50233,-0.50185c-0.50167,-0.23086 -0.97392,-0.50149 -1.3539,-0.89308c-0.35703,-0.36794 -0.69423,-0.74194 -1.01272,-1.12169zM233.0668,196.70012c0.01831,-0.00313 0.03662,-0.00622 0.05493,-0.00928c5.31637,-0.88869 11.16145,-2.89454 16.47963,-5.31566c-1.53417,0.15 -3.08337,0.29822 -4.38089,-0.40773c-2.71431,-1.4768 -3.43943,-2.92632 -3.19652,-4.36224c-1.49798,1.94028 -3.10677,3.84525 -4.8848,5.79578c-1.23325,1.35289 -2.24673,2.9522 -3.71692,4.04297c-0.11657,0.08649 -0.23508,0.17186 -0.35543,0.25617zM246.47942,180.22655c3.13486,-2.55086 6.26801,-5.09003 9.32725,-7.73375c0.04831,-0.04175 5.42348,-4.6933 6.95042,-5.99185c-0.4981,-0.01072 -0.99949,-0.04037 -1.4985,-0.04881c-3.12617,0.92452 -6.23577,1.96279 -9.33638,3.02314c-0.64421,2.12381 -1.60178,4.15627 -2.83456,6.3575c-0.85922,1.53421 -1.72287,2.99083 -2.60823,4.39377zM193.85965,183.24739c-0.12375,-0.13386 -0.258,-0.26172 -0.40362,-0.38283c-0.94798,-0.78838 -2.34319,-0.76832 -3.51478,-1.15248c-7.36017,-0.01313 -12.96898,3.02581 -17.05423,9.15089c-2.3151,3.47107 -3.12783,3.588 -3.51575,7.7737c-0.12487,1.34732 -0.28311,3.46717 0.98549,3.93783c0.73667,0.27331 1.5732,0.0177 2.35541,0.09201c4.4424,0.42199 8.13873,0.51291 12.6157,0.43009c2.62647,-0.04859 5.39323,-0.21276 8.21593,-0.50894c-3.1172,-2.77264 -4.0196,-7.64601 -3.0881,-12.0024c0.38875,-1.81807 1.59239,-3.36016 2.40296,-5.03332c0.36263,-0.74854 0.68308,-1.52548 1.00099,-2.30454zM247.22075,150.43874c-1.68227,0.51914 -3.35588,1.07355 -5.02264,1.65154c0.49181,0.26512 0.94598,0.58888 1.35394,0.97922c1.46655,-0.1915 2.89254,-0.39693 4.2163,-0.21216c-0.05928,-0.29743 -0.12749,-0.59619 -0.20486,-0.89621c-0.13615,-0.52789 -0.24291,-1.03509 -0.34274,-1.52239zM226.45676,173.75764c2.59276,-1.18175 5.32228,-2.22683 7.98459,-3.26638c0.23959,-0.40491 0.4749,-0.81045 0.70586,-1.2164c-2.61593,0.1423 -11.00496,0.56875 -8.64301,-5.56814c0.80894,-2.10182 4.03357,-2.02327 6.14171,-2.81558c0.30644,-0.11517 0.61411,-0.22842 0.92294,-0.33985c-0.47212,-0.07429 -0.94405,-0.1493 -1.41577,-0.22509c-4.93475,1.843 -9.60996,4.63275 -14.11168,7.29684c-0.10337,2.61336 0.65372,4.92845 4.16685,6.02853c1.35189,0.42332 2.83167,0.05781 4.24851,0.10609zM285.14966,161.68666c-0.21278,0.33617 -0.45538,0.71593 -0.71623,1.12192c3.18092,0.41284 6.67617,1.08308 8.97004,2.89437c0.74274,-1.31077 1.34153,-2.7398 1.17848,-3.95702c-0.0609,-0.4546 -0.78393,-0.56455 -1.24171,-0.59286c-1.40015,-0.0866 -2.79917,0.1951 -4.20065,0.25625c-1.33058,0.05806 -2.66231,0.14737 -3.98992,0.27734zM223.3779,191.90156c-1.36474,1.22231 -2.77511,2.39096 -4.22987,3.49945c0.21658,-0.11877 0.43138,-0.2391 0.64433,-0.36101c1.21738,-0.62615 2.51586,-1.11494 3.65214,-1.87845c0.56122,-0.37711 1.97215,-1.18878 1.36984,-1.49604c-0.45425,-0.23172 -0.94177,-0.03329 -1.43645,0.23605zM257.86865,213.52898c-2.38757,0.01403 -4.77453,0.03474 -7.16137,0.06751c-0.50736,0.48486 -1.01801,0.96662 -1.52708,1.44986c1.48598,-0.20726 2.97379,-0.41169 4.46343,-0.61539c1.34807,-0.18434 2.77013,-0.52363 4.22502,-0.90199zM249.95222,143.59786c0.17601,0.24288 0.33283,0.48738 0.4743,0.73582c0.91077,-0.24031 1.82437,-0.46839 2.74108,-0.68267c-1.07185,-0.0203 -2.14364,-0.03789 -3.21538,-0.05315zM195.36607,192.67632c-0.30846,1.29285 -0.39215,2.6092 -0.04813,3.87152c0.05625,-1.24789 0.06436,-2.53307 0.04813,-3.87152zM259.40698,221.16034c-3.85523,0.39119 -7.69722,0.83897 -11.53916,1.34872c3.86307,-0.29521 7.71484,-0.70885 11.53916,-1.34872z" fill="#ffef78" stroke="none" stroke-width="0.5" stroke-linecap="butt"/><path d="M191.78583,154.04736l-9.38817,1.06211l2.72061,-11.07653z" fill="url(#color-4)" stroke="url(#color-5)" stroke-width="1.5" stroke-linecap="round"/><path d="M234.60327,164.11268l-8.36789,10.56492l-5.02971,-8.83332z" fill="url(#color-6)" stroke="url(#color-7)" stroke-width="1.5" stroke-linecap="round"/><g stroke-width="1.5" stroke-linecap="round"><path d="M206.80665,213.87004l-24.45639,-2.99007l-5.11497,-15.28838z" fill="url(#color-8)" stroke="url(#color-9)"/><path d="M206.75096,159.87403l2.19248,53.70082l-32.09594,-19.8776z" fill="url(#color-10)" stroke="url(#color-11)"/><path d="M206.42164,160.74044l2.47219,53.69172l-26.50251,-3.24408z" fill="url(#color-12)" stroke="url(#color-13)"/><path d="M181.75536,210.15146l-5.14317,-16.46157l28.0257,-31.92413z" data-paper-data="{&quot;index&quot;:null}" fill="url(#color-14)" stroke="url(#color-15)"/></g><g stroke-width="1.5" stroke-linecap="round"><path d="M179.50109,212.72871l-12.77531,0.71694l9.21843,-8.86186z" fill="url(#color-16)" stroke="url(#color-17)"/><path d="M166.45549,211.73509l2.06463,-6.08308l5.36281,-1.10875z" fill="url(#color-18)" stroke="url(#color-19)"/></g><g stroke-width="1.5" stroke-linecap="round"><path d="M197.93754,225.24655l-12.77531,0.71694l9.21844,-8.86187z" fill="url(#color-20)" stroke="url(#color-21)"/><path d="M184.84545,224.18756l2.06462,-6.08308l5.36281,-1.10875z" fill="url(#color-22)" stroke="url(#color-23)"/></g><g stroke-width="1.5" stroke-linecap="round"><path d="M218.91324,146.42146l-11.03915,9.99214l-1.10456,-16.85239z" fill="url(#color-24)" stroke="url(#color-25)"/><path d="M216.24505,136.98875l2.78166,7.88856c0,0 -3.76743,-2.11142 -5.63219,-3.15651c-1.83982,-1.03111 -5.48255,-3.07265 -5.48255,-3.07265z" fill="url(#color-26)" stroke="url(#color-27)"/></g><text transform="translate(236.3559,177.60171) scale(0.78078,0.78078)" font-size="40" xml:space="preserve" fill="#000000" fill-rule="nonzero" stroke="none" stroke-width="1" stroke-linecap="butt" stroke-linejoin="miter" stroke-miterlimit="10" stroke-dasharray="" stroke-dashoffset="0" font-family="Marker" font-weight="normal" text-anchor="start" style="mix-blend-mode: normal"><tspan x="0" dy="0">Was </tspan><tspan x="0" dy="48px">here</tspan></text></g></g></svg>