<svg version="1.1" xmlns="http://www.w3.org/2000/svg" xmlns:xlink="http://www.w3.org/1999/xlink" width="206.58406" height="72.84814" viewBox="0,0,206.58406,72.84814"><defs><linearGradient x1="237.3264" y1="214.17337" x2="237.3264" y2="191.45086" gradientUnits="userSpaceOnUse" id="color-1"><stop offset="0" stop-color="#67a2f5"/><stop offset="1" stop-color="#0f73ff"/></linearGradient><linearGradient x1="237.3264" y1="145.66292" x2="237.3264" y2="168.38546" gradientUnits="userSpaceOnUse" id="color-2"><stop offset="0" stop-color="#67a2f5"/><stop offset="1" stop-color="#0f73ff"/></linearGradient><linearGradient x1="239.9914" y1="145.07593" x2="239.9914" y2="214.92407" gradientUnits="userSpaceOnUse" id="color-3"><stop offset="0" stop-color="#1f6bdd"/><stop offset="1" stop-color="#2b1aad"/></linearGradient><linearGradient x1="283.93497" y1="151.30916" x2="283.93497" y2="193.86888" gradientUnits="userSpaceOnUse" id="color-4"><stop offset="0" stop-color="#ffffff"/><stop offset="1" stop-color="#bdbdbd"/></linearGradient><linearGradient x1="281.69203" y1="156.07878" x2="281.69203" y2="187.99857" gradientUnits="userSpaceOnUse" id="color-5"><stop offset="0" stop-color="#262626"/><stop offset="1" stop-color="#4a4a4a"/></linearGradient><linearGradient x1="309.71261" y1="151.73805" x2="309.71261" y2="193.85441" gradientUnits="userSpaceOnUse" id="color-6"><stop offset="0" stop-color="#9c9c9c"/><stop offset="1" stop-color="#898989"/></linearGradient><linearGradient x1="280.27902" y1="193.85441" x2="280.27902" y2="208.69085" gradientUnits="userSpaceOnUse" id="color-7"><stop offset="0" stop-color="#515151"/><stop offset="1" stop-color="#898989"/></linearGradient><linearGradient x1="253.35805" y1="199.83684" x2="253.35805" y2="203.18701" gradientUnits="userSpaceOnUse" id="color-8"><stop offset="0" stop-color="#eeeeee"/><stop offset="1" stop-color="#b9b9b9"/></linearGradient><linearGradient x1="262.54159" y1="199.68779" x2="262.54159" y2="203.03795" gradientUnits="userSpaceOnUse" id="color-9"><stop offset="0" stop-color="#eeeeee"/><stop offset="1" stop-color="#b9b9b9"/></linearGradient><linearGradient x1="271.96443" y1="199.77802" x2="271.96443" y2="203.12819" gradientUnits="userSpaceOnUse" id="color-10"><stop offset="0" stop-color="#eeeeee"/><stop offset="1" stop-color="#b9b9b9"/></linearGradient></defs><g transform="translate(-136.76751,-143.57593)"><g data-paper-data="{&quot;isPaintingLayer&quot;:true}" fill-rule="nonzero" stroke-linejoin="miter" stroke-miterlimit="10" stroke-dasharray="" stroke-dashoffset="0" style="mix-blend-mode: normal"><g stroke-linecap="round"><path d="M138.67306,179.22664h202.79251l-27.29284,34.94673h-153.69269z" data-paper-data="{&quot;index&quot;:null}" fill="url(#color-1)" stroke="none" stroke-width="0"/><path d="M160.48005,145.66292h153.69269l27.29284,34.94673h-202.79251z" fill="url(#color-2)" stroke="none" stroke-width="1.5"/><path d="M138.53442,180.30107l21.8187,-35.22514h153.82185l27.27338,35.22514l-27.27338,34.623h-153.97769z" fill="none" stroke="url(#color-3)" stroke-width="3"/></g><text transform="translate(166.81758,190.42905) scale(0.83947,0.83947)" font-size="40" xml:space="preserve" fill="#ffffff" fill-rule="nonzero" stroke="none" stroke-width="1" stroke-linecap="butt" stroke-linejoin="miter" stroke-miterlimit="10" stroke-dasharray="" stroke-dashoffset="0" font-family="Sans Serif" font-weight="normal" text-anchor="start" style="mix-blend-mode: normal"><tspan x="0" dy="0">Slow</tspan></text><g stroke="none" stroke-width="0" stroke-linecap="butt"><path d="M257.89203,193.86888v-42.55973h52.08589v42.55973z" fill="url(#color-4)"/><path d="M262.80514,187.99857v-31.91979h37.77377v31.91979z" fill="url(#color-5)"/><path d="M306.48209,193.85441v-42.11636h6.46103v42.11636z" fill="url(#color-6)"/><path d="M247.37561,208.69085v-14.83644h65.80681v14.83644z" fill="url(#color-7)"/><path d="M250.00788,203.18701v-3.35017h6.70033v3.35017z" fill="url(#color-8)"/><path d="M259.19143,203.03795v-3.35016h6.70033v3.35016z" fill="url(#color-9)"/><path d="M268.61427,203.12819v-3.35016h6.70033v3.35016z" fill="url(#color-10)"/></g></g></g></svg>