<svg version="1.1" xmlns="http://www.w3.org/2000/svg" xmlns:xlink="http://www.w3.org/1999/xlink" width="173.82325" height="103.92411" viewBox="0,0,173.82325,103.92411"><defs><linearGradient x1="240" y1="128.03796" x2="240" y2="231.96207" gradientUnits="userSpaceOnUse" id="color-1"><stop offset="0" stop-color="#ffee78" stop-opacity="0"/><stop offset="1" stop-color="#ffee78"/></linearGradient><linearGradient x1="283.19234" y1="165.91139" x2="283.19234" y2="181.40553" gradientUnits="userSpaceOnUse" id="color-2"><stop offset="0" stop-color="#b5b5b5"/><stop offset="1" stop-color="#e8e8e8"/></linearGradient><linearGradient x1="321.83493" y1="166.26505" x2="321.83493" y2="181.23179" gradientUnits="userSpaceOnUse" id="color-3"><stop offset="0" stop-color="#969696"/><stop offset="1" stop-color="#e8e8e8"/></linearGradient><linearGradient x1="288.97064" y1="155.5997" x2="288.97064" y2="165.86167" gradientUnits="userSpaceOnUse" id="color-4"><stop offset="0" stop-color="#b5b5b5"/><stop offset="1" stop-color="#e8e8e8"/></linearGradient><linearGradient x1="287.51635" y1="153.04523" x2="287.51635" y2="163.63244" gradientUnits="userSpaceOnUse" id="color-5"><stop offset="0" stop-color="#ff0000"/><stop offset="1" stop-color="#ff7100"/></linearGradient><linearGradient x1="314.37256" y1="151.95298" x2="314.37256" y2="163.83365" gradientUnits="userSpaceOnUse" id="color-6"><stop offset="0" stop-color="#ff0000"/><stop offset="1" stop-color="#ff7100"/></linearGradient></defs><g transform="translate(-153.08838,-128.03796)"><g data-paper-data="{&quot;isPaintingLayer&quot;:true}" fill-rule="nonzero" stroke="none" stroke-linejoin="miter" stroke-miterlimit="10" stroke-dasharray="" stroke-dashoffset="0" style="mix-blend-mode: normal"><path d="M153.08838,231.96207v-103.92411h173.82325v103.92411z" fill="url(#color-1)" stroke-width="0" stroke-linecap="butt"/><text transform="translate(163.66786,177.22879) scale(0.55292,0.55292)" font-size="40" xml:space="preserve" fill="#000000" fill-rule="nonzero" stroke="none" stroke-width="1" stroke-linecap="butt" stroke-linejoin="miter" stroke-miterlimit="10" stroke-dasharray="" stroke-dashoffset="0" font-family="Sans Serif" font-weight="normal" text-anchor="start" style="mix-blend-mode: normal"><tspan x="0" dy="0">Jump on </tspan><tspan x="0" dy="48px">   to activate it</tspan></text><g stroke-width="0"><path d="M261.43713,181.40553v-15.49414h43.51042v15.49414z" fill="url(#color-2)" stroke-linecap="butt"/><path d="M304.81242,181.23179v-14.96674l11.51972,-9.10949l-0.96554,13.79231z" fill="url(#color-3)" stroke-linecap="butt"/><path d="M261.33578,165.86167l43.54014,0.50825l11.38212,-9.21482l-32.64617,-1.5554z" fill="url(#color-4)" stroke-linecap="round"/><path d="M274.0038,163.63244v-10.58721h27.02511v10.58721z" fill="url(#color-5)" stroke-linecap="butt"/><path d="M274.0038,153.04523h26.75486l6.10092,-3.01807l-23.45104,-0.43115z" fill="#ff0000" stroke-linecap="round"/><path d="M300.86,163.83365v-11.88067l6.08741,-1.9833l-0.28376,9.35124z" fill="url(#color-6)" stroke-linecap="butt"/></g></g></g></svg>