<svg version="1.1" xmlns="http://www.w3.org/2000/svg" xmlns:xlink="http://www.w3.org/1999/xlink" width="140.22114" height="168.22857" viewBox="0,0,140.22114,168.22857"><defs><linearGradient x1="267.33333" y1="96.25002" x2="267.33333" y2="226.25002" gradientUnits="userSpaceOnUse" id="color-1"><stop offset="0" stop-color="#27ffe0"/><stop offset="1" stop-color="#0015ff"/></linearGradient><linearGradient x1="267.33333" y1="97.75002" x2="267.33333" y2="226.25002" gradientUnits="userSpaceOnUse" id="color-2"><stop offset="0" stop-color="#84ffff"/><stop offset="1" stop-color="#2900ff"/></linearGradient><linearGradient x1="277.5" y1="122.91668" x2="277.5" y2="239.58335" gradientUnits="userSpaceOnUse" id="color-3"><stop offset="0" stop-color="#89ffed"/><stop offset="1" stop-color="#1326ff"/></linearGradient><linearGradient x1="277.5" y1="123.11668" x2="277.5" y2="239.58335" gradientUnits="userSpaceOnUse" id="color-4"><stop offset="0" stop-color="#84ffff"/><stop offset="1" stop-color="#2900ff"/></linearGradient><linearGradient x1="298.73333" y1="104.98335" x2="298.73333" y2="236.71668" gradientUnits="userSpaceOnUse" id="color-5"><stop offset="0" stop-color="#36ffe1"/><stop offset="1" stop-color="#2235ff"/></linearGradient><linearGradient x1="298.73333" y1="104.98335" x2="298.73333" y2="236.71668" gradientUnits="userSpaceOnUse" id="color-6"><stop offset="0" stop-color="#84ffff"/><stop offset="1" stop-color="#2900ff"/></linearGradient><linearGradient x1="289.5" y1="97.58335" x2="289.5" y2="121.91668" gradientUnits="userSpaceOnUse" id="color-7"><stop offset="0" stop-color="#27ffe0"/><stop offset="1" stop-color="#0091ff"/></linearGradient><linearGradient x1="289.3" y1="97.78335" x2="289.3" y2="122.71669" gradientUnits="userSpaceOnUse" id="color-8"><stop offset="0" stop-color="#84ffff"/><stop offset="1" stop-color="#6bb0ff"/></linearGradient><linearGradient x1="193.33333" y1="95.91667" x2="193.33333" y2="225.91667" gradientUnits="userSpaceOnUse" id="color-9"><stop offset="0" stop-color="#fdff84"/><stop offset="1" stop-color="#d06f00"/></linearGradient><linearGradient x1="193.33333" y1="97.41667" x2="193.33333" y2="225.91667" gradientUnits="userSpaceOnUse" id="color-10"><stop offset="0" stop-color="#dbcc21"/><stop offset="1" stop-color="#ffa000"/></linearGradient><linearGradient x1="203.49999" y1="122.58332" x2="203.49999" y2="239.25" gradientUnits="userSpaceOnUse" id="color-11"><stop offset="0" stop-color="#e5e781"/><stop offset="1" stop-color="#e3871f"/></linearGradient><linearGradient x1="203.49999" y1="122.78333" x2="203.49999" y2="239.25" gradientUnits="userSpaceOnUse" id="color-12"><stop offset="0" stop-color="#d2c74c"/><stop offset="1" stop-color="#bf8b30"/></linearGradient><linearGradient x1="224.73332" y1="104.65" x2="224.73332" y2="236.38334" gradientUnits="userSpaceOnUse" id="color-13"><stop offset="0" stop-color="#feffc4"/><stop offset="1" stop-color="#d06f00"/></linearGradient><linearGradient x1="224.73332" y1="104.65" x2="224.73332" y2="236.38334" gradientUnits="userSpaceOnUse" id="color-14"><stop offset="0" stop-color="#dcd150"/><stop offset="1" stop-color="#ffa000"/></linearGradient><linearGradient x1="215.49999" y1="97.25" x2="215.49999" y2="121.58333" gradientUnits="userSpaceOnUse" id="color-15"><stop offset="0" stop-color="#fdff84"/><stop offset="1" stop-color="#e2bc0d"/></linearGradient><linearGradient x1="215.3" y1="97.45" x2="215.3" y2="122.38334" gradientUnits="userSpaceOnUse" id="color-16"><stop offset="0" stop-color="#dcd150"/><stop offset="1" stop-color="#ffd300"/></linearGradient><linearGradient x1="226.66666" y1="119.25" x2="226.66666" y2="249.24999" gradientUnits="userSpaceOnUse" id="color-17"><stop offset="0" stop-color="#0046ff"/><stop offset="1" stop-color="#ff3c4f"/></linearGradient><linearGradient x1="226.66666" y1="120.75" x2="226.66666" y2="249.24999" gradientUnits="userSpaceOnUse" id="color-18"><stop offset="0" stop-color="#005eff"/><stop offset="1" stop-color="#ff4b4b"/></linearGradient><linearGradient x1="236.83333" y1="145.91669" x2="236.83333" y2="262.58334" gradientUnits="userSpaceOnUse" id="color-19"><stop offset="0" stop-color="#5d88ff"/><stop offset="1" stop-color="#ff3c4f"/></linearGradient><linearGradient x1="236.83333" y1="146.11667" x2="236.83333" y2="262.58334" gradientUnits="userSpaceOnUse" id="color-20"><stop offset="0" stop-color="#357fff"/><stop offset="1" stop-color="#ff4545"/></linearGradient><linearGradient x1="258.06664" y1="127.98333" x2="258.06664" y2="259.71668" gradientUnits="userSpaceOnUse" id="color-21"><stop offset="0" stop-color="#5582ff"/><stop offset="1" stop-color="#ff3145"/></linearGradient><linearGradient x1="258.06664" y1="127.98333" x2="258.06664" y2="259.71668" gradientUnits="userSpaceOnUse" id="color-22"><stop offset="0" stop-color="#6aa1ff"/><stop offset="1" stop-color="#ff7070"/></linearGradient><linearGradient x1="248.83333" y1="120.58333" x2="248.83333" y2="144.91669" gradientUnits="userSpaceOnUse" id="color-23"><stop offset="0" stop-color="#0046ff"/><stop offset="1" stop-color="#00bfff"/></linearGradient><linearGradient x1="248.63332" y1="120.78333" x2="248.63332" y2="145.71668" gradientUnits="userSpaceOnUse" id="color-24"><stop offset="0" stop-color="#6154ff"/><stop offset="1" stop-color="#156bff"/></linearGradient></defs><g transform="translate(-169.86338,-96.20279)"><g data-paper-data="{&quot;isPaintingLayer&quot;:true}" fill-rule="nonzero" stroke-width="1.5" stroke-linecap="round" stroke-linejoin="miter" stroke-miterlimit="10" stroke-dasharray="" stroke-dashoffset="0" style="mix-blend-mode: normal"><g><path d="M244.66667,130.25001l24.33334,-32.5l20.99999,25.5l-25.33333,103z" fill="url(#color-1)" stroke="url(#color-2)"/><path d="M289.8,123.11668l-2.8,116.46666l-21.8,-10.66666z" fill="url(#color-3)" stroke="url(#color-4)"/><path d="M290.93333,123.58336l17.73333,-18.6l0.66667,71.6l-21.2,60.13333z" fill="url(#color-5)" stroke="url(#color-6)"/><path d="M307.99999,103.91669l-17.66667,18.8l-19.73333,-24.93334z" fill="url(#color-7)" stroke="url(#color-8)"/></g><g><path d="M170.66667,129.91667l24.33334,-32.5l20.99999,25.5l-25.33333,103z" fill="url(#color-9)" stroke="url(#color-10)"/><path d="M215.8,122.78333l-2.8,116.46666l-21.8,-10.66666z" fill="url(#color-11)" stroke="url(#color-12)"/><path d="M216.93333,123.25001l17.73333,-18.6l0.66667,71.6l-21.2,60.13333z" fill="url(#color-13)" stroke="url(#color-14)"/><path d="M233.99998,103.58334l-17.66667,18.8l-19.73333,-24.93334z" fill="url(#color-15)" stroke="url(#color-16)"/></g><g><path d="M204,153.25l24.33334,-32.5l20.99999,25.5l-25.33333,103z" fill="url(#color-17)" stroke="url(#color-18)"/><path d="M249.13333,146.11667l-2.8,116.46666l-21.8,-10.66666z" fill="url(#color-19)" stroke="url(#color-20)"/><path d="M250.26666,146.58335l17.73333,-18.6l0.66667,71.6l-21.2,60.13333z" fill="url(#color-21)" stroke="url(#color-22)"/><path d="M267.33332,126.91666l-17.66667,18.8l-19.73333,-24.93334z" fill="url(#color-23)" stroke="url(#color-24)"/></g></g></g></svg>