<svg version="1.1" xmlns="http://www.w3.org/2000/svg" xmlns:xlink="http://www.w3.org/1999/xlink" width="64.13915" height="64.13915" viewBox="0,0,64.13915,64.13915"><defs><radialGradient cx="240" cy="180" r="31.56957" gradientUnits="userSpaceOnUse" id="color-1"><stop offset="0" stop-color="#ffa000"/><stop offset="1" stop-color="#ff3d00"/></radialGradient><linearGradient x1="225.22502" y1="160.22916" x2="225.22502" y2="182.97626" gradientUnits="userSpaceOnUse" id="color-2"><stop offset="0" stop-color="#ffefef"/><stop offset="1" stop-color="#ffffff"/></linearGradient><radialGradient cx="229.89339" cy="175.9608" r="6.80288" gradientUnits="userSpaceOnUse" id="color-3"><stop offset="0" stop-color="#000000"/><stop offset="1" stop-color="#803d00"/></radialGradient><linearGradient x1="253.33021" y1="160.29659" x2="253.33021" y2="183.04369" gradientUnits="userSpaceOnUse" id="color-4"><stop offset="0" stop-color="#ffefef"/><stop offset="1" stop-color="#ffffff"/></linearGradient><radialGradient cx="248.66184" cy="176.02823" r="6.80288" gradientUnits="userSpaceOnUse" id="color-5"><stop offset="0" stop-color="#000000"/><stop offset="1" stop-color="#803d00"/></radialGradient></defs><g transform="translate(-207.93042,-147.93043)"><g data-paper-data="{&quot;isPaintingLayer&quot;:true}" fill-rule="nonzero" stroke-linejoin="miter" stroke-miterlimit="10" stroke-dasharray="" stroke-dashoffset="0" style="mix-blend-mode: normal"><path d="M208.43043,211.56958v-63.13915h63.13915v63.13915z" fill="url(#color-1)" stroke="#000000" stroke-width="1" stroke-linecap="butt"/><path d="M216.08366,182.97626v-22.74711c0,0 5.91789,0 8.92876,0c3.08172,0 9.35395,5.4084 9.35395,5.4084v17.33871z" fill="url(#color-2)" stroke="#000000" stroke-width="1" stroke-linecap="butt"/><path d="M225.74789,182.76367v-15.3291l8.291,1.72337v13.60574z" fill="url(#color-3)" stroke="#000000" stroke-width="1" stroke-linecap="butt"/><path d="M215.55288,158.60032l10.31934,1.14891l7.79171,5.1701" fill="none" stroke="#000000" stroke-width="3.5" stroke-linecap="round"/><path d="M244.18885,183.04369v-27.33364l18.28271,-1.25466v28.5883z" data-paper-data="{&quot;index&quot;:null}" fill="url(#color-4)" stroke="#000000" stroke-width="1" stroke-linecap="butt"/><path d="M244.51634,182.8311v-13.60574l8.291,-1.72337v15.3291z" data-paper-data="{&quot;index&quot;:null}" fill="url(#color-5)" stroke="#000000" stroke-width="1" stroke-linecap="butt"/><path d="M261.80051,201.72158l-43.91304,-3.17319z" fill="none" stroke="#000000" stroke-width="2.5" stroke-linecap="round"/><path d="M223.6077,198.23315l4.73361,-8.23998l1.57787,8.76594z" fill="#ffffff" stroke="none" stroke-width="0" stroke-linecap="round"/><path d="M249.82127,199.72677l4.7336,-8.23998l1.57787,8.76594z" fill="#ffffff" stroke="none" stroke-width="0" stroke-linecap="round"/></g></g></svg>