<svg version="1.1" xmlns="http://www.w3.org/2000/svg" xmlns:xlink="http://www.w3.org/1999/xlink" width="156.24806" height="136.37851" viewBox="0,0,156.24806,136.37851"><defs><linearGradient x1="292.66808" y1="184.50487" x2="292.66808" y2="232.1361" gradientUnits="userSpaceOnUse" id="color-1"><stop offset="0" stop-color="#6f4100"/><stop offset="1" stop-color="#2a4c00"/></linearGradient><linearGradient x1="280.79807" y1="176.76794" x2="280.79807" y2="233.74901" gradientUnits="userSpaceOnUse" id="color-2"><stop offset="0" stop-color="#6f4100"/><stop offset="1" stop-color="#2a4c00"/></linearGradient><linearGradient x1="307.76206" y1="176.77608" x2="307.76206" y2="233.75715" gradientUnits="userSpaceOnUse" id="color-3"><stop offset="0" stop-color="#6f4100"/><stop offset="1" stop-color="#2a4c00"/></linearGradient><linearGradient x1="293.1091" y1="168.05445" x2="293.1091" y2="185.38692" gradientUnits="userSpaceOnUse" id="color-4"><stop offset="0" stop-color="#269600"/><stop offset="1" stop-color="#c3bd6a"/></linearGradient><linearGradient x1="209.01064" y1="192.80095" x2="209.01064" y2="269.51999" gradientUnits="userSpaceOnUse" id="color-5"><stop offset="0" stop-color="#6f4100"/><stop offset="1" stop-color="#2a4c00"/></linearGradient><linearGradient x1="189.89177" y1="180.33916" x2="189.89177" y2="272.11788" gradientUnits="userSpaceOnUse" id="color-6"><stop offset="0" stop-color="#6f4100"/><stop offset="1" stop-color="#2a4c00"/></linearGradient><linearGradient x1="233.32233" y1="180.35228" x2="233.32233" y2="272.13099" gradientUnits="userSpaceOnUse" id="color-7"><stop offset="0" stop-color="#6f4100"/><stop offset="1" stop-color="#2a4c00"/></linearGradient><linearGradient x1="209.72099" y1="166.30445" x2="209.72099" y2="194.22166" gradientUnits="userSpaceOnUse" id="color-8"><stop offset="0" stop-color="#269600"/><stop offset="1" stop-color="#c3bd6a"/></linearGradient><linearGradient x1="205.70819" y1="194.67111" x2="205.70819" y2="224.47111" gradientUnits="userSpaceOnUse" id="color-9"><stop offset="0" stop-color="#136b16"/><stop offset="1" stop-color="#4bbb22"/></linearGradient><linearGradient x1="263.16808" y1="206.50487" x2="263.16808" y2="254.1361" gradientUnits="userSpaceOnUse" id="color-10"><stop offset="0" stop-color="#6f4100"/><stop offset="1" stop-color="#2a4c00"/></linearGradient><linearGradient x1="251.29807" y1="198.76794" x2="251.29807" y2="255.74901" gradientUnits="userSpaceOnUse" id="color-11"><stop offset="0" stop-color="#6f4100"/><stop offset="1" stop-color="#2a4c00"/></linearGradient><linearGradient x1="278.26206" y1="198.77608" x2="278.26206" y2="255.75715" gradientUnits="userSpaceOnUse" id="color-12"><stop offset="0" stop-color="#6f4100"/><stop offset="1" stop-color="#2a4c00"/></linearGradient><linearGradient x1="263.6091" y1="190.05445" x2="263.6091" y2="207.38692" gradientUnits="userSpaceOnUse" id="color-13"><stop offset="0" stop-color="#269600"/><stop offset="1" stop-color="#c3bd6a"/></linearGradient><linearGradient x1="257.23318" y1="113.0961" x2="257.23318" y2="173.3461" gradientUnits="userSpaceOnUse" id="color-14"><stop offset="0" stop-color="#00972b"/><stop offset="1" stop-color="#393e00"/></linearGradient><linearGradient x1="247.70819" y1="204.67111" x2="247.70819" y2="234.47111" gradientUnits="userSpaceOnUse" id="color-15"><stop offset="0" stop-color="#136b16"/><stop offset="1" stop-color="#4bbb22"/></linearGradient><linearGradient x1="267.20819" y1="207.92111" x2="267.20819" y2="237.72111" gradientUnits="userSpaceOnUse" id="color-16"><stop offset="0" stop-color="#136b16"/><stop offset="1" stop-color="#4bbb22"/></linearGradient><linearGradient x1="299.95819" y1="185.17111" x2="299.95819" y2="214.97111" gradientUnits="userSpaceOnUse" id="color-17"><stop offset="0" stop-color="#136b16"/><stop offset="1" stop-color="#4bbb22"/></linearGradient><linearGradient x1="224.20819" y1="194.67111" x2="224.20819" y2="224.47111" gradientUnits="userSpaceOnUse" id="color-18"><stop offset="0" stop-color="#136b16"/><stop offset="1" stop-color="#4bbb22"/></linearGradient><linearGradient x1="209.77485" y1="168.00799" x2="209.77485" y2="188.72126" gradientUnits="userSpaceOnUse" id="color-19"><stop offset="0" stop-color="#fff640"/><stop offset="1" stop-color="#b0842c"/></linearGradient></defs><g transform="translate(-164.6787,-111.0961)"><g data-paper-data="{&quot;isPaintingLayer&quot;:true}" fill-rule="nonzero" stroke-linejoin="miter" stroke-miterlimit="10" stroke-dasharray="" stroke-dashoffset="0" style="mix-blend-mode: normal"><path d="M293.51075,223.32l-12.17715,-37.88896l25.18281,-0.52923z" fill="url(#color-1)" stroke="#292800" stroke-width="1" stroke-linecap="round"/><path d="M293.16529,223.11891l-26.19095,-47.31953l14.11986,10.11049z" fill="url(#color-2)" stroke="#292800" stroke-width="1" stroke-linecap="round"/><path d="M306.67208,184.85953l12.39471,-7.22088l-25.41034,44.86755z" data-paper-data="{&quot;index&quot;:null}" fill="url(#color-3)" stroke="#292800" stroke-width="1" stroke-linecap="round"/><path d="M282.72285,168.05445c0,0 6.49709,0 9.97476,0c3.81259,0 11.98854,0 11.98854,0l15.34784,8.20316c0,0 -4.15312,3.43662 -6.4341,4.73064c-2.30547,1.30792 -7.32603,3.07559 -7.32603,3.07559c0,0 -8.90805,1.23105 -13.21868,1.34449c-4.05305,0.10666 -11.92003,-0.68295 -11.92003,-0.68295c0,0 -5.09758,-2.70099 -7.46636,-4.39297c-2.55644,-1.82602 -7.35224,-6.19174 -7.35224,-6.19174z" fill="url(#color-4)" stroke="#2a6a13" stroke-width="1" stroke-linecap="round"/><path d="M209.86792,242.07l-19.11359,-47.77729l40.56165,-0.85243z" fill="url(#color-5)" stroke="#292800" stroke-width="2" stroke-linecap="round"/><path d="M205.56149,235.885l-36.13901,-55.96381l20.94624,15.14276z" fill="url(#color-6)" stroke="#292800" stroke-width="2" stroke-linecap="round"/><path d="M231.56672,193.37219l19.5747,-10.93671l-37.26104,53.90707z" data-paper-data="{&quot;index&quot;:null}" fill="url(#color-7)" stroke="#292800" stroke-width="2" stroke-linecap="round"/><path d="M192.99198,166.30445c0,0 10.46478,0 16.06622,0c6.1409,0 19.3098,0 19.3098,0l24.72058,13.21273c0,0 -6.68937,5.53532 -10.36332,7.61958c-3.71339,2.10664 -11.79996,4.95382 -11.79996,4.95382c0,0 -14.34808,1.98284 -21.29117,2.16556c-6.5282,0.1718 -19.19944,-1.10002 -19.19944,-1.10002c0,0 -8.21062,-4.35045 -12.02598,-7.0757c-4.11762,-2.94116 -11.84216,-9.97297 -11.84216,-9.97297z" fill="url(#color-8)" stroke="#2a6a13" stroke-width="2" stroke-linecap="round"/><path d="M198.40819,194.42111c0,0 1.08751,11.35568 1.01621,16.66749c-0.06012,4.47872 -7.66621,15.38251 -7.66621,15.38251" fill="none" stroke="url(#color-9)" stroke-width="2" stroke-linecap="round"/><path d="M263.93382,245.85846l-12.10023,-38.42742l25.18281,-0.52923z" fill="url(#color-10)" stroke="#292800" stroke-width="1" stroke-linecap="round"/><path d="M263.66529,245.23002l-26.52428,-47.65286l14.45319,10.33271z" fill="url(#color-11)" stroke="#292800" stroke-width="1" stroke-linecap="round"/><path d="M277.17208,206.85953l13.39471,-7.55421l-26.18812,45.53421z" data-paper-data="{&quot;index&quot;:null}" fill="url(#color-12)" stroke="#292800" stroke-width="1" stroke-linecap="round"/><path d="M253.22285,190.05445c0,0 6.49709,0 9.97476,0c3.81259,0 11.98854,0 11.98854,0l15.34784,8.20316c0,0 -4.15311,3.43662 -6.43409,4.73064c-2.30547,1.30792 -7.32603,3.07559 -7.32603,3.07559c0,0 -8.90805,1.23105 -13.21869,1.34449c-4.05305,0.10666 -11.92003,-0.68295 -11.92003,-0.68295c0,0 -5.09758,-2.70099 -7.46636,-4.39297c-2.55644,-1.82602 -7.35224,-6.19174 -7.35224,-6.19174z" fill="url(#color-13)" stroke="#2a6a13" stroke-width="1" stroke-linecap="round"/><path d="M257.23318,113.0961v60.25" fill="none" stroke="url(#color-14)" stroke-width="4" stroke-linecap="round"/><path d="M248.46374,205.72667c0,0 3.27538,10.91544 3.05251,15.42054c-0.24219,4.89572 -4.00807,13.3239 -4.00807,13.3239" fill="none" stroke="url(#color-15)" stroke-width="2" stroke-linecap="round"/><path d="M276.25819,234.72111c0,0 -5.65685,-5.68988 -5.60066,-9.87602c0.0728,-5.42328 -3.24934,-16.92398 -3.24934,-16.92398" fill="none" stroke="url(#color-16)" stroke-width="2" stroke-linecap="round"/><path d="M299.75819,214.97111c0,0 -3.59108,-11.58928 -3.52023,-16.86823c0.06099,-4.54369 3.92023,-12.59844 3.92023,-12.59844" fill="none" stroke="url(#color-17)" stroke-width="2" stroke-linecap="round"/><path d="M224.40819,194.67111c0,0 3.78638,12.66493 3.71262,18.16006c-0.04618,3.43992 1.88738,14.38994 1.88738,14.38994" fill="none" stroke="url(#color-18)" stroke-width="2" stroke-linecap="round"/><path d="M228.54625,178.36462c0,5.71981 -8.15424,6.10663 -18.5214,6.10663c-10.36716,0 -19.0214,-0.38682 -19.0214,-6.10663c0,-5.71981 8.50382,-15.23621 18.87098,-15.23621c10.36716,0 18.67182,9.5164 18.67182,15.23621z" fill="url(#color-19)" stroke="#000000" stroke-width="1.5" stroke-linecap="butt"/><text transform="translate(203.50345,181.37842) scale(0.5,0.5)" font-size="40" xml:space="preserve" fill="#000000" fill-rule="nonzero" stroke="none" stroke-width="1" stroke-linecap="butt" stroke-linejoin="miter" stroke-miterlimit="10" stroke-dasharray="" stroke-dashoffset="0" font-family="Handwriting" font-weight="normal" text-anchor="start" style="mix-blend-mode: normal"><tspan x="0" dy="0">8</tspan></text></g></g></svg>