<svg version="1.1" xmlns="http://www.w3.org/2000/svg" xmlns:xlink="http://www.w3.org/1999/xlink" width="145.56224" height="137.40733" viewBox="0,0,145.56224,137.40733"><defs><linearGradient x1="238.92833" y1="202.27369" x2="238.92833" y2="327.69221" gradientUnits="userSpaceOnUse" id="color-1"><stop offset="0" stop-color="#c35f00"/><stop offset="1" stop-color="#5b2400"/></linearGradient><linearGradient x1="207.67324" y1="182.04431" x2="207.67324" y2="332.08204" gradientUnits="userSpaceOnUse" id="color-2"><stop offset="0" stop-color="#994a00"/><stop offset="1" stop-color="#3b1800"/></linearGradient><linearGradient x1="278.34558" y1="182.39271" x2="278.34558" y2="332.43043" gradientUnits="userSpaceOnUse" id="color-3"><stop offset="0" stop-color="#d36600"/><stop offset="1" stop-color="#933b00"/></linearGradient><linearGradient x1="240.08959" y1="159.10069" x2="240.08959" y2="204.7391" gradientUnits="userSpaceOnUse" id="color-4"><stop offset="0" stop-color="#00ff15"/><stop offset="1" stop-color="#dcff61"/></linearGradient><linearGradient x1="240.26379" y1="159.10069" x2="240.26379" y2="202.99717" gradientUnits="userSpaceOnUse" id="color-5"><stop offset="0" stop-color="#1a7b00"/><stop offset="1" stop-color="#185b00"/></linearGradient><linearGradient x1="170.95015" y1="156.13141" x2="170.95015" y2="173.46647" gradientUnits="userSpaceOnUse" id="color-6"><stop offset="0" stop-color="#de8300"/><stop offset="1" stop-color="#8f4500"/></linearGradient><linearGradient x1="210.53185" y1="140.52987" x2="210.53185" y2="157.86489" gradientUnits="userSpaceOnUse" id="color-7"><stop offset="0" stop-color="#de8300"/><stop offset="1" stop-color="#8f4500"/></linearGradient><linearGradient x1="270.62667" y1="140.24095" x2="270.62667" y2="157.576" gradientUnits="userSpaceOnUse" id="color-8"><stop offset="0" stop-color="#de8300"/><stop offset="1" stop-color="#8f4500"/></linearGradient><linearGradient x1="310.78623" y1="160.46517" x2="310.78623" y2="177.80023" gradientUnits="userSpaceOnUse" id="color-9"><stop offset="0" stop-color="#de8300"/><stop offset="1" stop-color="#8f4500"/></linearGradient><linearGradient x1="239.75001" y1="167.9551" x2="239.75001" y2="191.15112" gradientUnits="userSpaceOnUse" id="color-10"><stop offset="0" stop-color="#ff937d"/><stop offset="1" stop-color="#992626"/></linearGradient></defs><g transform="translate(-167.72399,-139.52986)"><g data-paper-data="{&quot;isPaintingLayer&quot;:true}" fill-rule="nonzero" stroke-linejoin="miter" stroke-miterlimit="10" stroke-dasharray="" stroke-dashoffset="0" style="mix-blend-mode: normal"><path d="M209.08333,204.71239l65.29965,-2.12063c0,0 -29.56943,69.52626 -31.08148,72.99751c-0.11902,0.27324 -34.21816,-70.87688 -34.21816,-70.87688z" fill="url(#color-1)" stroke="#442100" stroke-width="2" stroke-linecap="round"/><path d="M242.92925,274.53121l-70.66646,-95.34307l36.19015,24.90546z" fill="url(#color-2)" stroke="#442100" stroke-width="2" stroke-linecap="round"/><path d="M274.18661,202.93424l35.11415,-19.72583l-62.36969,86.34066z" data-paper-data="{&quot;index&quot;:null}" fill="url(#color-3)" stroke="#442100" stroke-width="2" stroke-linecap="round"/><path d="M212.74139,159.10069h57.83189l39.12691,21.74272l-34.9463,20.41185l-66.19312,1.74192l-38.73338,-27.58507z" fill="url(#color-4)" stroke="url(#color-5)" stroke-width="2" stroke-linecap="round"/><path d="M170.95015,173.46647v-17.33506" fill="none" stroke="url(#color-6)" stroke-width="5" stroke-linecap="round"/><path d="M210.53185,141.52987v16.33505" fill="none" stroke="url(#color-7)" stroke-width="4" stroke-linecap="round"/><path d="M270.62667,141.95523v15.62077" fill="none" stroke="url(#color-8)" stroke-width="4" stroke-linecap="round"/><path d="M310.78623,159.75089l-0.14285,19.47791" fill="none" stroke="url(#color-9)" stroke-width="5" stroke-linecap="round"/><path d="M171.23906,164.22108c0,0 31.6127,-11.06444 37.24398,-13.03539c1.34509,-0.47078 46.90822,0.23403 61.85117,0.29742c3.40735,0.01445 39.87419,17.93849 39.87419,17.93849" fill="none" stroke="#965700" stroke-width="3.5" stroke-linecap="round"/><path d="M170.95655,170.42482c0,0 34.1049,-12.42339 39.63308,-14.26612c1.40535,-0.46845 48.42977,-0.31726 59.74204,-0.19818c1.65398,0.01741 40.3117,19.96014 40.3117,19.96014" fill="none" stroke="#764500" stroke-width="3.5" stroke-linecap="round"/><path d="M171.23906,158.15383l39.00387,-12.71238l58.65026,-0.28892l41.02629,18.77964" fill="none" stroke="#a56000" stroke-width="3.5" stroke-linecap="round"/><path d="M260.77141,179.55311c0,6.4054 -9.13163,6.8386 -20.74143,6.8386c-11.6098,0 -21.30137,-0.43319 -21.30137,-6.8386c0,-6.4054 9.52312,-17.06247 21.13292,-17.06247c11.6098,0 20.90988,10.65706 20.90988,17.06247z" fill="url(#color-10)" stroke="#000000" stroke-width="1.5" stroke-linecap="butt"/><text transform="translate(232.97861,182.95621) scale(0.60735,0.60735)" font-size="40" xml:space="preserve" fill="#000000" fill-rule="nonzero" stroke="none" stroke-width="1" stroke-linecap="butt" stroke-linejoin="miter" stroke-miterlimit="10" stroke-dasharray="" stroke-dashoffset="0" font-family="Handwriting" font-weight="normal" text-anchor="start" style="mix-blend-mode: normal"><tspan x="0" dy="0">3</tspan></text></g></g></svg>