<svg version="1.1" xmlns="http://www.w3.org/2000/svg" xmlns:xlink="http://www.w3.org/1999/xlink" width="45.27519" height="39.32631" viewBox="0,0,45.27519,39.32631"><defs><linearGradient x1="247.125" y1="185.95834" x2="247.125" y2="196.875" gradientUnits="userSpaceOnUse" id="color-1"><stop offset="0" stop-color="#009405"/><stop offset="1" stop-color="#078700"/></linearGradient><linearGradient x1="255.32918" y1="188.13334" x2="255.32918" y2="196.475" gradientUnits="userSpaceOnUse" id="color-2"><stop offset="0" stop-color="#087900"/><stop offset="1" stop-color="#146300"/></linearGradient><linearGradient x1="249.64168" y1="186.26667" x2="249.64168" y2="189.6" gradientUnits="userSpaceOnUse" id="color-3"><stop offset="0" stop-color="#0a9c00"/><stop offset="1" stop-color="#017b00"/></linearGradient><linearGradient x1="222.60417" y1="187.70001" x2="222.60417" y2="195.37501" gradientUnits="userSpaceOnUse" id="color-4"><stop offset="0" stop-color="#087900"/><stop offset="1" stop-color="#146300"/></linearGradient><linearGradient x1="228.33334" y1="185.66667" x2="228.33334" y2="189" gradientUnits="userSpaceOnUse" id="color-5"><stop offset="0" stop-color="#0a9c00"/><stop offset="1" stop-color="#017b00"/></linearGradient><linearGradient x1="231.73335" y1="172.33333" x2="231.73335" y2="188.73333" gradientUnits="userSpaceOnUse" id="color-6"><stop offset="0" stop-color="#1d9026"/><stop offset="1" stop-color="#1b7016"/></linearGradient><linearGradient x1="245.60001" y1="172.33333" x2="245.60001" y2="188.73333" gradientUnits="userSpaceOnUse" id="color-7"><stop offset="0" stop-color="#1d9026"/><stop offset="1" stop-color="#1b7016"/></linearGradient><linearGradient x1="238.76668" y1="171.93334" x2="238.76668" y2="182.6" gradientUnits="userSpaceOnUse" id="color-8"><stop offset="0" stop-color="#009413"/><stop offset="1" stop-color="#044a00"/></linearGradient><linearGradient x1="234.36668" y1="159.66667" x2="234.36668" y2="171.73334" gradientUnits="userSpaceOnUse" id="color-9"><stop offset="0" stop-color="#fdffff"/><stop offset="1" stop-color="#c5cdcd"/></linearGradient><linearGradient x1="234.23335" y1="165" x2="234.23335" y2="170.13334" gradientUnits="userSpaceOnUse" id="color-10"><stop offset="0" stop-color="#000000"/><stop offset="1" stop-color="#2d2d2d"/></linearGradient><linearGradient x1="243.50001" y1="159.86667" x2="243.50001" y2="171.93334" gradientUnits="userSpaceOnUse" id="color-11"><stop offset="0" stop-color="#fdffff"/><stop offset="1" stop-color="#c5cdcd"/></linearGradient><linearGradient x1="231" y1="184.83334" x2="231" y2="195.5" gradientUnits="userSpaceOnUse" id="color-12"><stop offset="0" stop-color="#009405"/><stop offset="1" stop-color="#078700"/></linearGradient><linearGradient x1="243.36668" y1="165.2" x2="243.36668" y2="170.33334" gradientUnits="userSpaceOnUse" id="color-13"><stop offset="0" stop-color="#000000"/><stop offset="1" stop-color="#2d2d2d"/></linearGradient><linearGradient x1="232.00001" y1="183.33334" x2="232.00001" y2="188.93334" gradientUnits="userSpaceOnUse" id="color-14"><stop offset="0" stop-color="#0a0000"/><stop offset="1" stop-color="#580000"/></linearGradient><linearGradient x1="245.60001" y1="183.4" x2="245.60001" y2="189" gradientUnits="userSpaceOnUse" id="color-15"><stop offset="0" stop-color="#0a0000"/><stop offset="1" stop-color="#580000"/></linearGradient></defs><g transform="translate(-216.10564,-158.90675)"><g data-paper-data="{&quot;isPaintingLayer&quot;:true}" fill-rule="nonzero" stroke-width="0.5" stroke-linecap="round" stroke-linejoin="miter" stroke-miterlimit="10" stroke-dasharray="" stroke-dashoffset="0" style="mix-blend-mode: normal"><path d="M241.64584,185.95834l10.95833,3.95833l-2.95833,6.95834z" data-paper-data="{&quot;index&quot;:null}" fill="url(#color-1)" stroke="#106400"/><path d="M250.29168,196.475l2.46667,-6.51666l7.60834,-1.825z" data-paper-data="{&quot;index&quot;:null}" fill="url(#color-2)" stroke="#087100"/><path d="M252.83334,189.6l-13.39999,-3.33333l20.41666,1.52499z" data-paper-data="{&quot;index&quot;:null}" fill="url(#color-3)" stroke="#087100"/><path d="M217.15001,187.70001l8.48333,1.36666l2.425,6.30834z" fill="url(#color-4)" stroke="#087100"/><path d="M217.83335,187.4l20.99999,-1.73333l-13.39999,3.33333z" fill="url(#color-5)" stroke="#087100"/><path d="M234.76668,186.86667l0.26667,9.86667l-3.66667,-9.86667z" fill="#178c00" stroke="#00670d"/><path d="M238.23335,187.2l-2.73334,9.46667l-0.46667,-9.73334z" data-paper-data="{&quot;index&quot;:null}" fill="#126b00" stroke="#004509"/><path d="M242.93334,187.21667l-0.15,9.54167l-3.21667,-9.55833z" fill="#178c00" stroke="#00670d"/><path d="M246.16668,188.06667l-2.93335,8.45001l0.13334,-9.25z" data-paper-data="{&quot;index&quot;:null}" fill="#126b00" stroke="#004509"/><path d="M224.96668,188.73333l4.8,-16.4l8.73333,10.53333z" fill="url(#color-6)" stroke="#007d24"/><path d="M238.83335,182.86666l8.73333,-10.53333l4.8,16.4z" data-paper-data="{&quot;index&quot;:null}" fill="url(#color-7)" stroke="#007d24"/><path d="M247.76668,171.93334l-9.26666,10.66666l-8.73334,-10.6z" fill="url(#color-8)" stroke="#007d24"/><path d="M224.83335,188.06667l0.13377,-15.94737l4.79956,-0.05263z" fill="#259000" stroke="#007d24"/><path d="M233.38422,160.63159l-3.68421,11.30175l-4.53333,-0.17193z" fill="#168600" stroke="#007d24"/><path d="M247.92501,172.09167l4.68007,0.11519l-0.21732,15.88481z" data-paper-data="{&quot;index&quot;:null}" fill="#259000" stroke="#007d24"/><path d="M252.40878,171.93918l-4.43099,0.06082l-3.94445,-11.26666z" data-paper-data="{&quot;index&quot;:null}" fill="#168600" stroke="#007d24"/><path d="M234.23335,159.66667l4.46666,12.01111l-8.38888,0.05555z" fill="url(#color-9)" stroke="#c9c9c9"/><path d="M233.30001,165h1.86666l-0.8,5.13333z" fill="url(#color-10)" stroke="#000000"/><path d="M243.36667,159.86667l4.13333,11.73334l-8.22222,0.05555z" fill="url(#color-11)" stroke="#c9c9c9"/><path d="M228.52084,195.5l-3,-6.70834l10.95833,-3.95833z" fill="url(#color-12)" stroke="#106400"/><path d="M242.43335,165.2h1.86667l-0.8,5.13334z" fill="url(#color-13)" stroke="#000000"/><path d="M226.57844,188.40393l11.99608,-5.12941l0.25883,4.39216z" fill="url(#color-14)" stroke="#290000"/><path d="M238.76668,187.73333l0.02353,-4.45097l11.99608,5.18823z" data-paper-data="{&quot;index&quot;:null}" fill="url(#color-15)" stroke="#290000"/><path d="M238.80001,187.94119l13.9,1.26666l-13.80834,0.51667l-13.99166,-0.71667z" fill="#087b00" stroke="#0b4500"/></g></g></svg>