<svg version="1.1" xmlns="http://www.w3.org/2000/svg" xmlns:xlink="http://www.w3.org/1999/xlink" width="31.99556" height="66.75" viewBox="0,0,31.99556,66.75"><defs><linearGradient x1="241.375" y1="148.875" x2="241.375" y2="210.375" gradientUnits="userSpaceOnUse" id="color-1"><stop offset="0" stop-color="#ffdf00"/><stop offset="1" stop-color="#ff6700"/></linearGradient><linearGradient x1="238.625" y1="149.625" x2="238.625" y2="211.125" gradientUnits="userSpaceOnUse" id="color-2"><stop offset="0" stop-color="#ff6700"/><stop offset="1" stop-color="#ffdf00"/></linearGradient></defs><g transform="translate(-224.00222,-146.625)"><g data-paper-data="{&quot;isPaintingLayer&quot;:true}" fill="none" fill-rule="nonzero" stroke-width="4.5" stroke-linecap="butt" stroke-linejoin="miter" stroke-miterlimit="10" stroke-dasharray="" stroke-dashoffset="0" style="mix-blend-mode: normal"><path d="M253.74778,179.625c0,16.98276 -5.53948,30.75 -12.37278,30.75c-6.8333,0 -12.37278,-13.76724 -12.37278,-30.75c0,-16.98276 5.53948,-30.75 12.37278,-30.75c6.8333,0 12.37278,13.76724 12.37278,30.75z" stroke="url(#color-1)"/><path d="M250.99778,180.375c0,16.98275 -5.53948,30.75 -12.37278,30.75c-6.8333,0 -12.37278,-13.76725 -12.37278,-30.75c0,-16.98275 5.53948,-30.75 12.37278,-30.75c6.8333,0 12.37278,13.76725 12.37278,30.75z" stroke="url(#color-2)"/></g></g></svg>