<svg version="1.1" xmlns="http://www.w3.org/2000/svg" xmlns:xlink="http://www.w3.org/1999/xlink" width="90.70982" height="120.9094" viewBox="0,0,90.70982,120.9094"><defs><linearGradient x1="239.65245" y1="192.82985" x2="239.65245" y2="269.54889" gradientUnits="userSpaceOnUse" id="color-1"><stop offset="0" stop-color="#c35f00"/><stop offset="1" stop-color="#5b2400"/></linearGradient><linearGradient x1="263.67324" y1="180.49027" x2="263.67324" y2="272.26898" gradientUnits="userSpaceOnUse" id="color-2"><stop offset="0" stop-color="#d36600"/><stop offset="1" stop-color="#933b00"/></linearGradient><linearGradient x1="240.3628" y1="166.33335" x2="240.3628" y2="194.25056" gradientUnits="userSpaceOnUse" id="color-3"><stop offset="0" stop-color="#00ff15"/><stop offset="1" stop-color="#dcff61"/></linearGradient><linearGradient x1="240.46936" y1="166.33335" x2="240.46936" y2="193.18502" gradientUnits="userSpaceOnUse" id="color-4"><stop offset="0" stop-color="#2ead00"/><stop offset="1" stop-color="#185b00"/></linearGradient><linearGradient x1="220.53358" y1="180.36806" x2="220.53358" y2="272.14678" gradientUnits="userSpaceOnUse" id="color-5"><stop offset="0" stop-color="#994a00"/><stop offset="1" stop-color="#3b1800"/></linearGradient><linearGradient x1="239.85" y1="167.12021" x2="239.85" y2="187.83348" gradientUnits="userSpaceOnUse" id="color-6"><stop offset="0" stop-color="#fff640"/><stop offset="1" stop-color="#b0842c"/></linearGradient><linearGradient x1="223.83469" y1="154.90485" x2="223.83469" y2="165.23988" gradientUnits="userSpaceOnUse" id="color-7"><stop offset="0" stop-color="#de8300"/><stop offset="1" stop-color="#8f4500"/></linearGradient><linearGradient x1="196.83469" y1="164.02984" x2="196.83469" y2="174.3649" gradientUnits="userSpaceOnUse" id="color-8"><stop offset="0" stop-color="#de8300"/><stop offset="1" stop-color="#8f4500"/></linearGradient><linearGradient x1="221.63469" y1="181.62984" x2="221.63469" y2="191.9649" gradientUnits="userSpaceOnUse" id="color-9"><stop offset="0" stop-color="#de8300"/><stop offset="1" stop-color="#8f4500"/></linearGradient></defs><g transform="translate(-195.09317,-153.65485)"><g data-paper-data="{&quot;isPaintingLayer&quot;:true}" fill-rule="nonzero" stroke-linejoin="miter" stroke-miterlimit="10" stroke-dasharray="" stroke-dashoffset="0" style="mix-blend-mode: normal"><path d="M242.39155,270.5489l-20.82874,-76.22729l39.46165,-1.05243z" fill="url(#color-1)" stroke="#442100" stroke-width="2" stroke-linecap="round"/><path d="M261.58429,194.17684l21.59692,-12.21192l-40.88225,89.45502z" data-paper-data="{&quot;index&quot;:null}" fill="url(#color-2)" stroke="#442100" stroke-width="2" stroke-linecap="round"/><path d="M223.63379,166.33335h35.37601l24.72058,13.21273l-22.16328,12.5734l-40.49061,1.06554l-23.86815,-17.04868z" fill="url(#color-3)" stroke="url(#color-4)" stroke-width="2" stroke-linecap="round"/><path d="M242.54421,271.47955l-44.27992,-92.31835l22.74624,15.43165z" fill="url(#color-5)" stroke="#442100" stroke-width="2" stroke-linecap="round"/><g stroke-linecap="butt"><path d="M258.6214,177.47684c0,5.71981 -8.15424,6.10663 -18.5214,6.10663c-10.36716,0 -19.0214,-0.38682 -19.0214,-6.10663c0,-5.71981 8.50382,-15.23621 18.87098,-15.23621c10.36716,0 18.67182,9.5164 18.67182,15.23621z" fill="url(#color-6)" stroke="#000000" stroke-width="1.5"/><text transform="translate(235.5786,180.49064) scale(0.5,0.5)" font-size="40" xml:space="preserve" fill="#000000" fill-rule="nonzero" stroke="none" stroke-width="1" stroke-linecap="butt" stroke-linejoin="miter" stroke-miterlimit="10" stroke-dasharray="" stroke-dashoffset="0" font-family="Handwriting" font-weight="normal" text-anchor="start" style="mix-blend-mode: normal"><tspan x="0" dy="0">1</tspan></text></g><path d="M223.83469,154.90485v10.66839" fill="none" stroke="url(#color-7)" stroke-width="2.5" stroke-linecap="round"/><path d="M197.2699,166.73481l26.25,-8" fill="none" stroke="#aa6300" stroke-width="2.5" stroke-linecap="round"/><path d="M197.16803,175.58711l-0.11112,-12.22394" fill="none" stroke="url(#color-8)" stroke-width="2.5" stroke-linecap="round"/><path d="M221.5,185.7l-24.2,-17.2" fill="none" stroke="#8c5100" stroke-width="2.5" stroke-linecap="round"/><path d="M221.63469,181.62984v10.44616" fill="none" stroke="url(#color-9)" stroke-width="2.5" stroke-linecap="round"/></g></g></svg>