<svg version="1.1" xmlns="http://www.w3.org/2000/svg" xmlns:xlink="http://www.w3.org/1999/xlink" width="118.06988" height="114.04482" viewBox="0,0,118.06988,114.04482"><defs><linearGradient x1="260.93928" y1="165.95807" x2="260.93928" y2="276.43676" gradientUnits="userSpaceOnUse" id="color-1"><stop offset="0" stop-color="#a5bdff"/><stop offset="1" stop-color="#a5bdff" stop-opacity="0"/></linearGradient><linearGradient x1="262.96378" y1="166.87874" x2="262.96378" y2="276.43678" gradientUnits="userSpaceOnUse" id="color-2"><stop offset="0" stop-color="#8088a8"/><stop offset="1" stop-color="#8088a8" stop-opacity="0"/></linearGradient><linearGradient x1="264.59749" y1="182.41453" x2="264.59749" y2="274.19324" gradientUnits="userSpaceOnUse" id="color-3"><stop offset="0" stop-color="#a5bdff"/><stop offset="1" stop-color="#a5bdff" stop-opacity="0"/></linearGradient><linearGradient x1="263.54715" y1="183.26696" x2="263.54715" y2="274.07147" gradientUnits="userSpaceOnUse" id="color-4"><stop offset="0" stop-color="#8088a8"/><stop offset="1" stop-color="#8088a8" stop-opacity="0"/></linearGradient><linearGradient x1="220.02631" y1="162.92938" x2="220.02631" y2="273.40806" gradientUnits="userSpaceOnUse" id="color-5"><stop offset="0" stop-color="#a5bdff"/><stop offset="1" stop-color="#a5bdff" stop-opacity="0"/></linearGradient><linearGradient x1="218.0018" y1="163.85005" x2="218.0018" y2="273.40808" gradientUnits="userSpaceOnUse" id="color-6"><stop offset="0" stop-color="#8088a8"/><stop offset="1" stop-color="#8088a8" stop-opacity="0"/></linearGradient><linearGradient x1="239.69791" y1="165.39369" x2="239.69791" y2="275.87237" gradientUnits="userSpaceOnUse" id="color-7"><stop offset="0" stop-color="#a5bdff"/><stop offset="1" stop-color="#a5bdff" stop-opacity="0"/></linearGradient><linearGradient x1="241.72242" y1="166.31435" x2="241.72242" y2="275.8724" gradientUnits="userSpaceOnUse" id="color-8"><stop offset="0" stop-color="#8088a8"/><stop offset="1" stop-color="#8088a8" stop-opacity="0"/></linearGradient><linearGradient x1="240.4858" y1="194.66319" x2="240.4858" y2="271.38223" gradientUnits="userSpaceOnUse" id="color-9"><stop offset="0" stop-color="#a5bdff"/><stop offset="1" stop-color="#a5bdff" stop-opacity="0"/></linearGradient><linearGradient x1="242.51031" y1="195.30252" x2="242.51031" y2="271.38223" gradientUnits="userSpaceOnUse" id="color-10"><stop offset="0" stop-color="#8088a8"/><stop offset="1" stop-color="#8088a8" stop-opacity="0"/></linearGradient><linearGradient x1="221.36693" y1="182.20141" x2="221.36693" y2="273.98013" gradientUnits="userSpaceOnUse" id="color-11"><stop offset="0" stop-color="#a5bdff"/><stop offset="1" stop-color="#a5bdff" stop-opacity="0"/></linearGradient><linearGradient x1="220.92548" y1="180.28344" x2="220.92548" y2="273.85835" gradientUnits="userSpaceOnUse" id="color-12"><stop offset="0" stop-color="#8088a8"/><stop offset="1" stop-color="#8088a8" stop-opacity="0"/></linearGradient><linearGradient x1="261.87501" y1="166.33334" x2="261.87501" y2="194.83334" gradientUnits="userSpaceOnUse" id="color-13"><stop offset="0" stop-color="#04ffff"/><stop offset="1" stop-color="#04ffff" stop-opacity="0"/></linearGradient><linearGradient x1="240.86282" y1="167.41669" x2="240.86282" y2="195.33391" gradientUnits="userSpaceOnUse" id="color-14"><stop offset="0" stop-color="#f9ffff"/><stop offset="1" stop-color="#ceecff"/></linearGradient><linearGradient x1="241.30271" y1="167.41669" x2="241.30271" y2="195.26837" gradientUnits="userSpaceOnUse" id="color-15"><stop offset="0" stop-color="#ffffff"/><stop offset="1" stop-color="#b9f1ff"/></linearGradient><linearGradient x1="261.62501" y1="164.70834" x2="313.37501" y2="164.70834" gradientUnits="userSpaceOnUse" id="color-16"><stop offset="0" stop-color="#0eeaff"/><stop offset="1" stop-color="#0eeaff" stop-opacity="0"/></linearGradient><linearGradient x1="240.55104" y1="169.84055" x2="240.55104" y2="190.55381" gradientUnits="userSpaceOnUse" id="color-17"><stop offset="0" stop-color="#fff640"/><stop offset="1" stop-color="#b0842c"/></linearGradient></defs><g transform="translate(-195.77922,-146.55258)"><g data-paper-data="{&quot;isPaintingLayer&quot;:true}" fill-rule="nonzero" stroke-linejoin="miter" stroke-miterlimit="10" stroke-dasharray="" stroke-dashoffset="0" style="mix-blend-mode: normal"><path d="M242.67996,256.86253l19.27578,-89.8385l22.0443,16.09609z" fill="url(#color-1)" stroke="url(#color-2)" stroke-width="1" stroke-linecap="round"/><path d="M262.84188,195.83443l21.5747,-12.56748l-42.23882,75.33784z" data-paper-data="{&quot;index&quot;:null}" fill="url(#color-3)" stroke="url(#color-4)" stroke-width="1" stroke-linecap="round"/><path d="M196.96556,180.0914l41.31706,-14.30442l3.5041,92.79251z" data-paper-data="{&quot;index&quot;:null}" fill="url(#color-5)" stroke="url(#color-6)" stroke-width="1" stroke-linecap="round"/><path d="M242.06471,255.68558l-3.20749,-90.08309l22.86031,0.85472z" fill="url(#color-7)" stroke="url(#color-8)" stroke-width="1" stroke-linecap="round"/><path d="M242.45975,258.8739l-20.03026,-62.31896l40.36165,-1.25243z" fill="url(#color-9)" stroke="url(#color-10)" stroke-width="1" stroke-linecap="round"/><path d="M240.81998,256.05835l-43.45567,-75.97491l24.47957,16.84276z" fill="url(#color-11)" stroke="url(#color-12)" stroke-width="1" stroke-linecap="round"/><path d="M261.66945,166.17223l22.70556,16.16111l-21.33333,12.47222l-22.16667,-14.72222l-1.72222,-14.86111z" fill="url(#color-13)" stroke="#00d7ef" stroke-width="0.5" stroke-linecap="round"/><path d="M238.34315,166.16669l2.22058,14.3794l19.75339,13.49007l-38.07394,1.23221l-24.20148,-16.88201z" fill="url(#color-14)" stroke="url(#color-15)" stroke-width="2" stroke-linecap="round"/><path d="M287.12501,146.83334l26.25,9l-28.75,26.95l-22.4,-16.25z" fill="url(#color-16)" stroke="#00d7ef" stroke-width="0.5" stroke-linecap="round"/><path d="M259.32245,180.19717c0,5.71981 -8.15424,6.10663 -18.5214,6.10663c-10.36716,0 -19.0214,-0.38682 -19.0214,-6.10663c0,-5.71981 8.50382,-15.23621 18.87098,-15.23621c10.36716,0 18.67182,9.5164 18.67182,15.23621z" fill="url(#color-17)" stroke="#000000" stroke-width="1.5" stroke-linecap="butt"/><text transform="translate(234.27965,183.21098) scale(0.5,0.5)" font-size="40" xml:space="preserve" fill="#000000" fill-rule="nonzero" stroke="none" stroke-width="1" stroke-linecap="butt" stroke-linejoin="miter" stroke-miterlimit="10" stroke-dasharray="" stroke-dashoffset="0" font-family="Handwriting" font-weight="normal" text-anchor="start" style="mix-blend-mode: normal"><tspan x="0" dy="0">5</tspan></text></g></g></svg>