<svg version="1.1" xmlns="http://www.w3.org/2000/svg" xmlns:xlink="http://www.w3.org/1999/xlink" width="141.92874" height="109.8231" viewBox="0,0,141.92874,109.8231"><defs><linearGradient x1="239.73437" y1="176.4598" x2="239.73437" y2="195.64299" gradientUnits="userSpaceOnUse" id="color-1"><stop offset="0" stop-color="#ffffff"/><stop offset="1" stop-color="#d9d9d9"/></linearGradient><linearGradient x1="241.42185" y1="172.40341" x2="241.42185" y2="193.11668" gradientUnits="userSpaceOnUse" id="color-2"><stop offset="0" stop-color="#fff640"/><stop offset="1" stop-color="#b0842c"/></linearGradient><linearGradient x1="239.86727" y1="196.58246" x2="239.86727" y2="205.59306" gradientUnits="userSpaceOnUse" id="color-3"><stop offset="0" stop-color="#a0a0a0"/><stop offset="1" stop-color="#c6c6c6"/></linearGradient><linearGradient x1="240.69141" y1="205.97766" x2="240.69141" y2="212.51584" gradientUnits="userSpaceOnUse" id="color-4"><stop offset="0" stop-color="#ffffff"/><stop offset="1" stop-color="#e7e7e7"/></linearGradient><linearGradient x1="240.53074" y1="212.79077" x2="240.53074" y2="222.96117" gradientUnits="userSpaceOnUse" id="color-5"><stop offset="0" stop-color="#a0a0a0"/><stop offset="1" stop-color="#c6c6c6"/></linearGradient><linearGradient x1="241.70902" y1="223.39528" x2="241.70902" y2="230.77502" gradientUnits="userSpaceOnUse" id="color-6"><stop offset="0" stop-color="#ffffff"/><stop offset="1" stop-color="#e7e7e7"/></linearGradient><linearGradient x1="241.23618" y1="231.51938" x2="241.23618" y2="243.09664" gradientUnits="userSpaceOnUse" id="color-7"><stop offset="0" stop-color="#a0a0a0"/><stop offset="1" stop-color="#c6c6c6"/></linearGradient><linearGradient x1="218.13281" y1="174.67297" x2="218.13281" y2="137.5317" gradientUnits="userSpaceOnUse" id="color-8"><stop offset="0" stop-color="#dadada"/><stop offset="1" stop-color="#999999"/></linearGradient><linearGradient x1="187.0904" y1="194.17784" x2="187.0904" y2="157.03657" gradientUnits="userSpaceOnUse" id="color-9"><stop offset="0" stop-color="#dadada"/><stop offset="1" stop-color="#999999"/></linearGradient><linearGradient x1="292.30588" y1="195.00219" x2="292.30588" y2="157.86093" gradientUnits="userSpaceOnUse" id="color-10"><stop offset="0" stop-color="#dadada"/><stop offset="1" stop-color="#999999"/></linearGradient><linearGradient x1="265.21934" y1="174.72855" x2="265.21934" y2="137.58729" gradientUnits="userSpaceOnUse" id="color-11"><stop offset="0" stop-color="#dadada"/><stop offset="1" stop-color="#999999"/></linearGradient></defs><g transform="translate(-170.25932,-133.77353)"><g data-paper-data="{&quot;isPaintingLayer&quot;:true}" fill-rule="nonzero" stroke-linejoin="miter" stroke-miterlimit="10" stroke-dasharray="" stroke-dashoffset="0" style="mix-blend-mode: normal"><path d="M218.15328,176.4598h46.54744l27.08216,19.18319h-104.09702z" fill="url(#color-1)" stroke="#dadada" stroke-width="2" stroke-linecap="round"/><path d="M260.19325,182.76004c0,5.71981 -8.15424,6.10663 -18.5214,6.10663c-10.36716,0 -19.0214,-0.38682 -19.0214,-6.10663c0,-5.71981 8.50382,-15.23621 18.87098,-15.23621c10.36716,0 18.67182,9.5164 18.67182,15.23621z" fill="url(#color-2)" stroke="#000000" stroke-width="1.5" stroke-linecap="butt"/><text transform="translate(231.85388,186.21338) scale(0.5,0.5)" font-size="40" xml:space="preserve" fill="#000000" fill-rule="nonzero" stroke="none" stroke-width="1" stroke-linecap="butt" stroke-linejoin="miter" stroke-miterlimit="10" stroke-dasharray="" stroke-dashoffset="0" font-family="Handwriting" font-weight="normal" text-anchor="start" style="mix-blend-mode: normal"><tspan x="0" dy="0">10</tspan></text><path d="M185.474,196.58246h109.22609v9.0106h-109.66562z" fill="url(#color-3)" stroke="#dadada" stroke-width="1" stroke-linecap="round"/><path d="M185.474,206.47215l-6.04369,6.04369h122.52221l-6.53818,-6.53818z" fill="url(#color-4)" stroke="#dadada" stroke-width="1" stroke-linecap="round"/><path d="M179.13624,212.79077h123.28513v10.1704h-123.78124z" fill="url(#color-5)" stroke="#dadada" stroke-width="1" stroke-linecap="round"/><path d="M179.38429,223.95341l-6.82161,6.82161h138.29267l-7.37974,-7.37974z" fill="url(#color-6)" stroke="#dadada" stroke-width="1" stroke-linecap="round"/><path d="M171.34905,231.51938h140.33901v11.57726h-140.90376z" fill="url(#color-7)" stroke="#dadada" stroke-width="1" stroke-linecap="round"/><path d="M218.13281,174.67297v-37.14127" data-paper-data="{&quot;index&quot;:null}" fill="none" stroke="url(#color-8)" stroke-width="4" stroke-linecap="round"/><path d="M187.0904,194.17784v-37.14126" data-paper-data="{&quot;index&quot;:null}" fill="none" stroke="url(#color-9)" stroke-width="5.5" stroke-linecap="round"/><path d="M292.30588,195.00219v-37.14127" data-paper-data="{&quot;index&quot;:null}" fill="none" stroke="url(#color-10)" stroke-width="5.5" stroke-linecap="round"/><path d="M265.21934,174.72855v-37.14127" data-paper-data="{&quot;index&quot;:null}" fill="none" stroke="url(#color-11)" stroke-width="4" stroke-linecap="round"/><path d="M186.48581,154.45405l30.32837,-18.68052h47.69026l29.00974,19.77937z" fill="none" stroke="#999999" stroke-width="4" stroke-linecap="round"/></g></g></svg>