<svg version="1.1" xmlns="http://www.w3.org/2000/svg" xmlns:xlink="http://www.w3.org/1999/xlink" width="149.13555" height="53.0729" viewBox="0,0,149.13555,53.0729"><defs><linearGradient x1="238.08334" y1="204.49829" x2="238.08334" y2="188.20892" gradientUnits="userSpaceOnUse" id="color-1"><stop offset="0" stop-color="#67a2f5"/><stop offset="1" stop-color="#0f73ff"/></linearGradient><linearGradient x1="238.08334" y1="155.38435" x2="238.08334" y2="171.67374" gradientUnits="userSpaceOnUse" id="color-2"><stop offset="0" stop-color="#67a2f5"/><stop offset="1" stop-color="#0f73ff"/></linearGradient><linearGradient x1="239.99383" y1="154.96355" x2="239.99383" y2="205.03645" gradientUnits="userSpaceOnUse" id="color-3"><stop offset="0" stop-color="#1f6bdd"/><stop offset="1" stop-color="#2b1aad"/></linearGradient><linearGradient x1="281.07588" y1="158.4098" x2="281.07588" y2="201.67567" gradientUnits="userSpaceOnUse" id="color-4"><stop offset="0" stop-color="#4a4a4a"/><stop offset="1" stop-color="#000000"/></linearGradient><linearGradient x1="281.14141" y1="162.37687" x2="281.14141" y2="196.96138" gradientUnits="userSpaceOnUse" id="color-5"><stop offset="0" stop-color="#5d5d5d"/><stop offset="1" stop-color="#404040"/></linearGradient><linearGradient x1="280.45602" y1="197.95654" x2="280.45602" y2="202.04758" gradientUnits="userSpaceOnUse" id="color-6"><stop offset="0" stop-color="#737373"/><stop offset="1" stop-color="#666666"/></linearGradient></defs><g transform="translate(-165.4942,-153.46355)"><g data-paper-data="{&quot;isPaintingLayer&quot;:true}" fill-rule="nonzero" stroke-linejoin="miter" stroke-miterlimit="10" stroke-dasharray="" stroke-dashoffset="0" style="mix-blend-mode: normal"><g stroke-linecap="round"><path d="M167.3605,179.44559h145.37838l-19.56576,25.0527h-110.17958z" data-paper-data="{&quot;index&quot;:null}" fill="url(#color-1)" stroke="none" stroke-width="0"/><path d="M182.99355,155.38435h110.17958l19.56576,25.0527h-145.37838z" fill="url(#color-2)" stroke="none" stroke-width="1.5"/><path d="M167.26111,180.21583l15.64144,-25.25228h110.27217l19.55181,25.25228l-19.55181,24.82062h-110.38389z" fill="none" stroke="url(#color-3)" stroke-width="3"/></g><text transform="translate(184.38919,187.33923) scale(0.6018,0.6018)" font-size="40" xml:space="preserve" fill="#ffffff" fill-rule="nonzero" stroke="none" stroke-width="1" stroke-linecap="butt" stroke-linejoin="miter" stroke-miterlimit="10" stroke-dasharray="" stroke-dashoffset="0" font-family="Sans Serif" font-weight="normal" text-anchor="start" style="mix-blend-mode: normal"><tspan x="0" dy="0">Mobile</tspan></text><g><path d="M267.50105,201.67567v-43.26589c0,0 8.60569,-0.99178 13.14093,-0.99178c4.51457,0 14.00871,0.99178 14.00871,0.99178v43.26589c0,0 -9.18536,1.11574 -13.76078,1.11574c-4.47213,0 -13.38886,-1.11574 -13.38886,-1.11574z" fill="url(#color-4)" stroke="none" stroke-width="0" stroke-linecap="butt"/><path d="M269.60855,196.96138v-34.58451h23.06571v34.58451z" fill="url(#color-5)" stroke="none" stroke-width="0" stroke-linecap="butt"/><path d="M278.41049,200.00207c0,-1.12971 0.9158,-2.04552 2.04552,-2.04552c1.12971,0 2.04552,0.9158 2.04552,2.04552c0,1.12971 -0.9158,2.04552 -2.04552,2.04552c-1.12971,0 -2.04552,-0.9158 -2.04552,-2.04552z" fill="url(#color-6)" stroke="none" stroke-width="0" stroke-linecap="butt"/><path d="M285.47683,160.5173h2.60339" fill="#545454" stroke="#262626" stroke-width="0.5" stroke-linecap="round"/></g></g></g></svg>