<svg version="1.1" xmlns="http://www.w3.org/2000/svg" xmlns:xlink="http://www.w3.org/1999/xlink" width="183.92532" height="232.77957" viewBox="0,0,183.92532,232.77957"><g transform="translate(-140.78287,-55.88642)"><g data-paper-data="{&quot;isPaintingLayer&quot;:true}" fill-rule="nonzero" stroke="none" stroke-width="0.5" stroke-linecap="butt" stroke-linejoin="miter" stroke-miterlimit="10" stroke-dasharray="" stroke-dashoffset="0" style="mix-blend-mode: normal"><path d="M192.20593,232.6812c-1.2837,4.81694 -3.21275,9.60259 -4.00176,14.46198c-1.20278,7.40774 -1.82512,14.95071 -2.93423,22.37199c-0.36665,2.45332 -0.5288,4.94064 -1.02952,7.37015c-0.11706,0.568 -1.22359,1.11029 -0.82515,1.53169c0.60932,0.64443 1.77166,0.17041 2.63327,0.38062c6.46381,1.57702 12.72482,2.3565 19.40766,2.37756c3.68329,0.6053 7.41752,0.52212 11.06761,1.00652c2.4598,0.32644 4.81297,1.50105 7.2943,1.48589c1.44075,-0.0088 2.85613,-0.40022 4.29364,-0.49711c2.20774,-0.14881 4.43116,-0.1619 6.63825,-0.00383c0.72332,0.05181 1.57825,0.86516 2.13772,0.40377c0.78773,-0.64963 0.80025,-1.90837 0.91674,-2.92275c0.35087,-3.05534 0.17098,-6.15283 0.45651,-9.21497c1.04559,-11.21337 0.28391,-22.5478 0.53414,-33.79328c-0.04795,-0.35026 0.1505,-0.85498 -0.14385,-1.05078c-0.3863,-0.25696 -0.9328,0.09878 -1.39155,0.02946c-3.9579,-0.59806 -6.56166,-0.95146 -10.50971,-0.95145c-8.00225,0.00002 -15.70421,-0.935 -23.65535,-1.50483c-3.60784,-0.25856 -6.3098,0.15443 -9.77313,-1.17398l0.42847,0.17881c0,0 -0.83833,0 -1.54407,-0.48546zM192.27576,228.60591c0.69,-0.43924 1.47424,-0.43924 1.47424,-0.43924l1.42847,0.17881c2.86029,1.21209 5.17592,0.60876 8.22687,0.82602c9.03042,0.64308 17.76947,1.44867 26.854,1.49518c2.68314,0.01373 5.36828,0.43749 7.98095,1.04854c1.21794,0.28485 2.68384,0.18707 3.60845,1.02946c1.07522,0.97961 1.23743,2.63281 1.85615,3.94922c0.20146,13.27613 -0.22378,26.37928 -0.95871,39.61102c-0.23505,4.23195 0.96738,8.11265 -3.13389,11.45798c-0.6121,0.49928 -7.11889,0.40452 -8.36228,0.40377c-2.52818,-0.00152 -5.03996,0.51217 -7.56811,0.49907c-2.04456,-0.0106 -5.8771,-1.26946 -7.7057,-1.51411c-3.59805,-0.48138 -7.2987,-0.37867 -10.93239,-0.99348c-6.76701,0.02486 -14.23924,-0.11171 -20.59234,-2.62244c-1.85128,-0.73163 -4.1904,-1.01352 -5.36673,-2.61938c-0.88083,-1.20247 0.13188,-2.97836 0.17485,-4.46831c0.07442,-2.58043 0.68454,-5.11763 1.06513,-7.67092c1.11652,-7.49044 1.73187,-15.11438 2.97113,-22.58694c0.92531,-5.57951 3.28424,-11.02368 4.51369,-16.56581c0,0 0.54233,-2.44047 2.9828,-1.89814c0.72978,0.16217 1.19284,0.49409 1.48343,0.87972z" fill="#ff6666"/><path d="M278.07797,209.66671c-0.01024,0.41887 -0.10008,0.71832 -0.10008,0.71832c-2.86507,9.36823 -1.39456,20.50582 -1.39456,30.28163c0,2.16666 0.20205,4.34277 0,6.5c-0.05001,0.53399 -0.74363,1.07583 -0.4719,1.53823c0.23177,0.3944 0.91492,-0.00155 1.37235,-0.00595c1.07632,-0.01036 5.69372,-0.08812 6.32406,-0.02218c7.96417,0.83321 15.72655,0.98967 23.77552,0.9899c2.7317,0.0121 5.27102,0.42899 7.99996,0.5c0.38686,0.01006 2.06763,0.53413 2.41729,-0.38287c0.65933,-1.72914 0.28512,-3.69664 0.61499,-5.51759c0.1879,-1.03721 0.82049,-1.96131 1,-3c0.89242,-5.16384 -0.03228,-11.35069 -0.03228,-16.59955c0,-4 0,-8 0,-12c0,-0.83334 -0.18412,-1.68726 0,-2.5c0.07626,-0.33665 1.077,-0.71521 0.73224,-0.73224c-0.40449,-0.01998 -0.57441,0.6945 -0.97858,0.72007c-0.84814,0.05366 -1.66667,-0.33334 -2.5,-0.5c-12.91954,0.03696 -25.8394,0.01341 -38.75901,0.01221zM273.10788,209.22664c-0.54146,-0.34515 -1.02454,-0.96102 -1.02454,-2.05998c0,-2.5 2.5,-2.5 2.5,-2.5h2.5c13.41539,0 26.831,-0.02223 40.24635,0.01216c2.16857,0.43372 4.99567,-0.38084 6.52142,1.22007c0.9958,1.04485 0.57698,2.83276 0.73224,4.26776c0.28091,2.59637 0,5.3863 0,8c0,5.66666 0,11.33334 0,17c0,0.20966 0.01108,6.63163 -0.03228,6.90045c-0.16784,1.04065 -0.81074,1.96303 -1,3c-0.4554,2.49529 -0.0485,5.32658 -1.38501,7.48241c-2.96461,4.78203 -10.18717,2.0934 -14.58275,2.11713c-8.19464,-0.00024 -16.11354,-0.13456 -24.22448,-1.0101c-3.38984,-0.36592 -8.68915,1.28775 -11.30359,-2.02813c-0.92598,-1.17441 -0.38341,-2.96884 -0.4719,-4.46177c-0.1282,-2.16287 0,-4.33334 0,-6.5c0,-10.27845 -1.31186,-21.5327 1.52454,-31.44002z" fill="#66beff"/><path d="M191.25427,164.92538c1.61453,0.73532 1.29504,2.65228 1.29504,2.65228c-1.63311,9.77138 -1.46736,20.18702 -1.46598,30.08901c0.00023,1.66666 0.05077,3.3341 0,5c-0.02302,0.75532 -0.63306,2.1809 0.11803,2.26393c3.21263,0.35517 7.10699,-0.26393 10.38197,-0.26393c5.76861,0 11.48132,0.20547 17.24272,0.51181c5.09717,0.72589 10.32708,2.13387 15.46348,2.49671c1.26146,0.08911 2.54024,-0.17531 3.7938,-0.00852c0.34757,0.04624 0.74322,0.96119 0.8455,0.6258c0.22427,-0.73538 -0.28809,-1.51413 -0.34067,-2.28115c-0.13915,-2.03002 -0.29271,-4.05947 -0.49126,-6.08455c-0.75613,-7.71225 -1.51357,-15.5191 -1.51357,-23.26011c0,-0.58334 0,-7 0,-7c0.00244,-1.35337 0.68766,-2.92104 -0.04354,-4.05988c-0.98587,-1.53548 -3.63213,-0.47832 -5.45646,-0.44012c-10.16666,0 -20.33334,0 -30.5,0c-2.49757,0 -5.00304,0.05228 -7.5,0c-0.52164,-0.01092 -1.24106,-0.21362 -1.82906,-0.24128zM187.05571,170.68471c-0.60621,-0.51387 -0.84409,-1.22747 -0.84409,-1.22747l-0.62829,-2.29057c0.10817,-1.41058 -0.4271,-3.03318 0.3245,-4.23174c0.8536,-1.36124 2.50911,-2.09922 4.00816,-2.67754c2.65978,-1.02613 7.78544,-0.09072 10.66734,-0.09072c10.16666,0 20.33334,0 30.5,0c3.77146,0.06036 6.85305,-0.87987 9.54354,2.55988c1.85101,2.36649 0.95646,8.24297 0.95646,10.94012c0,8.60662 0.64542,17.16844 1.48643,25.73989c0.33664,3.43095 1.72224,9.68529 -0.83193,12.6343c-0.91686,1.05861 -2.75785,0.52268 -4.1545,0.6258c-6.48573,0.47885 -13.36768,-1.59807 -19.74272,-2.51181c-6.93519,-0.36107 -13.81456,-0.48819 -20.75728,-0.48819c-0.98156,0 -7.94233,0.07608 -8.61803,-0.26393c-4.19966,-2.11326 -2.88246,-8.04518 -2.88197,-11.73607c0.0012,-8.86279 -0.10266,-18.1086 0.97238,-26.98195z" fill="#6fb381"/><path d="M151.76848,165.09091c-1.06132,0 -1.67208,-0.45056 -2.02356,-0.96913c-3.97636,-1.30577 -4.92112,-3.60142 -7.16796,-7.82785c-1.8739,-3.52489 -1.82529,-5.7987 -1.77993,-9.74881c0.07217,-6.28475 0.36095,-12.7457 2.28046,-18.8028c0.99388,-3.13623 2.41769,-6.13403 3.27908,-9.30921c0,0 0.65779,-2.41191 3.0697,-1.75412c2.41191,0.65779 1.75412,3.0697 1.75412,3.0697c-0.88798,3.24003 -2.31572,6.30949 -3.33825,9.5096c-2.05428,6.42908 -1.92511,13.19848 -2.0737,19.8467c-0.08919,3.99101 2.00714,9.85345 6.49033,10.53446l2.00971,2.95145c0,0 0,2.5 -2.5,2.5z" fill="#000000"/><path d="M147.34312,171.69725c-0.60634,-2.42535 1.81902,-3.03169 1.81902,-3.03169l2.60634,-0.57465c1.74558,0 6.9459,-0.81392 9.06468,0.08266c-0.74173,-1.21969 -1.44874,-2.4726 -1.94214,-3.80955c-1.61736,-4.38252 -2.19048,-8.33922 -4.35861,-12.65508c0,0 -1.11804,-2.23606 1.11803,-3.3541c2.23607,-1.11803 3.3541,1.11803 3.3541,1.11803c2.26032,4.54031 2.96678,8.73672 4.64139,13.34492c0.60519,1.66535 2.07747,3.02893 2.31583,4.78473c0.22154,1.63196 0.12224,3.64023 -1.00971,4.8365c-0.97003,1.02516 -2.77728,0.53257 -4.18357,0.65188c-2.94012,0.24944 -6.04359,0 -9,0l-1.39366,0.42536c0,0 -2.42536,0.60634 -3.0317,-1.81902z" fill="#000000"/><path d="M288.8171,182.66031c-2.23607,-1.11803 -1.11803,-3.3541 -1.11803,-3.3541l0.7839,-1.4437c5.25535,-6.56919 10.90721,-13.03409 15.31001,-20.22711c3.09467,-5.05589 4.6406,-10.6767 8.8744,-14.97892c0,0 1.76777,-1.76777 3.53553,0c1.76777,1.76777 0,3.53553 0,3.53553c-3.93749,3.857 -5.293,9.38721 -8.1256,14.02108c-4.51552,7.38696 -10.29514,14.02932 -15.68999,20.77289l-0.2161,0.5563c0,0 -1.11803,2.23607 -3.3541,1.11803z" fill="#000000"/><path d="M296.36049,185.8179c0.60634,2.42536 -1.81902,3.0317 -1.81902,3.0317l-1.67786,0.39584c-3.46286,1.38514 -6.60485,3.02264 -10.53687,2.67646c-1.51077,-0.13301 -3.41281,-0.20103 -4.32497,-1.41268c-1.02575,-1.36253 -0.46438,-3.38256 -0.56664,-5.08497c-0.2552,-4.24832 0.6457,-7.92637 1.55953,-12.04233c0,0 0.54233,-2.44047 2.98279,-1.89814c2.44047,0.54233 1.89814,2.98279 1.89814,2.98279c-0.88633,3.98479 -1.05209,6.98517 -1.44047,10.95767c-0.06477,0.66254 -0.61455,1.25105 -0.56664,1.91503c0.01898,0.26304 0.41586,-0.36385 0.67503,-0.41268c3.34898,-0.63093 5.33028,-1.0704 8.46313,-2.32354l2.32214,-0.60416c0,0 2.42536,-0.60634 3.0317,1.81902z" fill="#000000"/><path d="M179.91122,115.95951c1.76776,-1.76776 3.53553,0 3.53553,0l0.66667,0.66667c3.04675,3.16572 5.61922,2.66074 10.02922,2.50774c6.77192,-0.23493 15.25158,-0.70504 20.47297,-5.54467c0.90827,-0.84186 1.86341,-1.71256 2.42035,-2.81868c1.35383,-2.68883 -0.8578,-8.58575 -3.50413,-9.82203c-1.7817,-0.83235 -4.12095,-0.75985 -6.04479,-0.83569c-3.25594,-0.12835 -6.35955,-0.22916 -9.4782,-0.42448l0.04524,0.24131l-4.86513,0.91222c-0.16464,0.03412 -0.3352,0.05205 -0.50995,0.05205c-1.38071,0 -2.5,-1.11929 -2.5,-2.5c0,-1.17194 0.8064,-2.15555 1.8946,-2.4262l3.61427,-0.98571l0.00503,0.01844l0.04268,-0.03095c3.00833,-0.69364 6.90509,-1.20664 9.6866,-2.73669c1.38322,-0.76087 1.9999,-2.04501 2.88226,-3.28228c3.00035,-4.20718 3.5126,-7.1915 1.73528,-11.92424c-1.34315,-2.81276 -2.27254,-6.43069 -4.08984,-8.88614c-2.31422,-3.12686 -6.32024,-4.99545 -10.12405,-5.25165c-2.12007,-0.14279 -4.72396,-0.56163 -6.31868,0.84264c-1.43313,1.26198 -2.46267,2.98185 -3.23353,4.72892c-0.80656,1.82799 -1.22515,3.83871 -1.42795,5.91754c-0.3812,3.90752 0,8.05563 0,11.683c0,4.55555 0,9.11111 0,13.66667c0,2.55555 0.61023,5.18504 0,7.66667v5c0,1.38071 -1.11929,2.5 -2.5,2.5c-1.38071,0 -2.5,-1.11929 -2.5,-2.5c0,-0.66666 0,-4.33334 0,-5c0,-0.88889 0,-1.77778 0,-2.66667c-0.38717,-0.80014 0,0.88889 0,0c0,-3.33334 0,-6.66666 0,-10c0,-6.53587 -0.95235,-14.28808 0,-21.25979c0,-3.57955 0,-11.49399 0,-15.07355c0,0 0,-2.5 2.5,-2.5c2.5,0 2.5,2.5 2.5,2.5c0,1.65481 0,3.30963 0,4.96444c0.51102,-0.57762 1.067,-3.16608 1.67185,-3.63498c6.89696,-5.34665 18.97976,-0.45795 23.55728,5.59099c2.03769,2.69269 3.11432,6.70135 4.57683,9.78052c2.45369,6.91665 1.17447,15.29804 -4.75891,20.10801c2.03239,0.10025 4.06834,0.33248 5.93345,1.30309c4.27295,2.22365 6.22376,7.21892 6.35083,11.78773c0.15874,5.7077 -3.94935,9.72475 -8.70473,12.33198c-1.0384,0.56932 -8.23875,2.31468 -8.8134,2.43096c-7.95927,1.61052 -17.84177,3.17602 -24.08096,-2.89496l-0.66666,-0.66667c0,0 -1.76776,-1.76777 0,-3.53553z" fill="#000000"/><path d="M272.71736,122.60337c0.79057,2.37171 -1.58114,3.16228 -1.58114,3.16228l-1.48048,0.44232c-3.70222,0.37994 -7.17539,-0.0807 -9.84165,-3.14905c-1.75581,-2.02059 -2.77153,-4.85919 -3.35176,-7.68197c-2.30556,5.20194 -5.65497,8.96728 -12.40714,9.82088c-2.06979,0.26166 -4.26496,0.82769 -6.25552,0.20303c-2.49548,-0.78311 -4.1057,-3.98066 -4.83349,-6.24004c-2.84069,-8.81873 2.19804,-15.16826 9.31245,-19.83787c4.29783,-2.82093 7.70157,-3.41788 12.73369,-3.42901c0,0 2.5,0 2.5,2.5c0,2.5 -2.5,2.5 -2.5,2.5c-3.97445,-0.01004 -6.55143,0.27317 -9.93297,2.57099c-4.14704,2.81799 -8.50338,6.1854 -7.91529,11.65622c0.09935,0.9242 0.89527,5.31188 2.39425,5.5992c1.22795,0.23538 2.49205,-0.23927 3.72233,-0.46216c6.66363,-1.20727 8.10431,-4.89364 10.06752,-10.76826c0.81879,-1.84554 1.67049,-3.67831 2.59986,-5.47072l2.94248,-4.78298c0.5386,2.04487 1.22279,4.05808 1.69853,6.11661l0.15425,0.08249c-0.03085,0.0635 -0.06168,0.12701 -0.09247,0.19054c0.08655,0.39094 0.16504,0.78363 0.23308,1.17859c0.92093,5.34598 -0.3537,15.8067 8.15166,14.44212l0.51952,-0.22435c0,0 2.37171,-0.79057 3.16228,1.58114z" fill="#000000"/><path d="M304.29484,100.19936c0.33423,-4.18532 0.44849,-8.39543 0.92291,-12.55792c1.12467,-9.86768 3.08019,-19.68803 4.31388,-29.55759c0,0 0.31009,-2.48069 2.79078,-2.17061c2.48069,0.31009 2.17061,2.79078 2.17061,2.79078c-1.23142,9.85133 -3.18488,19.65454 -4.30743,29.50363c-0.7532,6.6084 -0.92339,13.29551 -1.66642,19.91927c-0.56702,5.05475 -1.54621,9.75719 -3.50092,14.48235c-0.61365,1.4834 -0.84567,3.29875 -2.05349,4.35621c-4.06409,3.55815 -12.77878,0.21041 -17.01346,-0.76951c-2.20822,-0.20715 -6.37421,-0.23945 -8.06664,-2.06124c-3.60948,-3.88539 -1.85799,-11.78731 0.91863,-15.39357c0.87452,-1.13582 6.57899,-3.87987 7.53347,-4.30126c5.47353,-2.41651 10.14725,-4.3913 16.15051,-4.87193zM303.80538,105.22081c-0.52817,-0.066 -0.9111,-0.25746 -0.9111,-0.25746l-0.02356,-0.4101c-5.42189,0.39783 -9.55162,2.2848 -14.51616,4.46141c-1.99795,0.87596 -4.44592,1.32154 -5.79987,3.03207c-1.21929,1.54042 -2.70669,6.8129 -1.08137,8.60643c1.18663,1.30944 3.50634,0.45084 5.2667,0.60542c1.76903,0.40487 7.39359,1.73223 9.18531,1.98087c1.25535,0.17421 2.93038,0.8371 3.80123,-0.08371c0.54751,-0.57892 0.36909,-1.55195 0.61318,-2.31046c0.42867,-1.33212 0.9861,-2.62093 1.40356,-3.9566c1.21159,-3.87651 1.6559,-7.71099 2.06209,-11.66787z" fill="#000000"/><path d="M216.17899,204.47728c1.66666,0 3.33334,-0.00025 5,0c2.44056,0.00036 4.85796,-0.32566 7.2903,-0.33259c0.64463,-0.00183 1.28282,0.18129 1.92715,0.16151c0.15851,-0.00486 0.55379,-0.15742 0.41458,-0.23338c-0.34763,-0.18969 -0.77616,-0.32426 -1.25717,-0.41754c-0.56698,-0.00655 -1.13627,-0.01134 -1.7082,-0.01134c-1.77778,0 -3.55555,0 -5.33333,0c-4.89108,0.0006 -11.32565,0.95439 -16.5649,0c-0.47836,0 -0.95674,0 -1.4351,0h-2.5c-0.69036,0 -1.25,-0.55964 -1.25,-1.25c0,-0.69036 0.55964,-1.25 1.25,-1.25c0.38889,0 2.11111,0 2.5,0c0.35361,0 0.70723,0 1.06084,0c0.20958,-0.39649 0.62615,-0.66666 1.10583,-0.66666h2.32812c4.57075,-0.05091 9.12246,-0.20372 13.67601,-0.53726c-3.10453,-0.01507 -6.20943,-0.02936 -9.31398,-0.03107c-7.01413,0.4744 -11.91819,3.28354 -18.96514,3.27712c-0.67306,0.12899 -3.49362,-2.53396 -4.03917,-2.87545h-1.3525c-0.69036,0 -1.25,-0.55964 -1.25,-1.25c0,-0.69036 0.55964,-1.25 1.25,-1.25h1.31461c0.68429,-0.4642 1.65316,-0.05008 2.47971,-0.07515c2.50307,-0.07593 5.00789,-0.18199 7.51169,-0.22753c4.82896,-0.08784 9.66127,-0.10546 14.49417,-0.09715c2.23083,-0.18901 4.53053,-0.66155 6.83616,-1.10017c-4.601,0 -9.20201,0 -13.80301,0c-2.33254,0 -4.52963,0.06834 -6.69786,-0.03266c-1.09691,0.01692 -2.19733,0.02688 -3.30214,0.0306v0.00206h-2.5c-0.69036,0 -1.25,-0.55964 -1.25,-1.25c0,-0.69025 0.55946,-1.24982 1.24967,-1.25c0.00001,0 0.00003,0 0.00004,0l1.69246,-0.00045c0.6718,-0.00044 1.34183,-0.00312 2.01031,-0.00822c1.37202,-0.28721 2.92285,-0.16852 4.41799,-0.07115c7.39759,-0.18538 14.66027,-0.71794 22.08275,-1.83132c0.322,-0.0483 0.74573,-0.14014 1.23692,-0.25554c-5.59116,0 -11.30732,1.625 -16.89848,1.625c-4.5353,0 -8.87248,-1.28556 -13.25616,-1.9848l-0.00992,0.31683l-3.49398,1.79686c-0.67448,-0.0182 -0.21565,-2.44567 -0.21565,-3.12454c0,-0.59488 0.41555,-1.09269 0.9722,-1.21902l2.39999,-0.59999c4.89553,-1.21684 10.08009,-1.69643 15.23519,-2.13522c-4.11337,-0.00324 -8.22673,-0.00844 -12.33999,-0.00844c-2.5,0 -5,0 -7.5,0c-0.50164,0 -4.67674,-0.04809 -4.67674,-0.04809c0,0 0.99507,-3.11858 1.73757,-3.11858c0.20958,-0.39649 0.62615,-0.66666 1.10583,-0.66666h2.34278c1.58121,-0.49278 3.43425,-0.58064 5.28131,-0.54309c0.1111,-0.05361 0.23135,-0.09128 0.35775,-0.11001l2.21088,-0.36768c0.16464,-0.02735 0.32937,-0.05476 0.4942,-0.08222c0.64551,-0.23741 1.4722,-0.34455 2.32661,-0.38979c3.33462,-0.56097 6.6999,-1.13384 10.06483,-1.67387c-2.47056,0 -4.94113,0 -7.41169,0c-3.73476,0 -8.93145,2.83086 -12.49196,2.35161c-0.15563,0.02535 1.31391,-2.57349 1.15863,-2.54649v0.19488h-2.5c-0.69036,0 -1.25,-0.55964 -1.25,-1.25c0,-0.66935 0.52611,-1.21583 1.18737,-1.24846l1.85586,-0.10561c5.01459,-0.93344 10.06131,-1.16995 15.13607,-1.39593c-2.97643,0 -5.95287,0 -8.92929,0c-2.58173,0 -5.53744,0.4239 -8.15895,0c-0.28035,0 -0.5607,0 -0.84105,0h-2.5c-0.69036,0 -1.25,-0.55964 -1.25,-1.25c0,-0.69036 0.55964,-1.25 1.25,-1.25c0.31105,0 3.12209,0 3.43314,0c1.76471,-0.22172 3.62121,0 5.56686,0c0.05549,0 0.11099,-0.00003 0.16651,-0.00009c-0.15688,-0.2089 -0.24984,-0.46855 -0.24984,-0.74991c0,-0.69036 0.55964,-1.25 1.25,-1.25h2c1.63765,0 3.27197,-0.05007 4.90476,-0.1308l-0.2727,-0.0909c-0.51078,-0.15708 -0.88206,-0.63267 -0.88206,-1.19497c0,-0.31945 0.11983,-0.6109 0.31699,-0.83187c-3.19313,0.18013 -6.39276,0.4201 -9.60927,0.74234c0,0 -1.2438,0.12438 -1.36818,-1.11942c-0.12438,-1.2438 1.11942,-1.36818 1.11942,-1.36818c11.67152,-1.16496 23.14652,-1.41185 34.87994,-1.33795l-0.01074,-0.1395l2.47897,-0.19069c0.03609,-0.00313 0.07263,-0.00474 0.10954,-0.00474c0.69036,0 1.25,0.55964 1.25,1.25c0,0.59488 2.08445,2.09269 1.5278,2.21902l-3.80796,-0.673l-0.01745,-0.06977l-0.13299,0.09773c-0.81755,0.00515 -1.6337,0.01019 -2.44861,0.01548c-1.69978,0.50277 -3.69764,0.48204 -5.44798,0.75841c-1.82689,0.28845 -3.6473,0.52822 -5.46687,0.7419c1.57645,0.04195 3.15506,0.05857 4.73445,0.06117c1.15626,-0.0428 2.31481,-0.06759 3.47628,-0.06759c1.91144,0 3.95901,-0.37637 5.72946,0.00669c0.36807,-0.00216 0.73603,-0.0039 1.10388,-0.00506v-0.00163h2.5c0.69036,0 1.25,0.55964 1.25,1.25c0,0.69036 -0.55964,1.25 -1.25,1.25h-1.5c-1.23352,0 -2.46851,0.00776 -3.70434,0.01798c0.02358,0.00368 0.04716,0.00738 0.07074,0.01109l0.06826,0.04654l0.00783,-0.02718l1.71029,0.49277c0.53561,0.14116 3.93055,1.75386 3.93055,2.33381c0,0.66183 -3.51435,0.07852 -4.16512,0.12216l-2.48165,0.1909l-0.02529,-0.32884c-1.03405,0.19145 6.55286,2.06941 5.51011,2.15307c-0.63582,0.05101 -9.89838,-1.66445 -10.5378,-1.64203c-0.1194,0.50835 -0.5491,0.8971 -1.07833,0.95548l-2.46424,0.30803l-0.03227,-0.25819c-0.6037,0.1697 -1.2114,0.32154 -1.82263,0.45776c4.39352,0 8.78704,0 13.18055,0h1.66666c0.69036,0 1.25,0.55964 1.25,1.25c0,0.47774 -0.26801,0.89289 -0.66189,1.10328c0.35778,-0.01281 0.7172,-0.01976 1.07856,-0.01996h1.33333c0.69036,0 1.25,0.55964 1.25,1.25c0,0.5623 -0.37128,1.03789 -0.88206,1.19497l-1.66509,0.55503c0.0435,0 0.08699,0 0.13049,0c0.64548,0.00142 1.29095,0.00284 1.93643,0.00426l0.0965,0.04814l0.0059,-0.03539l1.97973,0.32995c0.60252,0.0895 1.06477,0.60895 1.06477,1.23637c0,0.62152 -0.45361,1.1371 -1.04784,1.23373l-2.43823,0.44332l-0.07844,-0.43142c-0.75691,0.18597 -0.52342,1.20519 -1.29735,1.31616c-0.9368,0.13433 -2.88447,-0.65505 -3.83912,-0.60304c-0.11955,0.49941 3.46114,2.38233 2.94289,2.44795l-6.31514,-1.16926l-0.0329,-0.23031c-5.64033,1.73433 -11.73617,2.02078 -17.78963,2.40954c8.10414,0 16.20828,0 24.31242,0h1.66666c0.69036,0 1.25,0.55964 1.25,1.25c0,0.41415 -0.20142,0.78127 -0.51164,1.00873l-1.3217,0.99127l-0.01628,-0.0217c-0.06625,0.05462 -0.13506,0.10648 -0.20679,0.15521c-1.01057,0.68655 -2.61108,1.05134 -4.28913,1.28316h0.09553c0.69036,0 1.25,0.55964 1.25,1.25c0,0.42534 -0.21244,0.80106 -0.537,1.02685l-1.93785,1.38417c1.24179,0.00351 2.48342,0.00564 3.72486,0.00564h1.5c0.69036,0 1.25,0.55964 1.25,1.25c0,0.55306 -0.35917,1.02223 -0.85699,1.18697l-2.32694,0.83105l-0.13303,-0.37246c-0.34763,0.15447 -0.6999,0.29991 -1.05643,0.43686c2.63104,-0.00023 5.26209,-0.00016 7.89316,0.00517l0.09596,0.05137l0.00644,-0.03862l1.97973,0.32995c0.60252,0.0895 1.06477,0.60895 1.06477,1.23637c0,0.69036 -0.55964,1.25 -1.25,1.25h-2.5v-0.32073c-2.07074,0.2986 -4.14796,0.36812 -6.24831,0.36897c0.07316,1.04586 -0.77153,2.18438 -1.63582,2.78951c-0.84023,0.58828 -2.04899,0.10011 -3.07285,0.16151c-4.13997,0.24829 -8.22754,0.33407 -12.37636,0.33407c-0.5,0 -1,0 -1.5,0h-2.33334c-0.69036,0 -1.25,-0.55964 -1.25,-1.25c0,-0.69036 0.55964,-1.25 1.25,-1.25c0.29194,0 1.37937,0 2.33334,0c0.67986,0 1.29194,0 1.5,0zM233.6053,182.14394c0.36715,0 0.73431,0 1.10146,0l-0.11633,-0.34898c-0.32541,0.12755 -0.65388,0.24345 -0.98514,0.34898zM230.86138,179.31061c-0.32826,0.07897 -0.65286,0.14736 -0.97679,0.20772c0.37424,-0.04778 0.74905,-0.09275 1.12481,-0.1338l-0.01056,-0.07391c-0.04583,0 -0.09164,0 -0.13746,0zM227.47164,179.85521c-1.10446,0.11882 -2.27936,0.21901 -3.62815,0.38954c-1.01097,0.12783 -2.02504,0.26303 -3.04132,0.40437c0.6369,-0.04071 1.27309,-0.0923 1.90838,-0.15772c1.60904,-0.16569 3.18694,-0.40505 4.7611,-0.6362z" fill="#68af46"/><path d="M219.08333,162.66666h-1.5c-1.1792,-0.05837 -2.19806,-0.43524 -3.09669,0.62092c-0.15208,0.17874 -0.27756,0.38777 -0.38853,0.61236c0.0993,0.10278 0.1976,0.20615 0.29492,0.31l-0.26989,0.95671h0.46019v3c0,1.38071 -1.11929,2.5 -2.5,2.5c-1.05134,0 -1.95111,-0.64897 -2.32056,-1.56816l-1.35925,-3.17159l-0.79417,-1.0589c-0.31556,-0.13587 -0.63542,-0.26108 -0.95449,-0.38016c0,0 -0.00763,-0.00305 -0.02184,-0.00924c-2.35667,-0.01311 -4.82829,-0.31195 -6.54969,-0.31195h-3c-1.38071,0 -2.5,-1.11929 -2.5,-2.5c0,-0.55537 0.18109,-1.06845 0.48745,-1.4834c-0.1638,-0.0031 -0.32773,-0.01135 -0.49178,-0.02525c-0.6768,0.17079 -1.34651,0.32823 -2.00538,0.4601l-2.40381,0.48076c-0.03576,0.0294 -0.07236,0.05783 -0.10975,0.08524l-1.69515,1.27137c-0.22311,0.72622 -0.72477,1.31449 -1.24193,1.89907c-0.8941,1.96609 -0.94222,4.06583 -1.63934,6.51108c-0.88925,3.11917 -1.9192,6.10977 -3.09161,9.05755l0.17602,0.01956l-0.49667,4.47002c-0.12362,1.2652 -1.19037,2.2539 -2.48804,2.2539c-1.38071,0 -2.5,-1.11929 -2.5,-2.5v-1.58334l-0.5,-0.41666c0.00842,-2.24801 0.2272,-4.47222 0.63821,-6.65806c0.31204,-5.11521 1.30606,-10.33001 4.40201,-14.39412c0.89227,-1.1713 2.23955,-1.91226 3.35933,-2.86838c0,0 0.63535,-0.52946 1.47972,-0.61389l0.60054,-0.45041c0.27184,-0.20851 0.58775,-0.36244 0.93134,-0.4454c0.29525,-0.24332 0.64729,-0.42021 1.03325,-0.50779l3.94927,-0.98732l0.0029,0.01159c0.01829,-0.00849 0.03662,-0.01694 0.05497,-0.02533c0.24989,-0.11427 0.90685,-0.26886 1.77544,-0.43909c0.19582,-0.06361 0.40223,-0.10371 0.61592,-0.11696c0.43929,-0.08107 0.91412,-0.16427 1.40543,-0.2472c2.18962,-0.56983 4.39285,-1.09613 6.52847,-1.24572c4.01058,-0.28092 8.19501,-0.31114 12.33756,-0.12971c4.13817,0.01358 8.27926,0.11777 12.38566,0.11777h3.5c1.21221,0 2.2229,0.86276 2.45155,2.00773c0.13978,0.04684 0.27726,0.09555 0.41223,0.14624c0.59038,0.22175 1.14883,0.49663 1.67953,0.81405c0.41017,-0.29456 0.91317,-0.46801 1.45669,-0.46801c0.41989,0 0.81561,0.10352 1.16302,0.28643l1.35655,0.67827c0.06439,-0.07739 0.13512,-0.15492 0.21266,-0.23246c1.76776,-1.76776 3.53553,0 3.53553,0c3.41477,3.42074 7.48334,7.20211 7.22372,12.56157c-0.13299,2.74542 -0.40928,8.35764 -4.11568,6.79391c-0.39463,0.26059 -0.8675,0.41228 -1.37581,0.41228c-1.0731,0 -1.98829,-0.67611 -2.34282,-1.62559l-0.97837,-2.44593l0.0448,-0.01792l-0.0811,-0.07851c-0.12171,-0.40248 -0.2497,-0.79988 -0.38322,-1.19291c-0.54982,-0.62456 -0.83111,-1.52452 -1.31679,-2.21902c-1.47067,-2.10298 -3.38266,-5.51048 -5.78913,-7.42205c-4.4356,-0.00688 -8.87248,-0.02939 -13.30881,-0.02338c-0.54617,1.52532 -2.34457,1.52532 -2.34457,1.52532z" fill="#233929"/><path d="M208.58333,173.5c0,2.5 -2.5,2.5 -2.5,2.5h-0.5c-3.70182,-0.05617 -6.08167,-1.24384 -9.4848,-2.70213c0,0 -2.29787,-0.9848 -1.31306,-3.28267c0.9848,-2.29787 3.28267,-1.31306 3.28267,-1.31306c2.72463,1.16786 4.59999,2.36274 7.5152,2.29787h0.5c0,0 2.5,0 2.5,2.5z" fill="#233929"/><path d="M230.50869,171.39366c0.60634,2.42535 -1.81902,3.03169 -1.81902,3.03169l-2.60634,0.57465c-2,0 -4,0 -6,0c0,0 -2.5,0 -2.5,-2.5c0,-2.5 2.5,-2.5 2.5,-2.5c2,0 4,0 6,0l1.39366,-0.42535c0,0 2.42535,-0.60634 3.03169,1.81901z" fill="#233929"/><path d="M225.08333,197.5c0,2.5 -2.5,2.5 -2.5,2.5l-0.00971,-0.04855c-6.89881,1.37713 -13.47806,1.54855 -20.49029,1.54855c0,0 -2.5,0 -2.5,-2.5c0,-2.5 2.5,-2.5 2.5,-2.5c6.68841,0 12.93195,-0.13324 19.50971,-1.45145l0.99029,-0.04855c0,0 2.5,0 2.5,2.5z" fill="#233929"/><path d="M206.49262,179.83267c1.17235,2.60235 -0.56877,6.42127 -3.24633,7.4218c-0.4329,0.74479 -1.23945,1.24554 -2.16296,1.24554c-0.83635,0 -1.57678,-0.41069 -2.03062,-1.0414c-3.72589,-1.27782 -2.96938,-7.36819 -2.96938,-10.9586c0,0 0,-2.5 2.5,-2.5c0.68833,0 1.18714,0.18952 1.54862,0.4642c0.4092,-0.29225 0.9102,-0.4642 1.45138,-0.4642c1.21828,0 2.23302,0.87142 2.45492,2.02495c1.1119,0.84185 1.8783,2.52898 2.45437,3.80772z" fill="#e4ffeb"/><path d="M226.89303,184.45671c-0.19352,0.25924 -0.41172,0.49189 -0.64883,0.70416l0.1069,0.10689l-2,2c-0.45241,0.45241 -1.07741,0.73224 -1.76776,0.73224c-1.38071,0 -2.5,-1.11929 -2.5,-2.5v-1.45867c-0.20122,-0.16505 -0.39674,-0.3795 -0.58013,-0.65458c-1.38675,-2.08012 0.69338,-3.46688 0.69338,-3.46688l0.05895,0.01182c0.16644,-1.49421 0.4732,-2.9695 1.00661,-4.36017c0,0 0.92847,-2.32119 3.24966,-1.39271c0.73157,0.29263 1.14034,0.7236 1.35712,1.17664c0.72758,0.4371 1.2144,1.23398 1.2144,2.14455v3c-0.06343,1.31891 0.59958,2.8986 -0.1903,3.95671z" fill="#e4ffeb"/><path d="M201.58333,188c-2.5,0 -2.5,-2.5 -2.5,-2.5l0.04855,-0.99029c0.16666,-0.83334 0.33334,-1.66666 0.5,-2.5c0,0 0.49029,-2.45145 2.94174,-1.96116c2.45145,0.49029 1.96116,2.94174 1.96116,2.94174c-0.16666,0.83334 -0.33334,1.66666 -0.5,2.5l0.04855,0.00971c0,0 0,2.5 -2.5,2.5z" fill="#1a1d1a"/><path d="M224.18967,189.42536c-2.42535,0.60634 -3.03169,-1.81901 -3.03169,-1.81901l-0.57465,-2.60634c0,-1 0,-2 0,-3c0,0 0,-2.5 2.5,-2.5c2.5,0 2.5,2.5 2.5,2.5c0,1 0,2 0,3l0.42535,1.39366c0,0 0.60634,2.42535 -1.81902,3.03169z" fill="#1a1d1a"/><path d="M204.02202,198.96559c-0.20389,0.0529 -0.446,0.06266 -0.73286,0.00529c-1.47087,-0.29417 -1.17669,-1.76505 -1.17669,-1.76505c0.26351,-1.31006 0.53847,-2.62548 0.97087,-3.88981v-1.31602c0,-0.82842 0.67157,-1.5 1.5,-1.5c0.67476,0 1.24546,0.44554 1.43397,1.05847l0.48906,1.46719l-0.36775,0.12259c0.8811,1.75165 0.87825,3.34229 0.32179,6.06862z" fill="#ffffff"/><path d="M216.96047,196.99652c-1.37714,-0.07959 -1.37714,-1.49652 -1.37714,-1.49652c0.01194,-1.07319 0.16743,-2.16073 0.5,-3.1815v-1.3185c0,-0.82843 0.67157,-1.5 1.5,-1.5c0.55597,0 1.04129,0.30247 1.30038,0.75183l1.48586,2.47643l-0.06351,0.03811c0.07746,0.10863 0.15188,0.2196 0.22284,0.33324c0.06874,0.11009 0.05443,3.07353 0.05443,3.4004l-3.17082,0.84164c0,0 -0.23008,-0.11504 -0.45204,-0.34512z" fill="#ffffff"/><path d="M317.84013,254.11121c-1.11228,0.05525 -2.10458,0.11026 -3.05277,-0.05157c-0.29758,-0.00247 -0.61171,-0.00442 -0.94483,-0.00442l-0.83309,-0.62482c-0.01164,-0.00663 -0.02328,-0.01333 -0.03493,-0.02008c-2.27997,0.07795 -4.56683,0.09238 -6.76291,-0.20823c-0.69358,0.0171 -1.38851,0.02591 -2.08563,0.02618l-3.10103,-1.55051l0.83439,-0.41719c-1.96799,-0.06126 -3.88851,-0.24287 -5.69273,-0.62734c-0.56491,0.02951 -1.12931,0.06633 -1.69275,0.11289l-2.54526,-1.54918l0.80616,-0.51684c-0.82002,0 -1.64003,0 -2.46004,0c-3.36737,0 -6.76299,0.3409 -10.01999,-0.01889c-0.79287,0.00881 -1.58631,0.01506 -2.3804,0.01888l-3.093,-1.54464c-0.00392,-0.00196 -0.00784,-0.00391 -0.01176,-0.00587c1.15046,-0.57523 2.33461,-0.96381 3.5434,-1.22216l-0.76033,-0.17105l0.31423,-0.15731c0.29968,-0.00144 0.59927,-0.00323 0.89876,-0.00538c-0.31265,-0.20377 -0.57922,-0.46556 -0.78701,-0.79847l1.1916,-1.3591c0.47847,-0.12474 0.95704,-0.22909 1.43704,-0.31629c3.64794,0.00055 7.29674,0.01596 10.94561,0.02364c-1.93579,-0.09951 -3.86588,-0.24295 -5.77355,-0.44787c1.44,-0.01876 2.92849,0.00917 4.4954,0.00917c7.85595,0 15.71189,0 23.56784,0l0.4581,0.18354c0.58627,-0.01962 1.1725,-0.04066 1.75869,-0.06321c1.00025,-0.03743 2.00122,-0.05903 3.00077,-0.1123c0.69476,-0.03702 2.62536,0.044 2.04343,0.42534c-0.97305,0.63764 -2.6395,0.76324 -4.43591,0.69849l0.35444,0.14201c-0.71126,0.49991 -1.37596,1.08376 -2.06683,1.62043c0.31822,0 0.63644,0 0.95467,0l0.75612,0.31435c-0.22143,0.00423 -0.38913,0.00654 -0.4875,0.01042c-0.58054,0.02233 -1.16113,0.04322 -1.74176,0.06275c-0.36768,0.26232 -0.74727,0.50319 -1.14893,0.70425c0.88241,0.02993 1.77497,0.21087 2.74187,0.68391l-0.02521,0.27892c0.38772,0.00823 0.7699,0.01276 1.14582,0.01276l0.39248,0.13774c-0.53355,0.27031 -1.07306,0.51294 -1.61797,0.73082l-0.01493,0.16512c-0.13719,0 -0.27439,0 -0.41158,0c-0.83605,0.31322 -1.68437,0.57054 -2.54312,0.78233c1.48449,-0.07285 2.94959,-0.04996 4.365,0.18382l-0.07081,0.45896c0.52242,0.01361 1.04111,0.02204 1.55479,0.02204l0.25343,0.07214c-0.19899,0.2467 -0.39941,0.49159 -0.60699,0.72731c0.37835,0.01581 0.77097,0.02749 1.1805,0.02749l2.7887,1.05298c-1.07732,0.80711 -1.92135,1.30195 -2.7348,1.60363l-0.0539,0.44442c-0.63429,0 -1.22801,0.02802 -1.791,0.05599c-0.01598,-0.03046 -0.03107,-0.06214 -0.04518,-0.09506c-0.83531,0.07268 -1.78082,0.05367 -3.00759,0.04349c-0.604,-0.10309 -1.19011,-0.29417 -1.77792,-0.62924l-0.02713,-0.02035c-0.0026,0.00009 -0.0052,0.00018 -0.0078,0.00027c-0.26551,-0.15391 -0.53143,-0.33741 -0.7996,-0.55567c-1.98944,0.18067 -3.97077,0.2983 -5.96331,0.34744c-1.80863,-0.24758 -3.55571,-0.70885 -5.18666,-1.52433c0.29996,-0.14998 0.60383,-0.28797 0.9113,-0.41486c-0.02564,-0.00075 -0.05129,-0.00153 -0.07691,-0.00233l1.59479,-0.79739c-2.41503,0.05132 -4.856,0.04303 -7.28753,0.17005c-1.5072,-0.32117 -2.93324,-0.7839 -4.23801,-1.43629c0.37516,-0.18758 0.76033,-0.35947 1.15459,-0.51684c-0.11615,0 -0.23228,0 -0.34843,0l0.65939,-0.42274c-4.37475,0.22781 -8.74856,0.35508 -13.13943,0.40386c-1.88145,-0.20784 -3.71664,-0.6495 -5.4734,-1.52576l-0.01176,-0.00587l2.78307,-1.39321l-2.65358,-0.59695c1.44502,-0.80817 2.85757,-1.35476 4.27117,-1.72332l0.27699,-0.31594c0.38668,-0.0003 0.77335,-0.00041 1.16005,-0.00035c1.68764,-0.30657 3.39283,-0.40105 5.17205,-0.42423c-4.75718,-0.51101 -9.37489,-1.40436 -13.59352,-2.95242l4.07211,-1.84373c0.00095,-0.00017 0.00189,-0.00034 0.00284,-0.00051c-0.2935,-0.08654 -0.58586,-0.17726 -0.87706,-0.27233l3.81201,-2.08387c-0.61543,-0.44556 -1.1898,-0.97868 -1.8188,-1.39531l4.50403,-1.77443c3.4294,-0.17263 6.85636,-0.27548 10.28312,-0.33632c-0.47141,-0.03672 -0.94284,-0.0742 -1.41429,-0.11249c-2.49765,-0.20281 -10.07149,1.17723 -12.32659,0.20677c-1.28196,-0.55167 0.66364,-2.58932 -0.42121,-3.46731l3.92613,-1.25538c8.35282,-0.84328 16.75244,-0.87376 25.08984,-1.44907c-5.51215,0 -11.0243,0 -16.53645,0c-3.26763,0 -6.41279,0.30674 -9.46036,-0.0809c-0.62772,0.0335 -1.25614,0.06068 -1.88534,0.08071l-3.04464,-1.51008c-0.02705,-0.01331 -0.0541,-0.02672 -0.08113,-0.04024c4.58936,-2.29468 9.38187,-1.55051 14.47147,-1.55051c6.23793,0 12.47586,0 18.71379,0c-9.43607,0.57754 -18.72628,2.51585 -28.17415,3.02013c-1.67131,-0.21258 -3.31327,-0.63401 -4.92998,-1.42937l-0.08113,-0.04024l3.07629,-1.55031c5.04939,-0.16172 10.04884,-0.78708 15.04422,-1.44735c-1.49199,0 -2.98398,0 -4.47597,0c-3.54942,0 -6.84681,0.12736 -10.13551,-0.16147c-1.01394,0.05688 -2.03036,0.10744 -3.04991,0.15167l-0.30426,-0.61067c-1.17572,-0.2251 -2.36075,-0.52593 -3.56599,-0.92686l3.79652,-1.56263c7.08923,-0.30892 14.08013,-1.02108 21.08682,-1.85169c-3.57399,0 -7.14798,0 -10.72197,0c-4.59659,0 -8.90549,0.22292 -13.19694,-0.43744c-0.69684,0.01564 15.78733,-4.25123 24.82631,-5.13669c0.58114,-0.05693 1.19856,-0.14891 1.83998,-0.25924c-5.17557,-0.0982 -13.86106,3.19661 -19.04027,3.24225c-2.96509,0.02613 -2.42812,-3.19747 -5.38606,-3.19747c0,0 -1.55052,0 -1.55052,-1.55051c0,-1.55051 1.55052,-1.55052 1.55052,-1.55052c11.77762,0 23.64145,-0.43063 35.3892,0.43282l2.96016,1.93252c-3.34127,1.86049 -6.76311,2.83489 -10.28326,3.42633c3.53114,-0.00152 9.39562,-2.50308 12.92675,-2.50308l1.48428,3.90345c-1.26995,0.66671 -2.53344,1.21035 -3.79915,1.66212l-0.01846,0.03546c-0.02715,0 -0.05429,0 -0.08143,0c-2.57626,0.90967 -5.16264,1.44221 -7.83217,1.86061c3.67154,0 7.34309,0 11.01463,0l3.91332,0.95716c-0.69318,1.08875 -0.96603,2.61359 -2.07954,3.26626c-0.33123,0.19414 -0.88948,0.31061 -1.57772,0.37551l4.24912,0.84211c-0.55395,1.08015 -0.69397,2.50779 -1.66185,3.24045c-0.92042,0.69675 -2.49204,2.80241 -4.85059,3.08167c-1.61902,0.1917 -4.13765,-1.35854 -4.95287,-1.28569c-3.60693,0.32235 -7.22852,0.51178 -10.85574,0.67496c7.05883,0.45181 14.11766,0.79112 21.18944,1.18408l3.13198,1.47485c-1.1071,0.61733 -2.19148,1.10915 -3.26484,1.50034l-0.01782,0.12217c-0.09381,-0.00521 -0.18763,-0.01041 -0.28143,-0.0156c-0.30485,0.10604 -0.60891,0.20413 -0.91243,0.29484l0.76191,0.30888c-1.16694,0.38898 -2.34613,0.69225 -3.53514,0.93024l-0.28947,0.62028c-1.38067,0 -2.76133,-0.00009 -4.14198,-0.00005c-1.45639,0.13029 -2.92275,0.2024 -4.39488,0.25198c1.09234,0.04936 2.18304,0.11387 3.27153,0.19721l7.54784,1.52364c-1.28911,0.56026 -6.43264,1.17381 -7.76016,1.52816l-0.02552,0.0401c-0.03258,-0.00252 -0.06517,-0.00501 -0.09777,-0.00747c-1.32292,0.34715 -2.66289,0.60318 -4.01619,0.78867c2.1017,0.01685 4.20481,0.01868 6.30937,0.01921c2.08044,0.00053 9.35433,-0.46101 10.65129,1.52028c2.5484,3.89302 -5.00007,4.12695 -7.20761,4.16918l2.43185,1.01102c-0.51229,0.32181 -1.03081,0.61413 -1.55507,0.87973l2.74538,0.96346c-0.43554,0.45152 -0.83015,0.95534 -1.23056,1.45176l4.16341,1.18516c-0.28172,0.22583 -0.54791,0.43286 -0.8012,0.62262l0.37422,0.1413c-0.82317,0.85666 -1.64633,1.71334 -2.4695,2.57l-1.10689,0.1637c0,0 -0.97314,0 -1.37752,-0.77095zM309.57022,222.46317c1.01686,0 2.03373,0 3.05059,0c-0.93723,-0.04187 -1.74241,-0.07241 -2.24547,-0.04589c-0.26849,0.01415 -0.53686,0.02947 -0.80512,0.04589z" fill="#5cd3ff"/><path d="M311.95504,239.54276c0.79057,2.37171 -1.58114,3.16228 -1.58114,3.16228l-1.80028,0.57974c-1.89388,0.37481 -3.6886,1.18078 -5.58983,1.51627c-3.71517,0.65557 -8.11263,0.03228 -11.90046,0.03228c0,0 -2.5,0 -2.5,-2.5c0,-2.5 2.5,-2.5 2.5,-2.5c3.4778,0 7.70928,0.67166 11.09954,0.03228c1.83758,-0.34655 3.57716,-1.11372 5.41017,-1.48373l1.19972,-0.42026c0,0 2.37171,-0.79057 3.16228,1.58114z" fill="#1c3446"/><path d="M297.58333,216.83333c0,2.5 -2.5,2.5 -2.5,2.5h-1c-3.54933,-0.0133 -6.9346,-0.5 -10.5,-0.5c0,0 -2.5,0 -2.5,-2.5c0,-2.5 2.5,-2.5 2.5,-2.5c3.55784,0 6.97192,0.51559 10.5,0.5h1c0,0 2.5,0 2.5,2.5z" fill="#1c3446"/><path d="M315.08333,216.83333c0,2.5 -2.5,2.5 -2.5,2.5c-2,0 -6,0 -8,0c0,0 -2.5,0 -2.5,-2.5c0,-2.5 2.5,-2.5 2.5,-2.5c2,0 4,0 6,0h2c0,0 2.5,0 2.5,2.5z" fill="#1c3446"/><path d="M286.03904,218.87507c0.20287,-0.2942 0.45704,-0.53774 0.78947,-0.70402c4.65593,-2.32897 9.56729,4.55986 8.24137,8.42118c-0.74584,2.17203 -1.55644,5.33208 -3.81727,5.73535c-0.99527,0.17754 -1.7904,-0.49854 -2.45607,-1.43479c-6.26785,1.81979 -6.22096,-6.33938 -5.6792,-9.97047c0,0 0.411,-2.46599 2.87698,-2.05499c0.01501,0.0025 0.02992,0.00508 0.04471,0.00773z" fill="#c1e4ff"/><path d="M308.60079,229.81006c-0.45492,0.62045 -1.18914,1.02327 -2.01745,1.02327c-1.22888,0 -2.25067,-0.88665 -2.46053,-2.05513l-0.49092,-2.45458l0.08173,-0.01635l-0.11812,-0.2276c0.04292,-1.19128 -0.28729,-2.45677 0.12877,-3.57386c0.46904,-1.25933 1.6046,-2.15615 2.4069,-3.23422c0,0 1.56174,-1.95217 3.51391,-0.39043c1.47134,1.17706 0.94659,2.57592 0.59883,3.19361c0.21579,0.36965 0.33943,0.79967 0.33943,1.25856v1.6l0.82119,0.32848l-0.97837,2.44593c-0.23104,0.61878 -0.70022,1.12146 -1.29604,1.39656z" fill="#c1e4ff"/><path d="M289.94714,230.78855c-1.45522,0.36381 -1.81902,-1.09141 -1.81902,-1.09141l-0.53355,-2.18053c-0.00374,-0.56109 -0.0075,-1.12219 -0.01124,-1.68327c0,0 0,-1.5 1.5,-1.5c1.5,0 1.5,1.5 1.5,1.5c-0.00374,0.43891 -0.0075,0.87781 -0.01124,1.31673l0.46645,1.81947c0,0 0.36381,1.45521 -1.09141,1.81902z" fill="#000000"/><path d="M307.91538,228.08141c-1.24807,0.83205 -2.08012,-0.41603 -2.08012,-0.41603l-1,-1.5c0,0 -0.83205,-1.24807 0.41602,-2.08012c1.24807,-0.83205 2.08012,0.41603 2.08012,0.41603l1,1.5c0,0 0.83205,1.24808 -0.41602,2.08012z" fill="#000000"/><path d="M293.77181,242.06547c-0.05687,0.01152 -0.11951,0.01787 -0.18848,0.01787c-0.26047,0 -0.43048,-0.09046 -0.54145,-0.20855c-0.11809,-0.11096 -0.20855,-0.28098 -0.20855,-0.54145c0,-1.82372 -0.06885,-1.88791 1.21967,-3.03033c0.39054,-0.34626 0.46616,-1.2857 0.98372,-1.21822c1.33772,0.17442 3.01515,3.49162 2.1846,4.64285c-1.55924,2.16126 -2.0604,1.01972 -2.26238,-0.03227c-0.16099,0.09949 -0.34063,0.20183 -0.5402,0.3088zM294.22132,239.72763c-0.16024,0.19912 -0.14239,0.45114 -0.07977,0.71848c0.32441,-0.21993 0.4655,-0.44163 0.69178,-0.60792c0,-0.00161 0,-0.00324 0,-0.00485v-0.31787c-0.21861,0.05097 -0.47877,0.0466 -0.61201,0.21217z" fill="#9edeff"/><path d="M305.32563,239.55489c0.00273,0.08934 0.00537,0.18216 0.0077,0.27844c0,0 0,0.75 -0.75,0.75c-0.75,0 -0.75,-0.75 -0.75,-0.75c0.0253,-1.47816 0.3682,-5.22895 2.78033,-3.03033c0.46665,0.42534 0.45412,1.17833 0.68118,1.7675l-1.3761,0.93365c0,0 -0.29604,0.14802 -0.59312,0.05074zM305.32977,238.1538l0.54205,-0.05764c-0.34129,-0.24889 -0.4869,-0.22162 -0.54205,0.05764z" fill="#9edeff"/><path d="M219.69688,281.59169c-1.89656,0.00762 -3.79971,-0.04356 -5.68101,-0.11265c-2.37395,0.10111 -4.71579,0.10617 -6.9332,-0.26422c-0.98537,-0.0274 -1.95311,-0.04456 -2.89841,-0.04456h-1.38948c-0.71943,0 -1.30263,-0.58321 -1.30263,-1.30263c0,-0.27069 0.08256,-0.52208 0.22387,-0.73039c-1.80702,0.01144 -3.59225,-0.01573 -5.36855,-0.18241c-0.61235,0.0238 -1.22362,0.05318 -1.83369,0.08898l-0.03005,-0.02839l0.00038,0.02911l-0.01966,0.00026l-0.00009,0.03979l-2.60491,-0.00554c-0.71831,-0.00131 -1.30021,-0.58402 -1.30021,-1.30263c0,-0.7144 0.5751,-1.29449 1.28759,-1.30255l2.58061,-0.03407c0.70477,-0.0415 1.40994,-0.07558 2.11545,-0.10328c0.98606,-0.12931 2.04823,-0.12935 3.10738,-0.08396c8.66097,-0.13719 17.35958,0.45776 25.98266,-0.11615c0.59334,-0.03949 1.18857,-0.10113 1.78524,-0.17667c-3.60503,0 -7.21007,0 -10.81511,0c-5.76462,0.01186 -11.52934,0.00979 -17.29404,0.00606c-3.28761,0.07117 -7.7097,0.73284 -11.15596,-0.00599c-0.32996,-0.00005 -0.65993,-0.00007 -0.98989,-0.00007h-2.08421c-0.71943,0 -1.30263,-0.5832 -1.30263,-1.30263c0,-0.71943 0.5832,-1.30263 1.30263,-1.30263h1.1318c-0.00189,-0.02871 -0.00285,-0.05766 -0.00285,-0.08684c0,-0.67615 0.51517,-1.23199 1.1744,-1.2964l2.5737,-0.28596l0.03109,0.27985c0.30704,0.00007 0.61408,0.00016 0.92112,0.00027c1.35489,-0.22993 2.72025,-0.3411 4.0997,-0.38861c0.20717,-0.17477 0.46962,-0.28608 0.75737,-0.30397l2.58792,-0.18485l0.01302,0.18231h0.08641c0.36616,0 0.73228,-0.00163 1.09838,-0.00482c3.01076,-0.46635 6.03036,-0.4008 9.19763,-0.36c2.19937,-0.14183 4.39763,-0.31552 6.59482,-0.5036c-4.2408,0 -8.48161,0 -12.72241,0c-3.65426,0 -7.66718,0.48431 -11.35786,-0.03779c-0.13225,0.00824 -0.26457,0.01661 -0.39694,0.02512l-0.03916,-0.03758l0.00018,0.03834l-1.23257,0.00561v0.0063l-1.37863,-0.00005h-0.00001c-0.7194,-0.00002 -1.30259,-0.58322 -1.30259,-1.30263c0,-0.7177 0.58041,-1.29983 1.29746,-1.30262l1.02474,-0.00466l-1.1052,-0.34295c1.30738,-0.6091 2.65878,-1.12683 4.04578,-1.56585c-0.31737,-0.00045 -0.63474,-0.00094 -0.95211,-0.00146l-0.10045,-0.05087l-0.00626,0.03759l-2.06309,-0.34385c-0.62788,-0.09327 -1.1096,-0.63459 -1.1096,-1.28843c0,-0.66344 0.49598,-1.21104 1.13737,-1.29224l2.41262,-0.34466l0.06317,0.44218c3.05788,-0.64697 6.01633,-0.45527 9.5,-0.45527c1.01686,0 2.03373,-0.00025 3.0506,-0.00063c6.22353,-1.12821 12.58843,-1.29163 18.82859,-2.33229c1.38314,-0.23066 2.96345,-0.64515 4.55245,-0.93894c-3.05944,-0.4462 -6.05348,1.47802 -9.65429,2.15965c-5.70678,1.08029 -12.18173,1.30712 -17.1197,1.24012c-0.86361,-0.00152 -2.2272,-2.50303 -3.0908,-2.50446c-2.03434,0.03677 -5.70276,2.19433 -6.9292,1.46145c-1.09856,-0.65646 0.25632,-4.19208 -1.59936,-4.46911h-4.36461c-0.71943,0 -1.30263,-0.58321 -1.30263,-1.30263c0,-0.71943 0.5832,-1.30263 1.30263,-1.30263h1.155c0.1207,-0.59458 0.64638,-1.0421 1.27658,-1.0421c0.81053,0 1.62105,0 2.43158,0c5.44957,0 10.89913,0 16.34869,0c5.00442,-0.04976 10.00652,-0.18548 15.00727,-0.51856c0.6976,-0.04647 1.44514,-0.1384 2.22619,-0.25507c-6.03791,-0.19771 -12.07951,-0.44216 -18.12426,-0.44216c-3.46206,0 -7.25758,0.45529 -10.76338,0c-0.63852,0 -1.27705,0 -1.91557,0h-2.60526c-0.71943,0 -1.30263,-0.58321 -1.30263,-1.30264c0,-0.71943 0.5832,-1.30263 1.30263,-1.30263c0.63852,0 3.88231,0 4.52083,0c1.0839,-0.14076 2.19549,-0.19448 3.31637,-0.20153c0.23863,-0.3005 0.60716,-0.4932 1.02069,-0.4932h1.38948c1.22457,0 2.44609,-0.00659 3.66537,-0.02078c1.16098,-0.09531 2.33937,-0.0917 3.53393,-0.06349c4.67903,-0.11492 9.33621,-0.35704 14.01711,-0.78415c-6.3774,0 -12.7548,0 -19.13219,0c-2.78847,0 -6.21044,0.5486 -9.08737,-0.01684c-0.44423,0.00871 -0.88878,0.0142 -1.33369,0.0161v0.00074h-1.73684c-0.71943,0 -1.30264,-0.5832 -1.30264,-1.30263c0,-0.71943 0.58321,-1.30263 1.30264,-1.30263h1.38947c0.61791,0 1.23546,-0.00538 1.8527,-0.01547c1.53773,-0.27695 3.22235,-0.24951 4.87778,-0.16609c0.10838,-0.00535 0.21675,-0.01078 0.32512,-0.01631c-0.01405,-0.07665 -0.02139,-0.15563 -0.02139,-0.23634c0,-0.71943 0.58321,-1.30264 1.30263,-1.30264h2.60526c0.86012,0 1.71827,-0.00512 2.57487,-0.01478c1.00268,-0.07208 2.0173,-0.07292 3.04256,-0.05258c5.46784,-0.12569 10.89184,-0.40953 16.3792,-0.69908c0.37606,-0.01985 0.78194,-0.05434 1.20979,-0.09683c-2.84379,-0.14338 -5.72812,-0.15342 -8.61565,-0.10225l-0.16449,0.04699l-0.01251,-0.04378c-0.62269,0.01156 -1.2455,0.02591 -1.86804,0.04231c-3.33025,0.77983 -6.84842,0.74573 -10.46152,0.74634c-3.18477,0.00054 -6.36955,0.0005 -9.55432,0.00035c-1.96625,0.14943 -3.96492,0.24443 -5.81111,-0.0003c-0.84135,-0.00003 -1.6827,-0.00005 -2.52405,-0.00005h-1.38948c-0.71943,0 -1.30263,-0.58321 -1.30263,-1.30264c0,-0.71943 0.5832,-1.30263 1.30263,-1.30263h2.08421v0.00063c0.41678,0.00075 0.83366,0.00215 1.25063,0.00405c1.13108,-0.25008 2.33299,-0.37615 3.55733,-0.43135c-0.12996,-0.20265 -0.20533,-0.44367 -0.20533,-0.70228c0,-0.71943 0.5832,-1.30263 1.30263,-1.30263h2.43158c3.7222,0.00208 7.40211,-0.38778 11.07416,-0.86842c-4.03876,0 -8.07752,0 -12.11627,0c0,0 -1.30263,0 -1.30263,-1.30263c0,-1.30263 1.30263,-1.30264 1.30263,-1.30264c9.61052,0 19.22105,0 28.83158,0h1.38948v0c0.71943,0 1.30263,0.58321 1.30263,1.30264c0,0.61992 -0.43304,1.1387 -1.01313,1.27034l-1.36304,0.34076l-0.07711,-0.30848h-0.16888c-3.16574,1.28648 -6.60958,1.20237 -10.21287,1.71275c-0.46002,0.06516 -0.91998,0.13092 -1.37993,0.19679c1.81464,0.00047 3.62928,0.00098 5.44392,0.00098h1.56315c0.45564,0 0.85663,0.23393 1.08944,0.58824c2.70534,-0.00058 7.06479,-2.42868 9.71642,-2.22735c2.50321,0.19006 3.30309,2.99546 5.70894,3.4641l1.42739,0.27883c0.6115,0.10717 1.07623,0.64083 1.07623,1.28303c0,0.48281 -0.26267,0.90428 -0.65291,1.12928l-1.71637,1.02982l-0.01487,-0.02479c-0.09885,0.05986 -0.20119,0.11453 -0.30761,0.16315c-0.20513,0.09372 -0.44963,0.16605 -0.72449,0.22095h0.72414v0c0.71943,0 1.30263,0.5832 1.30263,1.30263c0,0.57372 -0.3709,1.06082 -0.88601,1.23459l-2.41987,0.87995l-0.14226,-0.39121c-0.65632,0.28498 -1.31353,0.52396 -1.9761,0.72704l0.49358,0.08227c0.53272,0.07914 0.96023,0.4808 1.07757,1.00007c1.24022,0.01917 2.4805,0.03132 3.72091,0.03418l0.11806,0.0642l0.00905,-0.04524l1.71318,0.34264c0.60883,0.10935 1.07082,0.64175 1.07082,1.28206c0,0.59952 -0.40501,1.10446 -0.95635,1.25611l-0.73404,0.22021c0.12926,0 0.25851,0 0.38776,0c1.44737,0 2.89473,0 4.34211,0h1.91053v0c0.71943,0 1.30263,0.5832 1.30263,1.30263c0,0.68058 -0.52192,1.23924 -1.18734,1.2976l-2.578,0.2578l-0.02528,-0.25277c-0.09782,0 -0.19565,0 -0.29347,0c-2.48839,0.61194 -4.99082,0.8614 -7.53625,0.96202c-0.14045,0.0518 -0.29228,0.08008 -0.45072,0.08008c-0.17369,0 -1.91052,0 -2.08421,0c-0.09757,0 -0.19513,0 -0.2927,0c0.40973,0.06727 0.81916,0.13336 1.22827,0.19794l0.0704,0.0399l0.00588,-0.02073l2.44236,0.69293c0.5607,0.14538 0.97473,0.65485 0.97473,1.26101c0,0.61064 -0.42018,1.12315 -0.98719,1.26418l-2.48616,0.67804l-0.08042,-0.29485c-2.41857,0.91366 -4.96372,1.51193 -7.5731,1.9368l0.00808,0.0018c0.05815,0.01166 0.11492,0.0272 0.16999,0.04633c1.41572,-0.0503 2.82824,-0.01344 4.05785,0.27558c0.4713,0 5.42418,-2.96963 7.79199,-3.45591c1.46431,-0.30073 0.70485,1.78925 0.99632,1.78925c0,0 0.11592,6.43859 -0.60351,6.43859c0,0 -0.98267,1.38396 -1.9256,1.01171c-0.88252,-0.3484 -3.56274,-3.17838 -3.56274,-3.17838c-0.10555,0.51994 -0.52077,0.92743 -1.04477,1.02155l-2.53101,0.5062l-0.07596,-0.37977c-1.24966,0.34675 -2.4715,0.56428 -3.76995,0.76256c2.39574,0 4.79148,0 7.18722,0l3.02617,1.11695c-1.36582,0.86651 -2.74929,1.51738 -4.15077,2.00936c2.57486,0 5.14973,0 7.72459,0h2.60527v0c0.71943,0 1.30263,0.58321 1.30263,1.30263c0,0.52441 -0.30988,0.97643 -0.75651,1.18297c0.53795,0.16023 0.93019,0.65861 0.93019,1.24861c0,0.45932 -0.23774,0.86312 -0.59688,1.09506l-2.0674,1.37827l-0.01761,-0.02642c-0.09242,0.06257 -0.18769,0.12143 -0.2862,0.17605c-0.2721,0.15086 -0.56824,0.22276 -0.87702,0.25295c0.01578,0.08103 0.02405,0.16476 0.02405,0.25041c0,0.61064 -0.42018,1.12315 -0.98719,1.26418l-2.48616,0.67804l-0.10009,-0.36703c-0.63678,0.24665 -0.28621,1.96772 -0.94667,2.16559c-0.92324,0.2766 -2.86801,-0.99214 -3.82981,-0.79977c0.00862,0.06052 0.01308,0.12239 0.01308,0.18529c0,0.5478 -0.33814,1.01663 -0.81709,1.20914l-0.2276,0.09754c0.00171,0.02738 0.00259,0.05499 0.00259,0.0828c0,0.64365 -0.46683,1.17827 -1.08037,1.28375l-2.24774,0.43108l-0.00406,-0.02116l-0.05362,0.03088c-2.30553,0.23164 -4.19029,0.56048 -6.11231,0.36815c-0.33073,0.03992 -0.66708,0.07907 -1.0098,0.11857v0.13347h-2.60527c-0.71943,0 -1.30263,-0.5832 -1.30263,-1.30263c0,-0.71943 0.5832,-1.30263 1.30263,-1.30263h1.3318c0.87187,-0.10503 1.78571,-0.27089 2.71767,-0.447z" fill="#ffb4b4"/><path d="M224.75,274.33333c0,2.5 -2.5,2.5 -2.5,2.5l-1.00971,-0.04855c-3.62358,0.70833 -8.15723,1.04601 -11.83439,0.52475c-4.2414,-0.60124 -7.7669,-1.99043 -12.15589,-1.9762c0,0 -2.5,0 -2.5,-2.5c0,-2.5 2.5,-2.5 2.5,-2.5c7.88461,0.02259 15.08277,3.17754 23.00971,1.54855l1.99029,-0.04855c0,0 2.5,0 2.5,2.5z" fill="#000000"/><path d="M208.75,243.83333c0,2.5 -2.5,2.5 -2.5,2.5l-3.11803,-0.26393c-3.02845,-1.51674 -4.8731,-2.29967 -8.23552,-2.7612c0,0 -2.47487,-0.35356 -2.12132,-2.82843c0.35356,-2.47487 2.82843,-2.12132 2.82843,-2.12132c3.82889,0.56511 6.32086,1.51968 9.76448,3.2388l0.88197,-0.26393c0,0 2.5,0 2.5,2.5z" fill="#000000"/><path d="M233.25,244.83333c0,2.5 -2.5,2.5 -2.5,2.5h-2.5c-4.09669,0 -7.37537,0.9584 -11.5,1c0,0 -2.5,0 -2.5,-2.5c0,-2.5 2.5,-2.5 2.5,-2.5c3.99037,0.05103 7.43088,-1 11.5,-1h2.5c0,0 2.5,0 2.5,2.5z" fill="#000000"/><path d="M199.64015,246.85355c0.23353,0.05776 0.46549,0.12577 0.69377,0.20337c0.9599,-0.1881 1.87966,-0.28002 2.50104,0.34305c0.6301,0.63182 0.92659,1.50741 1.02849,2.44809c0.05645,0.13142 0.10333,0.2656 0.1398,0.4023c0.09616,0.36038 0.12475,0.72143 0.10426,1.08297h0.14247v2.5c0,1.11087 -0.72454,2.05251 -1.72683,2.37815c-1.55286,2.67975 -4.37082,3.85178 -8.1618,0.75985c-1.26097,-1.02845 -0.73414,-3.22232 -0.60285,-4.8442c0.10175,-1.25702 0.11201,-2.76131 0.69447,-3.85647c-0.23433,-0.31244 -0.46866,-0.62489 -0.70299,-0.93733c0,0 -1.5,-2 0.5,-3.5c2,-1.5 3.5,0.5 3.5,0.5c0.63005,0.84007 1.26011,1.68015 1.89016,2.52022z" fill="#ffffff"/><path d="M223.77304,247.27518c4.85102,-2.33154 5.70254,2.1667 5.4528,5.40491c-0.21159,2.74349 -1.51475,6.28555 -4.68526,7.02496c-8.8946,2.07434 -7.02702,-6.92827 -5.11176,-11.80018c0,0 0.92847,-2.32119 3.24966,-1.39272c0.50359,0.20144 0.85422,0.46842 1.09456,0.76304z" fill="#ffffff"/><path d="M204.21967,275.803c0.53033,-0.53033 1.06066,0 1.06066,0l0.71967,1.03033c-0.03008,1.82683 -0.72152,5.46414 -3.28033,3.53033c-0.64768,-0.48949 -1.26646,-2.44686 -1.64049,-3.19492c0,0 -0.33541,-0.67082 0.33541,-1.00623c0.67082,-0.33541 1.00623,0.33541 1.00623,0.33541c0.33334,0.66666 0.67956,1.32704 1,2c0.18123,0.38059 0.39616,1.53794 0.54217,1.1425c0.28537,-0.7729 0.55639,-1.97039 0.53701,-2.80709l-0.28033,0.03033c0,0 -0.53033,-0.53033 0,-1.06066z" fill="#ffffff"/><path d="M217.58541,278.66251c0.67082,0.33541 0.33541,1.00623 0.33541,1.00623l-1.02887,1.40104c-1.89316,-1.13503 -3.15562,-1.24754 -2.31277,-3.57185c0,0 0.33541,-0.67082 1.00623,-0.33541c0.67082,0.33541 0.33541,1.00623 0.33541,1.00623c-0.92332,0.97744 0.38928,0.39723 0.68723,1.42815l-0.02887,-0.59896c0,0 0.33541,-0.67082 1.00623,-0.33541z" fill="#ffffff"/><path d="M201.1443,251.19534c1.07375,0.7206 0.37932,4.79309 -1.1443,5.43847v0.69952c0,0.41422 -0.33578,0.75 -0.75,0.75c-0.41422,0 -0.75,-0.33578 -0.75,-0.75c0,-0.00386 0,-1.50773 0,-1.51159c-0.03381,-0.24144 -0.02012,-0.51319 -0.00572,-0.78245c-0.16355,-0.69409 -0.18641,-1.47275 0.00535,-2.12847c0.00024,-0.02584 0.00037,-0.05166 0.00037,-0.07748v-1.5v0c0,-0.41422 0.33578,-0.75 0.75,-0.75c0.35692,0 0.65562,0.24933 0.73141,0.58332l0.02955,0.11818c0.3957,-0.20361 0.80966,-0.30671 1.13334,-0.08949z" fill="#000000"/><path d="M220.51513,257.66702c-0.09114,-1.28554 0.71936,-6.32677 3.2652,-4.36402c0.45157,0.34814 0.45919,5.49217 0.10766,5.92463c-1.20749,1.48549 -1.80443,1.28657 -2.09952,0.57602c-0.13412,0.12572 -0.31448,0.20271 -0.51281,0.20271c-0.41189,0 -0.74624,-0.33204 -0.74997,-0.74306l-0.01587,-1.49892l0.01373,-0.00015c-0.00331,-0.03232 -0.00612,-0.06472 -0.00842,-0.09721zM222.58018,255.64476c0.00081,-0.53723 0.03972,-1.01509 0.13949,-1.2811c0.08261,-0.22024 -0.24599,0.41573 -0.27746,0.64883c-0.00109,0.00807 -0.00214,0.01615 -0.00315,0.02422c0.03922,0.09097 0.06094,0.19126 0.06094,0.29662v0.28293c0.0283,0.00819 0.055,0.01775 0.08018,0.0285z" fill="#000000"/></g></g></svg>