<svg version="1.1" xmlns="http://www.w3.org/2000/svg" xmlns:xlink="http://www.w3.org/1999/xlink" width="175.45585" height="108.68108" viewBox="0,0,175.45585,108.68108"><defs><linearGradient x1="240" y1="128.03796" x2="240" y2="231.96207" gradientUnits="userSpaceOnUse" id="color-1"><stop offset="0" stop-color="#ffee78" stop-opacity="0"/><stop offset="1" stop-color="#ffee78"/></linearGradient><linearGradient x1="225.82581" y1="125.531" x2="225.82581" y2="179.71423" gradientUnits="userSpaceOnUse" id="color-2"><stop offset="0" stop-color="#ffdf00"/><stop offset="1" stop-color="#ff6700"/></linearGradient><linearGradient x1="223.40299" y1="126.19177" x2="223.40299" y2="180.375" gradientUnits="userSpaceOnUse" id="color-3"><stop offset="0" stop-color="#ff6700"/><stop offset="1" stop-color="#ffdf00"/></linearGradient></defs><g transform="translate(-151.45578,-123.28099)"><g data-paper-data="{&quot;isPaintingLayer&quot;:true}" fill-rule="nonzero" stroke-linecap="butt" stroke-linejoin="miter" stroke-miterlimit="10" stroke-dasharray="" stroke-dashoffset="0" style="mix-blend-mode: normal"><path d="M153.08838,231.96207v-103.92411h173.82325v103.92411z" fill="url(#color-1)" stroke="none" stroke-width="0"/><text transform="translate(151.73224,166.0748) scale(0.55292,0.55292)" font-size="40" xml:space="preserve" fill="#000000" fill-rule="nonzero" stroke="none" stroke-width="1" stroke-linecap="butt" stroke-linejoin="miter" stroke-miterlimit="10" stroke-dasharray="" stroke-dashoffset="0" font-family="Sans Serif" font-weight="normal" text-anchor="start" style="mix-blend-mode: normal"><tspan x="0" dy="0">  Use </tspan></text><text transform="translate(165.375,201) scale(0.5,0.5)" font-size="40" xml:space="preserve" fill="#000000" fill-rule="nonzero" stroke="none" stroke-width="1" stroke-linecap="butt" stroke-linejoin="miter" stroke-miterlimit="10" stroke-dasharray="" stroke-dashoffset="0" font-family="Sans Serif" font-weight="normal" text-anchor="start" style="mix-blend-mode: normal"><tspan x="0" dy="0">inapproachable</tspan><tspan x="0" dy="46.150000000000006px">         places</tspan></text><g fill="none" stroke-width="4.5"><path d="M236.72658,152.62261c0,14.96229 -4.88044,27.09162 -10.90077,27.09162c-6.02033,0 -10.90077,-12.12933 -10.90077,-27.09162c0,-14.96229 4.88044,-27.09162 10.90077,-27.09162c6.02033,0 10.90077,12.12933 10.90077,27.09162z" stroke="url(#color-2)"/><path d="M234.30375,153.28338c0,14.96228 -4.88044,27.09162 -10.90077,27.09162c-6.02033,0 -10.90077,-12.12933 -10.90077,-27.09162c0,-14.96228 4.88044,-27.09162 10.90077,-27.09162c6.02033,0 10.90077,12.12933 10.90077,27.09162z" stroke="url(#color-3)"/></g><text transform="translate(245.125,166) scale(0.5,0.5)" font-size="40" xml:space="preserve" fill="#000000" fill-rule="nonzero" stroke="none" stroke-width="1" stroke-linecap="butt" stroke-linejoin="miter" stroke-miterlimit="10" stroke-dasharray="" stroke-dashoffset="0" font-family="Sans Serif" font-weight="normal" text-anchor="start" style="mix-blend-mode: normal"><tspan x="0" dy="0">to reach</tspan></text></g></g></svg>