<svg version="1.1" xmlns="http://www.w3.org/2000/svg" xmlns:xlink="http://www.w3.org/1999/xlink" width="64.13915" height="64.13915" viewBox="0,0,64.13915,64.13915"><defs><radialGradient cx="240.00006" cy="180" r="31.56957" gradientUnits="userSpaceOnUse" id="color-1"><stop offset="0" stop-color="#a1a8f9"/><stop offset="1" stop-color="#008fff"/></radialGradient><linearGradient x1="225.22508" y1="163.97228" x2="225.22508" y2="186.71938" gradientUnits="userSpaceOnUse" id="color-2"><stop offset="0" stop-color="#ffefef"/><stop offset="1" stop-color="#ffffff"/></linearGradient><radialGradient cx="229.89345" cy="175.9608" r="6.80288" gradientUnits="userSpaceOnUse" id="color-3"><stop offset="0" stop-color="#000000"/><stop offset="1" stop-color="#006d80"/></radialGradient><linearGradient x1="254.18468" y1="165.41456" x2="254.18468" y2="188.16166" gradientUnits="userSpaceOnUse" id="color-4"><stop offset="0" stop-color="#ffefef"/><stop offset="1" stop-color="#ffffff"/></linearGradient><radialGradient cx="249.54213" cy="175.78518" r="6.80288" gradientUnits="userSpaceOnUse" id="color-5"><stop offset="0" stop-color="#000000"/><stop offset="1" stop-color="#006d80"/></radialGradient></defs><g transform="translate(-207.93048,-147.93043)"><g data-paper-data="{&quot;isPaintingLayer&quot;:true}" fill-rule="nonzero" stroke-linejoin="miter" stroke-miterlimit="10" stroke-dasharray="" stroke-dashoffset="0" style="mix-blend-mode: normal"><path d="M208.43049,211.56958v-63.13915h63.13915v63.13915z" fill="url(#color-1)" stroke="#000000" stroke-width="1" stroke-linecap="butt"/><path d="M216.08372,186.71938v-22.74711c0,0 5.91789,0 8.92876,0c3.08172,0 9.35395,5.4084 9.35395,5.4084v17.33871z" fill="url(#color-2)" stroke="#000000" stroke-width="1" stroke-linecap="butt"/><path d="M225.74795,182.76367v-15.3291l8.291,1.72337v13.60574z" fill="url(#color-3)" stroke="#000000" stroke-width="1" stroke-linecap="butt"/><path d="M245.04332,188.16166v-27.33364l18.28271,-1.25466v28.5883z" data-paper-data="{&quot;index&quot;:null}" fill="url(#color-4)" stroke="#000000" stroke-width="1" stroke-linecap="butt"/><path d="M245.39663,182.58806v-13.60574l8.291,-1.72337v15.3291z" data-paper-data="{&quot;index&quot;:null}" fill="url(#color-5)" stroke="#000000" stroke-width="1" stroke-linecap="butt"/><path d="M215.59179,155.20183l17.15596,6.3945l-17.46789,-1.87156z" fill="#002323" stroke="#000000" stroke-width="1" stroke-linecap="round"/><path d="M262.38991,155.83486l-17.46789,1.87156l17.15596,-6.3945z" data-paper-data="{&quot;index&quot;:null}" fill="#002323" stroke="#000000" stroke-width="1" stroke-linecap="round"/><path d="M260.81852,196.36957l-3.69566,5.17391l-13.06521,-1.3413l-10.03913,-0.04566l-10.71087,1.9413l-5.54348,-4.61956l40.65218,-1.47826z" fill="#6cb8ff" stroke="#000000" stroke-width="1" stroke-linecap="round"/><path d="M224.97224,201.65278l2.34722,-7.90278l2.84722,6.625z" fill="#59ffff" stroke="none" stroke-width="0" stroke-linecap="round"/><path d="M248.09724,200.15432l2.72223,-7.27932l2.22222,7.75z" fill="#59ffff" stroke="none" stroke-width="0" stroke-linecap="round"/></g></g></svg>