<svg version="1.1" xmlns="http://www.w3.org/2000/svg" xmlns:xlink="http://www.w3.org/1999/xlink" width="222.23875" height="223.11667" viewBox="0,0,222.23875,223.11667"><g transform="translate(-141.33097,-59.32211)"><g data-paper-data="{&quot;isPaintingLayer&quot;:true}" fill-rule="nonzero" stroke="none" stroke-width="0.5" stroke-linecap="butt" stroke-linejoin="miter" stroke-miterlimit="10" stroke-dasharray="" stroke-dashoffset="0" style="mix-blend-mode: normal"><path d="M243.56953,172.78711c0.76885,1.74839 4.42464,7.28879 3.83609,9.15238c-0.45352,1.43603 -2.38458,1.83988 -3.57688,2.75982c-5.32719,0.58723 -10.5474,0.54512 -15.89989,0.54512c-0.27604,0 -5.7736,0.01317 -6.06273,-0.03922c-1.74682,-0.31655 -3.3166,-1.27535 -5.01354,-1.79685c-1.34506,-0.41337 -5.25594,-1.27966 -6.24564,-2.4255c-0.53113,-0.61492 -0.60172,-1.47855 -0.72788,-2.31217c-0.43267,-0.12358 -0.87349,-0.42355 -1.22726,-1.04265c-1.00395,-1.75692 0.56222,-2.81289 0.78342,-2.95042c0.21024,-0.46298 0.63151,-0.90268 1.44617,-1.10633c0.23408,-0.05853 0.44867,-0.08456 0.64522,-0.08462c1.60853,-0.92139 3.5528,-2.05912 4.1804,-2.55087c4.05544,-3.1777 7.06288,-7.95265 10.6955,-11.58465c1.33896,-1.33873 2.8272,-2.51936 4.23163,-3.78923c0.57267,-0.5178 1.06609,-1.43768 1.63973,-2.01241c3.14859,1.99093 5.62798,5.68373 7.89249,8.40115l0.66038,0.82556c0,0 0.16035,0.20044 0.42013,0.31698c0.34401,2.84875 1.24823,7.25064 2.32266,9.69392zM213.96728,177.09832c-0.04429,0.38156 -0.25451,0.82132 -0.01804,1.10438c0.26128,0.31277 0.81047,0.1034 1.20573,0.20272c1.57226,0.39509 4.14863,1.18306 5.69618,1.75473c3.2307,1.19344 6.66108,0.73686 10.12092,0.73686c3.8644,0 7.63747,0.00929 11.48895,-0.32436c0.25686,0.05046 0.87758,0.39024 0.77056,0.15136c-0.22281,-0.49734 -0.90901,-0.64955 -1.20015,-1.11024c-0.99643,-1.57669 -1.68156,-3.33206 -2.42619,-5.04214c-2.26567,-5.20328 -3.70504,-10.8866 -5.65923,-16.25682c-0.0039,0.03647 -0.01275,0.06879 -0.02756,0.09555c-0.43793,0.7908 -1.24483,1.31356 -1.9153,1.91987c-1.77908,1.60884 -3.45612,3.33061 -5.08784,5.08873c-2.66559,2.8721 -5.41776,6.49022 -8.50177,8.91904c-0.81205,0.63952 -2.75217,1.78688 -4.44624,2.76032z" fill="#9966ff"/><path d="M237.05875,142.16921c0.11369,-2.80289 -0.28378,-8.45685 3.3012,-9.87574c1.70861,-0.67624 3.33301,1.56089 4.91785,2.49091c5.38863,3.16215 9.81166,7.58392 14.18539,11.96985c1.60144,1.60591 5.61199,4.91727 4.7269,7.77965c-0.19642,0.6352 -4.53389,1.18211 -5.70602,1.50995c-5.06201,1.41585 -10.10864,3.07831 -15.08655,4.74345c0,0 -0.85872,0.28624 -1.65261,-0.06484l-0.02938,-0.03673c-2.18075,-2.6169 -4.43678,-5.74979 -7.2274,-7.95028c1.4267,-1.38495 2.57016,-6.45702 2.57062,-10.56622zM242.08468,156.64236c4.1779,-1.38634 8.38513,-2.60931 12.59367,-3.90753c0.41844,-0.12908 2.03617,-0.72392 3.39184,-1.09773c-0.59005,-0.56675 -1.10087,-1.2303 -1.68109,-1.8088c-3.46495,-3.45473 -6.75039,-6.44917 -10.6427,-9.36765c-0.98158,-0.73599 -2.1102,-1.28926 -2.99549,-2.13864c-0.52764,-0.50624 -0.49589,-2.14323 -1.16856,-1.85652c-0.73548,0.31348 -0.07387,1.59737 -0.09833,2.39651c-0.03446,1.12595 -0.05227,2.25234 -0.07842,3.37852c0.00056,4.8639 -0.16828,9.61278 0.67907,14.40185z" fill="#9966ff"/><path d="M271.18302,145.60304c0.61091,6.49042 2.17262,13.02664 4.22237,19.22183c0.79005,2.38785 1.38471,4.88521 2.62068,7.07574c0.17668,0.31313 0.54743,0.60383 0.90645,0.58459c2.63576,-0.14127 5.15425,-1.14434 7.74574,-1.64567c4.28505,-0.82893 8.54586,-1.4123 12.87585,-1.95304c2.28236,-0.28503 4.51353,-1.05317 6.81328,-1.09202c0.557,-0.00941 1.72878,1.1931 1.52987,0.67274c-0.28235,-0.73863 -1.23824,-0.98416 -1.84345,-1.4931c-0.95541,-0.80343 -1.89192,-1.62906 -2.83788,-2.44359c-1.93166,-1.65666 -4.12808,-3.6512 -6.27322,-5.03127c-1.28769,-0.82844 -2.81282,-1.28214 -4.01721,-2.22759c-0.95629,-0.75069 -1.45503,-1.96929 -2.36133,-2.77961c-0.51779,-0.46295 -4.43363,-3.02308 -5.44704,-3.74699c-1.17875,-0.84204 -1.97518,-2.19048 -3.24051,-2.89576c-2.24255,-1.24995 -5.60773,-1.03768 -8.09549,-1.52398l-0.87793,0.04221c0,0 -1.08306,0 -1.72018,-0.7645zM270.7297,144.15657c0.02468,-2.13647 2.1735,-2.13647 2.1735,-2.13647l1.73053,0.04221c2.97406,0.61117 6.55742,0.43679 9.29425,1.95396c0.85606,0.47456 1.39494,1.37565 2.13751,2.01334c2.30324,1.97794 5.1624,3.23996 7.43416,5.2557c0.84977,0.754 1.28534,1.91888 2.1783,2.62119c1.07465,0.84521 2.46579,1.19684 3.61598,1.93596c2.4031,1.54425 4.60668,3.55011 6.76908,5.40257c2.20045,1.95563 6.90266,5.21819 5.7525,9.10561c-0.34553,1.16789 -8.08441,2.36138 -9.0204,2.51112c-5.09993,0.81585 -10.21148,1.26236 -15.29074,2.24597c-0.92105,0.17836 -8.7644,1.73763 -9.32714,1.65876c-3.69698,-0.51811 -4.24057,-3.57874 -5.37885,-6.39509c-3.13689,-7.76142 -5.2071,-16.36804 -5.97265,-24.67658c0,0 -0.1968,-2.16479 1.968,-2.36159c1.02148,-0.09286 1.60478,0.34009 1.93599,0.82331z" fill="#9966ff"/><path d="M252.00378,190.8785c-0.00353,0.00151 -0.00706,0.00303 -0.01059,0.00454c0,0 -1.99797,0.85627 -2.85424,-1.14169c-0.85627,-1.99797 1.14169,-2.85424 1.14169,-2.85424c2.38369,-1.02153 4.67105,-2.29037 7.13159,-3.10967c4.51994,-1.50504 9.42423,-2.14062 13.94423,-3.48836c3.3559,-1.00065 3.54474,-3.13713 7.40211,0.10305c0.8779,0.73744 0.73843,2.18269 1.28513,3.19048c2.56254,4.72386 5.83653,9.07515 8.26033,13.91222c0.57757,1.15262 2.31277,5.71308 1.58607,6.52067c-2.51609,2.79622 -9.33365,-0.47137 -11.93223,-1.18138c-5.92505,-2.56692 -12.01384,-4.7634 -17.7908,-7.6558c-2.50688,-1.25515 -4.62542,-2.80849 -7.22898,-3.84026zM257.48124,188.71885c1.53271,0.84185 3.00598,1.76015 4.62373,2.56786c5.62055,2.80622 11.53941,4.93596 17.29505,7.44616c1.38798,0.37783 2.79329,0.69691 4.16392,1.13347c0.30764,0.09799 0.70766,0.19982 1.10736,0.32204c-0.07328,-0.27059 -0.15004,-0.54022 -0.27305,-0.78435c-0.4561,-0.90509 -1.05146,-1.73375 -1.53858,-2.62253c-2.07995,-3.79501 -4.77155,-7.4626 -6.72133,-11.28882c-0.31428,-0.61675 -0.09534,-1.43431 -0.45385,-2.02643c-0.16362,-0.27025 -0.61649,-0.33479 -0.91732,-0.23829c-0.77337,0.24809 -1.3406,0.96414 -2.11442,1.21082c-0.99636,0.31763 -2.09888,0.16568 -3.10443,0.45289c-4.08758,1.16749 -8.1005,2.38607 -12.06707,3.82719z" fill="#9966ff"/><path d="M322.17987,181.89959c-0.4263,-2.1315 1.7052,-2.5578 1.7052,-2.5578c0.72457,-0.14492 3.62286,-0.72457 4.34743,-0.86949c6.44276,-1.24376 9.10586,-5.51795 11.51715,-11.22552c3.38806,-8.01959 2.47399,-16.84088 1.83172,-25.36702c-0.30591,-4.06095 -0.59613,-7.08873 -3.27783,-10.30115c-1.76717,-2.1169 -2.5171,-3.19877 -4.92475,-1.99525c0,0 -2.01824,0.8073 -2.82555,-1.21095c-0.8073,-2.01824 1.21095,-2.82555 1.21095,-2.82555c0.97239,-0.34134 1.88693,-1.04991 2.91716,-1.02402c8.2182,0.20651 10.7476,10.8117 11.23464,17.02352c0.72614,9.2613 1.49886,18.67263 -2.15961,27.38746c-1.77803,4.23546 -3.81627,8.5705 -7.78057,11.28808c-2.66546,1.8272 -4.16047,1.95203 -6.89073,2.5134c-0.72457,0.14492 -1.44915,0.28983 -2.17372,0.43474l-2.17372,0.43474c0,0 -2.1315,0.4263 -2.5578,-1.7052z" fill="#000000"/><path d="M333.98964,192.51795c-0.9371,1.96134 -2.89845,1.02425 -2.89845,1.02425l-0.80396,-0.39825c-4.37335,-1.53966 -8.1021,-3.4255 -12.06523,-5.82915c-1.50592,-0.91334 -3.53202,-1.29329 -4.50456,-2.76168c-0.93878,-1.41741 -1.19506,-3.43774 -0.67304,-5.05572c0.46506,-1.44146 2.14475,-2.14523 3.30893,-3.11415c3.61916,-3.01211 7.48687,-6.22981 11.77549,-8.10279c0,0 1.99796,-0.85627 2.85423,1.14169c0.85627,1.99796 -1.14169,2.85423 -1.14169,2.85423c-4.12309,1.72624 -7.14766,5.01427 -10.83116,7.54797c-0.77945,0.53615 -2.46593,1.69311 -1.71155,2.26398c0.90998,0.68862 2.09249,0.9178 3.09612,1.46092c3.86133,2.08956 7.15962,4.03471 11.33145,5.49231l1.23918,0.57793c0,0 1.96134,0.9371 1.02425,2.89845z" fill="#000000"/><path d="M146.55907,102.94111c1.54846,-0.51615 2.38048,0.40057 2.74467,1.00989c4.77491,0.57234 9.5355,0.93185 14.15854,-0.68606c3.28214,-1.14864 7.00294,-2.56951 8.16497,-6.25355c0.3779,-1.19808 -1.66052,-1.95501 -2.75496,-2.57178c-1.26677,-0.7139 -2.97355,-1.55542 -4.65503,-2.22679c-1.97885,0.44765 -4.05293,0.54482 -6.04524,0.53533l-0.34839,-0.26606l-0.05777,0.15406l-2.45723,-0.92146c-0.91845,-0.32014 -1.57747,-1.1938 -1.57747,-2.22138c0,-1.11925 0.78184,-2.05588 1.82917,-2.29356l2.46091,-0.61523l0.01225,0.049c0.08934,-0.0358 0.17958,-0.06972 0.2708,-0.1016c1.53082,-0.53492 3.87766,0.00752 5.82575,0.65329c1.67313,-0.7421 3.0712,-1.96758 4.50787,-3.82221c1.07716,-1.45469 2.91178,-3.23122 2.97196,-5.30698c0.18367,-6.33525 -5.21787,-11.06476 -10.73301,-12.83016c-1.79555,-0.57475 -7.62939,-2.38429 -9.45418,-0.36003c-1.91463,2.12392 -2.42907,6.48231 -2.94252,9.44398c-0.88752,6.35565 -1.67069,12.70382 -2.04371,19.11026c0.04133,1.81449 0.20301,3.64292 -0.21009,5.3933c-0.01409,0.75969 -0.02129,1.52044 -0.0211,2.28236l-0.65458,0.04364c-0.53271,1.61519 -1.15937,3.20315 -1.69727,4.81684l-2.35184,-4.86048c0.00017,-0.71956 0.00672,-1.43809 0.01923,-2.15568c-0.00652,-0.01305 -0.01293,-0.02618 -0.01923,-0.03938c-0.36928,-0.77316 -0.02844,-1.71414 0.00081,-2.57046c0.10765,-3.15127 0.32314,-6.29793 0.47667,-9.4473c0.24775,-5.08235 0.84324,-10.65182 2.21,-15.80103c0.36231,-2.54088 0.73479,-5.08442 1.09911,-7.63469c0,0 0.3326,-2.32821 2.66081,-1.99561c0.06995,0.00999 0.1375,0.02179 0.20273,0.03527c0.01602,-0.01591 0.03218,-0.03171 0.04847,-0.04741c3.54488,-3.41469 10.14524,-1.97227 14.12202,-0.68972c7.45523,2.40438 14.45304,9.11925 13.982,17.60315c-0.19718,3.55137 -1.96401,5.12473 -3.92678,7.86335c-0.87878,1.07222 -1.58195,2.32 -2.58848,3.26451c3.42385,1.63237 6.82175,4.02647 6.49789,8.17344c-0.28803,3.68813 -4.75097,7.23947 -7.56201,8.68707c-6.74731,3.47467 -14.13875,3.01311 -21.40014,2.10544l-2.25302,-2.5307c0,0 -0.74372,-2.23116 1.48744,-2.97487z" fill="#000000"/><path d="M186.64484,110.82881c-0.92788,-0.90965 -1.81247,-1.69759 -2.34309,-1.93464c-0.28553,-0.12755 -4.08606,-0.88434 -4.67385,-0.15171c-0.36566,0.45578 0.36118,2.60212 1.10529,2.8348c1.05789,0.33079 2.20536,0.22499 3.30803,0.33748c0.62483,0.00734 1.3611,0.37826 1.87449,0.02203c0.3695,-0.25638 0.56303,-0.66993 0.72913,-1.10797zM189.91609,114.16128c-0.42054,0.71879 -0.88155,1.39274 -1.57707,1.80691c-1.27298,0.75804 -2.9314,0.43279 -4.3971,0.64919c-1.82406,-0.30561 -3.82931,-0.06738 -5.47219,-0.91684c-3.09128,-1.59836 -4.72478,-6.67404 -2.65766,-9.70837c3.15187,-4.62665 12.27163,-2.3709 14.14094,2.36316c0.30243,-0.71045 0.98477,-1.24253 1.30239,-1.95566c1.25759,-2.82359 2.06234,-7.57275 1.45075,-10.61359c-0.49902,-2.48112 -5.20295,-5.82367 -7.55516,-5.83261c-1.15669,-0.0044 -2.11297,2.0903 -2.41372,2.51882c0,0 -1.41111,1.88148 -3.29258,0.47037c-1.88148,-1.41111 -0.47037,-3.29258 -0.47037,-3.29258c1.78812,-2.28123 2.43492,-4.09421 5.73934,-4.37992c4.57698,-0.39574 11.41552,4.70786 12.51391,9.2192c0.55977,2.2991 -0.11746,7.92087 -0.58268,10.19349c-0.47647,2.32755 -1.26668,4.66837 -2.85882,6.50045c-0.08423,0.09692 -0.16746,0.20006 -0.25014,0.30771c-0.11395,0.99824 -0.6998,1.49602 -1.25574,1.74423c-0.56783,0.71076 -1.20452,1.25722 -2.02822,1.18759c-0.04515,-0.00382 -0.16277,-0.09882 -0.33587,-0.26154z" fill="#000000"/><path d="M217.23097,62.05511c2.35184,0 2.35184,2.35184 2.35184,2.35184l-0.01167,1.0203c0.87479,8.82756 0.01167,17.7287 0.01167,26.57468c0,2.96131 0.20397,5.94849 -0.34974,8.87745c-0.47713,2.52391 -1.065,4.90974 -1.98882,7.29687c-0.49871,1.28865 -0.73091,2.76492 -1.63638,3.8087c-4.95194,5.70836 -11.19743,2.06905 -14.47827,-3.05108c-2.66345,-4.15662 -2.25196,-12.06444 1.33306,-15.52175c1.85132,-1.78537 5.52126,-2.62024 7.97192,-2.8118c1.47075,-0.11496 2.99414,0.03447 4.44816,0.41988c0.06065,-8.36056 0.84968,-16.78956 0.00804,-25.12492l-0.01167,-1.48833c0,0 0,-2.35184 2.35184,-2.35184zM214.79315,95.89112c-1.2057,-0.55741 -2.62627,-0.73682 -3.93613,-0.60611c-1.37467,0.13718 -4.03394,0.54519 -5.19841,1.57831c-1.95888,1.73793 -1.14189,3.77077 -1.12759,6.11388c0.017,2.78527 1.35002,5.85686 4.11979,7.20581c2.49125,1.2133 3.6795,-2.17783 4.17677,-3.62464c1.2689,-3.69187 1.78407,-7.056 1.96558,-10.66726z" fill="#000000"/><path d="M241.46808,106.62912c1.05178,-2.10355 3.15533,-1.05178 3.15533,-1.05178l0.87834,0.47805c2.1209,0.66995 3.07773,1.32448 5.33111,0.70363c1.63658,-0.45091 2.92007,-3.27207 1.73668,-4.70362c-2.1555,-2.60752 -7.74534,-4.21343 -8.74136,-7.4943c-1.52499,-5.02333 3.10424,-7.01742 6.70745,-7.10517c1.54925,-0.03773 2.96094,0.91607 4.44142,1.3741c0,0 2.23116,0.74372 1.48744,2.97487c-0.74372,2.23116 -2.97487,1.48744 -2.97487,1.48744c-1.02816,-0.37818 -2.006,-0.94217 -3.08449,-1.13453c-0.76217,-0.13594 -2.60265,0.48344 -2.07277,1.04789c2.57582,2.74387 5.99668,2.79722 8.19192,6.30319c2.45254,3.9169 0.59079,9.98449 -3.90775,11.60251c-3.64664,1.31161 -5.19591,0.39108 -8.46638,-0.55069l-1.6303,-0.77626c0,0 -2.10355,-1.05178 -1.05178,-3.15533z" fill="#000000"/><path d="M276.65425,88.86614c0,2.35184 -2.35184,2.35184 -2.35184,2.35184c-1.87325,0 -4.28572,0 -6.76601,0c-0.02199,3.41619 0.04848,6.93482 0.84494,10.18098c0.35966,1.46586 1.06842,2.82447 1.53524,4.25981c0.72217,2.22048 0.66914,4.81107 2.03999,6.70125c1.53089,2.11085 6.76837,-0.07427 8.19282,-0.82468l-0.95449,-0.16456c0,0 0.38664,-2.31985 2.70649,-1.9332c2.31985,0.38664 1.9332,2.70649 1.9332,2.70649l-1.58165,3.59839c-3.80895,1.83102 -10.21313,3.65062 -13.75773,-0.19752c-1.24029,-1.3465 -2.5629,-6.92158 -3.05309,-8.43569c-1.65226,-5.10352 -2.47824,-10.46358 -2.73508,-15.89126c-1.49745,0 -2.89843,0 -4.08359,0c0,0 -2.35184,0 -2.35184,-2.35184c0,-2.35184 2.35184,-2.35184 2.35184,-2.35184c1.33239,0 2.66479,0 3.99718,0c0.0527,-5.77133 0.66037,-11.55744 1.51781,-17.13411c0,0 0.35761,-2.3245 2.68211,-1.96688c2.3245,0.35761 1.96688,2.68211 1.96688,2.68211c-0.85336,5.54351 -1.14997,10.85838 -1.21132,16.41888c1.30136,0 2.60273,0 3.90409,0h2.82221c0,0 2.35184,0 2.35184,2.35184z" fill="#000000"/><path d="M292.94399,98.38869c-2.0753,4.19673 -2.32984,7.71657 -2.49245,12.77102c-0.03498,1.0874 -0.68182,2.91896 0.35634,3.24438c2.41,0.75545 3.90352,-1.18825 5.47203,-2.5419c2.34638,-2.02497 3.5091,-5.15765 2.70982,-8.31004c-0.64609,-2.54823 -3.29887,-4.30994 -6.04574,-5.16347zM293.55105,93.78484c2.73301,0.69833 5.56525,1.88885 7.11797,3.38644c6.3984,6.17123 2.54902,19.11081 -5.8674,21.521c-11.84569,3.39221 -10.10634,-13.29084 -7.48596,-19.94225c-0.46752,-0.08414 -0.96287,-0.3496 -1.41082,-0.94687c-1.41111,-1.88148 0.47037,-3.29258 0.47037,-3.29258l2.66542,-1.41111c0.56867,0.01123 1.20402,0.06591 1.87939,0.16045c0.53398,-0.26408 1.2523,-0.35082 2.12785,0.15992c0.19649,0.11462 0.36289,0.23716 0.50318,0.36501z" fill="#000000"/><path d="M314.70133,94.61571c0.42101,-2.47298 0.69227,-5.01996 0.82081,-7.68584c0.19899,-4.12725 0.63462,-8.72076 -1.52707,-12.50927c-0.57216,-1.00275 -1.58661,-1.68004 -2.31989,-2.57176c-0.14844,-0.18052 -2.85681,-4.01105 -3.26567,-4.21551c-0.36055,-0.18031 0.14015,0.79888 0.13374,1.20195c-0.02178,1.37053 -0.18398,2.73604 -0.21811,4.10632c-0.15902,6.38548 -0.26911,11.20504 2.94897,16.82836c1.0425,1.67216 2.18879,3.29155 3.42722,4.84575zM313.42388,100.34533c-2.30746,-2.54242 -4.38638,-5.28289 -6.19417,-8.17381c-0.82974,-1.48954 -1.89441,-2.87068 -2.48922,-4.46861c-1.70702,-4.5858 -1.31158,-10.12395 -1.11642,-14.91815c0.08244,-2.02513 -0.15257,-9.1581 3.6772,-9.72269c3.44362,-0.50767 9.22814,6.21536 10.75146,8.97944c2.61893,4.75208 2.41344,9.92135 2.16775,15.11275c-0.19681,4.15853 -0.72469,8.0651 -1.60186,11.85317c3.17803,3.18937 6.76656,5.98457 10.63168,8.24285c0.66702,0.11512 1.96675,0.56375 1.96675,2.31211c0,2.35184 -2.35184,2.35184 -2.35184,2.35184l-1.48042,-0.30987c-3.65502,-2.09409 -7.0776,-4.61233 -10.18882,-7.46656c-1.07551,3.32275 -2.43822,6.5993 -4.10123,9.92574c0,0 -1.05178,2.10355 -3.15533,1.05178c-2.10355,-1.05178 -1.05178,-3.15533 -1.05178,-3.15533c1.95013,-3.89975 3.4519,-7.70531 4.53625,-11.61464z" fill="#000000"/><path d="M344.23059,99.37105h0.31358c1.16426,0 4.20753,-0.00746 5.30291,0.02493c0.50322,0.01488 1.15102,0.45838 1.50686,0.10225c0.27156,-0.27179 -0.57325,-0.563 -0.67681,-0.93299c-0.24027,-0.85844 -0.27746,-1.76416 -0.3272,-2.65421c-0.00384,-0.06868 -0.00465,-2.68372 -0.00472,-4.6336c-0.71983,-0.27671 -1.42729,-0.61163 -2.18877,-0.69224c-1.44019,-0.15246 -2.74757,3.25195 -3.19976,3.9396c-0.93994,1.42939 -1.68942,3.28827 -2.16025,5.29043c0.66,-0.44416 1.43416,-0.44416 1.43416,-0.44416zM352.69724,86.82787c2.35184,0 2.35184,2.35184 2.35184,2.35184c0,2.96704 0.18117,5.85938 0.29542,8.80209c0.05282,1.3605 0.79659,3.01768 -0.04965,4.08427c-2.28638,2.88174 -7.6313,2.00865 -10.75068,2.00865h-0.31358c0,0 -1.26537,0 -1.93979,-0.92816c-0.16681,2.41202 0.10804,4.80829 0.96335,6.73825c2.91558,6.57883 8.96048,5.92689 15.04795,5.06564l1.35616,-1.23683c0,0 1.80674,-1.50561 3.31235,0.30112c1.50561,1.80674 -0.30112,3.31235 -0.30112,3.31235l-2.4068,1.89896c-5.12448,0.93854 -11.25152,2.03283 -16.04114,-0.78125c-8.67301,-5.09571 -7.78231,-19.23752 -3.22569,-26.45711c1.66223,-2.63367 3.11026,-5.9088 6.83477,-6.09493c1.43617,-0.07177 2.7968,0.66561 4.19421,1.00899c0.19949,-0.04739 0.42268,-0.0739 0.67238,-0.0739z" fill="#000000"/><path d="M185.79793,209.45921c-1.67338,6.27918 -4.18802,12.51756 -5.21654,18.85207c-1.56789,9.65644 -2.37916,19.48915 -3.82495,29.16324c-0.47795,3.19805 -0.68932,6.44042 -1.34204,9.60744c-0.15259,0.74042 -1.59502,1.44734 -1.07563,1.99666c0.79429,0.84006 2.30947,0.22214 3.43263,0.49616c8.42597,2.05574 16.58757,3.07184 25.29906,3.09929c4.80139,0.78904 9.66918,0.68062 14.4273,1.31206c3.2065,0.42554 6.274,1.9567 9.50857,1.93694c1.87811,-0.01147 3.72314,-0.52171 5.59702,-0.64801c2.87793,-0.19398 5.77629,-0.21105 8.65336,-0.00499c0.94289,0.06754 2.05734,1.12779 2.78665,0.52634c1.02686,-0.84683 1.04318,-2.48768 1.19503,-3.80998c0.45738,-3.98282 0.22288,-8.02058 0.59509,-12.01227c1.36299,-14.61731 0.37009,-29.39243 0.69628,-44.05159c-0.0625,-0.45658 0.19619,-1.11452 -0.18752,-1.36975c-0.50357,-0.33497 -1.21596,0.12876 -1.81397,0.0384c-5.15937,-0.77961 -8.55352,-1.24029 -13.70005,-1.24027c-10.43142,0.00002 -20.47139,-1.21883 -30.83618,-1.96164c-4.70304,-0.33705 -8.2252,0.20131 -12.73986,-1.53035l0.55854,0.23309c0,0 -1.09281,-0.00001 -2.01279,-0.63283zM185.88896,204.14682c0.89945,-0.57258 1.92176,-0.57258 1.92176,-0.57258l1.8621,0.23309c3.72856,1.58004 6.74712,0.79356 10.72422,1.07677c11.7717,0.83829 23.16359,1.88843 35.00582,1.94906c3.49764,0.0179 6.99787,0.5703 10.40365,1.36684c1.58766,0.37132 3.49855,0.24385 4.70383,1.34196c1.40161,1.27698 1.61306,3.43203 2.4196,5.14805c0.26262,17.30624 -0.29172,34.38699 -1.24974,51.63537c-0.3064,5.51661 1.26104,10.57533 -4.08521,14.93617c-0.79791,0.65084 -9.27991,0.52732 -10.90074,0.52634c-3.29564,-0.00198 -6.5699,0.66764 -9.86549,0.65057c-2.66521,-0.01382 -7.66116,-1.65482 -10.04485,-1.97373c-4.69028,-0.62751 -9.5143,-0.49362 -14.25104,-1.29506c-8.82121,0.0324 -18.56171,-0.14562 -26.84337,-3.41851c-2.41325,-0.95373 -5.46244,-1.32118 -6.99585,-3.41452c-1.14821,-1.5675 0.17191,-3.88247 0.22792,-5.82472c0.09701,-3.36374 0.89235,-6.67114 1.38846,-9.99951c1.45545,-9.76424 2.25759,-19.70251 3.87304,-29.44345c1.2062,-7.27323 4.28121,-14.37004 5.88387,-21.59454c0,0 0.70696,-3.1813 3.88826,-2.47434c0.95131,0.2114 1.55494,0.64408 1.93374,1.14677z" fill="#ff6666"/><path d="M221.63405,273.217c-2.47228,0.00993 -4.95315,-0.05678 -7.40554,-0.14684c-3.09459,0.1318 -6.14731,0.1384 -9.03785,-0.34443c-1.28449,-0.03572 -2.546,-0.05809 -3.77826,-0.05809h-1.81127c-0.93782,0 -1.69806,-0.76024 -1.69806,-1.69806c0,-0.35286 0.10763,-0.68057 0.29183,-0.95211c-2.35556,0.01491 -4.68272,-0.02051 -6.99823,-0.23778c-0.79824,0.03102 -1.59506,0.06932 -2.39032,0.11599l-0.03918,-0.03701l0.0005,0.03795l-0.02562,0.00034l-0.00012,0.05187l-3.39566,-0.00722c-0.93636,-0.00171 -1.69491,-0.76131 -1.69491,-1.69806c0,-0.93126 0.74968,-1.68744 1.67845,-1.69795l3.36398,-0.04442c0.91871,-0.0541 1.83794,-0.09852 2.75762,-0.13463c1.28539,-0.16857 2.67,-0.16861 4.05066,-0.10944c11.2901,-0.17883 22.62926,0.59672 33.86997,-0.15141c0.77346,-0.05148 1.54937,-0.13183 2.32717,-0.2303c-4.69938,0 -9.39876,0 -14.09815,0c-7.51453,0.01546 -15.02919,0.01276 -22.54383,0.0079c-4.2856,0.09278 -10.05006,0.9553 -14.54247,-0.00781c-0.43013,-0.00007 -0.86026,-0.00009 -1.29038,-0.00009h-2.71689c-0.93782,0 -1.69806,-0.76024 -1.69806,-1.69806c0,-0.93782 0.76024,-1.69806 1.69806,-1.69806h1.47537c-0.00247,-0.03742 -0.00371,-0.07516 -0.00371,-0.1132c0,-0.8814 0.67156,-1.60598 1.5309,-1.68993l3.35497,-0.37277l0.04053,0.3648c0.40025,0.00009 0.80049,0.0002 1.20074,0.00035c1.76618,-0.29973 3.54601,-0.44464 5.34421,-0.50657c0.27006,-0.22782 0.61218,-0.37292 0.98728,-0.39624l3.37351,-0.24097l0.01697,0.23766h0.11264c0.47731,0 0.95457,-0.00212 1.4318,-0.00628c3.92471,-0.60791 7.86094,-0.52247 11.98967,-0.46928c2.86701,-0.18489 5.73257,-0.4113 8.59674,-0.65648c-5.52814,0 -11.05629,0 -16.58443,0c-4.76355,0 -9.99463,0.63133 -14.80566,-0.04926c-0.17239,0.01074 -0.34489,0.02165 -0.51744,0.03275l-0.05105,-0.04899l0.00024,0.04998l-1.60673,0.00731v0.00821l-1.79712,-0.00007h-0.00002c-0.93778,-0.00002 -1.698,-0.76026 -1.698,-1.69806c0,-0.93556 0.7566,-1.69441 1.69132,-1.69804l1.33581,-0.00608l-1.4407,-0.44705c1.70425,-0.794 3.46588,-1.46889 5.27392,-2.04118c-0.41371,-0.00059 -0.82742,-0.00123 -1.24113,-0.0019l-0.13094,-0.06631l-0.00816,0.049l-2.68937,-0.44823c-0.81848,-0.12159 -1.44643,-0.82722 -1.44643,-1.67954c0,-0.86483 0.64654,-1.57867 1.48263,-1.68452l3.14499,-0.44929l0.08235,0.57641c3.98613,-0.84337 7.84266,-0.59348 12.38383,-0.59348c1.32554,0 2.65109,-0.00032 3.97664,-0.00082c8.11275,-1.47069 16.40979,-1.68372 24.54421,-3.04028c1.80301,-0.30068 3.86303,-0.84099 5.93439,-1.22396c-3.98817,-0.58165 -7.89108,1.92669 -12.58496,2.81524c-7.43913,1.40822 -15.87962,1.70391 -22.31656,1.61657c-1.12577,-0.00198 -2.90329,-3.26285 -4.02904,-3.26471c-2.65188,0.04793 -7.4339,2.86044 -9.03263,1.90509c-1.43204,-0.85574 0.33413,-5.46463 -2.08486,-5.82576h-5.68954c-0.93782,0 -1.69806,-0.76024 -1.69806,-1.69805c0,-0.93782 0.76024,-1.69806 1.69806,-1.69806h1.50562c0.15734,-0.77507 0.84259,-1.35844 1.6641,-1.35844c1.05658,0 2.11314,0 3.16971,0c7.10385,0 14.20768,0 21.31151,0c6.52356,-0.06486 13.04411,-0.24179 19.56288,-0.67598c0.90937,-0.06058 1.88383,-0.18041 2.90197,-0.33249c-7.87078,-0.25772 -15.74637,-0.57638 -23.62607,-0.57638c-4.513,0 -9.46069,0.5935 -14.03072,0c-0.83235,0 -1.66472,0 -2.49706,0h-3.39612c-0.93782,0 -1.69805,-0.76025 -1.69805,-1.69807c0,-0.93782 0.76023,-1.69806 1.69805,-1.69806c0.83235,0 5.06083,0 5.89318,0c1.41293,-0.18349 2.86195,-0.25352 4.32309,-0.26271c0.31107,-0.39172 0.79147,-0.64291 1.33053,-0.64291h1.81127c1.5963,0 3.18863,-0.00859 4.77803,-0.02708c1.51341,-0.12424 3.04952,-0.11954 4.6067,-0.08277c6.0994,-0.1498 12.17032,-0.46542 18.27215,-1.02219c-8.31333,0 -16.62666,0 -24.93997,0c-3.63494,0 -8.09568,0.71514 -11.84593,-0.02195c-0.57908,0.01136 -1.15858,0.01852 -1.73854,0.02099v0.00096h-2.26408c-0.93782,0 -1.69807,-0.76023 -1.69807,-1.69805c0,-0.93782 0.76025,-1.69806 1.69807,-1.69806h1.81126c0.80549,0 1.6105,-0.00701 2.41511,-0.02017c2.00453,-0.36102 4.20053,-0.32525 6.35849,-0.2165c0.14128,-0.00698 0.28255,-0.01405 0.42381,-0.02126c-0.01832,-0.09992 -0.02788,-0.20288 -0.02788,-0.30809c0,-0.93782 0.76024,-1.69807 1.69805,-1.69807h3.39612c1.12122,0 2.23987,-0.00668 3.3565,-0.01927c1.30705,-0.09396 2.62967,-0.09506 3.96616,-0.06854c7.12766,-0.16385 14.19817,-0.53385 21.35128,-0.91129c0.49022,-0.02588 1.01931,-0.07084 1.57703,-0.12623c-3.70705,-0.1869 -7.46695,-0.2 -11.23102,-0.13329l-0.21443,0.06125l-0.0163,-0.05707c-0.81171,0.01507 -1.62359,0.03377 -2.43511,0.05515c-4.34118,1.01656 -8.92733,0.9721 -13.63722,0.9729c-4.15154,0.00071 -8.30309,0.00065 -12.45463,0.00046c-2.56313,0.19479 -5.16851,0.31863 -7.57513,-0.00039c-1.09675,-0.00004 -2.1935,-0.00007 -3.29025,-0.00007h-1.81127c-0.93782,0 -1.69805,-0.76025 -1.69805,-1.69807c0,-0.93782 0.76023,-1.69806 1.69805,-1.69806h2.71689v0.00082c0.5433,0.00098 1.08673,0.0028 1.63028,0.00528c1.47443,-0.326 3.04119,-0.49033 4.63719,-0.56229c-0.16941,-0.26416 -0.26766,-0.57835 -0.26766,-0.91547c0,-0.93782 0.76024,-1.69806 1.69806,-1.69806h3.16971c4.85211,0.00271 9.6491,-0.50549 14.43584,-1.13204c-5.26477,0 -10.52953,0 -15.79429,0c0,0 -1.69806,0 -1.69806,-1.69806c0,-1.69806 1.69806,-1.69807 1.69806,-1.69807c12.5279,0 25.0558,0 37.58371,0h1.81127v0c0.93782,0 1.69806,0.76026 1.69806,1.69807c0,0.80811 -0.56449,1.48436 -1.32067,1.65597l-1.7768,0.4442l-0.10052,-0.40212h-0.22015c-4.12673,1.67701 -8.61599,1.56736 -13.3131,2.23268c-0.59966,0.08494 -1.19924,0.17066 -1.79882,0.25653c2.3655,0.00062 4.73098,0.00127 7.09648,0.00127h2.03766c0.59395,0 1.11667,0.30494 1.42015,0.76681c3.52658,-0.00075 9.20938,-3.16593 12.66594,-2.90349c3.26308,0.24776 4.30578,3.90477 7.44195,4.51567l1.86069,0.36347c0.79712,0.1397 1.40293,0.83536 1.40293,1.67251c0,0.62937 -0.3424,1.17879 -0.8511,1.47208l-2.23739,1.34244l-0.01938,-0.03232c-0.12885,0.07803 -0.26227,0.1493 -0.40099,0.21268c-0.2674,0.12217 -0.58612,0.21646 -0.94441,0.28802h0.94396v0c0.93782,0 1.69806,0.76023 1.69806,1.69805c0,0.74788 -0.48349,1.38285 -1.15497,1.60936l-3.15445,1.14707l-0.18545,-0.50997c-0.85556,0.37149 -1.71227,0.68302 -2.57596,0.94774l0.64341,0.10724c0.69443,0.10316 1.25172,0.62676 1.40468,1.30365c1.6167,0.02499 3.23348,0.04083 4.85043,0.04456l0.1539,0.08369l0.01179,-0.05898l2.23324,0.44665c0.79364,0.14255 1.39588,0.83656 1.39588,1.67124c0,0.78151 -0.52795,1.43973 -1.24666,1.63742l-0.95687,0.28706c0.1685,0 0.33698,0 0.50547,0c1.88673,0 3.77345,0 5.6602,0h2.4905v0c0.93782,0 1.69805,0.76024 1.69805,1.69806c0,0.88718 -0.68035,1.61542 -1.54777,1.6915l-3.36058,0.33606l-0.03296,-0.32951c-0.12751,0 -0.25504,0 -0.38255,0c-3.24376,0.7977 -6.50584,1.12289 -9.82396,1.25406c-0.18309,0.06752 -0.381,0.10439 -0.58754,0.10439c-0.22642,0 -2.49048,0 -2.71689,0c-0.12719,0 -0.25436,0 -0.38155,0c0.53411,0.08769 1.06782,0.17384 1.60112,0.25803l0.09177,0.05201l0.00767,-0.02702l3.18376,0.90327c0.73091,0.18951 1.27062,0.85364 1.27062,1.64381c0,0.79601 -0.54774,1.46409 -1.28687,1.64793l-3.24086,0.88387l-0.10483,-0.38435c-3.15276,1.19101 -6.47051,1.97089 -9.87199,2.52473l0.01053,0.00234c0.0758,0.0152 0.14981,0.03546 0.2216,0.06039c1.84547,-0.06557 3.68678,-0.01752 5.28965,0.35924c0.61437,0 7.07074,-3.87109 10.15733,-4.50499c1.90882,-0.39202 0.91881,2.33239 1.29877,2.33239c0,0 0.15111,8.39309 -0.78671,8.39309c0,0 -1.28097,1.80408 -2.51013,1.31883c-1.15042,-0.45416 -4.64425,-4.14321 -4.64425,-4.14321c-0.13759,0.67777 -0.67886,1.20897 -1.36192,1.33166l-3.29932,0.65986l-0.09902,-0.49506c-1.62901,0.45201 -3.22175,0.73558 -4.91436,0.99404c3.12299,0 6.24598,0 9.36897,0l3.9448,1.45601c-1.78043,1.12955 -3.58387,1.978 -5.41078,2.61932c3.35648,0 6.71299,0 10.06948,0h3.39612v0c0.93782,0 1.69806,0.76024 1.69806,1.69806c0,0.6836 -0.40395,1.27284 -0.98616,1.54208c0.70125,0.20887 1.21256,0.85854 1.21256,1.62764c0,0.59875 -0.30991,1.12513 -0.77807,1.42748l-2.69498,1.79666l-0.02295,-0.03444c-0.12047,0.08157 -0.24467,0.15829 -0.37308,0.22949c-0.3547,0.19666 -0.74074,0.29039 -1.14325,0.32974c0.02057,0.10563 0.03135,0.21477 0.03135,0.32642c0,0.796 -0.54773,1.4641 -1.28686,1.64794l-3.24086,0.88387l-0.13048,-0.47844c-0.83008,0.32153 -0.37309,2.56504 -1.23404,2.82297c-1.2035,0.36057 -3.73863,-1.29332 -4.99239,-1.04255c0.01123,0.07889 0.01705,0.15954 0.01705,0.24154c0,0.71409 -0.44079,1.32524 -1.06513,1.57619l-0.29669,0.12715c0.00223,0.03569 0.00338,0.07169 0.00338,0.10793c0,0.83904 -0.60855,1.53595 -1.40833,1.67345l-2.93007,0.56194l-0.00529,-0.02758l-0.0699,0.04026c-3.0054,0.30196 -5.46229,0.73062 -7.96776,0.47991c-0.43113,0.05204 -0.86958,0.10307 -1.31634,0.15456v0.17398h-3.39613c-0.93782,0 -1.69806,-0.76023 -1.69806,-1.69805c0,-0.93782 0.76024,-1.69806 1.69806,-1.69806h1.73608c1.13654,-0.13691 2.32778,-0.35312 3.54264,-0.58269z" fill="#ffb4b4"/><path d="M228.2211,263.75529c0,3.2589 -3.2589,3.2589 -3.2589,3.2589l-1.31622,-0.06329c-4.72356,0.92335 -10.63345,1.36354 -15.42685,0.68404c-5.52892,-0.78375 -10.12462,-2.59464 -15.84594,-2.57609c0,0 -3.2589,0 -3.2589,-3.2589c0,-3.2589 3.2589,-3.2589 3.2589,-3.2589c10.27806,0.02945 19.6613,4.14211 29.99455,2.01863l2.59446,-0.06329c0,0 3.2589,0.00001 3.2589,3.25891z" fill="#000000"/><path d="M207.36413,223.99669c0,3.2589 -3.2589,3.2589 -3.2589,3.2589l-4.06454,-0.34405c-3.94777,-1.97717 -6.35238,-2.99776 -10.7355,-3.59939c0,0 -3.22614,-0.46088 -2.76527,-3.68703c0.46088,-3.22615 3.68703,-2.76527 3.68703,-2.76527c4.99119,0.73666 8.23963,1.981 12.7286,4.22197l1.1497,-0.34405c0,0 3.2589,0 3.2589,3.2589z" fill="#000000"/><path d="M239.30137,225.30025c0,3.2589 -3.2589,3.2589 -3.2589,3.2589h-3.2589c-5.34028,0 -9.61424,1.24933 -14.99094,1.30356c0,0 -3.2589,0 -3.2589,-3.2589c0,-3.2589 3.2589,-3.2589 3.2589,-3.2589c5.20169,0.06652 9.6866,-1.30356 14.99094,-1.30356h3.2589c0,0 3.2589,0 3.2589,3.2589z" fill="#000000"/><path d="M195.48889,227.93373c0.30442,0.0753 0.6068,0.16395 0.90437,0.2651c1.25129,-0.2452 2.45025,-0.36502 3.26026,0.44719c0.82137,0.82361 1.20786,1.965 1.3407,3.19124c0.07359,0.17131 0.13469,0.34623 0.18223,0.52442c0.12535,0.46977 0.16262,0.94043 0.13591,1.41172h0.18572v3.2589c0,1.44808 -0.94448,2.67558 -2.25103,3.10007c-2.02425,3.49321 -5.69763,5.02103 -10.6394,0.99051c-1.64375,-1.34064 -0.957,-4.20049 -0.78585,-6.31471c0.13263,-1.6386 0.14602,-3.59954 0.90528,-5.02714c-0.30546,-0.40729 -0.61092,-0.81458 -0.91639,-1.22187c0,0 -1.95534,-2.60712 0.65178,-4.56246c2.60712,-1.95534 4.56246,0.65178 4.56246,0.65178c0.82131,1.09508 1.64263,2.19018 2.46394,3.28526z" fill="#ffffff"/><path d="M226.94758,228.48335c6.3236,-3.03931 7.43361,2.82442 7.10806,7.04562c-0.27582,3.5763 -1.97458,8.1936 -6.10753,9.15747c-11.59465,2.70403 -9.16014,-9.03142 -6.66349,-15.38225c0,0 1.21032,-3.02581 4.23613,-1.81549c0.65646,0.26259 1.11353,0.61061 1.42683,0.99466z" fill="#ffffff"/><path d="M201.45857,265.67109c0.69132,-0.69131 1.38263,0 1.38263,0l0.93813,1.3431c-0.03921,2.38139 -0.94054,7.12284 -4.27611,4.602c-0.84429,-0.63808 -1.65091,-3.18963 -2.13848,-4.16477c0,0 -0.43723,-0.87446 0.43723,-1.31168c0.87446,-0.43723 1.31169,0.43723 1.31169,0.43723c0.43453,0.86903 0.88584,1.72987 1.30356,2.60712c0.23624,0.49612 0.51642,2.0048 0.70675,1.48932c0.37199,-1.00752 0.72529,-2.56852 0.70002,-3.65921l-0.36542,0.03954c0,0 -0.69132,-0.69132 0,-1.38263z" fill="#ffffff"/><path d="M218.88162,269.39863c0.87446,0.43723 0.43723,1.31168 0.43723,1.31168l-1.34119,1.82634c-2.46785,-1.47958 -4.11354,-1.62624 -3.01484,-4.65612c0,0 0.43722,-0.87445 1.31168,-0.43723c0.87446,0.43723 0.43723,1.31168 0.43723,1.31168c-1.20361,1.27415 0.50745,0.51782 0.89585,1.86168l-0.03763,-0.78078c0,0 0.43722,-0.87445 1.31168,-0.43723z" fill="#ffffff"/><path d="M197.44964,233.59351c1.3997,0.93935 0.49447,6.24809 -1.49166,7.08937v0.91187c0,0.53996 -0.43771,0.97767 -0.97767,0.97767c-0.53996,0 -0.97767,-0.43771 -0.97767,-0.97767c0,-0.00503 0,-1.96542 0,-1.97045c-0.04407,-0.31473 -0.02623,-0.66898 -0.00746,-1.01997c-0.2132,-0.90479 -0.24299,-1.91981 0.00698,-2.77459c0.00032,-0.03368 0.00048,-0.06734 0.00048,-0.101v-1.95534v0c0,-0.53996 0.43771,-0.97767 0.97767,-0.97767c0.46526,0 0.85464,0.32502 0.95344,0.7604l0.03852,0.15405c0.51582,-0.26542 1.05544,-0.39982 1.47738,-0.11666z" fill="#000000"/><path d="M222.70069,242.02974c-0.11881,-1.67578 0.93773,-8.24733 4.25638,-5.68877c0.58865,0.45382 0.59858,7.15938 0.14034,7.72312c-1.57404,1.93643 -2.35218,1.67712 -2.73685,0.75088c-0.17484,0.16388 -0.40995,0.26424 -0.66848,0.26424c-0.53692,0 -0.97277,-0.43284 -0.97763,-0.96863l-0.02069,-1.95393l0.0179,-0.0002c-0.00431,-0.04213 -0.00798,-0.08436 -0.01098,-0.12671zM225.39261,239.3936c0.00106,-0.70031 0.05178,-1.32323 0.18184,-1.66999c0.10769,-0.28709 -0.32066,0.54192 -0.36169,0.84578c-0.00142,0.01052 -0.00279,0.02105 -0.0041,0.03158c0.05113,0.11858 0.07944,0.24931 0.07944,0.38666v0.36882c0.03689,0.01067 0.07169,0.02313 0.10451,0.03715z" fill="#000000"/><path d="M220.28457,177.57224c-0.50493,-0.58208 -0.87819,-1.16868 -1.14121,-1.91864l-0.35993,0.14397l-0.48947,-1.22368c-0.06432,-0.15061 -0.09994,-0.31643 -0.09994,-0.49056c0,-0.56154 0.37027,-1.0366 0.87999,-1.19433c-0.0832,-0.16738 -0.12999,-0.35607 -0.12999,-0.55567c0,-0.69036 0.55964,-1.25 1.25,-1.25c0.10968,0 0.21606,0.01413 0.31742,0.04066l0.51057,0.12201c-0.23057,-0.29458 -0.45368,-0.59679 -0.67138,-0.9139l-0.26642,0.22202l-1.5952,-1.91425c-0.18403,-0.21769 -0.29498,-0.49916 -0.29498,-0.80653c0,-0.69036 0.55964,-1.25 1.25,-1.25c0.27621,0 0.5315,0.08959 0.73838,0.24129l1.73817,1.24155l-0.00423,0.00592l0.02214,0.00711c1.75633,1.35068 3.51126,2.68809 5.33181,3.94374l-0.33546,-0.44597c-0.16216,-0.21084 -0.25858,-0.47485 -0.25858,-0.7614c0,-0.69036 0.55964,-1.25 1.25,-1.25c0.34518,0 0.65768,0.13991 0.88388,0.36611l1.69576,1.69577c0.49428,0.31019 1.25697,0.67793 2.01448,1.10518c-1.20623,-2.12314 -2.63425,-4.28851 -2.79802,-6.38467c-0.00692,-0.08858 -0.00889,-0.17677 -0.00659,-0.26462h-0.02175v-1.5c0,-0.69036 0.55964,-1.25 1.25,-1.25c0.3102,0 0.59401,0.11299 0.81252,0.30006l1.20934,1.02171l-0.02543,0.03009l0.12031,0.05893c0.10323,0.13209 0.2156,0.26753 0.33579,0.40595c-0.21169,-1.25332 -0.43337,-2.59845 -0.43551,-2.61125c0,0 -0.20549,-1.23299 1.0275,-1.43849c1.23299,-0.2055 1.43849,1.02749 1.43849,1.02749c0.23685,1.42109 0.15394,2.92882 0.68758,4.26703c0.86685,2.17382 2.77309,4.16169 3.96507,6.16615l-0.00578,0.1457l0.05599,-0.01866l0.49078,1.47232c0.04749,0.1321 0.07337,0.27451 0.07337,0.42297c0,0.69036 -0.55964,1.25 -1.25,1.25c-0.47329,0 -0.88513,-0.26304 -1.09734,-0.65089l-0.98796,-1.72893l0.06408,-0.03662c-1.12655,-1.09214 -2.20614,-2.22865 -3.24496,-3.40447c0.83991,1.67983 1.67477,3.36569 2.19431,5.15052l0.47194,1.17984c0.06432,0.15061 0.09993,0.31643 0.09993,0.49056c0,0.69036 -0.55964,1.25 -1.25,1.25c0,0.69036 -0.55964,1.25 -1.25,1.25c-0.26266,0 -0.5064,-0.08101 -0.70759,-0.21941l-2.0659,-1.37727l0.15488,-0.23233c-1.34485,-0.60766 -2.6328,-1.30801 -3.8851,-2.07383c-0.04958,0.64495 -0.58862,1.15284 -1.24628,1.15284c-0.29903,0 -0.57352,-0.105 -0.78864,-0.28014l-1.87084,-1.49667c-0.22676,-0.08364 -0.45336,-0.1677 -0.67978,-0.25224c0.04072,0.05093 0.08062,0.10052 0.11971,0.14822l1.15094,1.29712c0.19813,0.22119 0.31861,0.51337 0.31861,0.83369c0,0.46909 -0.25839,0.87782 -0.64059,1.09164l1.02447,1.02447l-0.58506,0.58506c0.19998,0.38919 0.39996,0.77838 0.59994,1.16757l-1.3135,-0.42484l-0.43862,0.46948l-1.00082,-0.93504c-0.5994,-0.56053 -1.11862,-1.02947 -1.56553,-1.46514l-0.35944,-0.28575c0,0 -0.23247,-0.18531 -0.3803,-0.48856z" fill="#6112ff"/><path d="M254.69402,152.58334c0,1.25 -1.25,1.25 -1.25,1.25l-0.2945,-0.01701c-1.29189,0.20664 -2.13428,0.44687 -3.0363,0.61001l-0.11609,0.06633l0.09217,0.27652l-1.47232,0.49077c-0.1321,0.04749 -0.27451,0.07337 -0.42297,0.07337c-0.55993,0 -1.03387,-0.36816 -1.19296,-0.87562c-0.04576,0.02229 -0.09175,0.04468 -0.13796,0.06716l-0.05615,-0.00172l0.00833,0.02144l-1.14204,0.44358c-0.14758,0.06131 -0.30945,0.09516 -0.47922,0.09516c-0.69036,0 -1.25,-0.55964 -1.25,-1.25c0,-0.41415 0.20142,-0.78127 0.51164,-1.00873l0.59137,-0.44353c-0.23431,0.0274 -0.4696,0.05061 -0.70607,0.0693l0.06193,0.36539l-1.99442,0.33801c-0.07527,0.01415 -0.15292,0.02155 -0.2323,0.02155c-0.69036,0 -1.25,-0.55964 -1.25,-1.25c0,-0.43617 0.2234,-0.82016 0.56202,-1.0438l2.05129,-1.39626l0.0104,0.01528l0.0441,-0.05034c0.41297,-0.22198 0.80323,-0.49258 1.18079,-0.7698c-0.20533,-0.22272 -0.33075,-0.52024 -0.33075,-0.84705c0,-0.28596 0.09603,-0.54948 0.25758,-0.7601l0.74242,-0.9899l0.00489,0.00366l0.00214,-0.00591c-1.24688,0.1928 -2.46767,0.2246 -3.02107,-0.26686c-0.62034,-0.55092 0.58535,-3.17117 1.37064,-4.48648c-0.00116,0.00046 -0.00233,0.0009 -0.00349,0.00133c-0.42276,0.15716 -0.90207,0.00284 -1.3531,0.00426c0,0 -1.25,0 -1.25,-1.25c0,-1.25 1.25,-1.25 1.25,-1.25c0.7267,0.0027 3.58337,-0.01071 3.68791,0.17366c0.58462,1.03107 -0.26664,2.35609 -0.44456,3.52793c-0.05023,0.33086 -0.04824,0.69049 -0.1265,1.01585c0.88289,-0.35777 1.98619,-0.48339 2.52431,-0.60899l0.01619,0.00203l-0.00109,-0.00526l1.56466,-0.32396c0.08974,-0.02047 0.18315,-0.03127 0.27909,-0.03127c0.69036,0 1.25,0.55964 1.25,1.25c0,0.41415 -0.20141,0.78127 -0.51163,1.00873l-0.98837,0.74127l-0.18255,-0.2434c-0.28078,0.2962 -0.56318,0.57599 -0.85228,0.87281l1.17222,-0.326c0.11477,-0.03473 0.2365,-0.0534 0.36261,-0.0534c0.69036,0 1.25,0.55964 1.25,1.25c0,0.52567 -0.32448,0.97556 -0.78408,1.16028l-0.36061,0.15455c0.79316,-0.17319 1.52692,-0.34301 2.12112,-0.54126l2.10061,-0.7002c0.1321,-0.04749 0.27451,-0.07337 0.42297,-0.07337c0.69036,0 1.25,0.55964 1.25,1.25c0,0.42123 -0.20836,0.7938 -0.52764,1.02027l-0.98336,0.71518c0.16362,0.21135 0.261,0.47658 0.261,0.76456c0,0.39855 -0.18652,0.75353 -0.47703,0.98242c0.13459,0.18018 0.22703,0.42767 0.22703,0.76758z" fill="#6112ff"/><path d="M303.3874,166.3734l-0.95098,0.60887l-1.7246,0.73911c-0.15777,0.0719 -0.3331,0.11195 -0.5178,0.11195c-0.69036,0 -1.25,-0.55964 -1.25,-1.25c0,-0.01194 0.00016,-0.02384 0.0005,-0.03571c-1.83141,0.66121 -3.55592,1.42487 -5.36414,2.04418l0.15681,0.34497l-2.25149,1.02341c-0.16388,0.07892 -0.34762,0.12314 -0.54168,0.12314c-0.69036,0 -1.25,-0.55964 -1.25,-1.25c0,-0.02198 0.00057,-0.04382 0.00169,-0.06553c-0.47524,0.28804 -0.96093,0.53617 -1.46266,0.7178c-0.3897,0.23218 -0.78124,0.46151 -1.17541,0.68674l-0.00777,0.00151l0.0012,0.00216l-2.16555,1.20308c-0.18429,0.10704 -0.39844,0.16834 -0.6269,0.16834c-0.69036,0 -1.25,-0.55964 -1.25,-1.25c0,-0.45759 0.24588,-0.85776 0.61273,-1.07559l2.10921,-1.30053l0.05898,0.09565l0.04248,-0.0236c0.91131,-0.52084 1.82013,-1.09993 2.7353,-1.68899c-1.38581,0.52141 -2.78297,0.99585 -4.19403,1.38181l0.1139,0.25058l-2.25149,1.02341c-0.16388,0.07892 -0.34762,0.12314 -0.54168,0.12314c-0.69036,0 -1.25,-0.55964 -1.25,-1.25c0,-0.41415 0.20142,-0.78127 0.51164,-1.00873l0.98836,-0.74127c2.4348,-1.82452 5.04089,-3.33247 7.41695,-5.23339c0.64041,-0.51235 1.28848,-1.01525 1.92207,-1.53601c0.16353,-0.13441 0.32077,-0.27704 0.47692,-0.42102c-0.63448,0.22251 -1.30106,0.3738 -1.86465,0.60887c-2.77549,1.15764 -5.24759,2.72543 -7.86179,4.08884l0.15131,0.19455l-1.96459,1.52801c-0.21322,0.16914 -0.48292,0.27015 -0.77622,0.27015c-0.69036,0 -1.25,-0.55964 -1.25,-1.25c0,-0.31712 0.11809,-0.60664 0.31268,-0.82702l0.94963,-1.08696l0.04383,0.0383l0.04634,-0.1313c0.91323,-0.691 1.77653,-1.44697 2.66409,-2.17095c-1.19934,0.65043 -2.43179,1.26269 -3.41255,1.37676c-0.0729,0.00848 -0.14578,0.01492 -0.21866,0.0195l0.00267,0.02404l-2.23195,0.248c-0.05113,0.00637 -0.10323,0.00965 -0.15609,0.00965c-0.69036,0 -1.25,-0.55964 -1.25,-1.25c0,-0.39586 0.18402,-0.74876 0.47118,-0.97779l1.46666,-1.18926c0.82378,-0.71525 1.79517,-1.70436 2.83221,-2.60452c-1.07754,0.37316 -2.15395,0.63709 -3.03497,0.52148c-0.95758,-0.12566 -2.53489,-0.3491 -2.58243,-1.31372c-0.06216,-1.26138 1.46084,-2.07986 2.37209,-2.95427c0.0007,-0.00068 0.00141,-0.00136 0.00212,-0.00204c-0.04969,0.01341 -0.09606,0.02639 -0.1384,0.03893c-0.80487,0.23846 -1.62653,0.42201 -2.45693,0.56197l0.05928,0.21738l-2.38429,0.65026c-0.11298,0.03356 -0.23264,0.05158 -0.35652,0.05158c-0.69036,0 -1.25,-0.55964 -1.25,-1.25c0,-0.28596 0.09602,-0.54948 0.25758,-0.7601l0.74242,-0.9899l0.02617,0.01963l0.02952,-0.08863c0.57534,-0.5771 1.08839,-1.28267 1.61684,-1.95155c-0.28864,0.0822 -0.57843,0.16009 -0.86935,0.23324c0,0 -1.21267,0.30317 -1.51585,-0.90951c-0.30317,-1.21268 0.90951,-1.51585 0.90951,-1.51585c1.41753,-0.3522 2.8046,-0.83231 4.16012,-1.37639l1.40249,-0.561c0.15062,-0.06432 0.31643,-0.09993 0.49056,-0.09993c0.69036,0 1.25,0.55964 1.25,1.25c0,0.34518 -0.13991,0.65768 -0.36612,0.88388l-1.5,1.5l-0.11141,-0.11141c-0.43234,0.63988 -0.8853,1.25388 -1.37038,1.85548c0.95499,-0.3764 1.97796,-0.5938 2.94099,-0.61806c0.81766,-0.0206 2.03754,-0.24343 2.40485,0.48737c0.55563,1.10547 0.13082,2.44408 -0.71024,3.44428c0.86773,-0.28425 1.72649,-0.59716 2.59289,-0.88571l0.02801,-0.00069l-0.00201,-0.00704l1.72224,-0.49207c0.11726,-0.03642 0.24192,-0.05603 0.37116,-0.05603c0.69036,0 1.25,0.55964 1.25,1.25c0,0.23358 -0.06407,0.45219 -0.17559,0.63923l-0.98911,1.73094l-0.01635,-0.00934c-0.03207,0.06095 -0.0658,0.12116 -0.10136,0.18055c-0.16967,0.28337 -0.38902,0.56355 -0.64467,0.83998c0.94547,-0.34921 1.84151,-0.61676 2.57663,-0.77439c1.06381,-0.22812 2.49138,-0.99119 3.25672,-0.21788c0.3721,0.37598 0.38948,0.93181 0.25245,1.50856c0.59589,-0.17782 1.14411,-0.30891 1.61512,-0.38618c1.18455,-0.19434 2.65754,-0.90382 3.59773,-0.1575c2.23377,1.77316 -1.53336,4.47775 -2.16027,5.02881c-0.24007,0.21102 -0.48289,0.41755 -0.72812,0.6202c1.36907,-0.41881 2.65105,-0.80148 3.66066,-1.20115l0.11914,0.01299l-0.00811,-0.04054l1.22469,-0.24494c0.08709,-0.01921 0.17759,-0.02934 0.27046,-0.02934c0.69036,0 1.25,0.55964 1.25,1.25c0,0.2933 -0.10101,0.563 -0.27015,0.77622l-1.52801,1.96458l-0.01893,-0.01472c-0.02753,0.03627 -0.05563,0.07217 -0.08434,0.10765c1.406,-0.47298 2.89963,-0.78333 4.23659,-1.133l0.08529,0.01389l-0.00335,-0.02689l1.40867,-0.17569c0.05694,-0.00794 0.11511,-0.01205 0.17423,-0.01205c0.69036,0 1.25,0.55964 1.25,1.25c0,0.17541 -0.03613,0.34237 -0.10135,0.49386c0.46121,0.93521 -0.45528,1.54621 -0.45528,1.54621z" fill="#6112ff"/><path d="M283.40169,197.06912c0.30714,0.10017 0.62054,0.33983 0.75502,0.87771c0.30317,1.21268 -0.90951,1.51585 -0.90951,1.51585l-0.5223,0.0134l-1.25,1l-0.41451,-0.51813c-0.43259,0.12524 -0.86518,0.25046 -1.29778,0.3757l0.5511,-1.21396l-0.438,-0.438l-0.35019,0.17509c-0.1737,0.09145 -0.37156,0.14321 -0.58151,0.14321c-0.69036,0 -1.25,-0.55964 -1.25,-1.25c0,-0.21716 0.05539,-0.4214 0.15279,-0.59934l0.8259,-1.58429l0.00444,0.00231l0.00355,-0.01737c0.34509,-0.60975 0.59457,-1.32663 0.93914,-1.95072c-0.14592,0.05917 -0.29188,0.11823 -0.42967,0.18885c-0.73767,0.37806 -1.4776,0.75174 -2.21407,1.13212c-0.82705,0.42717 -1.55152,1.18605 -2.47649,1.2905c-0.10213,0.01153 -0.20397,0.01694 -0.30558,0.01707v0.02086h-1.75v0c-0.69036,0 -1.25,-0.55964 -1.25,-1.25c0,-0.28557 0.09577,-0.54879 0.25694,-0.75926l1.1306,-1.51031c0.21674,-0.39423 0.45371,-0.78987 0.71764,-1.16573c-1.71132,0.95884 -3.66032,2.24381 -5.0442,2.396c-0.10388,0.01143 -0.20753,0.01723 -0.31098,0.01816v0.02114h-2c-0.69036,0 -1.25,-0.55964 -1.25,-1.25c0,-0.29903 0.105,-0.57352 0.28013,-0.78865l0.90686,-1.13357c-0.39651,0.24266 -0.79465,0.44478 -1.19804,0.54565c-0.20536,0.25947 -0.41185,0.51749 -0.61899,0.77415l-0.16456,0.04295l0.0446,0.05947l-0.9899,0.74242c-0.21062,0.16155 -0.47415,0.25758 -0.7601,0.25758c-0.69036,0 -1.25,-0.55964 -1.25,-1.25c0,-0.29903 0.105,-0.57352 0.28013,-0.78865l0.99378,-1.24222l0.24472,0.19577c0.18397,-0.2634 0.38479,-0.60247 0.59945,-0.97181c-1.137,0.18026 -2.28777,0.00148 -3.36808,-0.6931c0,0 -1,-0.75 -0.25,-1.75c0.75,-1 1.75,-0.25 1.75,-0.25c0.93132,1.01683 3.20769,-0.37979 4.19406,-1.11956l0.23732,0.00441l-0.02479,-0.08675l1.72224,-0.49207c0.11726,-0.03642 0.24192,-0.05603 0.37116,-0.05603c0.69036,0 1.25,0.55964 1.25,1.25c0,0.0857 -0.00862,0.16939 -0.02505,0.25025c0.00833,-0.00017 0.01668,-0.00025 0.02505,-0.00025c0.69036,0 1.25,0.55964 1.25,1.25c0,0.13508 -0.02143,0.26515 -0.06107,0.38701l-0.71002,2.36674l-0.38716,-0.11614c-0.06491,0.19279 -0.13569,0.38276 -0.21305,0.56915c1.65104,-1.06906 3.71098,-1.76022 5.4112,-2.35743l1.21053,-0.49551c0.15301,-0.06678 0.32196,-0.10383 0.49957,-0.10383c0.69036,0 1.25,0.55964 1.25,1.25c0,0.20995 -0.05176,0.4078 -0.14321,0.58151l-1.10679,2.21357l-0.1751,-0.08755c-0.13258,0.34896 -0.27355,0.69432 -0.42425,1.03498c1.35339,-0.89369 3.09912,-1.65185 4.11578,-1.89519c0.91344,-0.21863 2.23059,-1.03662 2.80258,-0.29165c0.99076,1.29038 0.3566,3.01908 -0.40222,4.45622c0.34503,0.0811 0.74576,0.3386 1.2171,0.85422c0.29131,0.31868 0.33921,0.74662 0.32378,1.203z" fill="#6112ff"/><path d="M259.95936,172.81721l0.97294,-0.59789c1.5745,-1.56441 3.28544,-3.01901 5.15683,-4.21245c0.65235,-0.41602 1.28666,-0.87729 1.99838,-1.18075c0.42026,-0.17919 1.62816,0.11494 1.34831,-0.24619c-0.3384,-0.43669 -1.14799,0.08377 -1.65109,-0.14453c-1.01662,-0.46132 -1.90848,-1.1699 -2.78081,-1.86659c-3.11014,-2.48391 -6.4042,-5.21745 -9.27541,-7.97163c0.04423,0.16427 0.08488,0.30953 0.12258,0.43125c0.92381,2.98248 2.86548,7.00237 3.13611,10.07172c0.19204,2.17805 -0.99902,3.63159 -0.59508,5.77991l0.65933,1.09889c0.26283,-0.73168 0.9079,-1.16174 0.9079,-1.16174zM252.07773,149.41918c0,0 0.4263,-2.1315 2.5578,-1.7052c2.1315,0.4263 1.7052,2.5578 1.7052,2.5578c-0.88342,1.79293 2.08724,3.24491 3.55366,4.38152c3.43972,2.66607 6.93138,5.388 10.30187,8.16482c1.2558,1.0346 3.44217,1.71104 3.56583,3.33342c0.12873,1.68872 -1.82163,2.88395 -2.99912,4.10125c-1.88306,1.94671 -4.75601,3.02522 -6.75657,5.04063l-1.63552,1.14108c0,0 -1.3965,0.931 -2.55335,-0.07027c-0.20117,0.99249 -1.07852,1.73957 -2.13036,1.73957c-0.19887,0 -0.3915,-0.0267 -0.5745,-0.07672l-3.43066,-0.85766l0.01931,-0.07725c-0.21839,-0.05109 -0.43444,-0.11384 -0.64771,-0.19048c-1.79146,-0.64367 -2.52976,-2.88432 -4.06132,-4.01481l-1.20576,-0.79981c0,0 -0.54745,-0.36496 -0.83917,-0.99449c-0.16939,0.03564 -0.35661,0.05533 -0.56352,0.05533c-2.17372,0 -2.17372,-2.17372 -2.17372,-2.17372c0.02151,-4.85511 1.46367,-10.25112 4.07421,-14.32562c0.97024,-1.51435 1.3908,-4.12484 3.17338,-4.36363c0.15309,-0.02051 0.30086,-0.02466 0.44352,-0.01388c0.07778,-0.28721 0.1463,-0.57283 0.17649,-0.85188zM248.57231,168.09973c0.86421,-0.13765 1.62576,0.37005 1.62576,0.37005l1.4027,0.93916c0.82507,0.62664 1.54901,1.22999 2.18178,1.88927c0.09757,-1.329 0.99281,-2.59515 0.86563,-3.92792c-0.18964,-1.98719 -1.56752,-4.56084 -2.1051,-6.53304c-0.11291,-0.41421 -0.56149,-1.66567 -0.95986,-2.86728c-0.57638,1.0292 -1.31163,1.91486 -1.40832,2.15683c-0.91813,2.29777 -1.5034,5.35713 -1.60259,7.97293z" fill="#66ddff"/><path d="M253.14777,171.34475c-0.69323,1.04016 -1.73339,0.34693 -1.73339,0.34693l-1.42085,-1.28112c-0.21049,-1.19771 -1.3403,-3.30006 -0.40144,-3.54083l-1.08186,-1.21709c-0.19853,-0.22128 -0.31929,-0.51377 -0.31929,-0.83446c0,-0.39084 0.17937,-0.73978 0.46028,-0.96899c-0.88764,-0.8015 -1.66849,-1.61778 -2.38538,-2.57673l-0.1384,0.16146l-1.1605,-0.99471c-0.27078,-0.22929 -0.44268,-0.57175 -0.44268,-0.95436c0,-0.69036 0.55964,-1.25 1.25,-1.25c0.20719,0 0.40262,0.05041 0.57467,0.13964l1.30177,0.64045c0.28241,0.13192 0.64503,0.26601 1.04023,0.41205v-0.44596c-0.31054,-0.22351 -0.71094,-0.67984 -0.41668,-1.4449c0.23886,-0.62103 0.68114,-0.78434 1.04261,-0.80125c0.18365,-0.10602 0.39678,-0.16669 0.62407,-0.16669c0.34518,0 0.65768,0.13991 0.88388,0.36612l0.49019,0.49019c0.38655,0.16443 0.7731,0.32887 1.15965,0.4933l0.05438,0.50549l0.22749,-0.0975l0.48911,1.14127c0.0719,0.15777 0.11195,0.33311 0.11195,0.5178c0,0.24016 -0.06773,0.46449 -0.18512,0.65496l0.87965,1.02626c0.1903,0.21933 0.30547,0.50561 0.30547,0.81878c0,0.69036 -0.55964,1.25 -1.25,1.25c-0.05286,0 -0.10495,-0.00328 -0.15609,-0.00965l-0.5987,-0.06652c0.16322,0.1499 0.31747,0.28454 0.46081,0.39826l0.0396,0.07396l0.0185,-0.01802l1.2973,1.33243c0.21981,0.22528 0.35524,0.53326 0.35524,0.87287c0,0.69036 -0.55964,1.25 -1.25,1.25c-0.10745,0 -0.21174,-0.01356 -0.31125,-0.03906c-0.00394,0.12756 -0.0115,0.2629 -0.02285,0.40647c-0.03941,0.49853 -1.29388,-0.0834 -1.44806,0.39233c-0.16492,0.50887 0.59174,0.8913 0.88761,1.33695l0.42111,-0.05352c0,0 1.04016,0.69323 0.34693,1.73339z" fill="#60bcf0"/><path d="M265.15624,171.3772c-0.55902,-1.11803 0.55902,-1.67705 0.55902,-1.67705l0.2853,-0.14133c0.46439,-0.25558 0.94709,-0.48038 1.39316,-0.76673c0.04954,-0.0318 0.09762,-0.06562 0.14468,-0.10086c-1.77697,0.92141 -4.34227,1.41 -5.37602,-0.34089c-0.09833,-0.16654 -0.09661,-0.33182 -0.03224,-0.49631c-0.97799,0.4483 -1.82825,0.75346 -2.76198,0.961l0.06518,0.15208l-1.14127,0.48911c-0.15777,0.0719 -0.33311,0.11195 -0.5178,0.11195c-0.69036,0 -1.25,-0.55964 -1.25,-1.25c0,-0.23358 0.06407,-0.4522 0.17559,-0.63923l0.65578,-1.14761l0.00393,0.00225l0.00272,-0.01376c0.07192,-0.11957 0.14063,-0.23938 0.20699,-0.35869c-0.77497,0.18906 -1.54443,0.259 -2.17889,-0.12575c-0.39855,-0.24168 -0.26596,-2.08176 0.23316,-3.30967c-0.90242,-0.49249 -0.51969,-1.51312 -0.51969,-1.51312c1.1532,-1.68698 2.03617,-4.48285 3.91481,0.15399c0.2189,0.54029 0.0349,1.14568 -0.29891,1.70154c0.46563,-0.29198 0.88392,-0.53521 1.007,-0.61016l1.28741,-0.96556c0.21062,-0.16156 0.47415,-0.25758 0.7601,-0.25758c0.69036,0 1.25,0.55964 1.25,1.25c0,0.2933 -0.10101,0.563 -0.27015,0.77622l-1.15983,1.49121l-0.20056,-0.15599c-0.17657,0.33522 -0.35984,0.66113 -0.55285,0.99196c0.38414,-0.12241 0.75774,-0.24582 1.06183,-0.39825l0.02346,-0.0043l-0.00249,-0.00547l1.80891,-0.82223c0.16388,-0.07892 0.34762,-0.12315 0.54168,-0.12315c0.69036,0 1.25,0.55964 1.25,1.25c0,0.18794 -0.04148,0.36619 -0.11578,0.5261l-0.53759,1.22878c0.80572,0.01555 3.70725,-3.65943 5.97515,-1.25743c2.30392,2.44016 -2.34364,5.04067 -3.63139,5.76191l-0.38137,0.192c0,0 -1.11803,0.55902 -1.67705,-0.55902z" fill="#60bcf0"/></g></g></svg>