<svg version="1.1" xmlns="http://www.w3.org/2000/svg" xmlns:xlink="http://www.w3.org/1999/xlink" width="173.82325" height="103.92411" viewBox="0,0,173.82325,103.92411"><defs><linearGradient x1="240" y1="128.03796" x2="240" y2="231.96207" gradientUnits="userSpaceOnUse" id="color-1"><stop offset="0" stop-color="#ffee78" stop-opacity="0"/><stop offset="1" stop-color="#ffee78"/></linearGradient><linearGradient x1="293.875" y1="135.55245" x2="293.875" y2="182.94752" gradientUnits="userSpaceOnUse" id="color-2"><stop offset="0" stop-color="#fbff00"/><stop offset="1" stop-color="#d8c500"/></linearGradient><linearGradient x1="293.5716" y1="136.79829" x2="293.5716" y2="147.59939" gradientUnits="userSpaceOnUse" id="color-3"><stop offset="0" stop-color="#925c00"/><stop offset="1" stop-color="#918f00"/></linearGradient><linearGradient x1="294.05705" y1="181.459" x2="294.05705" y2="170.65791" gradientUnits="userSpaceOnUse" id="color-4"><stop offset="0" stop-color="#925c00"/><stop offset="1" stop-color="#918f00"/></linearGradient><linearGradient x1="270.81649" y1="159.79613" x2="281.61758" y2="159.79613" gradientUnits="userSpaceOnUse" id="color-5"><stop offset="0" stop-color="#925c00"/><stop offset="1" stop-color="#918f00"/></linearGradient><linearGradient x1="316.93354" y1="159.31069" x2="306.13243" y2="159.31069" gradientUnits="userSpaceOnUse" id="color-6"><stop offset="0" stop-color="#925c00"/><stop offset="1" stop-color="#918f00"/></linearGradient><linearGradient x1="277.21394" y1="174.19156" x2="281.24724" y2="170.15825" gradientUnits="userSpaceOnUse" id="color-7"><stop offset="0" stop-color="#925c00"/><stop offset="1" stop-color="#918f00"/></linearGradient><linearGradient x1="309.64564" y1="143.45892" x2="305.61234" y2="147.49223" gradientUnits="userSpaceOnUse" id="color-8"><stop offset="0" stop-color="#925c00"/><stop offset="1" stop-color="#918f00"/></linearGradient><linearGradient x1="278.06346" y1="144.06572" x2="282.09677" y2="148.09903" gradientUnits="userSpaceOnUse" id="color-9"><stop offset="0" stop-color="#925c00"/><stop offset="1" stop-color="#918f00"/></linearGradient><linearGradient x1="310.49517" y1="173.94885" x2="306.46186" y2="169.91555" gradientUnits="userSpaceOnUse" id="color-10"><stop offset="0" stop-color="#925c00"/><stop offset="1" stop-color="#918f00"/></linearGradient><radialGradient cx="293.99551" cy="158.90827" r="2.12135" gradientUnits="userSpaceOnUse" id="color-11"><stop offset="0" stop-color="#000000"/><stop offset="1" stop-color="#4c4c4c"/></radialGradient></defs><g transform="translate(-153.08838,-128.03796)"><g data-paper-data="{&quot;isPaintingLayer&quot;:true}" fill-rule="nonzero" stroke-linejoin="miter" stroke-miterlimit="10" stroke-dasharray="" stroke-dashoffset="0" style="mix-blend-mode: normal"><path d="M153.08838,231.96207v-103.92411h173.82325v103.92411z" fill="url(#color-1)" stroke="none" stroke-width="0" stroke-linecap="butt"/><text transform="translate(169.0828,167.63743) scale(0.5,0.5)" font-size="40" xml:space="preserve" fill="#000000" fill-rule="nonzero" stroke="none" stroke-width="1" stroke-linecap="butt" stroke-linejoin="miter" stroke-miterlimit="10" stroke-dasharray="" stroke-dashoffset="0" font-family="Sans Serif" font-weight="normal" text-anchor="start" style="mix-blend-mode: normal"><tspan x="0" dy="0">Time Trial</tspan></text><text transform="translate(156.99547,201.68397) scale(0.5,0.5)" font-size="40" xml:space="preserve" fill="#000000" fill-rule="nonzero" stroke="none" stroke-width="1" stroke-linecap="butt" stroke-linejoin="miter" stroke-miterlimit="10" stroke-dasharray="" stroke-dashoffset="0" font-family="Sans Serif" font-weight="normal" text-anchor="start" style="mix-blend-mode: normal"><tspan x="0" dy="0">Get to the end as </tspan><tspan x="0" dy="46.15px"> soon as possible</tspan></text><path d="M270.17748,159.25c0,-13.08777 10.60975,-23.6975 23.69752,-23.6975c13.08777,0 23.69752,10.60973 23.69752,23.6975c0,13.08777 -10.60975,23.69752 -23.69752,23.69752c-13.08777,0 -23.69752,-10.60975 -23.69752,-23.69752z" fill="url(#color-2)" stroke="#925c00" stroke-width="2.5" stroke-linecap="butt"/><path d="M293.5716,136.79829v10.80109" fill="none" stroke="url(#color-3)" stroke-width="2.5" stroke-linecap="round"/><path d="M294.05705,181.45902v-10.80111" data-paper-data="{&quot;index&quot;:null}" fill="none" stroke="url(#color-4)" stroke-width="2.5" stroke-linecap="round"/><path d="M281.61758,159.79613h-10.80111" data-paper-data="{&quot;index&quot;:null}" fill="none" stroke="url(#color-5)" stroke-width="2.5" stroke-linecap="round"/><path d="M316.93354,159.31069h-10.80111" data-paper-data="{&quot;index&quot;:null}" fill="none" stroke="url(#color-6)" stroke-width="2.5" stroke-linecap="round"/><path d="M277.21394,174.19156l4.0333,-4.0333" data-paper-data="{&quot;index&quot;:null}" fill="none" stroke="url(#color-7)" stroke-width="2" stroke-linecap="round"/><path d="M305.61234,147.49223l4.0333,-4.0333" data-paper-data="{&quot;index&quot;:null}" fill="none" stroke="url(#color-8)" stroke-width="2" stroke-linecap="round"/><path d="M278.06346,144.06572l4.0333,4.0333" data-paper-data="{&quot;index&quot;:null}" fill="none" stroke="url(#color-9)" stroke-width="2" stroke-linecap="round"/><path d="M310.49517,173.94885l-4.0333,-4.0333" data-paper-data="{&quot;index&quot;:null}" fill="none" stroke="url(#color-10)" stroke-width="2" stroke-linecap="round"/><g stroke-width="1.5"><path d="M292.3124,157.61706c0.71311,-0.92955 2.04477,-1.10501 2.97434,-0.39189c0.92955,0.71311 1.10501,2.04479 0.39189,2.97434c-0.71312,0.92957 -2.04479,1.10501 -2.97434,0.39189c-0.92955,-0.71311 -1.10501,-2.04479 -0.39189,-2.97434z" fill="url(#color-11)" stroke="none" stroke-linecap="butt"/><path d="M298.91944,146.5536l4.92328,-0.64868l0.64868,4.92328" fill="none" stroke="#000000" stroke-linecap="round"/><path d="M303.73117,146.16197l-9.80399,12.77955" fill="none" stroke="#000000" stroke-linecap="round"/></g></g></g></svg>