<svg version="1.1" xmlns="http://www.w3.org/2000/svg" xmlns:xlink="http://www.w3.org/1999/xlink" width="90.19542" height="97.14937" viewBox="0,0,90.19542,97.14937"><defs><linearGradient x1="237.98579" y1="192.82988" x2="237.98579" y2="269.54892" gradientUnits="userSpaceOnUse" id="color-1"><stop offset="0" stop-color="#6f4100"/><stop offset="1" stop-color="#2a4c00"/></linearGradient><linearGradient x1="218.86692" y1="180.36808" x2="218.86692" y2="272.1468" gradientUnits="userSpaceOnUse" id="color-2"><stop offset="0" stop-color="#6f4100"/><stop offset="1" stop-color="#2a4c00"/></linearGradient><linearGradient x1="262.29748" y1="180.38121" x2="262.29748" y2="272.1599" gradientUnits="userSpaceOnUse" id="color-3"><stop offset="0" stop-color="#6f4100"/><stop offset="1" stop-color="#2a4c00"/></linearGradient><linearGradient x1="238.69614" y1="166.33336" x2="238.69614" y2="194.25059" gradientUnits="userSpaceOnUse" id="color-4"><stop offset="0" stop-color="#269600"/><stop offset="1" stop-color="#c3bd6a"/></linearGradient><linearGradient x1="209.23334" y1="188.20004" x2="209.23334" y2="218.00004" gradientUnits="userSpaceOnUse" id="color-5"><stop offset="0" stop-color="#136b16"/><stop offset="1" stop-color="#4bbb22"/></linearGradient><linearGradient x1="229.23334" y1="195.00004" x2="229.23334" y2="224.80003" gradientUnits="userSpaceOnUse" id="color-6"><stop offset="0" stop-color="#136b16"/><stop offset="1" stop-color="#4bbb22"/></linearGradient><linearGradient x1="253.43334" y1="194.20004" x2="253.43334" y2="224.00004" gradientUnits="userSpaceOnUse" id="color-7"><stop offset="0" stop-color="#136b16"/><stop offset="1" stop-color="#4bbb22"/></linearGradient><linearGradient x1="272.43334" y1="187.20004" x2="272.43334" y2="217.00004" gradientUnits="userSpaceOnUse" id="color-8"><stop offset="0" stop-color="#136b16"/><stop offset="1" stop-color="#4bbb22"/></linearGradient><linearGradient x1="239.75" y1="167.37023" x2="239.75" y2="188.08351" gradientUnits="userSpaceOnUse" id="color-9"><stop offset="0" stop-color="#fff640"/><stop offset="1" stop-color="#b0842c"/></linearGradient></defs><g transform="translate(-193.65385,-161.74065)"><g data-paper-data="{&quot;isPaintingLayer&quot;:true}" fill-rule="nonzero" stroke-linejoin="miter" stroke-miterlimit="10" stroke-dasharray="" stroke-dashoffset="0" style="mix-blend-mode: normal"><path d="M238.89862,255.68226l-19.16915,-61.36062l40.56165,-0.85243z" fill="url(#color-1)" stroke="#292800" stroke-width="2" stroke-linecap="round"/><path d="M238.78664,255.02504l-41.83345,-75.90825l22.39068,15.97609z" fill="url(#color-2)" stroke="#292800" stroke-width="2" stroke-linecap="round"/><path d="M260.54186,193.40112l20.13026,-11.27859l-41.09438,71.91562z" data-paper-data="{&quot;index&quot;:null}" fill="url(#color-3)" stroke="#292800" stroke-width="2" stroke-linecap="round"/><path d="M221.96713,166.33336c0,0 10.46478,0 16.06622,0c6.1409,0 19.3098,0 19.3098,0l24.72058,13.21273c0,0 -6.68937,5.53532 -10.36332,7.61958c-3.71339,2.10664 -11.79996,4.95382 -11.79996,4.95382c0,0 -14.34808,1.98284 -21.29117,2.16556c-6.5282,0.1718 -19.19944,-1.10002 -19.19944,-1.10002c0,0 -8.21062,-4.35045 -12.02598,-7.0757c-4.11762,-2.94116 -11.84216,-9.97297 -11.84216,-9.97297z" fill="url(#color-4)" stroke="#2a6a13" stroke-width="2" stroke-linecap="round"/><path d="M208.83334,224.40004c0,0 -3.55691,-13.01048 -3.52209,-15.60432c0.07079,-5.27392 4.12209,-20.59568 4.12209,-20.59568" fill="none" stroke="url(#color-5)" stroke-width="2" stroke-linecap="round"/><path d="M229.43334,195.00004c0,0 2.44958,9.60664 2.37991,14.79705c-0.06299,4.69266 -2.77991,15.00295 -2.77991,15.00295" fill="none" stroke="url(#color-6)" stroke-width="2" stroke-linecap="round"/><path d="M253.63334,194.20004c0,0 -2.4905,6.72128 -1.87598,11.33013c0.25669,1.92519 -5.09662,6.71819 -4.12286,9.74812c1.70469,5.30427 -2.20116,8.92175 -2.20116,8.92175" fill="none" stroke="url(#color-7)" stroke-width="2" stroke-linecap="round"/><path d="M272.23334,217.00004c0,0 -2.861,-9.55501 -2.79325,-14.60259c0.0655,-4.8801 3.19325,-15.19741 3.19325,-15.19741" fill="none" stroke="url(#color-8)" stroke-width="2" stroke-linecap="round"/><path d="M258.5214,177.72687c0,5.71981 -8.15424,6.10663 -18.5214,6.10663c-10.36716,0 -19.0214,-0.38682 -19.0214,-6.10663c0,-5.71981 8.50382,-15.23621 18.87098,-15.23621c10.36716,0 18.67182,9.5164 18.67182,15.23621z" fill="url(#color-9)" stroke="#000000" stroke-width="1.5" stroke-linecap="butt"/><text transform="translate(234.7286,180.74066) scale(0.5,0.5)" font-size="40" xml:space="preserve" fill="#000000" fill-rule="nonzero" stroke="none" stroke-width="1" stroke-linecap="butt" stroke-linejoin="miter" stroke-miterlimit="10" stroke-dasharray="" stroke-dashoffset="0" font-family="Handwriting" font-weight="normal" text-anchor="start" style="mix-blend-mode: normal"><tspan x="0" dy="0">7</tspan></text></g></g></svg>