<svg version="1.1" xmlns="http://www.w3.org/2000/svg" xmlns:xlink="http://www.w3.org/1999/xlink" width="112.29455" height="103.29316" viewBox="0,0,112.29455,103.29316"><defs><linearGradient x1="208.97342" y1="184.46696" x2="208.97342" y2="242.48259" gradientUnits="userSpaceOnUse" id="color-1"><stop offset="0" stop-color="#ca6b00"/><stop offset="1" stop-color="#6f3700"/></linearGradient><linearGradient x1="209.85772" y1="184.46696" x2="209.85772" y2="240.98258" gradientUnits="userSpaceOnUse" id="color-2"><stop offset="0" stop-color="#4e3100"/><stop offset="1" stop-color="#502800"/></linearGradient><linearGradient x1="235.37345" y1="141.01164" x2="235.37345" y2="183.18042" gradientUnits="userSpaceOnUse" id="color-3"><stop offset="0" stop-color="#ff8931"/><stop offset="1" stop-color="#8a5800"/></linearGradient><linearGradient x1="235.04012" y1="141.51166" x2="235.04012" y2="183.18043" gradientUnits="userSpaceOnUse" id="color-4"><stop offset="0" stop-color="#693c22"/><stop offset="1" stop-color="#482e17"/></linearGradient><linearGradient x1="257.6665" y1="146.11488" x2="257.6665" y2="188.28364" gradientUnits="userSpaceOnUse" id="color-5"><stop offset="0" stop-color="#ff8931"/><stop offset="1" stop-color="#a06600"/></linearGradient><linearGradient x1="263.37196" y1="148.95613" x2="263.37196" y2="239.0907" gradientUnits="userSpaceOnUse" id="color-6"><stop offset="0" stop-color="#4e3100"/><stop offset="1" stop-color="#502800"/></linearGradient><linearGradient x1="253.92457" y1="140.74304" x2="253.92457" y2="152.71679" gradientUnits="userSpaceOnUse" id="color-7"><stop offset="0" stop-color="#428429"/><stop offset="1" stop-color="#184d18"/></linearGradient><linearGradient x1="206.81275" y1="139.11533" x2="206.81275" y2="202.70341" gradientUnits="userSpaceOnUse" id="color-8"><stop offset="0" stop-color="#00ff15"/><stop offset="1" stop-color="#dcff61"/></linearGradient><linearGradient x1="207.72695" y1="161.42455" x2="207.72695" y2="184.52336" gradientUnits="userSpaceOnUse" id="color-9"><stop offset="0" stop-color="#29a000"/><stop offset="1" stop-color="#185b00"/></linearGradient><linearGradient x1="208.21191" y1="161.02991" x2="208.21191" y2="181.74319" gradientUnits="userSpaceOnUse" id="color-10"><stop offset="0" stop-color="#fff640"/><stop offset="1" stop-color="#b0842c"/></linearGradient></defs><g transform="translate(-169.77352,-139.69288)"><g data-paper-data="{&quot;isPaintingLayer&quot;:true}" fill-rule="nonzero" stroke-linejoin="miter" stroke-miterlimit="10" stroke-dasharray="" stroke-dashoffset="0" style="mix-blend-mode: normal"><path d="M245.67054,183.9701l-0.34439,57.01249l-72.27916,-54.77826z" fill="url(#color-1)" stroke="url(#color-2)" stroke-width="2" stroke-linecap="round"/><path d="M224.11099,160.39358l2.66666,-18.88192l19.1916,12.6432l-0.90484,29.02557z" fill="url(#color-3)" stroke="url(#color-4)" stroke-width="2" stroke-linecap="round"/><path d="M247.16813,237.5907l-0.76411,-83.14249l33.93589,-5.49208z" fill="url(#color-5)" stroke="url(#color-6)" stroke-width="2" stroke-linecap="round"/><path d="M278.65353,147.29116l-31.7418,5.42563l-17.96611,-11.97375l36.25977,0.53718z" fill="#73ff00" stroke="url(#color-7)" stroke-width="2" stroke-linecap="round"/><path d="M191.61956,161.8614l31.86848,-0.43685l19.97282,21.96619l-71.46782,1.13262z" fill="url(#color-8)" stroke="url(#color-9)" stroke-width="2" stroke-linecap="round"/><path d="M226.98331,171.38655c0,5.71981 -8.15424,6.10663 -18.5214,6.10663c-10.36716,0 -19.0214,-0.38682 -19.0214,-6.10663c0,-5.71981 8.50382,-15.23621 18.87098,-15.23621c10.36716,0 18.67182,9.5164 18.67182,15.23621z" fill="url(#color-10)" stroke="#000000" stroke-width="1.5" stroke-linecap="butt"/><text transform="translate(202.69051,173.90035) scale(0.5,0.5)" font-size="40" xml:space="preserve" fill="#000000" fill-rule="nonzero" stroke="none" stroke-width="1" stroke-linecap="butt" stroke-linejoin="miter" stroke-miterlimit="10" stroke-dasharray="" stroke-dashoffset="0" font-family="Handwriting" font-weight="normal" text-anchor="start" style="mix-blend-mode: normal"><tspan x="0" dy="0">2</tspan></text></g></g></svg>