<svg version="1.1" xmlns="http://www.w3.org/2000/svg" xmlns:xlink="http://www.w3.org/1999/xlink" width="121.45402" height="32" viewBox="0,0,121.45402,32"><defs><linearGradient x1="238.45506" y1="194.18832" x2="238.45506" y2="184.75424" gradientUnits="userSpaceOnUse" id="color-1"><stop offset="0" stop-color="#4b76b3"/><stop offset="1" stop-color="#0a4ca9"/></linearGradient><linearGradient x1="238.45506" y1="165.74371" x2="238.45506" y2="175.1778" gradientUnits="userSpaceOnUse" id="color-2"><stop offset="0" stop-color="#4b76b3"/><stop offset="1" stop-color="#0a4ca9"/></linearGradient><linearGradient x1="239.99503" y1="165.5" x2="239.99503" y2="194.5" gradientUnits="userSpaceOnUse" id="color-3"><stop offset="0" stop-color="#144792"/><stop offset="1" stop-color="#180e5f"/></linearGradient><linearGradient x1="239.99505" y1="165.5" x2="239.99505" y2="194.5" gradientUnits="userSpaceOnUse" id="color-4"><stop offset="0" stop-color="#1f6bdd"/><stop offset="1" stop-color="#2b1aad"/></linearGradient><linearGradient x1="267.94564" y1="166.38462" x2="267.94564" y2="193.23077" gradientUnits="userSpaceOnUse" id="color-5"><stop offset="0" stop-color="#4a4a4a"/><stop offset="1" stop-color="#000000"/></linearGradient><linearGradient x1="267.9863" y1="168.84616" x2="267.9863" y2="190.30559" gradientUnits="userSpaceOnUse" id="color-6"><stop offset="0" stop-color="#5d5d5d"/><stop offset="1" stop-color="#404040"/></linearGradient><linearGradient x1="267.56102" y1="190.92308" x2="267.56102" y2="193.46154" gradientUnits="userSpaceOnUse" id="color-7"><stop offset="0" stop-color="#737373"/><stop offset="1" stop-color="#666666"/></linearGradient></defs><g transform="translate(-179.38338,-164)"><g data-paper-data="{&quot;isPaintingLayer&quot;:true}" fill-rule="nonzero" stroke-linejoin="miter" stroke-miterlimit="10" stroke-dasharray="" stroke-dashoffset="0" style="mix-blend-mode: normal"><path d="M181.4482,179.67891h117.18371l-15.77118,14.50941h-88.81136z" data-paper-data="{&quot;index&quot;:null}" fill="url(#color-1)" stroke="none" stroke-width="0" stroke-linecap="round"/><path d="M194.04937,165.74371h88.81136l15.77118,14.50941h-117.18371z" fill="url(#color-2)" stroke="none" stroke-width="1.5" stroke-linecap="round"/><path d="M181.36809,180.125l12.60794,-14.625h88.88599l15.75993,14.625l-15.75993,14.375h-88.97605z" fill="none" stroke="url(#color-3)" stroke-width="3" stroke-linecap="round"/><path d="M181.36811,180.125l12.60795,-14.625h88.88599l15.75993,14.625l-15.75993,14.375h-88.97605z" fill="none" stroke="url(#color-4)" stroke-width="3" stroke-linecap="round"/><text transform="translate(196.80193,185.62219) scale(0.43294,0.43294)" font-size="40" xml:space="preserve" fill="#b3b3b3" fill-rule="nonzero" stroke="none" stroke-width="1" stroke-linecap="butt" stroke-linejoin="miter" stroke-miterlimit="10" stroke-dasharray="" stroke-dashoffset="0" font-family="Sans Serif" font-weight="normal" text-anchor="start" style="mix-blend-mode: normal"><tspan x="0" dy="0">Mobile</tspan></text><g><path d="M259.52256,193.23077v-26.84616c0,0 5.33977,-0.61539 8.15385,-0.61539c2.80126,0 8.6923,0.61539 8.6923,0.61539v26.84616c0,0 -5.69945,0.69231 -8.53846,0.69231c-2.77492,0 -8.30769,-0.69231 -8.30769,-0.69231z" fill="url(#color-5)" stroke="none" stroke-width="0" stroke-linecap="butt"/><path d="M260.83025,190.30559v-21.45943h14.3121v21.45943z" fill="url(#color-6)" stroke="none" stroke-width="0" stroke-linecap="butt"/><path d="M266.29179,192.19231c0,-0.70098 0.56825,-1.26923 1.26923,-1.26923c0.70098,0 1.26923,0.56825 1.26923,1.26923c0,0.70098 -0.56825,1.26923 -1.26923,1.26923c-0.70098,0 -1.26923,-0.56825 -1.26923,-1.26923z" fill="url(#color-7)" stroke="none" stroke-width="0" stroke-linecap="butt"/><path d="M270.6764,167.69231h1.61538" fill="#545454" stroke="#262626" stroke-width="0.5" stroke-linecap="round"/></g></g></g></svg>