<svg version="1.1" xmlns="http://www.w3.org/2000/svg" xmlns:xlink="http://www.w3.org/1999/xlink" width="56.68857" height="32.12242" viewBox="0,0,56.68857,32.12242"><defs><linearGradient x1="245.88961" y1="188.66236" x2="245.88961" y2="195.80521" gradientUnits="userSpaceOnUse" id="color-1"><stop offset="0" stop-color="#707070"/><stop offset="1" stop-color="#444444"/></linearGradient><linearGradient x1="235.31819" y1="188.5195" x2="235.31819" y2="195.66236" gradientUnits="userSpaceOnUse" id="color-2"><stop offset="0" stop-color="#707070"/><stop offset="1" stop-color="#444444"/></linearGradient><linearGradient x1="241.20455" y1="168.35392" x2="241.20455" y2="177.1721" gradientUnits="userSpaceOnUse" id="color-3"><stop offset="0" stop-color="#29f3f3" stop-opacity="0"/><stop offset="1" stop-color="#29f3f3"/></linearGradient><linearGradient x1="226.34091" y1="178.71755" x2="235.06818" y2="178.71755" gradientUnits="userSpaceOnUse" id="color-4"><stop offset="0" stop-color="#8c8c8c"/><stop offset="1" stop-color="#ffffff"/></linearGradient><linearGradient x1="247.25" y1="178.80845" x2="255.79546" y2="178.80845" gradientUnits="userSpaceOnUse" id="color-5"><stop offset="0" stop-color="#f8f8f8"/><stop offset="1" stop-color="#5a5a5a"/></linearGradient><linearGradient x1="240.70455" y1="177.1721" x2="240.70455" y2="188.99028" gradientUnits="userSpaceOnUse" id="color-6"><stop offset="0" stop-color="#ffffff"/><stop offset="1" stop-color="#a0a0a0"/></linearGradient><linearGradient x1="217.5" y1="164.92209" x2="217.5" y2="187.74028" gradientUnits="userSpaceOnUse" id="color-7"><stop offset="0" stop-color="#0074af"/><stop offset="1" stop-color="#9aa2ff"/></linearGradient><linearGradient x1="262.51225" y1="184.02153" x2="262.39684" y2="167.09536" gradientUnits="userSpaceOnUse" id="color-8"><stop offset="0" stop-color="#ffa7a7"/><stop offset="1" stop-color="#bd7b7b"/></linearGradient><linearGradient x1="262.40909" y1="164.19482" x2="262.40909" y2="167.01298" gradientUnits="userSpaceOnUse" id="color-9"><stop offset="0" stop-color="#ff0c0c"/><stop offset="1" stop-color="#bd7b7b"/></linearGradient></defs><g transform="translate(-211.65234,-163.9448)"><g data-paper-data="{&quot;isPaintingLayer&quot;:true}" fill-rule="nonzero" stroke-linejoin="miter" stroke-miterlimit="10" stroke-dasharray="" stroke-dashoffset="0" style="mix-blend-mode: normal"><path d="M258.5,178.26301l-4.77273,1.59091" data-paper-data="{&quot;index&quot;:null}" fill="none" stroke="#838383" stroke-width="2.5" stroke-linecap="round"/><path d="M227.95455,179.21755l-4.77273,-1.59091" fill="none" stroke="#838383" stroke-width="2.5" stroke-linecap="round"/><path d="M243.96104,195.66236l2.14286,-7l1.71428,7.14285z" fill="url(#color-1)" stroke="#000000" stroke-width="0.5" stroke-linecap="round"/><path d="M233.38961,195.66236l1.71429,-7.14285l2.14286,7z" data-paper-data="{&quot;index&quot;:null}" fill="url(#color-2)" stroke="#000000" stroke-width="0.5" stroke-linecap="round"/><path d="M226.52273,168.35392l29.36363,0.18182l-8.63636,8.63637h-12.18182z" fill="url(#color-3)" stroke="#727272" stroke-width="0.5" stroke-linecap="round"/><path d="M235.06819,177.1721l-6.34416,10.9026l-2.38312,-19.35715z" fill="url(#color-4)" stroke="#5d5d5d" stroke-width="0.5" stroke-linecap="round"/><path d="M247.25,177.08119l8.54546,-8.36363l-3.39611,19.82467z" fill="url(#color-5)" stroke="#8c8c8c" stroke-width="0.5" stroke-linecap="round"/><path d="M228.99026,188.59418l6.16883,-11.42208h11.90909l5.13637,11.67532z" fill="url(#color-6)" stroke="#717171" stroke-width="0.5" stroke-linecap="round"/><path d="M211.90909,164.92209l5.54546,8.36363l5.63636,-8.27272v22.72727l-5.90909,-2.72727l-5.09091,2.54545z" fill="url(#color-7)" stroke="#45599d" stroke-width="0.5" stroke-linecap="round"/><path d="M212.09091,187.28573l5.27273,-14.09091l5.36363,14.18182" fill="none" stroke="#45599d" stroke-width="0.5" stroke-linecap="round"/><path d="M217.18182,185.01301l0.18182,-11.45455" fill="none" stroke="#45599d" stroke-width="0.5" stroke-linecap="round"/><path d="M265.85126,167.08381l-0.15732,12.65342l-6.72701,0.20493l-0.0245,-12.83524z" fill="url(#color-8)" stroke="#464646" stroke-width="0.5" stroke-linecap="butt"/><path d="M256.72727,167.01298v-2.81818h11.36364v2.81818z" fill="url(#color-9)" stroke="#464646" stroke-width="0.5" stroke-linecap="butt"/></g></g></svg>