<svg version="1.1" xmlns="http://www.w3.org/2000/svg" xmlns:xlink="http://www.w3.org/1999/xlink" width="121.45402" height="32" viewBox="0,0,121.45402,32"><defs><linearGradient x1="238.45506" y1="194.18832" x2="238.45506" y2="184.75424" gradientUnits="userSpaceOnUse" id="color-1"><stop offset="0" stop-color="#4b76b3"/><stop offset="1" stop-color="#0a4ca9"/></linearGradient><linearGradient x1="238.45506" y1="165.74371" x2="238.45506" y2="175.1778" gradientUnits="userSpaceOnUse" id="color-2"><stop offset="0" stop-color="#4b76b3"/><stop offset="1" stop-color="#0a4ca9"/></linearGradient><linearGradient x1="239.99503" y1="165.5" x2="239.99503" y2="194.5" gradientUnits="userSpaceOnUse" id="color-3"><stop offset="0" stop-color="#144792"/><stop offset="1" stop-color="#180e5f"/></linearGradient><linearGradient x1="239.99505" y1="165.5" x2="239.99505" y2="194.5" gradientUnits="userSpaceOnUse" id="color-4"><stop offset="0" stop-color="#1f6bdd"/><stop offset="1" stop-color="#2b1aad"/></linearGradient><linearGradient x1="277.44368" y1="166.22751" x2="277.44368" y2="192.9725" gradientUnits="userSpaceOnUse" id="color-5"><stop offset="0" stop-color="#404040"/><stop offset="1" stop-color="#071315"/></linearGradient><linearGradient x1="277.80499" y1="171.45905" x2="277.80499" y2="172.94488" gradientUnits="userSpaceOnUse" id="color-6"><stop offset="0" stop-color="#0e0e0e"/><stop offset="1" stop-color="#071315"/></linearGradient><linearGradient x1="277.75356" y1="173.88402" x2="277.75356" y2="175.36986" gradientUnits="userSpaceOnUse" id="color-7"><stop offset="0" stop-color="#0e0e0e"/><stop offset="1" stop-color="#071315"/></linearGradient><linearGradient x1="277.69131" y1="169.11663" x2="277.69131" y2="170.60246" gradientUnits="userSpaceOnUse" id="color-8"><stop offset="0" stop-color="#0e0e0e"/><stop offset="1" stop-color="#071315"/></linearGradient><linearGradient x1="262.46153" y1="170.10718" x2="262.46153" y2="188.59755" gradientUnits="userSpaceOnUse" id="color-9"><stop offset="0" stop-color="#000000"/><stop offset="1" stop-color="#211e1e"/></linearGradient><linearGradient x1="262.28704" y1="171.70269" x2="262.28704" y2="187.1836" gradientUnits="userSpaceOnUse" id="color-10"><stop offset="0" stop-color="#262626"/><stop offset="1" stop-color="#4a4a4a"/></linearGradient><linearGradient x1="261.80116" y1="190.33102" x2="261.80116" y2="192.39468" gradientUnits="userSpaceOnUse" id="color-11"><stop offset="0" stop-color="#000000"/><stop offset="1" stop-color="#211e1e"/></linearGradient><linearGradient x1="261.92498" y1="188.18482" x2="261.92498" y2="191.15648" gradientUnits="userSpaceOnUse" id="color-12"><stop offset="0" stop-color="#000000"/><stop offset="1" stop-color="#211e1e"/></linearGradient></defs><g transform="translate(-179.38338,-164)"><g data-paper-data="{&quot;isPaintingLayer&quot;:true}" fill-rule="nonzero" stroke-linejoin="miter" stroke-miterlimit="10" stroke-dasharray="" stroke-dashoffset="0" style="mix-blend-mode: normal"><path d="M181.4482,179.67891h117.18371l-15.77118,14.50941h-88.81136z" data-paper-data="{&quot;index&quot;:null}" fill="url(#color-1)" stroke="none" stroke-width="0" stroke-linecap="round"/><path d="M194.04937,165.74371h88.81136l15.77118,14.50941h-117.18371z" fill="url(#color-2)" stroke="none" stroke-width="1.5" stroke-linecap="round"/><path d="M181.36809,180.125l12.60794,-14.625h88.88599l15.75993,14.625l-15.75993,14.375h-88.97605z" fill="none" stroke="url(#color-3)" stroke-width="3" stroke-linecap="round"/><path d="M181.36811,180.125l12.60795,-14.625h88.88599l15.75993,14.625l-15.75993,14.375h-88.97605z" fill="none" stroke="url(#color-4)" stroke-width="3" stroke-linecap="round"/><g stroke="none" stroke-width="0" stroke-linecap="butt"><path d="M271.04634,192.9725v-26.74499h12.79467v26.74499z" fill="url(#color-5)"/><path d="M273.38874,172.94488v-1.48583h8.83245v1.48583z" fill="url(#color-6)"/><path d="M273.33734,175.36986v-1.48583h8.83245v1.48583z" fill="url(#color-7)"/><path d="M273.27509,170.60246v-1.48583h8.83245v1.48583z" fill="url(#color-8)"/><path d="M248.6763,188.59755v-18.49036h27.57045v18.49036z" fill="url(#color-9)"/><path d="M250.44425,187.1836v-15.48091h23.68556c0,0 0,5.36105 0,7.97986c0,2.53903 0,7.50104 0,7.50104z" fill="url(#color-10)"/><path d="M267.74449,191.36285c0,0.56986 -2.66092,1.03183 -5.94333,1.03183c-3.28241,0 -5.94333,-0.46197 -5.94333,-1.03183c0,-0.56986 2.66092,-1.03183 5.94333,-1.03183c3.28241,0 5.94333,0.46197 5.94333,1.03183z" fill="url(#color-11)"/><path d="M259.07713,191.15648v-2.97167h5.69569v2.97167z" fill="url(#color-12)"/></g><text transform="translate(207.10001,187.2) scale(0.5,0.5)" font-size="40" xml:space="preserve" fill="#b2b2b2" fill-rule="nonzero" stroke="none" stroke-width="1" stroke-linecap="butt" stroke-linejoin="miter" stroke-miterlimit="10" stroke-dasharray="" stroke-dashoffset="0" font-family="Sans Serif" font-weight="normal" text-anchor="start" style="mix-blend-mode: normal"><tspan x="0" dy="0">PC</tspan></text></g></g></svg>