<svg version="1.1" xmlns="http://www.w3.org/2000/svg" xmlns:xlink="http://www.w3.org/1999/xlink" width="82.58333" height="131.32639" viewBox="0,0,82.58333,131.32639"><defs><linearGradient x1="197.79823" y1="124.45833" x2="197.79823" y2="220.20139" gradientUnits="userSpaceOnUse" id="color-1"><stop offset="0" stop-color="#00972b"/><stop offset="1" stop-color="#393e00"/></linearGradient><linearGradient x1="234.13156" y1="103.45834" x2="234.13156" y2="199.20139" gradientUnits="userSpaceOnUse" id="color-2"><stop offset="0" stop-color="#00972b"/><stop offset="1" stop-color="#393e00"/></linearGradient><linearGradient x1="264.13156" y1="133.45834" x2="264.13156" y2="229.20139" gradientUnits="userSpaceOnUse" id="color-3"><stop offset="0" stop-color="#00972b"/><stop offset="1" stop-color="#393e00"/></linearGradient><linearGradient x1="276.13156" y1="102.125" x2="276.13156" y2="197.86806" gradientUnits="userSpaceOnUse" id="color-4"><stop offset="0" stop-color="#00972b"/><stop offset="1" stop-color="#393e00"/></linearGradient></defs><g transform="translate(-195.29823,-100.375)"><g data-paper-data="{&quot;isPaintingLayer&quot;:true}" fill="none" fill-rule="nonzero" stroke-linecap="round" stroke-linejoin="miter" stroke-miterlimit="10" stroke-dasharray="" stroke-dashoffset="0" style="mix-blend-mode: normal"><path d="M197.79823,124.45833c0,0 0,41.03933 0,58.33307c0,13.84922 0,37.40998 0,37.40998" stroke="url(#color-1)" stroke-width="5"/><path d="M234.13156,103.45834c0,0 0,41.03932 0,58.33307c0,13.84922 0,37.40999 0,37.40999" stroke="url(#color-2)" stroke-width="4"/><path d="M264.13156,133.45834c0,0 0,41.03932 0,58.33307c0,13.84922 0,37.40999 0,37.40999" stroke="url(#color-3)" stroke-width="5"/><path d="M276.13156,102.125c0,0 0,41.03932 0,58.33307c0,13.84922 0,37.40999 0,37.40999" stroke="url(#color-4)" stroke-width="3.5"/></g></g></svg>