<svg version="1.1" xmlns="http://www.w3.org/2000/svg" xmlns:xlink="http://www.w3.org/1999/xlink" width="174.19822" height="103.92411" viewBox="0,0,174.19822,103.92411"><defs><linearGradient x1="240.00002" y1="128.03796" x2="240.00002" y2="231.96207" gradientUnits="userSpaceOnUse" id="color-1"><stop offset="0" stop-color="#ffee78" stop-opacity="0"/><stop offset="1" stop-color="#ffee78"/></linearGradient><linearGradient x1="249.92047" y1="166.60259" x2="249.92047" y2="180.07878" gradientUnits="userSpaceOnUse" id="color-2"><stop offset="0" stop-color="#b5b5b5"/><stop offset="1" stop-color="#e8e8e8"/></linearGradient><linearGradient x1="283.53027" y1="166.91019" x2="283.53027" y2="179.92766" gradientUnits="userSpaceOnUse" id="color-3"><stop offset="0" stop-color="#969696"/><stop offset="1" stop-color="#e8e8e8"/></linearGradient><linearGradient x1="254.94622" y1="157.63389" x2="254.94622" y2="166.55935" gradientUnits="userSpaceOnUse" id="color-4"><stop offset="0" stop-color="#b5b5b5"/><stop offset="1" stop-color="#e8e8e8"/></linearGradient><linearGradient x1="253.68133" y1="155.41211" x2="253.68133" y2="164.62043" gradientUnits="userSpaceOnUse" id="color-5"><stop offset="0" stop-color="#ff0000"/><stop offset="1" stop-color="#ff7100"/></linearGradient><linearGradient x1="277.03979" y1="154.46211" x2="277.03979" y2="164.79545" gradientUnits="userSpaceOnUse" id="color-6"><stop offset="0" stop-color="#ff0000"/><stop offset="1" stop-color="#ff7100"/></linearGradient></defs><g transform="translate(-153.08838,-128.03796)"><g data-paper-data="{&quot;isPaintingLayer&quot;:true}" fill-rule="nonzero" stroke="none" stroke-linejoin="miter" stroke-miterlimit="10" stroke-dasharray="" stroke-dashoffset="0" style="mix-blend-mode: normal"><path d="M153.08838,231.96207v-103.92411h173.82325v103.92411z" fill="url(#color-1)" stroke-width="0" stroke-linecap="butt"/><text transform="translate(153.45932,174.03647) scale(0.49696,0.49696)" font-size="40" xml:space="preserve" fill="#000000" fill-rule="nonzero" stroke="none" stroke-width="1" stroke-linecap="butt" stroke-linejoin="miter" stroke-miterlimit="10" stroke-dasharray="" stroke-dashoffset="0" font-family="Sans Serif" font-weight="normal" text-anchor="start" style="mix-blend-mode: normal"><tspan x="0" dy="0">   Find a           to</tspan><tspan x="0" dy="48px">activate platforms</tspan></text><g stroke-width="0"><path d="M230.99865,180.07878v-13.47619h37.84365v13.47619z" fill="url(#color-2)" stroke-linecap="butt"/><path d="M268.72477,179.92766v-13.01747l10.0194,-7.92308l-0.83979,11.99601z" fill="url(#color-3)" stroke-linecap="butt"/><path d="M250.28536,157.63389l28.39435,1.35283l-9.89972,8.01468l-37.86949,-0.44205z" fill="url(#color-4)" stroke-linecap="round"/><path d="M241.92865,164.62043v-9.20834h23.50537v9.20834z" fill="url(#color-5)" stroke-linecap="butt"/><path d="M250.10852,152.41211l20.39679,0.375l-5.30634,2.625h-23.27032z" fill="#ff0000" stroke-linecap="round"/><path d="M265.28711,164.79545v-10.33334l5.29459,-1.725l-0.24681,8.13334z" fill="url(#color-6)" stroke-linecap="butt"/></g></g></g></svg>