<svg version="1.1" xmlns="http://www.w3.org/2000/svg" xmlns:xlink="http://www.w3.org/1999/xlink" width="206.58406" height="72.84814" viewBox="0,0,206.58406,72.84814"><defs><linearGradient x1="237.3264" y1="214.17337" x2="237.3264" y2="191.45086" gradientUnits="userSpaceOnUse" id="color-1"><stop offset="0" stop-color="#67a2f5"/><stop offset="1" stop-color="#0f73ff"/></linearGradient><linearGradient x1="237.3264" y1="145.66292" x2="237.3264" y2="168.38546" gradientUnits="userSpaceOnUse" id="color-2"><stop offset="0" stop-color="#67a2f5"/><stop offset="1" stop-color="#0f73ff"/></linearGradient><linearGradient x1="239.9914" y1="145.07593" x2="239.9914" y2="214.92407" gradientUnits="userSpaceOnUse" id="color-3"><stop offset="0" stop-color="#1f6bdd"/><stop offset="1" stop-color="#2b1aad"/></linearGradient><linearGradient x1="303.19119" y1="152.42751" x2="303.19119" y2="207.5725" gradientUnits="userSpaceOnUse" id="color-4"><stop offset="0" stop-color="#404040"/><stop offset="1" stop-color="#071315"/></linearGradient><linearGradient x1="303.93617" y1="163.21433" x2="303.93617" y2="166.27793" gradientUnits="userSpaceOnUse" id="color-5"><stop offset="0" stop-color="#0e0e0e"/><stop offset="1" stop-color="#071315"/></linearGradient><linearGradient x1="303.83015" y1="168.21433" x2="303.83015" y2="171.27794" gradientUnits="userSpaceOnUse" id="color-6"><stop offset="0" stop-color="#0e0e0e"/><stop offset="1" stop-color="#071315"/></linearGradient><linearGradient x1="303.70179" y1="158.38453" x2="303.70179" y2="161.44813" gradientUnits="userSpaceOnUse" id="color-7"><stop offset="0" stop-color="#0e0e0e"/><stop offset="1" stop-color="#071315"/></linearGradient><linearGradient x1="272.29978" y1="160.42693" x2="272.29978" y2="198.55187" gradientUnits="userSpaceOnUse" id="color-8"><stop offset="0" stop-color="#000000"/><stop offset="1" stop-color="#211e1e"/></linearGradient><linearGradient x1="271.94" y1="163.71667" x2="271.94" y2="195.63647" gradientUnits="userSpaceOnUse" id="color-9"><stop offset="0" stop-color="#262626"/><stop offset="1" stop-color="#4a4a4a"/></linearGradient><linearGradient x1="270.93818" y1="202.12608" x2="270.93818" y2="206.3811" gradientUnits="userSpaceOnUse" id="color-10"><stop offset="0" stop-color="#000000"/><stop offset="1" stop-color="#211e1e"/></linearGradient><linearGradient x1="271.19348" y1="197.70087" x2="271.19348" y2="203.82809" gradientUnits="userSpaceOnUse" id="color-11"><stop offset="0" stop-color="#000000"/><stop offset="1" stop-color="#211e1e"/></linearGradient></defs><g transform="translate(-136.76751,-143.57593)"><g data-paper-data="{&quot;isPaintingLayer&quot;:true}" fill-rule="nonzero" stroke-linejoin="miter" stroke-miterlimit="10" stroke-dasharray="" stroke-dashoffset="0" style="mix-blend-mode: normal"><g stroke-linecap="round"><path d="M138.67306,179.22664h202.79251l-27.29284,34.94673h-153.69269z" data-paper-data="{&quot;index&quot;:null}" fill="url(#color-1)" stroke="none" stroke-width="0"/><path d="M160.48005,145.66292h153.69269l27.29284,34.94673h-202.79251z" fill="url(#color-2)" stroke="none" stroke-width="1.5"/><path d="M138.53442,180.30107l21.8187,-35.22514h153.82185l27.27338,35.22514l-27.27338,34.623h-153.97769z" fill="none" stroke="url(#color-3)" stroke-width="3"/></g><text transform="translate(162.42687,190.23771) scale(0.83947,0.83947)" font-size="40" xml:space="preserve" fill="#ffffff" fill-rule="nonzero" stroke="none" stroke-width="1" stroke-linecap="butt" stroke-linejoin="miter" stroke-miterlimit="10" stroke-dasharray="" stroke-dashoffset="0" font-family="Sans Serif" font-weight="normal" text-anchor="start" style="mix-blend-mode: normal"><tspan x="0" dy="0">Fast</tspan></text><g stroke="none" stroke-width="0" stroke-linecap="butt"><path d="M290.00064,207.5725v-55.14499h26.38109v55.14499z" fill="url(#color-4)"/><path d="M294.83044,166.27793v-3.06361h18.21146v3.06361z" fill="url(#color-5)"/><path d="M294.72442,171.27794v-3.06361h18.21146v3.06361z" fill="url(#color-6)"/><path d="M294.59606,161.44813v-3.06361h18.21146v3.06361z" fill="url(#color-7)"/><path d="M243.87629,198.55187v-38.12493h56.84699v38.12493z" fill="url(#color-8)"/><path d="M247.52159,195.63647v-31.91979h48.83681c0,0 0,11.05385 0,16.45353c0,5.23517 0,15.46626 0,15.46626z" fill="url(#color-9)"/><path d="M283.19262,204.25359c0,1.17499 -5.4865,2.12751 -12.25444,2.12751c-6.76794,0 -12.25444,-0.95252 -12.25444,-2.12751c0,-1.17499 5.4865,-2.12751 12.25444,-2.12751c6.76794,0 12.25444,0.95252 12.25444,2.12751z" fill="url(#color-10)"/><path d="M265.32156,203.82809v-6.12722h11.74384v6.12722z" fill="url(#color-11)"/></g></g></g></svg>