<svg version="1.1" xmlns="http://www.w3.org/2000/svg" xmlns:xlink="http://www.w3.org/1999/xlink" width="90.58033" height="98.2776" viewBox="0,0,90.58033,98.2776"><defs><linearGradient x1="238.31912" y1="193.24652" x2="238.31912" y2="269.96556" gradientUnits="userSpaceOnUse" id="color-1"><stop offset="0" stop-color="#a5bdff"/><stop offset="1" stop-color="#a5bdff" stop-opacity="0"/></linearGradient><linearGradient x1="240.34363" y1="193.88585" x2="240.34363" y2="269.96557" gradientUnits="userSpaceOnUse" id="color-2"><stop offset="0" stop-color="#8088a8"/><stop offset="1" stop-color="#8088a8" stop-opacity="0"/></linearGradient><linearGradient x1="219.20025" y1="180.78473" x2="219.20025" y2="272.56345" gradientUnits="userSpaceOnUse" id="color-3"><stop offset="0" stop-color="#a5bdff"/><stop offset="1" stop-color="#a5bdff" stop-opacity="0"/></linearGradient><linearGradient x1="218.7588" y1="178.86676" x2="218.7588" y2="272.44167" gradientUnits="userSpaceOnUse" id="color-4"><stop offset="0" stop-color="#8088a8"/><stop offset="1" stop-color="#8088a8" stop-opacity="0"/></linearGradient><linearGradient x1="262.43082" y1="181.06451" x2="262.43082" y2="272.84322" gradientUnits="userSpaceOnUse" id="color-5"><stop offset="0" stop-color="#a5bdff"/><stop offset="1" stop-color="#a5bdff" stop-opacity="0"/></linearGradient><linearGradient x1="261.38049" y1="181.91694" x2="261.38049" y2="272.72145" gradientUnits="userSpaceOnUse" id="color-6"><stop offset="0" stop-color="#8088a8"/><stop offset="1" stop-color="#8088a8" stop-opacity="0"/></linearGradient><linearGradient x1="238.69614" y1="166.00001" x2="238.69614" y2="193.91723" gradientUnits="userSpaceOnUse" id="color-7"><stop offset="0" stop-color="#f9ffff"/><stop offset="1" stop-color="#ceecff"/></linearGradient><linearGradient x1="239.13603" y1="166.00001" x2="239.13603" y2="193.85169" gradientUnits="userSpaceOnUse" id="color-8"><stop offset="0" stop-color="#ffffff"/><stop offset="1" stop-color="#b9f1ff"/></linearGradient><linearGradient x1="239.75" y1="167.37022" x2="239.75" y2="188.08349" gradientUnits="userSpaceOnUse" id="color-9"><stop offset="0" stop-color="#fff640"/><stop offset="1" stop-color="#b0842c"/></linearGradient></defs><g transform="translate(-193.83626,-161.74063)"><g data-paper-data="{&quot;isPaintingLayer&quot;:true}" fill-rule="nonzero" stroke-linejoin="miter" stroke-miterlimit="10" stroke-dasharray="" stroke-dashoffset="0" style="mix-blend-mode: normal"><path d="M240.54307,257.83223l-20.48026,-63.09396l40.56165,-0.85243z" fill="url(#color-1)" stroke="url(#color-2)" stroke-width="1" stroke-linecap="round"/><path d="M238.98664,255.97501c0,0 -29.57753,-49.88363 -36.80058,-64.99681c-2.78508,-5.82736 -5.78843,-12.11143 -5.78843,-12.11143l23.27957,16.64276z" fill="url(#color-3)" stroke="url(#color-4)" stroke-width="1" stroke-linecap="round"/><path d="M260.6752,194.08442l21.5747,-12.16748l-40.07215,73.20451z" data-paper-data="{&quot;index&quot;:null}" fill="url(#color-5)" stroke="url(#color-6)" stroke-width="1" stroke-linecap="round"/><path d="M221.96713,166.00001h35.37601l25.05391,14.3794l-21.86327,12.37341l-40.65727,1.36554l-24.00148,-17.14867z" fill="url(#color-7)" stroke="url(#color-8)" stroke-width="2" stroke-linecap="round"/><path d="M258.5214,177.72685c0,5.71981 -8.15424,6.10663 -18.5214,6.10663c-10.36716,0 -19.0214,-0.38682 -19.0214,-6.10663c0,-5.71981 8.50382,-15.23621 18.87098,-15.23621c10.36716,0 18.67182,9.5164 18.67182,15.23621z" fill="url(#color-9)" stroke="#000000" stroke-width="1.5" stroke-linecap="butt"/><text transform="translate(233.9786,180.74065) scale(0.5,0.5)" font-size="40" xml:space="preserve" fill="#000000" fill-rule="nonzero" stroke="none" stroke-width="1" stroke-linecap="butt" stroke-linejoin="miter" stroke-miterlimit="10" stroke-dasharray="" stroke-dashoffset="0" font-family="Handwriting" font-weight="normal" text-anchor="start" style="mix-blend-mode: normal"><tspan x="0" dy="0">4</tspan></text></g></g></svg>