<svg version="1.1" xmlns="http://www.w3.org/2000/svg" xmlns:xlink="http://www.w3.org/1999/xlink" width="111.68871" height="39.27885" viewBox="0,0,111.68871,39.27885"><defs><linearGradient x1="224.72476" y1="197.45229" x2="224.72476" y2="186.07394" gradientUnits="userSpaceOnUse" id="color-1"><stop offset="0" stop-color="#f56b3d"/><stop offset="1" stop-color="#ffa70f"/></linearGradient><linearGradient x1="224.61365" y1="162.94551" x2="224.61365" y2="174.32388" gradientUnits="userSpaceOnUse" id="color-2"><stop offset="0" stop-color="#f56b3d"/><stop offset="1" stop-color="#ffa70f"/></linearGradient><linearGradient x1="227.30278" y1="162.65157" x2="227.30278" y2="197.62821" gradientUnits="userSpaceOnUse" id="color-3"><stop offset="0" stop-color="#e8e323"/><stop offset="1" stop-color="#f2d924"/></linearGradient><linearGradient x1="205.875" y1="166.55247" x2="205.875" y2="194.44754" gradientUnits="userSpaceOnUse" id="color-4"><stop offset="0" stop-color="#fbff00"/><stop offset="1" stop-color="#d8c500"/></linearGradient><linearGradient x1="205.69643" y1="167.28573" x2="205.69643" y2="173.64288" gradientUnits="userSpaceOnUse" id="color-5"><stop offset="0" stop-color="#925c00"/><stop offset="1" stop-color="#918f00"/></linearGradient><linearGradient x1="205.98215" y1="193.57145" x2="205.98215" y2="187.21431" gradientUnits="userSpaceOnUse" id="color-6"><stop offset="0" stop-color="#925c00"/><stop offset="1" stop-color="#918f00"/></linearGradient><linearGradient x1="192.30358" y1="180.82145" x2="198.66072" y2="180.82145" gradientUnits="userSpaceOnUse" id="color-7"><stop offset="0" stop-color="#925c00"/><stop offset="1" stop-color="#918f00"/></linearGradient><linearGradient x1="219.44644" y1="180.53574" x2="213.08929" y2="180.53574" gradientUnits="userSpaceOnUse" id="color-8"><stop offset="0" stop-color="#925c00"/><stop offset="1" stop-color="#918f00"/></linearGradient><linearGradient x1="196.06889" y1="189.29409" x2="198.44275" y2="186.92023" gradientUnits="userSpaceOnUse" id="color-9"><stop offset="0" stop-color="#925c00"/><stop offset="1" stop-color="#918f00"/></linearGradient><linearGradient x1="215.15704" y1="171.20595" x2="212.78318" y2="173.57981" gradientUnits="userSpaceOnUse" id="color-10"><stop offset="0" stop-color="#925c00"/><stop offset="1" stop-color="#918f00"/></linearGradient><linearGradient x1="196.56889" y1="171.56309" x2="198.94275" y2="173.93695" gradientUnits="userSpaceOnUse" id="color-11"><stop offset="0" stop-color="#925c00"/><stop offset="1" stop-color="#918f00"/></linearGradient><linearGradient x1="215.65704" y1="189.15124" x2="213.28318" y2="186.77738" gradientUnits="userSpaceOnUse" id="color-12"><stop offset="0" stop-color="#925c00"/><stop offset="1" stop-color="#918f00"/></linearGradient><radialGradient cx="205.94593" cy="180.29889" r="1.24855" gradientUnits="userSpaceOnUse" id="color-13"><stop offset="0" stop-color="#000000"/><stop offset="1" stop-color="#4c4c4c"/></radialGradient></defs><g transform="translate(-126.81103,-159.95143)"><g data-paper-data="{&quot;isPaintingLayer&quot;:true}" fill-rule="nonzero" stroke-linejoin="miter" stroke-miterlimit="10" stroke-dasharray="" stroke-dashoffset="0" style="mix-blend-mode: normal"><path d="M129.29124,179.95263l106.51022,-0.1l-26.40207,17.49967l-59.0129,0.1z" data-paper-data="{&quot;index&quot;:null}" fill="url(#color-1)" stroke="none" stroke-width="0" stroke-linecap="round"/><path d="M150.27538,162.94551h58.92199l26.40207,17.39967l-106.41931,0.1z" fill="url(#color-2)" stroke="none" stroke-width="1.5" stroke-linecap="round"/><path d="M129.15712,180.29065l21.10659,-17.63908c0,0 38.74027,-0.052 52.49421,-0.07046c8.90542,-0.01196 6.64363,-0.02954 6.64363,-0.02954l26.38324,17.63908l-26.38324,17.33756l-59.2886,0.1z" fill="none" stroke="url(#color-3)" stroke-width="3" stroke-linecap="round"/><text transform="translate(149.88697,179.04924) scale(0.43903,0.43903)" font-size="40" xml:space="preserve" fill="#ffffff" fill-rule="nonzero" stroke="none" stroke-width="1" stroke-linecap="butt" stroke-linejoin="miter" stroke-miterlimit="10" stroke-dasharray="" stroke-dashoffset="0" font-family="Sans Serif" font-weight="normal" text-anchor="start" style="mix-blend-mode: normal"><tspan x="0" dy="0">Time</tspan></text><text transform="translate(151.51732,193.75841) scale(0.43775,0.43775)" font-size="40" xml:space="preserve" fill="#ffffff" fill-rule="nonzero" stroke="none" stroke-width="1" stroke-linecap="butt" stroke-linejoin="miter" stroke-miterlimit="10" stroke-dasharray="" stroke-dashoffset="0" font-family="Sans Serif" font-weight="normal" text-anchor="start" style="mix-blend-mode: normal"><tspan x="0" dy="0">Trial</tspan></text><path d="M191.92748,180.50002c0,-7.703 6.24452,-13.94751 13.94752,-13.94751c7.703,0 13.94752,6.24451 13.94752,13.94751c0,7.703 -6.24452,13.94752 -13.94752,13.94752c-7.703,0 -13.94752,-6.24452 -13.94752,-13.94752z" fill="url(#color-4)" stroke="#925c00" stroke-width="1.5" stroke-linecap="butt"/><path d="M205.69643,173.64288v-6.35714" fill="none" stroke="url(#color-5)" stroke-width="1" stroke-linecap="round"/><path d="M205.98215,193.57146v-6.35715" data-paper-data="{&quot;index&quot;:null}" fill="none" stroke="url(#color-6)" stroke-width="1" stroke-linecap="round"/><path d="M198.66072,180.82145h-6.35715" data-paper-data="{&quot;index&quot;:null}" fill="none" stroke="url(#color-7)" stroke-width="1" stroke-linecap="round"/><path d="M213.08929,180.53574h6.35715" data-paper-data="{&quot;index&quot;:null}" fill="none" stroke="url(#color-8)" stroke-width="1" stroke-linecap="round"/><path d="M196.06889,189.29409l2.37386,-2.37386" data-paper-data="{&quot;index&quot;:null}" fill="none" stroke="url(#color-9)" stroke-width="1" stroke-linecap="round"/><path d="M212.78318,173.57981l2.37386,-2.37386" data-paper-data="{&quot;index&quot;:null}" fill="none" stroke="url(#color-10)" stroke-width="1" stroke-linecap="round"/><path d="M196.56889,171.56309l2.37386,2.37386" data-paper-data="{&quot;index&quot;:null}" fill="none" stroke="url(#color-11)" stroke-width="1" stroke-linecap="round"/><path d="M215.65704,189.15124l-2.37386,-2.37386" data-paper-data="{&quot;index&quot;:null}" fill="none" stroke="url(#color-12)" stroke-width="1" stroke-linecap="round"/><g><path d="M204.95531,179.53893c0.41971,-0.5471 1.20348,-0.65037 1.75059,-0.23065c0.5471,0.41971 0.65037,1.20349 0.23065,1.75059c-0.41972,0.54711 -1.20349,0.65037 -1.75059,0.23065c-0.5471,-0.41971 -0.65037,-1.20349 -0.23065,-1.75059z" fill="url(#color-13)" stroke="none" stroke-width="0" stroke-linecap="butt"/><path d="M208.84398,173.02737l2.89767,-0.38179l0.38179,2.89767" fill="none" stroke="#000000" stroke-width="1" stroke-linecap="round"/><path d="M205.90571,180.31846l5.77028,-7.52159" fill="none" stroke="#000000" stroke-width="1" stroke-linecap="round"/></g></g></g></svg>