<svg version="1.1" xmlns="http://www.w3.org/2000/svg" xmlns:xlink="http://www.w3.org/1999/xlink" width="163.28024" height="101.81832" viewBox="0,0,163.28024,101.81832"><defs><linearGradient x1="194.77143" y1="156.5138" x2="194.77143" y2="196.64767" gradientUnits="userSpaceOnUse" id="color-1"><stop offset="0" stop-color="#6f4100"/><stop offset="1" stop-color="#2a4c00"/></linearGradient><linearGradient x1="201.24115" y1="144.4201" x2="201.24115" y2="159.02436" gradientUnits="userSpaceOnUse" id="color-2"><stop offset="0" stop-color="#269600"/><stop offset="1" stop-color="#c3bd6a"/></linearGradient><linearGradient x1="239.21437" y1="156.78209" x2="239.21437" y2="196.91596" gradientUnits="userSpaceOnUse" id="color-3"><stop offset="0" stop-color="#6f4100"/><stop offset="1" stop-color="#2a4c00"/></linearGradient><linearGradient x1="238.68409" y1="145.23003" x2="238.68409" y2="159.83432" gradientUnits="userSpaceOnUse" id="color-4"><stop offset="0" stop-color="#269600"/><stop offset="1" stop-color="#c3bd6a"/></linearGradient><linearGradient x1="277.0574" y1="156.67708" x2="277.0574" y2="196.81095" gradientUnits="userSpaceOnUse" id="color-5"><stop offset="0" stop-color="#6f4100"/><stop offset="1" stop-color="#2a4c00"/></linearGradient><linearGradient x1="278.77711" y1="145.00001" x2="278.77711" y2="159.60431" gradientUnits="userSpaceOnUse" id="color-6"><stop offset="0" stop-color="#269600"/><stop offset="1" stop-color="#c3bd6a"/></linearGradient><linearGradient x1="190.60025" y1="172.91871" x2="190.60025" y2="227.3411" gradientUnits="userSpaceOnUse" id="color-7"><stop offset="0" stop-color="#6f4100"/><stop offset="1" stop-color="#2a4c00"/></linearGradient><linearGradient x1="193.25334" y1="160.65484" x2="193.25334" y2="180.45855" gradientUnits="userSpaceOnUse" id="color-8"><stop offset="0" stop-color="#269600"/><stop offset="1" stop-color="#c3bd6a"/></linearGradient><linearGradient x1="238.26384" y1="173.37874" x2="238.26384" y2="227.80114" gradientUnits="userSpaceOnUse" id="color-9"><stop offset="0" stop-color="#6f4100"/><stop offset="1" stop-color="#2a4c00"/></linearGradient><linearGradient x1="240.50027" y1="160.78154" x2="240.50027" y2="180.58524" gradientUnits="userSpaceOnUse" id="color-10"><stop offset="0" stop-color="#269600"/><stop offset="1" stop-color="#c3bd6a"/></linearGradient><linearGradient x1="285.65745" y1="173.43869" x2="285.65745" y2="227.86109" gradientUnits="userSpaceOnUse" id="color-11"><stop offset="0" stop-color="#6f4100"/><stop offset="1" stop-color="#2a4c00"/></linearGradient><linearGradient x1="281.47721" y1="160.67482" x2="281.47721" y2="180.47853" gradientUnits="userSpaceOnUse" id="color-12"><stop offset="0" stop-color="#269600"/><stop offset="1" stop-color="#c3bd6a"/></linearGradient><linearGradient x1="178.89383" y1="204.59622" x2="178.89383" y2="270.59725" gradientUnits="userSpaceOnUse" id="color-13"><stop offset="0" stop-color="#6f4100"/><stop offset="1" stop-color="#2a4c00"/></linearGradient><linearGradient x1="180.38718" y1="189.39662" x2="180.38718" y2="213.41367" gradientUnits="userSpaceOnUse" id="color-14"><stop offset="0" stop-color="#269600"/><stop offset="1" stop-color="#c3bd6a"/></linearGradient><linearGradient x1="237.91707" y1="204.81341" x2="237.91707" y2="271.81753" gradientUnits="userSpaceOnUse" id="color-15"><stop offset="0" stop-color="#6f4100"/><stop offset="1" stop-color="#2a4c00"/></linearGradient><linearGradient x1="242.54821" y1="186.68659" x2="242.54821" y2="210.70364" gradientUnits="userSpaceOnUse" id="color-16"><stop offset="0" stop-color="#269600"/><stop offset="1" stop-color="#c3bd6a"/></linearGradient><linearGradient x1="299.87606" y1="204.67632" x2="299.87606" y2="270.67735" gradientUnits="userSpaceOnUse" id="color-17"><stop offset="0" stop-color="#6f4100"/><stop offset="1" stop-color="#2a4c00"/></linearGradient><linearGradient x1="307.46943" y1="183.44339" x2="307.46943" y2="207.46044" gradientUnits="userSpaceOnUse" id="color-18"><stop offset="0" stop-color="#269600"/><stop offset="1" stop-color="#c3bd6a"/></linearGradient><linearGradient x1="222.69342" y1="124.22745" x2="222.69342" y2="156.36808" gradientUnits="userSpaceOnUse" id="color-19"><stop offset="0" stop-color="#00972b"/><stop offset="1" stop-color="#393e00"/></linearGradient><linearGradient x1="217.52676" y1="140.39413" x2="217.52676" y2="172.53475" gradientUnits="userSpaceOnUse" id="color-20"><stop offset="0" stop-color="#00972b"/><stop offset="1" stop-color="#393e00"/></linearGradient><linearGradient x1="211.19342" y1="168.72746" x2="211.19342" y2="200.86808" gradientUnits="userSpaceOnUse" id="color-21"><stop offset="0" stop-color="#00972b"/><stop offset="1" stop-color="#393e00"/></linearGradient><linearGradient x1="260.19342" y1="123.39413" x2="260.19342" y2="155.53474" gradientUnits="userSpaceOnUse" id="color-22"><stop offset="0" stop-color="#00972b"/><stop offset="1" stop-color="#393e00"/></linearGradient><linearGradient x1="264.52675" y1="141.22744" x2="264.52675" y2="173.36808" gradientUnits="userSpaceOnUse" id="color-23"><stop offset="0" stop-color="#00972b"/><stop offset="1" stop-color="#393e00"/></linearGradient><linearGradient x1="269.52675" y1="168.06079" x2="269.52675" y2="200.20142" gradientUnits="userSpaceOnUse" id="color-24"><stop offset="0" stop-color="#00972b"/><stop offset="1" stop-color="#393e00"/></linearGradient><linearGradient x1="241.33334" y1="156.45511" x2="241.33334" y2="179.65113" gradientUnits="userSpaceOnUse" id="color-25"><stop offset="0" stop-color="#ff937d"/><stop offset="1" stop-color="#992626"/></linearGradient></defs><g transform="translate(-161.75239,-132.64411)"><g data-paper-data="{&quot;isPaintingLayer&quot;:true}" fill-rule="nonzero" stroke-linejoin="miter" stroke-miterlimit="10" stroke-dasharray="" stroke-dashoffset="0" style="mix-blend-mode: normal"><path d="M203.94181,169.17576l-10.16177,-11.20317l20.15052,-0.16004z" fill="url(#color-1)" stroke="#292800" stroke-width="1" stroke-linecap="round"/><path d="M200.4064,149.9201l18.50619,0.08334l-4.28179,7.02532l-20.89873,0.30741z" fill="url(#color-2)" stroke="#2a6a13" stroke-width="1" stroke-linecap="round"/><path d="M242.00976,170.44405l-11.59628,-12.25079l21.67433,0.28044z" fill="url(#color-3)" stroke="#292800" stroke-width="1" stroke-linecap="round"/><path d="M233.84934,149.31338l14.25619,0.16666l4.71822,8.10866l-22.89873,-0.19259z" fill="url(#color-4)" stroke="#2a6a13" stroke-width="1" stroke-linecap="round"/><path d="M279.72779,168.33903l-11.39986,-10.46507l24.22791,0.47686z" fill="url(#color-5)" stroke="#292800" stroke-width="1" stroke-linecap="round"/><path d="M264.58522,150.67859l19.61334,-0.5119l8.71821,7.19199l-25.14873,0.05741z" fill="url(#color-6)" stroke="#2a6a13" stroke-width="1" stroke-linecap="round"/><path d="M196.84897,190.59776l-13.16722,-15.1935l25.6592,0.46797z" fill="url(#color-7)" stroke="#292800" stroke-width="1.5" stroke-linecap="round"/><path d="M191.80291,161.48817l22.42813,0.16667l-4.23987,13.61464l-26.63015,-0.66081z" fill="url(#color-8)" stroke="#2a6a13" stroke-width="1.5" stroke-linecap="round"/><path d="M243.26257,189.30779l-16.66722,-14.6935l30.6592,0.38464z" fill="url(#color-9)" stroke="#292800" stroke-width="1.5" stroke-linecap="round"/><path d="M228.88317,162.53154l25.09479,-0.25l4.42679,11.86464l-33.13015,-0.24414z" fill="url(#color-10)" stroke="#2a6a13" stroke-width="1.5" stroke-linecap="round"/><path d="M290.40617,189.61774l-16.91722,-14.9435l31.6592,-0.03203z" fill="url(#color-11)" stroke="#292800" stroke-width="1.5" stroke-linecap="round"/><path d="M268.61011,162.92482l27.09479,0.25l9.76013,10.61464l-32.96349,0.25586z" fill="url(#color-12)" stroke="#2a6a13" stroke-width="1.5" stroke-linecap="round"/><path d="M186.48578,229.71413l-21.75254,-22.75282l34.45067,-0.44841z" fill="url(#color-13)" stroke="#292800" stroke-width="2" stroke-linecap="round"/><path d="M175.57864,186.31329l31.68382,0.25l-7.68291,18.46862l-36.00303,0.25002z" fill="url(#color-14)" stroke="#2a6a13" stroke-width="2" stroke-linecap="round"/><path d="M243.44477,232.8541l-20.81717,-26.51948l41.77436,0.41377z" fill="url(#color-15)" stroke="#292800" stroke-width="2" stroke-linecap="round"/><path d="M228.15632,186.68659h30.43382l6.90042,18.21862l-44.00303,0.16668z" fill="url(#color-16)" stroke="#2a6a13" stroke-width="2" stroke-linecap="round"/><path d="M307.36801,231.09423l-22.15254,-24.71948l37.98401,0.55159z" fill="url(#color-17)" stroke="#292800" stroke-width="2" stroke-linecap="round"/><path d="M276.07754,186.94339l34.18382,-0.5l12.65042,18.71862l-38.75303,-0.08332z" fill="url(#color-18)" stroke="#2a6a13" stroke-width="2" stroke-linecap="round"/><path d="M222.69342,156.36808l-0.16666,-22.3073" fill="none" stroke="url(#color-19)" stroke-width="2.5" stroke-linecap="round"/><path d="M217.52676,145.89413v26.64063" fill="none" stroke="url(#color-20)" stroke-width="3" stroke-linecap="round"/><path d="M211.19342,168.72746c0,0 0,13.77677 0,19.58222c0,4.64914 0,12.55841 0,12.55841" fill="none" stroke="url(#color-21)" stroke-width="3.5" stroke-linecap="round"/><path d="M260.19342,155.53474v-21.64063" fill="none" stroke="url(#color-22)" stroke-width="2.5" stroke-linecap="round"/><path d="M264.52675,145.39412v27.97396" fill="none" stroke="url(#color-23)" stroke-width="3" stroke-linecap="round"/><path d="M269.52675,168.06079c0,0 0,13.77677 0,19.58222c0,4.64914 0,12.55841 0,12.55841" fill="none" stroke="url(#color-24)" stroke-width="3.5" stroke-linecap="round"/><path d="M262.35474,168.05312c0,6.4054 -9.13163,6.8386 -20.74143,6.8386c-11.6098,0 -21.30137,-0.43319 -21.30137,-6.8386c0,-6.4054 9.52312,-17.06247 21.13292,-17.06247c11.6098,0 20.90988,10.65706 20.90988,17.06247z" fill="url(#color-25)" stroke="#000000" stroke-width="1.5" stroke-linecap="butt"/><text transform="translate(234.56194,171.45622) scale(0.60735,0.60735)" font-size="40" xml:space="preserve" fill="#000000" fill-rule="nonzero" stroke="none" stroke-width="1" stroke-linecap="butt" stroke-linejoin="miter" stroke-miterlimit="10" stroke-dasharray="" stroke-dashoffset="0" font-family="Handwriting" font-weight="normal" text-anchor="start" style="mix-blend-mode: normal"><tspan x="0" dy="0">9</tspan></text></g></g></svg>