<svg version="1.1" xmlns="http://www.w3.org/2000/svg" xmlns:xlink="http://www.w3.org/1999/xlink" width="173.82325" height="103.92411" viewBox="0,0,173.82325,103.92411"><defs><linearGradient x1="240" y1="128.03796" x2="240" y2="231.96207" gradientUnits="userSpaceOnUse" id="color-1"><stop offset="0" stop-color="#ffee78" stop-opacity="0"/><stop offset="1" stop-color="#ffee78"/></linearGradient><linearGradient x1="221.57752" y1="149.29482" x2="221.57752" y2="170.21674" gradientUnits="userSpaceOnUse" id="color-2"><stop offset="0" stop-color="#ff6c31"/><stop offset="1" stop-color="#ff0000"/></linearGradient><linearGradient x1="273.92812" y1="161.33961" x2="273.92812" y2="210.08328" gradientUnits="userSpaceOnUse" id="color-3"><stop offset="0" stop-color="#fbff00"/><stop offset="1" stop-color="#d8c500"/></linearGradient><linearGradient x1="273.61609" y1="162.6209" x2="273.61609" y2="173.72934" gradientUnits="userSpaceOnUse" id="color-4"><stop offset="0" stop-color="#925c00"/><stop offset="1" stop-color="#918f00"/></linearGradient><linearGradient x1="274.11535" y1="208.5524" x2="274.11535" y2="197.44397" gradientUnits="userSpaceOnUse" id="color-5"><stop offset="0" stop-color="#925c00"/><stop offset="1" stop-color="#918f00"/></linearGradient><linearGradient x1="250.2135" y1="186.27313" x2="261.32193" y2="186.27313" gradientUnits="userSpaceOnUse" id="color-6"><stop offset="0" stop-color="#925c00"/><stop offset="1" stop-color="#918f00"/></linearGradient><linearGradient x1="297.64278" y1="185.77388" x2="286.53433" y2="185.77388" gradientUnits="userSpaceOnUse" id="color-7"><stop offset="0" stop-color="#925c00"/><stop offset="1" stop-color="#918f00"/></linearGradient><linearGradient x1="256.79299" y1="201.07817" x2="260.94105" y2="196.9301" gradientUnits="userSpaceOnUse" id="color-8"><stop offset="0" stop-color="#925c00"/><stop offset="1" stop-color="#918f00"/></linearGradient><linearGradient x1="290.14751" y1="169.47106" x2="285.99944" y2="173.61913" gradientUnits="userSpaceOnUse" id="color-9"><stop offset="0" stop-color="#925c00"/><stop offset="1" stop-color="#918f00"/></linearGradient><linearGradient x1="257.66668" y1="170.09512" x2="261.81475" y2="174.2432" gradientUnits="userSpaceOnUse" id="color-10"><stop offset="0" stop-color="#925c00"/><stop offset="1" stop-color="#918f00"/></linearGradient><linearGradient x1="291.02121" y1="200.82856" x2="286.87313" y2="196.68049" gradientUnits="userSpaceOnUse" id="color-11"><stop offset="0" stop-color="#925c00"/><stop offset="1" stop-color="#918f00"/></linearGradient><radialGradient cx="274.05206" cy="185.36001" r="2.18171" gradientUnits="userSpaceOnUse" id="color-12"><stop offset="0" stop-color="#000000"/><stop offset="1" stop-color="#4c4c4c"/></radialGradient></defs><g transform="translate(-153.08838,-128.03796)"><g data-paper-data="{&quot;isPaintingLayer&quot;:true}" fill-rule="nonzero" stroke-linejoin="miter" stroke-miterlimit="10" stroke-dasharray="" stroke-dashoffset="0" style="mix-blend-mode: normal"><path d="M153.08838,231.96207v-103.92411h173.82325v103.92411z" fill="url(#color-1)" stroke="none" stroke-width="0" stroke-linecap="butt"/><text transform="translate(163.57546,190.90664) scale(0.57866,0.57866)" font-size="40" xml:space="preserve" fill="#000000" fill-rule="nonzero" stroke="none" stroke-width="1" stroke-linecap="butt" stroke-linejoin="miter" stroke-miterlimit="10" stroke-dasharray="" stroke-dashoffset="0" font-family="Sans Serif" font-weight="normal" text-anchor="start" style="mix-blend-mode: normal"><tspan x="0" dy="0">No</tspan></text><path d="M205.4502,144.9361v77.58546" fill="none" stroke="#000000" stroke-width="3.5" stroke-linecap="round"/><path d="M205.59499,156.60652c0.02851,-2.67942 0.07314,-6.87582 0.07314,-6.87582l28.68591,10.21578l-28.90385,10.27026c0,0 0.10469,-9.84048 0.1448,-13.61021z" fill="url(#color-2)" stroke="none" stroke-width="3.5" stroke-linecap="round"/><path d="M249.55631,185.71146c0,-13.46017 10.91164,-24.37179 24.37182,-24.37179c13.46017,0 24.37182,10.91162 24.37182,24.37179c0,13.46017 -10.91164,24.37182 -24.37182,24.37182c-13.46017,0 -24.37182,-10.91164 -24.37182,-24.37182z" fill="url(#color-3)" stroke="#925c00" stroke-width="2.5" stroke-linecap="butt"/><path d="M273.61609,162.6209v11.10843" fill="none" stroke="url(#color-4)" stroke-width="2.5" stroke-linecap="round"/><path d="M274.11535,197.44397v11.10845" data-paper-data="{&quot;index&quot;:null}" fill="none" stroke="url(#color-5)" stroke-width="2.5" stroke-linecap="round"/><path d="M250.21348,186.27313h11.10845" data-paper-data="{&quot;index&quot;:null}" fill="none" stroke="url(#color-6)" stroke-width="2.5" stroke-linecap="round"/><path d="M286.53433,185.77388h11.10845" data-paper-data="{&quot;index&quot;:null}" fill="none" stroke="url(#color-7)" stroke-width="2.5" stroke-linecap="round"/><path d="M256.79299,201.07817l4.14806,-4.14806" data-paper-data="{&quot;index&quot;:null}" fill="none" stroke="url(#color-8)" stroke-width="2" stroke-linecap="round"/><path d="M285.99944,173.61913l4.14806,-4.14806" data-paper-data="{&quot;index&quot;:null}" fill="none" stroke="url(#color-9)" stroke-width="2" stroke-linecap="round"/><path d="M257.66668,170.09512l4.14806,4.14806" data-paper-data="{&quot;index&quot;:null}" fill="none" stroke="url(#color-10)" stroke-width="2" stroke-linecap="round"/><path d="M291.02121,200.82856l-4.14806,-4.14806" data-paper-data="{&quot;index&quot;:null}" fill="none" stroke="url(#color-11)" stroke-width="2" stroke-linecap="round"/><g stroke-width="1.5"><path d="M272.32106,184.03206c0.7334,-0.956 2.10295,-1.13645 3.05897,-0.40304c0.956,0.7334 1.13645,2.10297 0.40304,3.05897c-0.73341,0.95602 -2.10297,1.13645 -3.05897,0.40304c-0.956,-0.7334 -1.13645,-2.10297 -0.40304,-3.05897z" fill="url(#color-12)" stroke="none" stroke-linecap="butt"/><path d="M279.1161,172.65379l5.06337,-0.66714l0.66714,5.06337" fill="none" stroke="#000000" stroke-linecap="round"/><path d="M284.06474,172.25102l-10.08296,13.14318" fill="none" stroke="#000000" stroke-linecap="round"/></g><text transform="translate(216.54099,191.19227) scale(0.57866,0.57866)" font-size="40" xml:space="preserve" fill="#000000" fill-rule="nonzero" stroke="none" stroke-width="1" stroke-linecap="butt" stroke-linejoin="miter" stroke-miterlimit="10" stroke-dasharray="" stroke-dashoffset="0" font-family="Sans Serif" font-weight="normal" text-anchor="start" style="mix-blend-mode: normal"><tspan x="0" dy="0">in</tspan></text><text transform="translate(308.16709,190.13944) scale(0.51423,0.51423)" font-size="40" xml:space="preserve" fill="#000000" fill-rule="nonzero" stroke="none" stroke-width="1" stroke-linecap="butt" stroke-linejoin="miter" stroke-miterlimit="10" stroke-dasharray="" stroke-dashoffset="0" font-family="Sans Serif" font-weight="normal" text-anchor="start" style="mix-blend-mode: normal"><tspan x="0" dy="0">:)</tspan></text></g></g></svg>