<svg version="1.1" xmlns="http://www.w3.org/2000/svg" xmlns:xlink="http://www.w3.org/1999/xlink" width="209.98828" height="233.05079" viewBox="0,0,209.98828,233.05079"><g transform="translate(-151.17707,-56.48135)"><g data-paper-data="{&quot;isPaintingLayer&quot;:true}" fill-rule="nonzero" stroke="none" stroke-width="0.5" stroke-linecap="butt" stroke-linejoin="miter" stroke-miterlimit="10" stroke-dasharray="" stroke-dashoffset="0" style="mix-blend-mode: normal"><path d="M182.51199,88.768c-0.04072,2.49967 -2.54038,2.45896 -2.54038,2.45896l-1.46161,-0.02407c-3.61067,-0.11084 -7.1951,-0.40275 -10.77407,-0.73832c0.02384,4.64914 0.10972,9.29885 0.10972,13.92938c0,0 0,2.5 -2.5,2.5c-2.5,0 -2.5,-2.5 -2.5,-2.5c0,-4.73872 -0.17657,-9.57756 -0.2667,-14.42803c-3.0083,-0.29068 -6.01978,-0.56555 -9.04677,-0.74295c0,0 -2.49569,-0.14681 -2.34888,-2.64249c0.14681,-2.49568 2.64249,-2.34888 2.64249,-2.34888c2.91125,0.17186 5.80808,0.43433 8.70154,0.71376c0.0009,-5.37104 0.21927,-10.71888 1.01278,-15.92315c0.81208,-5.32612 3.62976,-13.80774 10.43265,-12.38166c0.89929,0.18852 5.50109,3.06482 6.48461,3.66298l2.07368,3.54298c0,0 1.21411,2.18539 -0.97128,3.3995c-2.18539,1.21411 -3.3995,-0.97128 -3.3995,-0.97128l-1.25966,-2.45702c-0.77601,-0.39727 -4.50098,-3.05761 -5.04147,-2.55316c-2.79332,2.60706 -3.33805,8.09728 -3.62271,11.67803c-0.33022,4.15379 -0.45939,8.32819 -0.49527,12.5088c3.6282,0.34261 7.26152,0.6423 10.92174,0.75386l1.39015,0.02238c0,0 2.49967,0.04072 2.45896,2.54039z" fill="#000000"/><path d="M196.66685,105.9891c-0.92847,2.32119 -3.24967,1.39271 -3.24967,1.39271l-3.2229,-2.71178c-0.21857,-1.98902 -0.67567,-4.77402 -0.75181,-7.32942c-0.57622,0.31767 -1.37305,0.45314 -2.35649,-0.12054c-2.15945,-1.25968 -0.89977,-3.41913 -0.89977,-3.41913c0.85762,-1.44718 1.71522,-2.89434 2.57284,-4.34152l0.38967,-0.18413l-0.0967,-0.11282l2.32275,-1.99093c0.43866,-0.38059 1.01121,-0.61093 1.63756,-0.61093c1.38071,0 2.5,1.11929 2.5,2.5c0,0.14474 -0.0123,0.2866 -0.03591,0.4246l-0.65983,4.28887l-0.21992,-0.03383c0.10927,3.4678 0.17954,6.93187 0.56703,10.37761l0.11044,-1.37844c0,0 2.32119,0.92848 1.39271,3.24967z" fill="#000000"/><path d="M190.51232,75.06062c0,-1.38071 1.11929,-2.5 2.5,-2.5c1.38071,0 2.5,1.11929 2.5,2.5c0,1.38071 -1.11929,2.5 -2.5,2.5c-1.38071,0 -2.5,-1.11929 -2.5,-2.5z" fill="#000000"/><path d="M217.67899,108.89395c-2.5,0 -2.5,-2.5 -2.5,-2.5v-1c0,-1.71424 0.17028,-3.43624 0.00728,-5.14271c-0.13061,-1.36732 -0.43372,-2.71272 -0.63271,-4.07178c-0.17269,-1.17942 -0.10306,-2.41324 -0.48228,-3.5433c-0.46116,-1.37426 -2.06722,0.59955 -2.07218,0.60861c-1.49868,2.73907 -1.89288,5.89089 -2.83651,8.78341l-0.3236,3.88316c-0.09421,1.29478 -1.17452,2.31595 -2.49333,2.31595c-1.18975,0 -2.18539,-0.8311 -2.43804,-1.94439l-0.65398,-2.61594l0.12945,-0.03236l-0.18536,-0.26852c-0.02868,-5.06226 0.00448,-10.07183 0.31947,-15.12807c0,0 0.15595,-2.49513 2.65108,-2.33919c2.49513,0.15595 2.33919,2.65108 2.33919,2.65108c-0.02576,0.41082 -0.04941,0.82134 -0.07116,1.23161c1.21137,-1.23082 2.68842,-2.4229 4.36406,-2.54522c5.8925,-0.43015 5.83738,4.13758 6.67073,8.03882c0.74264,3.4766 0.7079,6.62291 0.7079,10.11884v1c0,0 0,2.5 -2.5,2.5z" fill="#000000"/><path d="M232.16262,93.22729c-0.01165,-9.87132 0.01165,-19.86225 -0.64477,-29.66704c0,0 -0.1663,-2.49446 2.32817,-2.66076c2.49446,-0.1663 2.66076,2.32817 2.66076,2.32817c0.76451,11.51476 0.61532,23.27653 0.66746,34.81399c0.01434,3.17466 0.67382,7.59339 -0.4156,10.67284c-0.47604,1.34561 -0.80925,3.03821 -2.03675,3.76657c-3.02411,1.79443 -6.07779,0.01395 -8.12332,-1.96557c-4.2259,-4.08951 -3.70666,-8.82482 -2.44441,-13.99122c1.07827,-1.03556 1.87581,-2.48364 3.2348,-3.10667c1.2003,-0.55028 2.6378,-0.12686 3.9567,-0.1903zM232.17515,98.22729h-0.82949c-0.96089,-0.08949 -2.18069,-0.0299 -2.80849,0.70302c-0.56085,3.11123 -0.75096,5.54942 1.55559,8.00878c0.52953,0.56461 1.38975,1.9695 1.87668,1.36776c0.64493,-0.79699 0.16719,-2.04408 0.21439,-3.06824c0.1076,-2.33464 0.00566,-4.67413 -0.00867,-7.01132z" fill="#000000"/><path d="M268.80236,102.39721c-1.60796,-1.12856 -3.56012,-1.6555 -6.35561,-1.23548c-0.52882,0.07945 0.69155,0.87021 1.18086,1.08594c0.70247,0.3097 1.44152,0.63973 2.20915,0.65128c0.9859,0.01484 1.98053,-0.19022 2.9656,-0.50173zM265.52121,107.88897c-4.74838,-0.2987 -11.06469,-4.95207 -6.60998,-10.26278c0.93261,-1.11182 2.69737,-1.14261 4.12897,-1.38017c3.47383,-0.57645 8.4221,0.46815 10.87068,3.44092c0.51026,-3.02614 0.30248,-5.55141 -0.05261,-9.04221c-0.25441,-2.50101 -0.2178,-5.7555 -1.23471,-8.16101c-0.50793,-1.20153 -2.66742,-0.6031 -3.2779,-0.58975c-4.16466,0.09105 -5.95563,0.35491 -8.28525,3.93366c0,0 -1.43365,2.04808 -3.48174,0.61442c-2.04808,-1.43366 -0.61442,-3.48174 -0.61442,-3.48174c0.94992,-1.29185 1.62105,-2.84526 2.84976,-3.87555c0.95326,-0.79931 2.27407,-1.02003 3.45504,-1.41108c3.83686,-1.2705 10.88533,-2.13291 13.46538,1.96386c1.81637,2.88414 1.76798,7.25172 2.09862,10.50566c0.53584,5.27344 0.54736,8.80794 -0.86368,13.91952l-0.26521,0.26364l0.09483,0.05927l-1.64372,2.62996c-0.43745,0.72608 -1.23348,1.21171 -2.14294,1.21171c-1.05881,0 -1.96387,-0.65822 -2.32835,-1.58779c-1.97699,0.77217 -4.00833,1.385 -6.16276,1.24947z" fill="#000000"/><path d="M289.34565,64.89395c1.61861,0 2.18926,1.04795 2.39045,1.78688c0.6278,0.68622 1.33284,1.33126 1.6269,2.19539c0.19189,0.5639 0.14973,6.36981 0.14932,7.1844c-0.00168,3.3177 -0.68695,6.32277 -1.01217,9.57968c-0.71187,7.12912 -1.68843,13.73677 -4.5233,20.40512c0,0 -0.9848,2.29786 -3.28266,1.31306c-2.29786,-0.9848 -1.31306,-3.28266 -1.31306,-3.28266c3.44262,-7.95761 4.66747,-16.87862 5.1343,-25.47307c0.15947,-2.9359 0.99162,-7.16939 -1.09032,-9.275l-0.57945,-1.93379c0,0 0,-2.5 2.5,-2.5z" fill="#000000"/><path d="M301.56095,66.49122c2.23607,-1.11803 3.3541,1.11803 3.3541,1.11803l1.36521,2.73283c1.55013,3.7835 1.07829,6.49156 0.89615,10.49849c-0.41383,9.10432 -2.02714,17.42836 -4.41886,26.21117c0,0 -0.65779,2.41191 -3.0697,1.75412c-2.41191,-0.65779 -1.75412,-3.0697 -1.75412,-3.0697c2.30278,-8.43029 3.85066,-16.38485 4.24781,-25.12216c0.14129,-3.1084 0.87283,-5.31443 -0.43718,-8.16818l-1.30146,-2.6005c0,0 -1.11803,-2.23607 1.11803,-3.3541z" fill="#000000"/><path d="M230.26877,145.75c-0.01877,-0.15416 -0.01877,-0.25 -0.01877,-0.25c0.00884,-1.99424 -0.1806,-4.32344 0.79582,-6.17964c1.21205,-2.30415 4.16544,-4.23672 5.71742,-6.33784c2.06359,-2.79377 1.69067,-5.62982 3.17706,-8.43923c1.23564,-2.33545 4.27112,-7.60668 8.34823,-4.0138c1.28846,1.13543 2.52773,8.84962 3.23755,10.82099c1.16952,3.24806 3.0294,6.92898 4.49187,10.09765c0.87295,1.8914 2.59722,4.65941 2.71989,6.80552c0.0994,1.73911 -0.44656,3.45517 -0.66983,5.18276c-2.21479,3.1231 -4.63285,6.22375 -5.95332,9.87493c-0.78745,2.17735 -1.60838,5.81304 -3.27758,7.56489c-1.2369,1.29814 -2.60303,3.21744 -4.39257,3.10504c-0.38212,-0.024 -4.25026,-4.63684 -4.87395,-5.75645c-0.86825,-1.55864 -1.34398,-3.34022 -2.37317,-4.79761c-0.55282,-0.78283 -3.85719,-4.66379 -4.16891,-5.28048c-1.31808,-2.60767 -2.19065,-6.51349 -2.76635,-9.40038l-0.01217,-2.74635c0,0 0,-0.09584 0.01877,-0.25zM235.23124,145.75c0.01877,0.15416 0.01877,0.25 0.01877,0.25l-0.01217,2.25366c0.46426,2.31145 1.21048,5.52407 2.23365,7.59962c1.33978,2.71777 4.10195,4.7311 5.51812,7.53582c0.25208,0.49925 1.43878,2.25456 2.01182,3.7038c0.52653,-1.07696 1.47415,-2.00504 1.96631,-3.11332c0.31503,-0.70941 0.15108,-1.56187 0.41758,-2.29091c1.35897,-3.7176 3.55253,-7.09408 6.04669,-10.12508c0.5269,-4.4959 -1.78166,-7.50532 -3.4917,-11.60687c-2.15016,-5.15721 -4.53888,-9.74783 -4.72883,-15.48619c-0.02305,-0.69642 -0.43888,1.32271 -0.65177,1.98619c-0.58757,1.83124 -0.71659,3.81982 -1.52743,5.56372c-1.88885,4.06235 -5.38926,6.07988 -7.57808,9.65922c-0.3287,0.53751 -0.20556,3.56651 -0.20418,3.82036c0,0 0,0.09584 -0.01877,0.25z" fill="#ff8c35"/><path d="M244.43019,258.67548c6.10913,-2.41093 12.16987,-4.80793 18.20616,-7.48919c4.51162,-1.68901 10.18516,-5.67428 14.86687,-5.07305c0.31738,0.04076 -0.68138,-0.19151 -0.83613,-0.47158c-0.39227,-0.70995 -0.28134,-1.63898 -0.71037,-2.32734c-0.456,-0.73162 -1.35474,-1.09845 -1.86014,-1.79685c-2.63124,-3.63604 -4.55728,-8.26326 -6.65189,-12.22039c-5.613,-10.604 -12.25226,-20.49936 -17.62223,-31.23013c-0.28501,-0.64417 -0.55043,-1.2963 -0.80193,-1.95401c0.00898,1.47126 0.02306,2.91639 0.06185,4.31768c0.1278,4.617 0.26774,9.33676 0.49786,13.94483c0.16512,3.30657 0.9893,7.06646 0.48438,10.43c-1.30684,8.70537 -2.56743,17.41541 -4.01529,26.10554c-0.28509,1.67941 -0.47231,3.38558 -0.46598,5.089l-0.76393,2.11803c0,0 -0.12974,0.25948 -0.38922,0.55746zM251.45252,187.70188c0.92174,2.75817 1.70562,5.57592 2.8917,8.23116c4.15539,8.31856 9.3229,15.79395 13.91961,23.84407c2.88009,5.04382 5.31008,10.40508 8.02369,15.54325c1.74113,3.29679 4.53568,5.22161 5.21207,9.03797c0.2636,1.48729 0.95367,3.2409 0.16387,4.52842c-0.72366,1.17971 -2.58083,1.0005 -3.86776,1.50961c-4.45607,1.76282 -8.77841,3.73197 -13.26537,5.41734c-6.48119,2.88223 -12.92079,5.52875 -19.54068,8.01623c-1.21614,0.45697 -2.24509,1.48399 -3.53457,1.64227c-5.22198,0.641 -7.82621,-3.52857 -10.76037,-6.8342c-2.72355,-3.06835 -5.99338,-5.48035 -8.87913,-8.37024c-2.58797,-2.59169 -4.43819,-5.44836 -7,-8c-2.4479,-2.43819 -7.36325,-5.78393 -7.72425,-9.56808c-0.12924,-1.35479 0.85707,-2.58342 1.2856,-3.87514c4.13641,-6.09684 8.81069,-11.83436 13.16822,-17.7722c1.6112,-2.19552 2.02917,-4.1398 3.31993,-6.70529c2.26351,-4.4989 5.04758,-8.83562 7.57376,-13.132c3.45033,-5.86811 5.10763,-13.028 7.85998,-19.2304c0,0 0.96044,-2.16099 3.11484,-1.34537c0.44266,-0.39748 1.02794,-0.63929 1.66969,-0.63929c1.38071,0 2.5,1.11929 2.5,2.5v2.65356c0.0255,4.71979 2.39825,8.14677 3.86918,12.54832zM242.48029,259.54061c-0.30793,-0.02702 -0.64625,-0.12018 -1.01499,-0.30454c-2.23607,-1.11804 -1.11804,-3.35411 -1.11804,-3.35411l0.23607,0.11803c0.00623,-1.97834 0.21389,-3.95871 0.53401,-5.911c1.43917,-8.63204 2.61781,-17.25456 3.98472,-25.89446c0.47574,-3.00709 -0.3709,-6.66485 -0.51562,-9.57c-0.31502,-6.32389 -0.29009,-12.69441 -0.50106,-19.02343c-0.14882,-4.46442 -0.72974,-8.96369 -1.08979,-13.41542c-0.06451,-0.79763 -0.26423,-1.60901 -0.40816,-2.41473c-1.74375,4.77791 -3.35488,9.68907 -5.85959,14.01399c-2.44492,4.2217 -5.23145,8.44881 -7.42624,12.868c-1.6764,3.3754 -1.66087,4.49555 -3.68006,7.29471c-4.18615,5.80315 -8.78276,11.32764 -12.83178,17.2278c-1.60927,2.53386 3.79097,5.77987 5.56134,7.55678c1.56438,1.57014 2.74895,3.47817 4.16559,5.18279c3.54299,4.26326 8.272,7.30883 11.95528,11.44696c1.26466,1.42083 3.67409,5.80966 6.23962,5.1658c0.65548,-0.1645 1.19309,-0.61777 1.7687,-0.98718z" fill="#3a54ff"/><path d="M220.74579,191.88574c2.06093,-1.08866 3.45872,-2.43313 4.6919,-4.94657c0.61194,-1.24722 0.95265,-2.64367 1.74475,-3.78499c0.35241,-0.50777 2.17541,-0.87185 1.56852,-0.98893c-0.67327,-0.12988 -1.17871,0.72563 -1.83055,0.93839c-0.19191,0.06263 -5.58297,1.08107 -5.59073,1.08254c-1.74976,0.33017 -3.43613,0.93586 -5.15638,1.39569c-0.32891,0.08791 -0.99702,-0.30449 -1.02075,0.03513c-0.036,0.51539 0.58776,0.85313 0.93178,1.23858c1.52218,1.70548 3.13222,3.3311 4.66144,5.03017zM216.82442,195.01418c-2.71103,-2.85759 -7.56229,-6.53849 -6.39188,-11.04679c0.37993,-1.46347 2.22066,-2.08652 3.51744,-2.86399c2.68606,-1.61037 6.38314,-1.82656 9.39252,-2.38975c1.08303,-0.20268 2.15275,-0.6913 3.25073,-0.59929c2.17747,0.18246 5.11262,-0.35574 6.40227,1.40819c1.13854,1.55725 -0.65159,3.81565 -1.2398,5.65286c-1.98158,6.18916 -5.4925,9.93428 -11.45366,12.38994c0,0 -2.31665,0.93976 -3.2564,-1.37689c-0.17853,-0.44012 -0.23954,-0.83055 -0.22122,-1.17428z" fill="#ff913d"/><path d="M268.48172,192.27339c0.44344,1.20036 0.95183,2.46417 1.44638,3.26292c0.62213,1.00477 1.62752,1.74443 2.21374,2.76973c0.58346,-3.01811 2.90592,-6.17928 3.92964,-8.99077c0.31234,-0.85779 0.72527,-1.67607 1.05411,-2.52766c0.2251,-0.58295 1.2235,-2.14475 0.77969,-1.70483c-1.68935,1.6745 -3.78598,1.73342 -5.61905,3.16903c-1.38969,1.08836 -2.42902,2.56198 -3.62687,3.8585zM265.05393,188.64442c0.65199,-0.70944 3.48071,-3.81862 4.1584,-4.33615c2.1099,-1.61125 2.94095,-1.67627 5.26065,-2.55221c3.46839,-1.30968 5.73247,-3.67504 7.97481,1.84399c0.57758,1.42157 -0.17972,3.07741 -0.51827,4.57403c-0.71657,3.16767 -2.45331,6.28078 -3.93341,9.12175c-0.59769,1.14724 -0.83715,2.51337 -1.67025,3.50298c-1.16559,1.38457 -2.38902,3.25669 -4.18792,3.45575c-1.88113,0.20815 -5.80171,-5.02423 -6.47551,-6.10985c-0.86608,-1.39545 -1.57914,-3.3229 -2.19623,-5.04245c-0.45687,-0.58794 -0.57174,-1.15291 -0.52169,-1.64502c-0.1031,-0.74387 -0.02954,-2.07843 1.61904,-2.67553c0.17136,-0.06206 0.33473,-0.10711 0.49039,-0.13729z" fill="#ff913d"/><path d="M219.25,256.5c1.53465,0 2.12724,0.94205 2.35606,1.66959c1.59814,1.29465 3.07809,2.73793 4.53257,4.19241c2.28643,3.04531 7.93169,9.8545 5.18153,14.03957c-0.80226,1.22085 -2.52063,1.51506 -3.89653,2.00596c-4.06719,1.45112 -9.48109,1.47231 -13.77319,2.06019c-1.10256,0.15102 -2.24663,0.8563 -3.30091,0.5c-2.01385,-0.68059 -4.26645,-1.61823 -5.37494,-3.43207c-0.79656,-1.30343 -0.00293,-3.1113 0.49313,-4.55607c0.98117,-2.85762 2.22593,-2.47822 4.0145,-4.24734c2.76799,-2.73789 4.88493,-5.74938 7.80134,-8.39829l-0.53358,-1.33395c0,0 0,-2.5 2.5,-2.5zM220.68079,263.99714c-2.92631,2.60461 -4.92714,5.5087 -7.66302,8.27062c-0.58646,0.59204 -1.38734,0.93512 -2,1.5c-0.39059,0.36014 -0.6346,0.85375 -0.9855,1.25266c-0.14834,0.16864 -0.6734,0.29323 -0.50687,0.44393c1.30085,1.17714 1.98156,0.3035 3.32415,0.06792c3.47869,-0.6104 7.04109,-1.01732 10.53984,-1.50613c1.25927,-0.17593 2.74861,0.30119 3.79045,-0.42772c0.1741,-0.12181 -0.25915,-0.33864 -0.36295,-0.52405c-0.44145,-0.78856 -0.83338,-1.60407 -1.27106,-2.39473c-0.96268,-1.73903 -1.9929,-3.45067 -3.18445,-5.04164c-0.5529,-0.5529 -1.11084,-1.10331 -1.68058,-1.64086z" fill="#ff5050"/><path d="M266.48607,267.38196l0.72992,1.70704c0.74124,4.52251 3.91457,10.03694 2.50985,14.75775c-0.59504,1.99973 -0.9128,4.79537 -2.84873,5.57331c-1.59076,0.63923 -3.04013,-1.61842 -4.40214,-2.6596c-5.27717,-4.03415 -7.88167,-10.81641 -13.22496,-14.76047c0,0 -0.74295,-0.55721 -0.9836,-1.44524c-0.53815,-0.34612 -1.0164,-0.96132 -1.0164,-2.05476c0,-2.5 2.5,-2.5 2.5,-2.5c3.94917,0.01467 7.97343,-0.60904 11.70943,-1.87171l-0.47719,0.10395c0,0 1.76776,-1.76776 3.53553,0c0.68322,0.68322 0.83833,1.36645 0.77148,1.94762c0.79787,0.40424 1.19682,1.20211 1.19682,1.20211zM260.34325,276.80409c1.02573,1.26315 1.99912,2.57059 3.07605,3.79037c0.38468,0.43571 0.85066,0.80666 1.29876,1.18976c0.03533,-0.57187 0.0765,-1.13381 0.04045,-1.57803c-0.28741,-3.54163 -1.88092,-6.78495 -2.4745,-10.2952l-0.27008,-0.29296c0,0 -0.07258,-0.14516 -0.14377,-0.38c-2.18316,0.648 -4.41853,1.11619 -6.67794,1.40638c1.83906,1.91232 3.42376,4.0326 5.15103,6.15968z" fill="#ff5050"/><path d="M256.36803,145.94098c0.55902,1.11803 -0.55902,1.67705 -0.55902,1.67705l-1.25585,0.59464c-2.87063,0.71766 -6.76363,3.17126 -10.05485,3.19533c0.48209,3.76445 1.98553,7.61312 1.98553,11.39177l0.45199,1.30494c0,0 0.39528,1.18585 -0.79057,1.58114c-1.18585,0.39528 -1.58114,-0.79057 -1.58114,-0.79057l-0.54801,-1.69506c0,-3.83724 -1.52908,-7.72183 -2.00678,-11.5475c-0.05124,-0.41035 -0.09599,-0.82182 -0.13479,-1.2343c-0.52533,-0.53549 -1.10455,-1.20299 -1.41707,-1.45175c-2.08537,-1.65992 -3.57383,-3.04394 -5.20751,-5.21668c0,0 -0.75,-1 0.25,-1.75c1,-0.75 1.75,0.25 1.75,0.25c1.42641,1.90706 2.68122,3.0682 4.42308,4.48477c-0.1281,-6.5518 0.82692,-13.27255 0.82692,-19.73477c0,0 0,-1.25 1.25,-1.25c1.25,0 1.25,1.25 1.25,1.25c0,7.17184 -1.21447,14.69235 -0.73935,21.91218c0.73141,-0.02912 1.58379,-0.45405 2.13986,-0.61233c2.59533,-0.73873 4.85449,-1.83957 7.54632,-2.51253l0.74415,-0.40536c0,0 1.11803,-0.55902 1.67705,0.55902z" fill="#ff8c35"/><path d="M242.50924,183.54546c1.25,0 1.25,1.25 1.25,1.25l-0.03174,0.77992l-0.40341,1.75571l0.15202,0.91213l0.45976,1.37928c0.04749,0.1321 0.07337,0.27451 0.07337,0.42297c0,0.04225 -0.0021,0.08401 -0.00619,0.12518c0.4197,1.10419 0.95846,2.12802 1.27913,3.37309c0.43067,1.67214 0.53226,3.39056 0.48589,5.10557l0.09649,-0.01484l0.37672,2.4487c0.01181,0.069 0.01796,0.13994 0.01796,0.2123c0,0.69036 -0.55964,1.25 -1.25,1.25c-0.41416,0 -0.78127,-0.20142 -1.00873,-0.51164l-0.72982,-0.97309c-0.17572,-0.21498 -0.39434,-0.45122 -0.63766,-0.7034c0.20382,0.66366 0.3577,1.33847 0.43784,2.05286l0.42135,-0.07022l0.24613,1.47677c0.01371,0.07415 0.02088,0.1506 0.02088,0.22873c0,0.64473 -0.48811,1.17545 -1.11495,1.24279c0.56036,1.40614 1.05613,2.83369 1.44718,4.31715l0.23815,-0.0866l0.84446,2.32227c0.05498,0.14084 0.08516,0.29409 0.08516,0.4544c0,0.69036 -0.55964,1.25 -1.25,1.25c-0.12138,0 -0.23871,-0.0173 -0.34968,-0.04957l1.3421,1.78947c0.16156,0.21062 0.25758,0.47415 0.25758,0.7601c0,0.69036 -0.55964,1.25 -1.25,1.25c-0.41416,0 -0.78127,-0.20142 -1.00873,-0.51164l-0.67929,-0.90571c-0.99218,-0.84514 -1.97385,-1.70306 -2.93809,-2.58002c1.50884,2.42786 2.84965,4.9313 3.7091,7.60862l0.35932,-0.14972l0.95079,2.28189c0.06872,0.15484 0.10691,0.32625 0.10691,0.50657c0,0.69036 -0.55964,1.25 -1.25,1.25c-0.3709,0 -0.70406,-0.16154 -0.93299,-0.41809l-1.44796,-1.60928c-1.13324,-0.79439 -2.21159,-1.61327 -3.25906,-2.45735c1.24931,1.52004 2.42636,3.08194 3.45558,4.72044l0.20778,-0.1847l1.65735,1.86452c0.19853,0.22128 0.31929,0.51377 0.31929,0.83446c0,0.07504 -0.00661,0.14854 -0.01929,0.21994c1.34523,1.70413 2.56216,3.48274 3.56452,5.36736l0.16504,-0.13753l1.24475,1.4937c0.18403,0.21769 0.29498,0.49916 0.29498,0.80653c0,0.69036 -0.55964,1.25 -1.25,1.25c-0.27621,0 -0.53149,-0.08959 -0.73838,-0.24129l-1.72831,-1.23451c-3.2011,-2.16377 -6.33447,-4.35232 -9.34533,-6.70953c0.69556,1.29931 0.95367,2.80362 1.57355,4.1441c0.69682,1.50686 1.80566,2.67325 1.83541,4.07878c0.20896,0.21951 0.41534,0.44243 0.61895,0.669l0.01209,0.05996l0.02202,-0.01651l0.74242,0.9899c0.16156,0.21062 0.25758,0.47415 0.25758,0.7601c0,0.69036 -0.55964,1.25 -1.25,1.25c-0.38936,0 -0.73714,-0.17802 -0.96639,-0.4571l-1.24389,-1.49267l0.02309,-0.01924c-0.01961,-0.02083 -0.03925,-0.04163 -0.05892,-0.06239c-0.02622,-0.02569 -0.05208,-0.05185 -0.07756,-0.07848c-0.03195,-0.03339 -0.06347,-0.06734 -0.09459,-0.10182c-0.47646,-0.49495 -0.96754,-0.97184 -1.4709,-1.43364c0.74989,0.75546 1.40563,1.4215 1.42509,1.46001c0.02561,0.05071 0.05031,0.10177 0.07414,0.15316l0.0185,-0.01028l1.20308,2.16554c0.10704,0.18429 0.16833,0.39844 0.16833,0.6269c0,0.69036 -0.55964,1.25 -1.25,1.25c-0.27621,0 -0.53149,-0.08959 -0.73838,-0.24129l-1.67618,-1.19727c0.47927,0.43856 0.95707,0.87894 1.43314,1.32144c2.40354,2.23402 4.87166,4.43383 5.94074,7.33339l0.45127,-0.18051l0.48947,1.22368c0.06433,0.15061 0.09993,0.31643 0.09993,0.49056c0,0.69036 -0.55964,1.25 -1.25,1.25c-0.30138,0 -0.57785,-0.10666 -0.79372,-0.28429l-1.18498,-0.95899l0.02316,-0.02862l-0.09851,-0.03754c-3.9117,-4.3846 -9.34747,-7.58022 -14.37996,-10.70503c4.22168,4.04044 8.34724,8.52628 10.55953,13.40663l0.37448,-0.18724l1.10679,2.21358c0.09145,0.1737 0.14321,0.37156 0.14321,0.58151c0,0.69036 -0.55964,1.25 -1.25,1.25c-0.24259,0 -0.46904,-0.06911 -0.66074,-0.1887l-1.23238,-0.73943l0.04941,-0.08236l-0.24347,-0.06126c-3.67854,-4.79002 -7.58952,-9.4698 -11.59424,-14.09459c-3.41628,-3.94524 -7.51886,-7.21238 -10.79468,-11.30278c0,0 -0.78087,-0.97609 0.19522,-1.75695c0.97609,-0.78087 1.75695,0.19522 1.75695,0.19522c0.63709,0.79725 1.28816,1.58294 1.9503,2.35944c0.08195,0.01975 0.16076,0.04758 0.23553,0.08259l2.26237,0.99805l-0.14976,0.33947c2.50504,0.86207 4.39308,2.20477 7.14983,3.94883c1.76995,1.11976 3.61079,2.23612 5.44073,3.39676c-5.32111,-4.76673 -10.77361,-9.3763 -16.02108,-14.23307l-1.27378,-3.19668c3.981,1.28939 5.95199,3.13024 9.18954,5.59288c1.58213,1.20345 3.17842,2.38965 4.77986,3.56957c-3.40203,-2.86317 -7.05234,-5.38737 -10.52983,-8.16839l-0.00557,-0.0077l-0.00155,0.00188l-1.92121,-1.58387c-0.28226,-0.22918 -0.46263,-0.57898 -0.46263,-0.97091c0,-0.69036 0.55964,-1.25 1.25,-1.25c0.11286,0 0.22223,0.01496 0.32624,0.043l1.60405,0.39534l-0.10601,0.43013c2.52554,0.54847 4.06291,2.12568 6.68351,4.04776c3.40944,2.50065 6.99638,4.72163 10.2955,7.30697c-0.36492,-1.17689 -0.74218,-2.31018 -1.26404,-3.21272c-2.60585,-4.50671 -6.69172,-8.40138 -9.93785,-12.50841l-0.18674,0.14365l-1.51721,-1.97237c-0.16681,-0.21245 -0.26629,-0.48027 -0.26629,-0.77133c0,-0.69036 0.55964,-1.25 1.25,-1.25c0.34518,0 0.65768,0.13991 0.88388,0.36612l1.25,1.25l-0.02328,0.02328l0.07835,0.03547c0.49697,0.64321 1.01526,1.28108 1.54675,1.91647c1.9028,1.43398 3.66743,3.60901 5.18192,5.0223c3.1653,2.95381 6.5348,5.5686 10.02574,8.05932c-1.28915,-1.56468 -2.63274,-3.06325 -4.00118,-4.53514c-2.3698,-2.20439 -4.67157,-4.40026 -6.59498,-6.9495l-0.21333,0.21333l-1.76777,-1.76777l0.54355,-0.54355c-0.22311,-0.36188 -0.43832,-0.73148 -0.64492,-1.1096l0.96583,0.17537c-0.87332,-1.04875 -1.73757,-2.10594 -2.58935,-3.17548l-0.02458,-0.12354l-0.03655,0.01908l-0.92705,-1.77635c-0.09757,-0.17806 -0.15305,-0.38246 -0.15305,-0.59981c0,-0.69036 0.55964,-1.25 1.25,-1.25c0.29902,0 0.57352,0.105 0.78864,0.28013l1.9444,1.55552l-0.21711,0.27139c3.39279,2.22285 6.33436,5.197 9.46476,7.88448c-0.02482,-0.04586 -0.04997,-0.09195 -0.07548,-0.13825c-1.56678,-2.84431 -3.19875,-5.54776 -4.99972,-8.24949l-0.02092,-0.10804l-0.02684,0.01193l-0.98897,-2.22518c-0.07618,-0.16155 -0.11877,-0.34205 -0.11877,-0.53249c0,-0.55194 0.35772,-1.02033 0.85397,-1.18596c-0.41726,-0.48054 -0.83453,-0.96107 -1.2518,-1.4416l-0.00452,-0.01213l-0.00335,0.0028l-1.29871,-1.55584c-0.1844,-0.21779 -0.29559,-0.49954 -0.29559,-0.80726c0,-0.69036 0.55964,-1.25 1.25,-1.25c0.32326,0 0.61787,0.12271 0.83977,0.32409l1.85467,1.6692l-0.22199,0.24666c2.45502,1.64778 4.60064,3.65181 6.80417,5.69832c-0.09817,-0.24289 -0.1915,-0.48595 -0.28385,-0.72409c-1.23361,-3.18118 -2.9276,-6.25923 -4.34182,-9.36637l-0.71224,-1.18707c-0.1196,-0.1917 -0.1887,-0.41815 -0.1887,-0.66074c0,-0.69036 0.55964,-1.25 1.25,-1.25c0.37237,0 0.70671,0.16282 0.93571,0.42115l0.0056,-0.06425l-0.03071,0.00734l-0.36988,-1.54659c-0.02657,-0.10143 -0.04072,-0.20789 -0.04072,-0.31765c0,-0.69036 0.55964,-1.25 1.25,-1.25c0.39906,0 0.75444,0.187 0.9833,0.47815l0.99279,1.24098l-0.17803,0.14243c0.86745,0.75237 1.6397,1.55705 2.39664,2.42042c-0.07418,-0.879 -0.06168,-1.82038 -0.34265,-2.90979c-0.42016,-1.62909 -1.19673,-2.94852 -1.63344,-4.52219l-0.36754,-0.8576l0.10303,-0.04416l-0.17857,-0.19691c0.02886,-0.07071 0.05773,-0.14142 0.08659,-0.21213l-0.01307,-0.03921h-0.09905v-0.59857c-0.1757,-0.22253 -0.3209,-0.4644 -0.42373,-0.72149l0.00278,-0.03963l-0.0149,0.00497l-0.49077,-1.47232c-0.04749,-0.1321 -0.07337,-0.27451 -0.07337,-0.42297c0,-0.69036 0.55964,-1.25 1.25,-1.25c0.20314,0 0.39495,0.04845 0.56453,0.13444c0.18368,-0.21453 0.47462,-0.38444 0.93547,-0.38444z" fill="#0090ff"/><path d="M246.40452,195.3596c0.57845,0.19282 0.78068,0.57374 0.83609,0.91338c1.43368,0.22438 3.37556,0.55169 3.81741,1.09237c0.15598,0.19087 0.07718,0.4087 -0.07559,0.63772c0.40161,-0.09548 0.85531,0.04418 1.2768,0.04239c1.09886,-0.00466 3.32557,-0.14031 3.91033,1.0351c0.54347,1.09242 -2.85774,4.92302 -3.69032,5.95603c0.07341,-0.08465 0.18933,-0.20369 0.26637,-0.21858c0.41361,-0.07996 0.84235,-0.01987 1.26362,-0.02255c1.07187,-0.00684 3.60183,-0.17224 4.16033,1.0351c0.74849,1.61805 -2.22177,3.67668 -4.16818,4.67151l0.1595,0.1595l-0.00893,0.00893c0.22101,0.22546 0.35728,0.5343 0.35728,0.87496c0,0.29902 -0.105,0.57352 -0.28013,0.78864l-0.94365,1.17956c-0.59841,1.08685 -1.33536,2.09992 -1.85756,3.22534c-0.13271,0.28601 -0.04764,0.64108 -0.17475,0.92963c-0.08148,0.18496 -0.59974,0.53415 -0.42518,0.43228c1.5088,-0.88052 3.44301,-1.28023 5.3692,-1.53465l2.02957,-0.90203c0.16155,-0.07618 0.34205,-0.11877 0.53249,-0.11877c0.69036,0 1.25,0.55964 1.25,1.25c0,0.41242 -0.19973,0.77819 -0.50774,1.00586l-1.59493,1.20519l-0.01444,-0.01911l-0.0398,0.05787c-0.75685,0.4548 -1.81711,1.27252 -2.9608,2.103c1.90927,-0.70074 3.78567,-1.35978 5.7738,-1.60411l-0.06113,-0.48905l1.98044,-0.24755c0.05706,-0.00797 0.11535,-0.0121 0.1746,-0.0121c0.69036,0 1.25,0.55964 1.25,1.25c0,0.3965 -0.18461,0.74988 -0.47256,0.97888l-1.24012,1.00288l-0.0109,-0.01348l-0.0297,0.04495c-2.41777,1.64613 -4.5928,3.71837 -7.03365,5.33788c1.93986,-0.6253 4.05784,-1.8247 6.08377,-2.31813c0.6076,-0.36484 1.20895,-0.73065 1.80116,-1.09947l0.01132,-0.00131l-0.00244,-0.00407l1.23238,-0.73943c0.1917,-0.1196 0.41815,-0.1887 0.66074,-0.1887c0.69036,0 1.25,0.55964 1.25,1.25c0,0.44869 -0.23641,0.84217 -0.59146,1.06266l-2.08554,1.3407l-0.035,-0.05445c-3.60515,2.20004 -7.2688,4.19376 -10.62065,6.77898c-1.19088,0.9185 -2.4315,2.07436 -3.76277,2.99856c1.77392,-0.32337 3.54634,-0.70365 5.18884,-1.31246c2.56632,-0.95125 4.61789,-2.21571 6.84026,-3.26814c0.37151,-0.25566 0.74023,-0.51456 1.10583,-0.77692l-0.08196,-0.14752l2.16554,-1.20308c0.18429,-0.10704 0.39844,-0.16833 0.6269,-0.16833c0.69036,0 1.25,0.55964 1.25,1.25c0,0.46331 -0.25206,0.86774 -0.62653,1.08365l-1.19083,0.7145c-1.71229,1.27326 -3.58357,2.62519 -5.55724,3.93281l-0.44033,0.36694c-2.84003,2.96732 -5.58386,5.9406 -8.56349,8.75407c4.80406,-2.38332 10.01856,-4.24661 15.25123,-4.60375l-0.05201,-0.29474l2.43804,-0.43024c0.07803,-0.01525 0.15865,-0.02324 0.24115,-0.02324c0.69036,0 1.25,0.55964 1.25,1.25c0,0.42534 -0.21244,0.80106 -0.53701,1.02685l-1.71721,1.22658c-1.50395,1.17741 -3.20854,1.76778 -4.9452,2.33452c-0.57218,0.67914 -1.13461,1.36744 -1.79715,1.94948c1.85678,-0.65092 3.6725,-1.29443 5.40875,-1.83012c2.81244,-0.86772 5.03962,-1.98382 7.52653,-2.54157c0.26851,-0.12224 0.54268,-0.24273 0.82479,-0.36168l-0.06668,-0.26674l1.97281,-0.4932c0.10523,-0.02876 0.21601,-0.04412 0.33036,-0.04412c0.69036,0 1.25,0.55964 1.25,1.25c0,0.53655 -0.33806,0.99415 -0.8128,1.17141l-1.22297,0.48919c-9.64853,3.85505 -19.34047,7.10197 -28.3063,12.65224c0,0 -1.06283,0.65794 -1.72077,-0.40489c-0.65794,-1.06283 0.40489,-1.72077 0.40489,-1.72077c1.40536,-0.86999 2.8082,-1.74138 4.22534,-2.58231c-1.42387,0.37482 -2.87364,0.64514 -4.56739,0.64514h-1.25c-0.69036,0 -1.25,-0.55964 -1.25,-1.25c0,-0.61444 0.44333,-1.12533 1.02756,-1.23027l2.42874,-0.48575l0.0666,0.33301c0.57374,-0.20405 1.15786,-0.39904 1.74706,-0.59077c0.05867,-0.32462 0.24269,-0.60563 0.50012,-0.79111l1.15759,-0.85418l0.00771,0.01045l0.01649,-0.02787c1.19312,-0.79515 2.42243,-1.52346 3.64858,-2.25622c-2.63524,1.11558 -5.18354,2.40807 -7.67812,3.90064l-3.33739,0.84365c0.46902,-1.24058 0.72055,-2.58696 1.40705,-3.72175c1.35131,-2.23372 4.50018,-3.9701 6.40029,-5.78916c0.45156,-0.4323 0.89313,-0.87604 1.32781,-1.32755c-1.44986,0.69652 -2.91576,1.30515 -4.38004,1.78749c-0.27894,0.1518 -0.55714,0.30522 -0.83451,0.46051l0.05345,0.1069l-1.97751,0.98875c-0.1737,0.09145 -0.37156,0.14321 -0.58151,0.14321c-0.69036,0 -1.25,-0.55964 -1.25,-1.25c0,-0.47329 0.26303,-0.88514 0.65089,-1.09734l1.30832,-0.74761c1.34321,-0.76721 2.70656,-1.48781 4.07997,-2.18972c-0.84158,0.17968 -1.69694,0.34928 -2.56962,0.51525l-0.01485,-0.0023l0.00079,0.00473l-1.47677,0.24613c-0.07415,0.01371 -0.1506,0.02088 -0.22873,0.02088c-0.69036,0 -1.25,-0.55964 -1.25,-1.25c0,-0.37384 0.16411,-0.70935 0.42422,-0.93842l1.86385,-1.65676l0.20694,0.23281c2.13678,-2.26144 4.65904,-4.18373 7.3187,-5.94212l-0.04786,0.00527c-0.05067,0.00625 -0.10229,0.00947 -0.15465,0.00947c-0.69036,0 -1.25,-0.55964 -1.25,-1.25c0,-0.24404 0.06993,-0.47174 0.19085,-0.66417l1.28307,-2.12193l0.014,0.00846c0.03836,-0.06424 0.07823,-0.12769 0.11976,-0.19029c0.39566,-0.5963 0.98709,-1.19923 1.68243,-1.79081c-1.62574,0.43052 -3.19249,0.74328 -4.29786,0.99828l-1.43047,0.47682c-0.1321,0.04749 -0.27451,0.07337 -0.42297,0.07337c-0.69036,0 -1.25,-0.55964 -1.25,-1.25c0,-0.26266 0.08101,-0.5064 0.21942,-0.7076l0.99052,-1.48578l0.01761,0.01174c0.03385,-0.05735 0.06942,-0.11384 0.10689,-0.16939c0.46957,-0.69611 1.20886,-1.34156 2.07123,-1.94161c-0.69607,0.01212 -1.239,-0.0613 -1.4744,-0.26282c-1.96221,-1.67975 0.57951,-5.52091 1.70979,-7.35265c-0.38246,-0.21375 -0.64106,-0.62263 -0.64106,-1.0919c0,-0.34518 0.13991,-0.65768 0.36612,-0.88388l1.76777,-1.76777l0.15728,0.15728c0.49886,-0.57885 1.03045,-1.12641 1.60405,-1.6258c-1.63662,-0.03684 -3.8924,-0.67167 -4.06362,-1.4356c-0.06695,-0.29872 1.28787,-3.766 1.87227,-4.62841c0.13377,-0.19741 0.35239,-0.47409 0.59451,-0.74c-0.58204,-0.0098 -1.17637,-0.09922 -1.34815,-0.09195c-0.85599,0.0362 -1.89635,0.70505 -2.5647,0.16902c-0.51951,-0.41666 0.53962,-1.34559 0.31569,-1.97277c-0.10771,-0.30166 -0.59202,0.2953 -0.91226,0.30195c-0.00294,0.00006 -2.50899,-0.50131 -2.5341,-0.50633l-0.69071,-2.37101c0,0 0.39528,-1.18585 1.58114,-0.79057z" fill="#0086ec"/><path d="M216.69251,185.27648c0.35261,-0.06707 0.62322,-0.01364 0.82985,0.09663l1.18163,-0.22477c0.31196,-0.05934 0.61888,0.00281 0.87194,0.15325l1.63615,-1.24801c0.15355,-0.1223 0.33825,-0.21012 0.5445,-0.24935c0.6724,-0.12791 1.32139,0.30864 1.45815,0.97709l0.88798,-1.30517c0.17995,-0.2645 0.4608,-0.46034 0.79989,-0.52484c0.6782,-0.12901 1.33256,0.31619 1.46157,0.99439c0.04609,0.24231 0.01889,0.48159 -0.06607,0.69495c0.35507,0.15424 0.69784,0.39038 1.02248,0.72348c0.66735,0.68474 -0.36008,1.90331 -0.78918,2.75777c-0.52711,1.04967 -1.04274,1.48042 -1.68222,1.65885l0.01253,0.03659l-1.65211,0.56565c-0.06145,0.02214 -0.12544,0.03974 -0.19166,0.05234c-0.67352,0.12812 -1.32354,-0.31009 -1.45883,-0.9804c-0.38754,0.27927 -0.73964,0.56692 -1.01796,0.872l-0.75829,1.11455c-0.17995,0.2645 -0.4608,0.46034 -0.79989,0.52484c-0.6782,0.12901 -1.33256,-0.31619 -1.46157,-0.99439c-0.05932,-0.31184 0.00276,-0.61864 0.15308,-0.87165l0.66857,-1.13884c-0.00134,0.00025 -0.00266,0.00052 -0.004,0.00077c-0.6782,0.12901 -1.33256,-0.31619 -1.46157,-0.99439c-0.01779,-0.0935 -0.02465,-0.18655 -0.02151,-0.27783l-1.15788,-0.95191c0,0 -0.23359,-1.22798 0.99439,-1.46157z" fill="#fda000"/><path d="M273.97262,184.58385c1.23163,0.21351 1.01812,1.44514 1.01812,1.44514l-0.83316,0.89885c0.71419,0.96741 2.58927,3.11589 1.18614,4.47758c-0.24774,0.24043 -0.47249,0.43472 -0.67651,0.58868c0.02919,0.07886 0.05082,0.16187 0.06389,0.24829c0.10324,0.6826 -0.36642,1.31963 -1.04902,1.42287c-0.28273,0.04276 -0.55766,-0.01277 -0.79007,-0.14102l-0.9962,-0.53572c-0.1362,-0.03714 -0.27683,-0.07587 -0.4191,-0.11753c0.75608,1.16398 1.18628,2.50772 0.06239,3.96368c-0.02018,0.02614 -0.04136,0.05063 -0.06348,0.07353c0.00079,0.00099 0.00159,0.002 0.00237,0.00299c0,0 0.77549,0.98036 -0.20487,1.75586c-0.98036,0.77549 -1.75586,-0.20487 -1.75586,-0.20487c-0.38729,-0.49215 -0.77458,-0.98431 -1.16187,-1.47646l-1.39215,-1.23576c-0.21451,-0.18772 -0.36631,-0.44944 -0.41227,-0.75335c-0.10324,-0.6826 0.36642,-1.31963 1.04902,-1.42287c0.23986,-0.03628 0.4741,-0.00181 0.68153,0.08777l0.81712,0.33619c-0.30203,-0.43781 -0.57206,-0.90759 -0.90787,-1.31569l-0.84347,-0.82974c-0.19124,-0.18409 -0.32559,-0.4303 -0.36835,-0.71304c-0.10324,-0.6826 0.36642,-1.31963 1.04902,-1.42287c0.12779,-0.01933 0.25398,-0.01858 0.37537,-0.0001l1.70056,0.21922c0.01662,-0.59314 0.4554,-1.10762 1.06276,-1.19948c0.14678,-0.0222 0.29146,-0.01791 0.42919,0.00929l0.94152,0.16322c-0.23389,-0.29269 -0.45352,-0.59132 -0.59363,-0.78352l-0.01298,-0.05261l-0.01424,0.00835l-0.66695,-1.13673c-0.08613,-0.1393 -0.14612,-0.29793 -0.17216,-0.4701c-0.10324,-0.6826 0.36642,-1.31963 1.04902,-1.42287c0.17217,-0.02604 0.34144,-0.01562 0.49999,0.02545l0.10233,0.024c0.19484,-0.31242 0.56444,-0.63442 1.24387,-0.51664z" fill="#ffa100"/><path d="M240.98533,146.57632c-0.78087,0.97609 -1.75695,0.19522 -1.75695,0.19522l-2.49098,-1.99279c-0.29115,-0.22886 -0.47815,-0.58424 -0.47815,-0.9833c0,-0.03085 0.00112,-0.06144 0.00331,-0.09172c-0.16889,-0.31969 -0.32042,-0.66249 -0.52374,-0.93631l-0.65782,-2.55914c0.88176,0.19268 1.84322,0.42543 2.66066,0.84708l-0.0892,-0.1784c-0.09145,-0.1737 -0.14321,-0.37156 -0.14321,-0.58151c0,-0.6477 0.49262,-1.18034 1.12363,-1.24369l-0.67342,-1.07747c-0.12667,-0.19548 -0.20022,-0.42857 -0.20022,-0.67884c0,-0.69036 0.55964,-1.25 1.25,-1.25c0.03144,0 0.06261,0.00116 0.09346,0.00344c-0.05476,-0.3327 -0.08776,-0.66777 -0.09346,-1.00344c0,0 0,-1.25 1.25,-1.25c1.25,0 1.25,1.25 1.25,1.25c-0.02273,0.8893 0.31651,1.76833 0.67778,2.58126l0.00418,0.08104l0.01995,-0.0057l0.49207,1.72224c0.03641,0.11726 0.05603,0.24192 0.05603,0.37116c0,0.23264 -0.06355,0.45043 -0.17424,0.63697c0.38668,0.61816 0.90243,1.28548 0.57547,1.85004c-0.6144,1.06086 -1.28227,1.32931 -1.93398,1.23268c0.03509,0.48218 -0.15138,0.91676 -0.56145,1.20416l0.12507,0.10006c0,0 0.97609,0.78087 0.19522,1.75695z" fill="#ffba44"/><path d="M244.39535,145.11268c-0.23146,-0.42015 0.63686,-2.63198 1.2675,-3.56722h-0.4036c-0.69036,0 -1.25,-0.55964 -1.25,-1.25c0,-0.21968 0.05667,-0.42613 0.15619,-0.60552c-0.51756,-0.17525 -0.9144,-0.75464 -1.15619,-2.14448c-0.11318,-0.65059 0.53114,-1.23721 0.97958,-1.72197c0.2077,-0.22452 1.11502,-0.09354 0.87344,-0.28112c-0.3891,-0.30213 -1.38298,0.30573 -1.46691,-0.17969c-0.17577,-1.01668 0.65463,-1.95812 0.92517,-2.95378c0.01776,-0.06538 1.06663,-3.43051 0.18387,-1.88772c0,0 -1.22573,0.24515 -1.47087,-0.98058c-0.24515,-1.22573 0.98058,-1.47087 0.98058,-1.47087c0.74432,-0.0111 1.72935,-0.58149 2.23296,-0.0333c0.73281,0.79768 1.04263,3.90772 0.45091,5.14558c-0.21563,0.45109 -1.2338,0.57218 -1.07483,1.04622c0.16599,0.49498 1.46388,-0.19715 1.53309,0.32031c0.12771,0.95475 -0.13637,1.66564 -0.48519,2.1398l0.56775,-0.11355c0.08709,-0.01921 0.17759,-0.02934 0.27046,-0.02934c0.69036,0 1.25,0.55964 1.25,1.25c0,0.27621 -0.08959,0.53149 -0.24129,0.73838l-0.60426,0.84596c0.2502,-0.04991 0.46633,-0.019 0.6096,0.18477c1.39582,1.98527 -0.90862,3.58548 -1.55395,3.9688c0.16264,-0.08274 0.45893,-0.22579 0.93372,-0.43609l0.1193,0.01375l-0.00826,-0.0413l1.22469,-0.24494c0.08709,-0.01921 0.17759,-0.02934 0.27046,-0.02934c0.69036,0 1.25,0.55964 1.25,1.25c0,0.15512 -0.02826,0.30364 -0.0799,0.44069c0.38081,-0.16848 0.8569,-0.35372 1.41674,-0.50046l1.27925,-0.38017c0.12096,-0.039 0.24998,-0.06006 0.38391,-0.06006c0.69036,0 1.25,0.55964 1.25,1.25c0,0.53655 -0.33806,0.99415 -0.8128,1.17141l-1.15737,0.46295c-0.81528,0.76543 -1.73854,1.40616 -2.8296,1.5995c-1.00996,0.17896 -2.07334,-0.20114 -3.07706,0.01006l-0.12317,-0.04171v0.04779h-2v0c-0.69036,0 -1.25,-0.55964 -1.25,-1.25c0,-0.5906 0.40959,-1.08553 0.96021,-1.21624c-0.11551,-0.13044 -0.22404,-0.2849 -0.3241,-0.46654z" fill="#ffba44"/><path d="M242.71736,160.69949c0.16886,0.18469 0.29188,0.45382 0.29188,0.84597c0,1.25 -1.25,1.25 -1.25,1.25l-2.28508,-0.54921c0.21084,-1.28448 0.9385,-2.43282 1.28515,-3.68749c0.23549,-0.85233 -1.73001,-1.10973 -1.74992,-1.99377c-0.01294,-0.57453 1.11701,-0.62029 1.2598,-1.17695c0.08999,-0.35082 -0.75818,-0.416 -0.75829,-0.77818c-0.00013,-0.42585 0.48238,-0.69491 0.70633,-1.0644h-1.45799c-0.69036,0 -1.25,-0.55964 -1.25,-1.25c0,-0.2328 0.06364,-0.45073 0.17447,-0.63735c-0.28415,-0.22133 -0.54974,-0.47005 -0.79907,-0.73804l-0.25928,0.25928l-1.25,-1.25c-0.22621,-0.22621 -0.36612,-0.53871 -0.36612,-0.88388c0,-0.55733 0.36475,-1.02947 0.86855,-1.19073c-0.16778,-0.29629 -0.24634,-0.7133 0.07145,-1.22177c0.6625,-1.06 1.7225,-0.3975 1.7225,-0.3975c0.77321,0.51224 1.54642,1.02449 2.31962,1.53673l0.05203,0.42855l0.15171,-0.05057l0.49077,1.47232c0.04749,0.1321 0.07337,0.27451 0.07337,0.42297c0,0.08806 -0.00911,0.17399 -0.02643,0.25691l0.14437,0.04812c0.34464,0.10599 0.62577,0.35698 0.77219,0.68177c0.34421,0.1712 0.6914,0.77066 1.1005,2.11047c0.14898,0.4879 -0.74218,0.8282 -0.74229,1.33833c-0.00011,0.47644 0.85455,0.75894 0.74171,1.22182c-0.11751,0.48204 -0.94411,0.42493 -1.2402,0.82305c-0.13562,0.18235 0.52901,-0.2389 0.6784,-0.06765c0.51152,0.58638 1.08102,1.2958 1.07168,2.07388c-0.01674,1.39396 -0.18648,1.94756 -0.54181,2.16733z" fill="#eaac3f"/><path d="M247.86395,162.23131c-1.18585,-0.39528 -0.79057,-1.58114 -0.79057,-1.58114l0.36399,-0.99783c1.64695,-0.82109 -0.48426,0.45428 -0.63752,-1.04083c-0.07013,-0.68415 0.99517,-1.12506 0.98532,-1.81272c-0.0069,-0.48166 -1.19428,-0.56655 -1.02585,-1.01786c0.48122,-1.2895 0.88326,-1.90386 1.31846,-2.14476c0.03075,-0.08878 0.07123,-0.17302 0.12016,-0.25144l0.28895,-0.48158c-0.76739,0.04944 -1.55945,0.08737 -2.39968,0.13988c0,0 -1.24757,0.07797 -1.32554,-1.16959c-0.07797,-1.24757 1.16959,-1.32554 1.16959,-1.32554c1.90577,-0.11911 3.63033,-0.10533 5.37175,-0.43336c0.77496,-0.55522 1.49022,-0.86302 2.45622,-0.85919v-0.45988h1.25c0.69036,0 1.25,0.55964 1.25,1.25c0,0.47691 -0.26708,0.89144 -0.65983,1.10218l-1.12896,0.63354l-0.01958,-0.0349l-0.07097,0.08098c-0.52441,0.18758 -1.0331,0.34089 -1.53274,0.46734c-0.16246,0.12514 -0.33526,0.24651 -0.51129,0.36535c0.11015,0.18621 0.17337,0.40347 0.17337,0.6355c0,0.38936 -0.17802,0.73714 -0.4571,0.96639l-1.49267,1.24389l-0.00374,-0.00449c-0.01079,0.01126 -0.02165,0.02247 -0.03257,0.03362c-0.30184,0.30794 -1.10986,-0.12758 -1.264,0.27512c-0.12952,0.33837 0.98091,0.11989 0.97415,0.48214c-0.01226,0.65618 -1.07829,1.03407 -1.01468,1.68728c0.04741,0.48677 1.19383,0.27744 1.25329,0.76288c0.09606,0.78416 -0.59387,1.46419 -0.89081,2.19629l-0.13601,0.50217c0,0 -0.39528,1.18585 -1.58114,0.79057z" fill="#eaac3f"/><path d="M208.89121,272.98643c0.14773,-0.29546 0.3345,-0.4738 0.52937,-0.57629c-0.10271,-0.18151 -0.16133,-0.39126 -0.16133,-0.61469c0,-0.69036 0.55964,-1.25 1.25,-1.25c0.20995,0 0.4078,0.05176 0.58151,0.14321l1.47751,0.73875l-0.02172,0.04344l0.13639,0.02168c0.03386,0.02792 0.07887,0.05866 0.13334,0.09184c0.49125,-0.24394 0.93861,-0.25108 0.99277,0.48966c0.35623,0.16243 0.7441,0.33648 1.09186,0.50657l-0.69144,-1.10631c-0.12667,-0.19548 -0.20022,-0.42857 -0.20022,-0.67884c0,-0.6624 0.51524,-1.20446 1.1668,-1.24728l-0.37183,-0.44619c-0.18403,-0.21769 -0.29498,-0.49916 -0.29498,-0.80653c0,-0.69036 0.55964,-1.25 1.25,-1.25c0.14845,0 0.29086,0.02588 0.42297,0.07337l1.32713,0.44238c-0.00006,-0.00524 -0.0001,-0.01049 -0.0001,-0.01575c0,-0.69036 0.55964,-1.25 1.25,-1.25c0.34518,0 0.65768,0.13991 0.88388,0.36612l1.22449,1.22449c0.23086,0.19761 0.46448,0.39211 0.69742,0.58737c-0.13399,-0.47801 -0.25401,-0.97932 -0.58904,-1.47448c-0.59552,-0.88018 -1.52797,-1.56371 -1.90261,-2.55821c0,0 -0.39528,-1.18585 0.79057,-1.58114c1.18585,-0.39528 1.58114,0.79057 1.58114,0.79057c0.21076,0.8112 1.13619,1.24196 1.59739,1.94179c0.48986,0.74333 0.56306,1.69882 0.98718,2.48153c0.56762,1.04753 1.86683,2.07757 1.54293,3.22413c-0.68856,2.43738 -2.70258,1.48116 -4.31646,0.25026c-0.20838,0.15551 -0.46688,0.24758 -0.74689,0.24758c-0.11436,0 -0.22513,-0.01536 -0.33036,-0.04412l-0.24951,-0.06238l0.0723,0.0964c0.16156,0.21062 0.25758,0.47415 0.25758,0.7601c0,0.69036 -0.55964,1.25 -1.25,1.25c-0.14528,0 -0.28477,-0.02478 -0.41447,-0.07035c-0.05989,0.29492 -0.23056,0.6328 -0.55044,1.02114c-1.13077,1.37279 -3.33073,0.76028 -4.9998,-0.08508c-0.48745,0.29379 -1.26729,0.34553 -1.79014,0.61002l-1.80416,-0.60769c0,0 -1.11803,-0.55902 -0.55902,-1.67705z" fill="#ed5151"/><path d="M263.12536,277.67933c-0.42874,-0.42874 -0.44155,-0.85748 -0.34105,-1.18534c-0.53522,-0.21692 -1.18445,-0.31945 -1.55381,-0.73849c-0.25266,-0.28665 0.567,-0.73503 0.39487,-1.07617c-0.13051,-0.25865 -0.3805,0.70851 -0.64263,0.58515c-0.80577,-0.37919 -1.69991,-0.96099 -1.96354,-1.81161c-0.01611,-0.05197 -0.01787,-0.09884 -0.0078,-0.14152c-0.94809,0.15096 -1.90348,0.14442 -2.38604,-0.38202c-0.03354,-0.03659 -0.06638,-0.07271 -0.09852,-0.10837c-0.27416,0.01307 -0.58782,-0.07798 -0.90148,-0.39163c-0.48009,-0.48009 -0.43865,-0.96017 -0.30059,-1.29862c-0.2724,-0.6984 0.15572,-0.8917 0.72988,-0.89333c0.22844,-0.22573 0.45689,-0.45146 0.68533,-0.67719l0.16277,-0.02557l-0.03663,-0.06104l1.23238,-0.73943c0.1917,-0.1196 0.41815,-0.1887 0.66074,-0.1887c0.69036,0 1.25,0.55964 1.25,1.25c0,0.24712 -0.07171,0.47748 -0.19545,0.67143c0.3207,-0.04042 0.64558,-0.07071 0.92122,-0.14098l0.0326,0.01139l-0.00351,-0.01757l1.22469,-0.24494c0.08709,-0.01921 0.17759,-0.02934 0.27046,-0.02934c0.69036,0 1.25,0.55964 1.25,1.25c0,0.61444 -0.44333,1.12533 -1.02756,1.23027l-0.07434,0.01487c-0.0459,0.10628 -0.10612,0.20493 -0.17824,0.29351l-0.24627,0.30784c0.47388,-0.18758 1.13913,-0.46388 1.41029,-0.23036c0.36061,0.31055 -0.39589,1.04708 -0.10513,1.42383c0.22927,0.29708 0.79105,-0.28758 1.12058,-0.10806c0.50267,0.27383 0.73378,0.87874 1.10067,1.31812l-0.61612,2.13388c0,0 -0.88388,0.88388 -1.76777,0z" fill="#ed5151"/><path d="M269.81953,182.28711c0.76885,1.74839 4.42464,7.28879 3.83609,9.15238c-0.45352,1.43603 -2.38458,1.83988 -3.57688,2.75982c-5.32719,0.58723 -10.5474,0.54512 -15.89989,0.54512c-0.27604,0 -5.7736,0.01317 -6.06273,-0.03922c-1.74682,-0.31655 -3.3166,-1.27535 -5.01354,-1.79685c-1.34506,-0.41337 -5.25594,-1.27966 -6.24564,-2.4255c-0.53113,-0.61492 -0.60172,-1.47855 -0.72788,-2.31217c-0.43267,-0.12358 -0.87349,-0.42355 -1.22726,-1.04265c-1.00395,-1.75692 0.56222,-2.81289 0.78342,-2.95042c0.21024,-0.46298 0.63151,-0.90268 1.44617,-1.10633c0.23408,-0.05853 0.44867,-0.08456 0.64522,-0.08462c1.60853,-0.92139 3.5528,-2.05912 4.1804,-2.55087c4.05544,-3.1777 7.06288,-7.95265 10.6955,-11.58465c1.33896,-1.33873 2.8272,-2.51936 4.23163,-3.78923c0.57268,-0.5178 1.06608,-1.43768 1.63973,-2.01241c3.14859,1.99093 5.62798,5.68373 7.89249,8.40115l0.66038,0.82555c0,0 0.16035,0.20044 0.42012,0.31698c0.34402,2.84875 1.24823,7.25064 2.32266,9.69392zM240.21727,186.59832c-0.04429,0.38156 -0.25451,0.82132 -0.01804,1.10438c0.26128,0.31277 0.81047,0.1034 1.20573,0.20272c1.57226,0.39509 4.14863,1.18306 5.69618,1.75473c3.2307,1.19344 6.66108,0.73686 10.12092,0.73686c3.8644,0 7.63747,0.00929 11.48895,-0.32436c0.25686,0.05046 0.87758,0.39024 0.77056,0.15136c-0.22281,-0.49734 -0.90901,-0.64955 -1.20015,-1.11024c-0.99643,-1.57669 -1.68156,-3.33206 -2.42619,-5.04214c-2.26567,-5.20328 -3.70504,-10.8866 -5.65923,-16.25682c-0.0039,0.03647 -0.01275,0.06879 -0.02756,0.09555c-0.43793,0.7908 -1.24483,1.31356 -1.9153,1.91987c-1.77908,1.60884 -3.45612,3.33061 -5.08784,5.08873c-2.66559,2.8721 -5.41776,6.49022 -8.50177,8.91904c-0.81205,0.63952 -2.75217,1.78688 -4.44624,2.76032z" fill="#9966ff"/><path d="M263.30875,151.66921c0.11369,-2.80289 -0.28378,-8.45685 3.3012,-9.87574c1.70861,-0.67624 3.33301,1.56089 4.91785,2.49091c5.38863,3.16215 9.81166,7.58392 14.18539,11.96985c1.60144,1.60591 5.61199,4.91727 4.7269,7.77965c-0.19642,0.6352 -4.53389,1.18211 -5.70602,1.50995c-5.06201,1.41585 -10.10864,3.07831 -15.08655,4.74345c0,0 -0.85872,0.28624 -1.6526,-0.06484l-0.02938,-0.03673c-2.18075,-2.6169 -4.43678,-5.74979 -7.2274,-7.95028c1.4267,-1.38494 2.57016,-6.45702 2.57061,-10.56623zM268.33468,166.14236c4.1779,-1.38634 8.38513,-2.60931 12.59367,-3.90753c0.41844,-0.12908 2.03617,-0.72392 3.39184,-1.09773c-0.59005,-0.56675 -1.10087,-1.2303 -1.68109,-1.8088c-3.46495,-3.45473 -6.75039,-6.44917 -10.6427,-9.36765c-0.98158,-0.73599 -2.1102,-1.28926 -2.99549,-2.13864c-0.52764,-0.50624 -0.49589,-2.14323 -1.16856,-1.85652c-0.73548,0.31348 -0.07387,1.59737 -0.09833,2.39651c-0.03446,1.12595 -0.05227,2.25234 -0.07842,3.37852c0.00056,4.8639 -0.16828,9.61278 0.67907,14.40185z" fill="#9966ff"/><path d="M297.43302,155.10304c0.61091,6.49042 2.17262,13.02664 4.22237,19.22183c0.79005,2.38785 1.38471,4.88521 2.62068,7.07574c0.17668,0.31313 0.54743,0.60383 0.90645,0.58459c2.63576,-0.14127 5.15425,-1.14434 7.74574,-1.64567c4.28505,-0.82893 8.54586,-1.4123 12.87585,-1.95304c2.28236,-0.28503 4.51353,-1.05317 6.81328,-1.09202c0.557,-0.00941 1.72878,1.1931 1.52987,0.67274c-0.28235,-0.73863 -1.23824,-0.98416 -1.84345,-1.4931c-0.95541,-0.80343 -1.89192,-1.62906 -2.83788,-2.44359c-1.93166,-1.65666 -4.12808,-3.6512 -6.27322,-5.03127c-1.28769,-0.82844 -2.81282,-1.28214 -4.01721,-2.22759c-0.95629,-0.75069 -1.45503,-1.96929 -2.36133,-2.77961c-0.51779,-0.46295 -4.43363,-3.02308 -5.44704,-3.74699c-1.17875,-0.84204 -1.97518,-2.19048 -3.24051,-2.89576c-2.24255,-1.24995 -5.60773,-1.03768 -8.09549,-1.52398l-0.87793,0.04221c0,0 -1.08306,0 -1.72018,-0.7645zM296.9797,153.65657c0.02468,-2.13647 2.1735,-2.13647 2.1735,-2.13647l1.73053,0.04221c2.97406,0.61117 6.55742,0.43679 9.29425,1.95396c0.85606,0.47456 1.39494,1.37565 2.13751,2.01334c2.30324,1.97794 5.1624,3.23996 7.43416,5.2557c0.84977,0.754 1.28534,1.91888 2.1783,2.62119c1.07465,0.84521 2.46579,1.19684 3.61598,1.93596c2.4031,1.54425 4.60668,3.55011 6.76908,5.40257c2.20045,1.95563 6.90266,5.21819 5.7525,9.10561c-0.34553,1.16789 -8.08441,2.36138 -9.0204,2.51112c-5.09993,0.81585 -10.21148,1.26236 -15.29074,2.24597c-0.92105,0.17836 -8.7644,1.73763 -9.32714,1.65876c-3.69698,-0.51811 -4.24057,-3.57874 -5.37885,-6.39509c-3.13689,-7.76142 -5.2071,-16.36804 -5.97265,-24.67658c0,0 -0.1968,-2.16479 1.968,-2.36159c1.02148,-0.09286 1.60478,0.34009 1.93599,0.82331z" fill="#9966ff"/><path d="M278.25378,200.3785c-0.00353,0.00151 -0.00706,0.00303 -0.01059,0.00454c0,0 -1.99797,0.85627 -2.85424,-1.14169c-0.85627,-1.99797 1.14169,-2.85424 1.14169,-2.85424c2.38369,-1.02153 4.67105,-2.29037 7.13159,-3.10967c4.51994,-1.50504 9.42423,-2.14062 13.94423,-3.48836c3.3559,-1.00065 3.54474,-3.13713 7.40211,0.10305c0.8779,0.73744 0.73843,2.18269 1.28513,3.19048c2.56254,4.72386 5.83653,9.07515 8.26033,13.91222c0.57757,1.15262 2.31277,5.71308 1.58607,6.52067c-2.51609,2.79622 -9.33365,-0.47137 -11.93223,-1.18138c-5.92505,-2.56692 -12.01384,-4.7634 -17.7908,-7.6558c-2.50688,-1.25515 -4.62542,-2.80849 -7.22898,-3.84026zM283.73124,198.21885c1.53271,0.84185 3.00598,1.76015 4.62373,2.56786c5.62055,2.80622 11.53941,4.93596 17.29505,7.44616c1.38798,0.37783 2.79329,0.69691 4.16392,1.13347c0.30764,0.09799 0.70766,0.19982 1.10736,0.32204c-0.07328,-0.27059 -0.15004,-0.54022 -0.27305,-0.78435c-0.4561,-0.90509 -1.05146,-1.73375 -1.53858,-2.62253c-2.07995,-3.79501 -4.77155,-7.4626 -6.72133,-11.28882c-0.31428,-0.61675 -0.09534,-1.43431 -0.45385,-2.02643c-0.16362,-0.27025 -0.61649,-0.33479 -0.91732,-0.23829c-0.77337,0.24809 -1.3406,0.96414 -2.11442,1.21082c-0.99636,0.31763 -2.09888,0.16568 -3.10443,0.45289c-4.08758,1.16749 -8.1005,2.38607 -12.06707,3.82719z" fill="#9966ff"/><path d="M246.53457,187.07224c-0.50493,-0.58208 -0.87819,-1.16868 -1.14121,-1.91864l-0.35993,0.14397l-0.48947,-1.22368c-0.06432,-0.15061 -0.09993,-0.31643 -0.09993,-0.49056c0,-0.56154 0.37027,-1.0366 0.87999,-1.19433c-0.0832,-0.16739 -0.12999,-0.35607 -0.12999,-0.55567c0,-0.69035 0.55964,-1.25 1.25,-1.25c0.10968,0 0.21606,0.01413 0.31742,0.04066l0.51057,0.12201c-0.23057,-0.29458 -0.45369,-0.59679 -0.67138,-0.9139l-0.26642,0.22202l-1.5952,-1.91425c-0.18403,-0.21769 -0.29498,-0.49916 -0.29498,-0.80653c0,-0.69036 0.55964,-1.25 1.25,-1.25c0.27621,0 0.53149,0.08959 0.73838,0.24129l1.73816,1.24154l-0.00423,0.00592l0.02214,0.00711c1.75633,1.35068 3.51126,2.68809 5.33181,3.94373l-0.33546,-0.44597c-0.16216,-0.21083 -0.25858,-0.47486 -0.25858,-0.7614c0,-0.69036 0.55965,-1.25 1.25,-1.25c0.34518,0 0.65768,0.13991 0.88389,0.36611l1.69576,1.69576c0.49428,0.31019 1.25697,0.67793 2.01447,1.10518c-1.20623,-2.12315 -2.63425,-4.2885 -2.79802,-6.38467c-0.00692,-0.08858 -0.00889,-0.17677 -0.00659,-0.26462h-0.02175v-1.5c0,-0.69036 0.55964,-1.25 1.25,-1.25c0.3102,0 0.59401,0.113 0.81251,0.30006l1.20934,1.02171l-0.02543,0.0301l0.12031,0.05892c0.10323,0.13209 0.2156,0.26753 0.33579,0.40596c-0.21169,-1.25333 -0.43337,-2.59845 -0.43551,-2.61125c0,0 -0.20549,-1.23299 1.0275,-1.43849c1.23299,-0.2055 1.43849,1.02749 1.43849,1.02749c0.23685,1.42109 0.15395,2.92881 0.68758,4.26703c0.86685,2.17382 2.7731,4.16169 3.96507,6.16615l-0.00578,0.1457l0.05599,-0.01866l0.49077,1.47232c0.0475,0.1321 0.07337,0.27451 0.07337,0.42296c0,0.69036 -0.55965,1.25 -1.25,1.25c-0.47329,0 -0.88513,-0.26303 -1.09734,-0.65089l-0.98796,-1.72893l0.06408,-0.03662c-1.12655,-1.09214 -2.20614,-2.22865 -3.24496,-3.40447c0.83991,1.67983 1.67477,3.36568 2.19431,5.15051l0.47193,1.17984c0.06433,0.15061 0.09993,0.31643 0.09993,0.49056c0,0.69036 -0.55965,1.25 -1.25,1.25c0,0.69036 -0.55965,1.25 -1.25,1.25c-0.26266,0 -0.5064,-0.08101 -0.7076,-0.21942l-2.0659,-1.37727l0.15488,-0.23233c-1.34485,-0.60766 -2.6328,-1.30801 -3.8851,-2.07383c-0.04958,0.64495 -0.58862,1.15284 -1.24628,1.15284c-0.29903,0 -0.57352,-0.105 -0.78864,-0.28013l-1.87084,-1.49667c-0.22676,-0.08364 -0.45336,-0.16769 -0.67978,-0.25224c0.04072,0.05093 0.08062,0.10051 0.11971,0.14823l1.15094,1.29712c0.19813,0.22119 0.31861,0.51337 0.31861,0.83369c0,0.46909 -0.25839,0.87782 -0.64059,1.09164l1.02447,1.02447l-0.58506,0.58506c0.19998,0.38919 0.39996,0.77838 0.59994,1.16757l-1.3135,-0.42484l-0.43862,0.46947l-1.00082,-0.93504c-0.5994,-0.56052 -1.11862,-1.02947 -1.56553,-1.46514l-0.35944,-0.28575c0,0 -0.23247,-0.18531 -0.3803,-0.48856z" fill="#6112ff"/><path d="M280.94402,162.08334c0,1.25 -1.25,1.25 -1.25,1.25l-0.2945,-0.01701c-1.29188,0.20664 -2.13428,0.44687 -3.0363,0.61001l-0.11608,0.06633l0.09217,0.27652l-1.47232,0.49077c-0.1321,0.04749 -0.27451,0.07337 -0.42297,0.07337c-0.55993,0 -1.03388,-0.36816 -1.19297,-0.87562c-0.04576,0.02229 -0.09175,0.04468 -0.13795,0.06716l-0.05615,-0.00172l0.00833,0.02144l-1.14204,0.44358c-0.14758,0.06131 -0.30945,0.09516 -0.47922,0.09516c-0.69036,0 -1.25,-0.55964 -1.25,-1.25c0,-0.41415 0.20142,-0.78127 0.51164,-1.00873l0.59137,-0.44353c-0.23431,0.0274 -0.4696,0.05061 -0.70607,0.0693l0.06192,0.36539l-1.99442,0.33801c-0.07527,0.01415 -0.15292,0.02155 -0.2323,0.02155c-0.69035,0 -1.25,-0.55964 -1.25,-1.25c0,-0.43617 0.2234,-0.82016 0.56202,-1.0438l2.05129,-1.39626l0.0104,0.01528l0.0441,-0.05034c0.41297,-0.22198 0.80323,-0.49258 1.18079,-0.7698c-0.20533,-0.22272 -0.33075,-0.52024 -0.33075,-0.84705c0,-0.28596 0.09602,-0.54948 0.25758,-0.7601l0.74242,-0.9899l0.00489,0.00366l0.00214,-0.00591c-1.24688,0.1928 -2.46767,0.2246 -3.02107,-0.26686c-0.62034,-0.55092 0.58535,-3.17117 1.37064,-4.48648c-0.00117,0.00046 -0.00233,0.0009 -0.00349,0.00133c-0.42276,0.15716 -0.90207,0.00284 -1.3531,0.00426c0,0 -1.25,0 -1.25,-1.25c0,-1.25 1.25,-1.25 1.25,-1.25c0.7267,0.0027 3.58337,-0.01071 3.68791,0.17366c0.58463,1.03107 -0.26664,2.35609 -0.44456,3.52793c-0.05024,0.33086 -0.04824,0.69049 -0.1265,1.01585c0.88289,-0.35777 1.98619,-0.48339 2.52431,-0.60899l0.01619,0.00203l-0.00109,-0.00526l1.56466,-0.32396c0.08974,-0.02047 0.18315,-0.03127 0.27909,-0.03127c0.69035,0 1.25,0.55964 1.25,1.25c0,0.41415 -0.20141,0.78127 -0.51164,1.00873l-0.98836,0.74127l-0.18255,-0.2434c-0.28078,0.2962 -0.56318,0.57599 -0.85228,0.87281l1.17222,-0.326c0.11477,-0.03473 0.2365,-0.0534 0.36261,-0.0534c0.69035,0 1.25,0.55964 1.25,1.25c0,0.52567 -0.32448,0.97556 -0.78408,1.16028l-0.36062,0.15455c0.79316,-0.17319 1.52692,-0.34301 2.12112,-0.54126l2.10061,-0.7002c0.1321,-0.04749 0.27451,-0.07337 0.42297,-0.07337c0.69035,0 1.25,0.55964 1.25,1.25c0,0.42123 -0.20836,0.7938 -0.52764,1.02027l-0.98337,0.71518c0.16363,0.21135 0.26101,0.47658 0.26101,0.76456c0,0.39855 -0.18652,0.75353 -0.47703,0.98242c0.13459,0.18018 0.22703,0.42767 0.22703,0.76758z" fill="#6112ff"/><path d="M329.6374,175.8734l-0.95098,0.60886l-1.7246,0.73911c-0.15777,0.0719 -0.3331,0.11196 -0.5178,0.11196c-0.69036,0 -1.25,-0.55965 -1.25,-1.25c0,-0.01194 0.00016,-0.02385 0.0005,-0.03571c-1.83141,0.66121 -3.55592,1.42487 -5.36414,2.04418l0.15681,0.34497l-2.25149,1.02341c-0.16388,0.07892 -0.34762,0.12315 -0.54168,0.12315c-0.69036,0 -1.25,-0.55965 -1.25,-1.25c0,-0.02198 0.00057,-0.04383 0.00169,-0.06553c-0.47524,0.28804 -0.96093,0.53617 -1.46266,0.7178c-0.3897,0.23218 -0.78124,0.46151 -1.17541,0.68674l-0.00777,0.00151l0.0012,0.00216l-2.16555,1.20308c-0.18429,0.10704 -0.39844,0.16834 -0.6269,0.16834c-0.69036,0 -1.25,-0.55965 -1.25,-1.25c0,-0.4576 0.24588,-0.85776 0.61273,-1.07559l2.10921,-1.30053l0.05898,0.09565l0.04248,-0.0236c0.91131,-0.52084 1.82013,-1.09993 2.7353,-1.68899c-1.38581,0.52141 -2.78297,0.99585 -4.19403,1.38181l0.1139,0.25058l-2.25149,1.02341c-0.16388,0.07892 -0.34762,0.12315 -0.54168,0.12315c-0.69036,0 -1.25,-0.55965 -1.25,-1.25c0,-0.41416 0.20142,-0.78127 0.51164,-1.00873l0.98836,-0.74127c2.4348,-1.82452 5.04089,-3.33247 7.41695,-5.23339c0.64041,-0.51235 1.28848,-1.01525 1.92207,-1.53601c0.16353,-0.13441 0.32077,-0.27704 0.47692,-0.42102c-0.63448,0.22251 -1.30106,0.3738 -1.86465,0.60887c-2.77549,1.15764 -5.24759,2.72542 -7.86179,4.08884l0.15131,0.19454l-1.96459,1.52801c-0.21322,0.16914 -0.48292,0.27015 -0.77622,0.27015c-0.69036,0 -1.25,-0.55965 -1.25,-1.25c0,-0.31712 0.11809,-0.60665 0.31268,-0.82703l0.94963,-1.08696l0.04383,0.0383l0.04634,-0.1313c0.91323,-0.691 1.77653,-1.44697 2.66409,-2.17095c-1.19934,0.65043 -2.43179,1.26269 -3.41255,1.37676c-0.0729,0.00848 -0.14578,0.01491 -0.21866,0.0195l0.00267,0.02404l-2.23195,0.248c-0.05113,0.00637 -0.10323,0.00965 -0.15609,0.00965c-0.69036,0 -1.25,-0.55965 -1.25,-1.25c0,-0.39587 0.18402,-0.74876 0.47118,-0.97779l1.46666,-1.18926c0.82378,-0.71524 1.79517,-1.70436 2.83221,-2.60452c-1.07754,0.37316 -2.15395,0.63709 -3.03497,0.52148c-0.95758,-0.12566 -2.53489,-0.3491 -2.58243,-1.31372c-0.06216,-1.26138 1.46084,-2.07986 2.37209,-2.95427c0.0007,-0.00068 0.00141,-0.00136 0.00212,-0.00204c-0.04969,0.01341 -0.09606,0.02639 -0.1384,0.03893c-0.80487,0.23846 -1.62653,0.42201 -2.45693,0.56197l0.05928,0.21738l-2.38429,0.65026c-0.11298,0.03356 -0.23264,0.05158 -0.35652,0.05158c-0.69036,0 -1.25,-0.55964 -1.25,-1.25c0,-0.28596 0.09602,-0.54948 0.25758,-0.7601l0.74242,-0.9899l0.02617,0.01963l0.02952,-0.08863c0.57534,-0.5771 1.08839,-1.28267 1.61684,-1.95155c-0.28864,0.0822 -0.57843,0.16009 -0.86935,0.23324c0,0 -1.21267,0.30317 -1.51585,-0.90951c-0.30317,-1.21268 0.90951,-1.51585 0.90951,-1.51585c1.41753,-0.3522 2.8046,-0.83231 4.16012,-1.37639l1.40249,-0.561c0.15062,-0.06432 0.31643,-0.09993 0.49056,-0.09993c0.69036,0 1.25,0.55964 1.25,1.25c0,0.34518 -0.13991,0.65768 -0.36612,0.88388l-1.5,1.5l-0.11141,-0.11141c-0.43234,0.63988 -0.8853,1.25388 -1.37038,1.85548c0.95499,-0.3764 1.97796,-0.5938 2.94099,-0.61806c0.81766,-0.0206 2.03754,-0.24343 2.40485,0.48737c0.55563,1.10547 0.13082,2.44408 -0.71024,3.44428c0.86773,-0.28425 1.72649,-0.59716 2.59289,-0.88571l0.02801,-0.00069l-0.00201,-0.00704l1.72224,-0.49207c0.11726,-0.03642 0.24192,-0.05603 0.37116,-0.05603c0.69036,0 1.25,0.55964 1.25,1.25c0,0.23358 -0.06407,0.45219 -0.17559,0.63923l-0.98911,1.73094l-0.01635,-0.00934c-0.03207,0.06095 -0.0658,0.12116 -0.10136,0.18055c-0.16967,0.28337 -0.38902,0.56355 -0.64467,0.83998c0.94547,-0.34921 1.84151,-0.61676 2.57663,-0.77439c1.06381,-0.22812 2.49138,-0.99119 3.25672,-0.21788c0.3721,0.37598 0.38948,0.93181 0.25245,1.50856c0.59589,-0.17782 1.14411,-0.30891 1.61512,-0.38619c1.18455,-0.19434 2.65754,-0.90381 3.59773,-0.1575c2.23377,1.77316 -1.53336,4.47775 -2.16027,5.02881c-0.24007,0.21102 -0.48289,0.41755 -0.72812,0.6202c1.36907,-0.41881 2.65105,-0.80148 3.66066,-1.20115l0.11914,0.01299l-0.00811,-0.04053l1.22469,-0.24494c0.08709,-0.01921 0.17759,-0.02933 0.27046,-0.02933c0.69036,0 1.25,0.55964 1.25,1.25c0,0.29329 -0.10101,0.563 -0.27015,0.77622l-1.52801,1.96458l-0.01893,-0.01472c-0.02753,0.03627 -0.05563,0.07216 -0.08434,0.10765c1.406,-0.47298 2.89963,-0.78333 4.23659,-1.133l0.08529,0.01389l-0.00335,-0.02689l1.40867,-0.17569c0.05694,-0.00794 0.11511,-0.01204 0.17423,-0.01204c0.69036,0 1.25,0.55964 1.25,1.25c0,0.1754 -0.03613,0.34237 -0.10135,0.49386c0.46121,0.93521 -0.45528,1.54621 -0.45528,1.54621z" fill="#6112ff"/><path d="M309.65169,206.56912c0.30714,0.10017 0.62054,0.33983 0.75502,0.87771c0.30317,1.21268 -0.90951,1.51585 -0.90951,1.51585l-0.5223,0.01341l-1.25,1l-0.41451,-0.51813c-0.43259,0.12524 -0.86518,0.25046 -1.29778,0.3757l0.5511,-1.21396l-0.438,-0.438l-0.35019,0.17509c-0.1737,0.09145 -0.37156,0.14321 -0.58151,0.14321c-0.69036,0 -1.25,-0.55964 -1.25,-1.25c0,-0.21717 0.05539,-0.4214 0.15279,-0.59934l0.8259,-1.58429l0.00444,0.00231l0.00355,-0.01736c0.34509,-0.60975 0.59457,-1.32663 0.93914,-1.95072c-0.14592,0.05917 -0.29188,0.11824 -0.42967,0.18885c-0.73767,0.37806 -1.4776,0.75174 -2.21407,1.13212c-0.82705,0.42717 -1.55152,1.18606 -2.47649,1.2905c-0.10213,0.01153 -0.20397,0.01693 -0.30558,0.01707v0.02086h-1.75v0c-0.69036,0 -1.25,-0.55964 -1.25,-1.25c0,-0.28557 0.09577,-0.54879 0.25694,-0.75927l1.1306,-1.51031c0.21674,-0.39423 0.45371,-0.78987 0.71764,-1.16572c-1.71132,0.95884 -3.66032,2.2438 -5.0442,2.396c-0.10388,0.01143 -0.20753,0.01723 -0.31098,0.01817v0.02113h-2c-0.69036,0 -1.25,-0.55964 -1.25,-1.25c0,-0.29903 0.105,-0.57353 0.28013,-0.78864l0.90686,-1.13357c-0.39651,0.24266 -0.79465,0.44478 -1.19804,0.54565c-0.20536,0.25947 -0.41185,0.51749 -0.61899,0.77415l-0.16456,0.04296l0.0446,0.05946l-0.9899,0.74243c-0.21062,0.16155 -0.47415,0.25757 -0.7601,0.25757c-0.69036,0 -1.25,-0.55964 -1.25,-1.25c0,-0.29903 0.105,-0.57353 0.28013,-0.78864l0.99378,-1.24223l0.24472,0.19577c0.18397,-0.2634 0.38479,-0.60246 0.59945,-0.97181c-1.137,0.18027 -2.28777,0.00148 -3.36808,-0.6931c0,0 -1,-0.75 -0.25,-1.75c0.75,-1 1.75,-0.25 1.75,-0.25c0.93132,1.01684 3.20769,-0.37979 4.19406,-1.11956l0.23732,0.00441l-0.02479,-0.08675l1.72224,-0.49207c0.11726,-0.03641 0.24192,-0.05602 0.37116,-0.05602c0.69036,0 1.25,0.55964 1.25,1.25c0,0.0857 -0.00862,0.16939 -0.02505,0.25025c0.00833,-0.00016 0.01668,-0.00025 0.02505,-0.00025c0.69036,0 1.25,0.55964 1.25,1.25c0,0.13508 -0.02143,0.26515 -0.06107,0.38702l-0.71002,2.36673l-0.38716,-0.11614c-0.06491,0.19279 -0.13569,0.38275 -0.21305,0.56916c1.65104,-1.06907 3.71098,-1.76022 5.4112,-2.35743l1.21053,-0.49551c0.15301,-0.06678 0.32196,-0.10383 0.49957,-0.10383c0.69036,0 1.25,0.55964 1.25,1.25c0,0.20995 -0.05176,0.4078 -0.14321,0.58151l-1.10679,2.21357l-0.1751,-0.08755c-0.13258,0.34896 -0.27355,0.69432 -0.42425,1.03499c1.35339,-0.89369 3.09912,-1.65186 4.11578,-1.89519c0.91344,-0.21863 2.23059,-1.03662 2.80258,-0.29164c0.99076,1.29038 0.3566,3.01907 -0.40222,4.45621c0.34503,0.0811 0.74576,0.3386 1.2171,0.85422c0.29131,0.31867 0.33921,0.74662 0.32378,1.203z" fill="#6112ff"/><path d="M286.20936,182.31721l0.97294,-0.59789c1.5745,-1.56441 3.28544,-3.01901 5.15683,-4.21245c0.65235,-0.41602 1.28666,-0.87729 1.99838,-1.18075c0.42026,-0.17919 1.62816,0.11494 1.34831,-0.24619c-0.3384,-0.43669 -1.14799,0.08377 -1.65109,-0.14453c-1.01662,-0.46132 -1.90848,-1.1699 -2.78081,-1.86659c-3.11014,-2.48391 -6.4042,-5.21745 -9.27541,-7.97163c0.04423,0.16427 0.08488,0.30953 0.12258,0.43125c0.92381,2.98248 2.86548,7.00237 3.13611,10.07172c0.19204,2.17805 -0.99902,3.63159 -0.59508,5.77991l0.65933,1.09889c0.26283,-0.73168 0.9079,-1.16174 0.9079,-1.16174zM278.32773,158.91918c0,0 0.4263,-2.1315 2.5578,-1.7052c2.1315,0.4263 1.7052,2.5578 1.7052,2.5578c-0.88342,1.79293 2.08724,3.24491 3.55366,4.38152c3.43972,2.66607 6.93138,5.388 10.30187,8.16482c1.2558,1.0346 3.44217,1.71104 3.56583,3.33342c0.12873,1.68872 -1.82163,2.88395 -2.99912,4.10125c-1.88306,1.94671 -4.75601,3.02522 -6.75657,5.04063l-1.63552,1.14108c0,0 -1.3965,0.931 -2.55335,-0.07027c-0.20117,0.99249 -1.07852,1.73957 -2.13036,1.73957c-0.19887,0 -0.3915,-0.0267 -0.5745,-0.07672l-3.43066,-0.85766l0.01931,-0.07725c-0.21839,-0.05109 -0.43444,-0.11384 -0.64771,-0.19048c-1.79146,-0.64367 -2.52976,-2.88432 -4.06132,-4.01481l-1.20576,-0.79981c0,0 -0.54745,-0.36496 -0.83917,-0.99449c-0.16939,0.03564 -0.35661,0.05533 -0.56352,0.05533c-2.17372,0 -2.17372,-2.17372 -2.17372,-2.17372c0.02151,-4.85511 1.46367,-10.25112 4.07421,-14.32562c0.97024,-1.51435 1.3908,-4.12484 3.17338,-4.36363c0.15309,-0.02051 0.30086,-0.02466 0.44352,-0.01388c0.07778,-0.28721 0.1463,-0.57283 0.17649,-0.85188zM274.82231,177.59973c0.86421,-0.13765 1.62576,0.37005 1.62576,0.37005l1.4027,0.93916c0.82507,0.62664 1.54901,1.22999 2.18178,1.88927c0.09757,-1.329 0.99281,-2.59515 0.86563,-3.92792c-0.18964,-1.98719 -1.56752,-4.56084 -2.1051,-6.53304c-0.11291,-0.41421 -0.56149,-1.66567 -0.95986,-2.86728c-0.57638,1.0292 -1.31163,1.91486 -1.40832,2.15683c-0.91813,2.29777 -1.5034,5.35713 -1.60259,7.97293z" fill="#66ddff"/><path d="M279.39777,180.84475c-0.69323,1.04016 -1.73339,0.34693 -1.73339,0.34693l-1.42085,-1.28111c-0.21049,-1.19771 -1.34029,-3.30006 -0.40143,-3.54083l-1.08186,-1.21709c-0.19853,-0.22128 -0.31929,-0.51376 -0.31929,-0.83445c0,-0.39084 0.17937,-0.73978 0.46028,-0.969c-0.88763,-0.8015 -1.66849,-1.61777 -2.38538,-2.57673l-0.1384,0.16146l-1.1605,-0.99471c-0.27078,-0.22929 -0.44268,-0.57175 -0.44268,-0.95436c0,-0.69036 0.55964,-1.25 1.25,-1.25c0.2072,0 0.40261,0.05041 0.57466,0.13963l1.30177,0.64045c0.28242,0.13193 0.64503,0.26601 1.04023,0.41205v-0.44597c-0.31054,-0.22351 -0.71094,-0.67984 -0.41668,-1.44489c0.23885,-0.62103 0.68114,-0.78434 1.04261,-0.80125c0.18365,-0.10602 0.39678,-0.16669 0.62407,-0.16669c0.34518,0 0.65768,0.13991 0.88389,0.36611l0.49019,0.49019c0.38655,0.16443 0.7731,0.32887 1.15965,0.4933l0.05439,0.50549l0.22749,-0.0975l0.48912,1.14127c0.0719,0.15777 0.11196,0.3331 0.11196,0.5178c0,0.24015 -0.06772,0.46449 -0.18512,0.65495l0.87965,1.02627c0.19029,0.21933 0.30547,0.50561 0.30547,0.81878c0,0.69036 -0.55965,1.25 -1.25,1.25c-0.05286,0 -0.10496,-0.00328 -0.15609,-0.00965l-0.5987,-0.06653c0.16322,0.1499 0.31746,0.28455 0.46081,0.39826l0.0396,0.07396l0.01851,-0.01802l1.2973,1.33243c0.21981,0.22528 0.35524,0.53327 0.35524,0.87288c0,0.69036 -0.55964,1.25 -1.25,1.25c-0.10745,0 -0.21174,-0.01356 -0.31124,-0.03906c-0.00394,0.12756 -0.0115,0.2629 -0.02285,0.40647c-0.03941,0.49853 -1.29388,-0.0834 -1.44806,0.39233c-0.16492,0.50886 0.59174,0.8913 0.88761,1.33695l0.42111,-0.05352c0,0 1.04016,0.69323 0.34693,1.73339z" fill="#60bcf0"/><path d="M291.40624,180.8772c-0.55901,-1.11803 0.55902,-1.67705 0.55902,-1.67705l0.2853,-0.14133c0.46438,-0.25557 0.94709,-0.48038 1.39316,-0.76672c0.04954,-0.0318 0.09762,-0.06562 0.14469,-0.10086c-1.77697,0.92141 -4.34227,1.41 -5.37602,-0.34089c-0.09832,-0.16654 -0.09661,-0.33182 -0.03224,-0.49631c-0.97798,0.4483 -1.82826,0.75347 -2.76198,0.961l0.06518,0.15207l-1.14126,0.48911c-0.15777,0.0719 -0.33311,0.11195 -0.5178,0.11195c-0.69036,0 -1.25,-0.55964 -1.25,-1.25c0,-0.23358 0.06407,-0.4522 0.17559,-0.63924l0.65578,-1.1476l0.00393,0.00225l0.00272,-0.01375c0.07192,-0.11958 0.14063,-0.23938 0.20699,-0.35869c-0.77497,0.18906 -1.54443,0.259 -2.17889,-0.12574c-0.39855,-0.24168 -0.26597,-2.08177 0.23316,-3.30967c-0.90242,-0.49249 -0.51968,-1.51311 -0.51968,-1.51311c1.15319,-1.68698 2.03617,-4.48285 3.9148,0.15399c0.2189,0.54029 0.0349,1.14568 -0.29891,1.70154c0.46562,-0.29198 0.88393,-0.53521 1.007,-0.61016l1.28742,-0.96556c0.21062,-0.16156 0.47414,-0.25757 0.7601,-0.25757c0.69036,0 1.25,0.55964 1.25,1.25c0,0.29329 -0.10102,0.563 -0.27015,0.77622l-1.15983,1.49121l-0.20056,-0.156c-0.17657,0.33522 -0.35983,0.66113 -0.55285,0.99196c0.38414,-0.12241 0.75774,-0.24581 1.06183,-0.39825l0.02346,-0.0043l-0.00248,-0.00547l1.8089,-0.82223c0.16388,-0.07892 0.34761,-0.12314 0.54168,-0.12314c0.69036,0 1.25,0.55964 1.25,1.25c0,0.18794 -0.04147,0.36619 -0.11577,0.5261l-0.53759,1.22878c0.80572,0.01555 3.70725,-3.65943 5.97514,-1.25742c2.30392,2.44016 -2.34363,5.04067 -3.63139,5.7619l-0.38137,0.192c0,0 -1.11804,0.55902 -1.67705,-0.55902z" fill="#60bcf0"/><path d="M340.48884,191.4037c-1.64418,1.64418 -3.28835,0 -3.28835,0l-0.17237,-0.21711c-2.33153,-1.67196 -5.39232,-2.39201 -7.33523,-4.50307c-2.69706,-2.93049 -1.48126,-5.09098 0.19818,-7.91234c2.18747,-3.67483 5.12483,-7.21824 8.43113,-9.89411c0,0 1.81569,-1.45255 3.26824,0.36313c1.45255,1.81569 -0.36313,3.26824 -0.36313,3.26824c-1.24679,0.98341 -2.33589,2.09789 -3.34201,3.28762c0.1087,0.07792 0.18877,0.1461 0.23444,0.18717c3.5651,0.63018 7.462,0.50525 10.72002,-1.25669c1.32388,-0.71594 3.43839,-4.08586 3.79216,-4.71294c2.63942,-4.67851 3.51952,-10.42505 3.88587,-15.68025c-0.00784,-14.36246 -0.61493,-31.90807 -9.295,-44.08649c-1.43543,-2.01395 -3.47781,-3.51923 -5.28802,-5.20434c-2.11158,-1.96564 -3.9816,-4.28647 -6.46625,-5.75244c-0.70238,-0.41442 -1.60497,-0.29188 -2.40273,-0.46116c-2.97196,-0.63059 -5.95852,-1.20787 -8.96627,-1.63638c0,0 -2.30184,-0.32883 -1.97301,-2.63068c0.32883,-2.30184 2.63068,-1.97301 2.63068,-1.97301c3.68735,0.52814 9.49303,0.66989 12.81324,2.5529c0.31796,0.18033 7.06152,6.05802 7.53297,6.49689c2.00532,1.86673 4.22466,3.57483 5.82508,5.79849c9.39204,13.04956 10.24476,31.60569 10.23681,47.06198c-0.57078,7.82456 -2.38556,19.82272 -9.99361,24.25095c-4.37245,2.54497 -9.85473,2.59946 -14.64317,1.66342l-1.43314,-0.95438c-0.4158,0.58316 -0.82959,1.17055 -1.24837,1.75693c-0.08887,0.12444 -1.73962,1.71947 -0.7319,2.31861c2.19577,1.3055 4.53482,2.38645 6.61607,3.86771l0.75771,0.71298c0,0 1.64418,1.64418 0,3.28835z" fill="#000000"/></g></g></svg>